<svg width="281" height="158" viewBox="0 0 281 158" fill="none" xmlns="http://www.w3.org/2000/svg">
<g clip-path="url(#clip0_2541_45)">
<rect width="281" height="158" fill="#CD5742"/>
<g filter="url(#filter0_bd_2541_45)">
<mask id="path-1-outside-1_2541_45" maskUnits="userSpaceOnUse" x="127" y="59" width="26" height="40" fill="black">
<rect fill="white" x="127" y="59" width="26" height="40"/>
<path d="M137.081 97.55C135.101 97.55 133.396 97.3117 131.966 96.835C130.573 96.3217 129.528 95.5883 128.831 94.635C128.538 94.305 128.391 93.9383 128.391 93.535C128.391 93.0583 128.721 92.5633 129.381 92.05L131.856 90.125H132.516L133.121 91.28C133.708 92.4167 134.441 93.315 135.321 93.975C136.201 94.635 137.375 94.965 138.841 94.965C140.821 94.965 142.453 94.25 143.736 92.82C145.056 91.3533 145.716 89.4283 145.716 87.045C145.716 85.395 145.386 83.9467 144.726 82.7C144.066 81.4167 142.966 80.4083 141.426 79.675C139.923 78.9417 137.906 78.575 135.376 78.575C134.533 78.575 133.69 78.63 132.846 78.74C132.003 78.8133 131.086 78.9233 130.096 79.07V60.7H148.851V65.705H132.901V73.185C133.488 73.1483 134.093 73.1117 134.716 73.075C135.34 73.0383 136.018 73.02 136.751 73.02C140.308 73.02 143.168 73.5517 145.331 74.615C147.531 75.6783 149.126 77.0717 150.116 78.795C151.143 80.5183 151.656 82.4067 151.656 84.46C151.656 87.0267 151.033 89.3 149.786 91.28C148.54 93.26 146.816 94.8 144.616 95.9C142.416 97 139.905 97.55 137.081 97.55Z"/>
</mask>
<path d="M137.081 97.55C135.101 97.55 133.396 97.3117 131.966 96.835C130.573 96.3217 129.528 95.5883 128.831 94.635C128.538 94.305 128.391 93.9383 128.391 93.535C128.391 93.0583 128.721 92.5633 129.381 92.05L131.856 90.125H132.516L133.121 91.28C133.708 92.4167 134.441 93.315 135.321 93.975C136.201 94.635 137.375 94.965 138.841 94.965C140.821 94.965 142.453 94.25 143.736 92.82C145.056 91.3533 145.716 89.4283 145.716 87.045C145.716 85.395 145.386 83.9467 144.726 82.7C144.066 81.4167 142.966 80.4083 141.426 79.675C139.923 78.9417 137.906 78.575 135.376 78.575C134.533 78.575 133.69 78.63 132.846 78.74C132.003 78.8133 131.086 78.9233 130.096 79.07V60.7H148.851V65.705H132.901V73.185C133.488 73.1483 134.093 73.1117 134.716 73.075C135.34 73.0383 136.018 73.02 136.751 73.02C140.308 73.02 143.168 73.5517 145.331 74.615C147.531 75.6783 149.126 77.0717 150.116 78.795C151.143 80.5183 151.656 82.4067 151.656 84.46C151.656 87.0267 151.033 89.3 149.786 91.28C148.54 93.26 146.816 94.8 144.616 95.9C142.416 97 139.905 97.55 137.081 97.55Z" fill="white"/>
<path d="M131.966 96.835L131.621 97.7733L131.635 97.7787L131.65 97.7837L131.966 96.835ZM128.831 94.635L129.639 94.045L129.611 94.0064L129.579 93.9706L128.831 94.635ZM129.381 92.05L128.767 91.2606L129.381 92.05ZM131.856 90.125V89.125H131.513L131.242 89.3356L131.856 90.125ZM132.516 90.125L133.402 89.661L133.121 89.125H132.516V90.125ZM133.121 91.28L134.01 90.8214L134.007 90.816L133.121 91.28ZM143.736 92.82L142.993 92.151L142.992 92.1521L143.736 92.82ZM144.726 82.7L143.837 83.1574L143.843 83.1679L144.726 82.7ZM141.426 79.675L140.988 80.5738L140.996 80.5779L141.426 79.675ZM132.846 78.74L132.933 79.7362L132.954 79.7344L132.976 79.7316L132.846 78.74ZM130.096 79.07H129.096V80.2291L130.243 80.0592L130.096 79.07ZM130.096 60.7V59.7H129.096V60.7H130.096ZM148.851 60.7H149.851V59.7H148.851V60.7ZM148.851 65.705V66.705H149.851V65.705H148.851ZM132.901 65.705V64.705H131.901V65.705H132.901ZM132.901 73.185H131.901V74.2495L132.964 74.1831L132.901 73.185ZM134.716 73.075L134.658 72.0767H134.658L134.716 73.075ZM145.331 74.615L144.89 75.5125L144.896 75.5154L145.331 74.615ZM150.116 78.795L149.249 79.2931L149.253 79.3L149.257 79.3068L150.116 78.795ZM149.786 91.28L148.94 90.7472V90.7472L149.786 91.28ZM144.616 95.9L144.169 95.0056L144.616 95.9ZM137.081 96.55C135.177 96.55 133.584 96.3202 132.283 95.8863L131.65 97.7837C133.208 98.3031 135.026 98.55 137.081 98.55V96.55ZM132.312 95.8967C131.056 95.4339 130.192 94.8027 129.639 94.045L128.024 95.225C128.864 96.3739 130.09 97.2094 131.621 97.7733L132.312 95.8967ZM129.579 93.9706C129.431 93.805 129.391 93.6695 129.391 93.535H127.391C127.391 94.2072 127.645 94.805 128.084 95.2994L129.579 93.9706ZM129.391 93.535C129.391 93.5333 129.391 93.5215 129.4 93.4956C129.409 93.4684 129.429 93.4235 129.471 93.361C129.558 93.231 129.719 93.0546 129.995 92.8394L128.767 91.2606C128.041 91.826 127.391 92.5796 127.391 93.535H129.391ZM129.995 92.8394L132.47 90.9144L131.242 89.3356L128.767 91.2606L129.995 92.8394ZM131.856 91.125H132.516V89.125H131.856V91.125ZM131.631 90.589L132.236 91.744L134.007 90.816L133.402 89.661L131.631 90.589ZM132.233 91.7386C132.877 92.9876 133.702 94.0108 134.721 94.775L135.921 93.175C135.18 92.6192 134.539 91.8457 134.01 90.8214L132.233 91.7386ZM134.721 94.775C135.824 95.6021 137.23 95.965 138.841 95.965V93.965C137.519 93.965 136.579 93.6679 135.921 93.175L134.721 94.775ZM138.841 95.965C141.095 95.965 143.001 95.1365 144.481 93.4879L142.992 92.1521C141.905 93.3635 140.547 93.965 138.841 93.965V95.965ZM144.48 93.489C145.998 91.8022 146.716 89.6214 146.716 87.045H144.716C144.716 89.2353 144.115 90.9045 142.993 92.151L144.48 93.489ZM146.716 87.045C146.716 85.2596 146.358 83.6456 145.61 82.2321L143.843 83.1679C144.414 84.2477 144.716 85.5304 144.716 87.045H146.716ZM145.616 82.2427C144.838 80.7307 143.557 79.5819 141.856 78.7721L140.996 80.5779C142.376 81.2348 143.295 82.1026 143.837 83.1573L145.616 82.2427ZM141.865 78.7762C140.173 77.9509 137.987 77.575 135.376 77.575V79.575C137.825 79.575 139.673 79.9324 140.988 80.5738L141.865 78.7762ZM135.376 77.575C134.489 77.575 133.603 77.6329 132.717 77.7484L132.976 79.7316C133.776 79.6271 134.577 79.575 135.376 79.575V77.575ZM132.76 77.7438C131.893 77.8191 130.956 77.9317 129.95 78.0808L130.243 80.0592C131.216 79.915 132.113 79.8076 132.933 79.7362L132.76 77.7438ZM131.096 79.07V60.7H129.096V79.07H131.096ZM130.096 61.7H148.851V59.7H130.096V61.7ZM147.851 60.7V65.705H149.851V60.7H147.851ZM148.851 64.705H132.901V66.705H148.851V64.705ZM131.901 65.705V73.185H133.901V65.705H131.901ZM132.964 74.1831C133.549 74.1465 134.153 74.1099 134.775 74.0733L134.658 72.0767C134.033 72.1135 133.427 72.1502 132.839 72.1869L132.964 74.1831ZM134.775 74.0733C135.376 74.0379 136.034 74.02 136.751 74.02V72.02C136.002 72.02 135.304 72.0387 134.658 72.0767L134.775 74.0733ZM136.751 74.02C140.222 74.02 142.914 74.5409 144.89 75.5124L145.772 73.7176C143.422 72.5624 140.394 72.02 136.751 72.02V74.02ZM144.896 75.5154C146.957 76.5114 148.38 77.7807 149.249 79.2931L150.983 78.2969C149.872 76.3626 148.106 74.8453 145.767 73.7146L144.896 75.5154ZM149.257 79.3068C150.189 80.8716 150.656 82.5824 150.656 84.46H152.656C152.656 82.231 152.097 80.1651 150.975 78.2832L149.257 79.3068ZM150.656 84.46C150.656 86.8571 150.077 88.9421 148.94 90.7472L150.633 91.8128C151.989 89.6579 152.656 87.1963 152.656 84.46H150.656ZM148.94 90.7472C147.796 92.5644 146.214 93.983 144.169 95.0056L145.064 96.7944C147.418 95.617 149.283 93.9557 150.633 91.8128L148.94 90.7472ZM144.169 95.0056C142.127 96.0265 139.772 96.55 137.081 96.55V98.55C140.037 98.55 142.705 97.9735 145.064 96.7944L144.169 95.0056Z" fill="black" mask="url(#path-1-outside-1_2541_45)"/>
</g>
<circle cx="-30" cy="86" r="125" fill="#6A0404"/>
</g>
<defs>
<filter id="filter0_bd_2541_45" x="124.391" y="56.7" width="31.265" height="48.8501" filterUnits="userSpaceOnUse" color-interpolation-filters="sRGB">
<feFlood flood-opacity="0" result="BackgroundImageFix"/>
<feGaussianBlur in="BackgroundImageFix" stdDeviation="2"/>
<feComposite in2="SourceAlpha" operator="in" result="effect1_backgroundBlur_2541_45"/>
<feColorMatrix in="SourceAlpha" type="matrix" values="0 0 0 0 0 0 0 0 0 0 0 0 0 0 0 0 0 0 127 0" result="hardAlpha"/>
<feOffset dy="4"/>
<feGaussianBlur stdDeviation="2"/>
<feComposite in2="hardAlpha" operator="out"/>
<feColorMatrix type="matrix" values="0 0 0 0 0 0 0 0 0 0 0 0 0 0 0 0 0 0 0.25 0"/>
<feBlend mode="normal" in2="effect1_backgroundBlur_2541_45" result="effect2_dropShadow_2541_45"/>
<feBlend mode="normal" in="SourceGraphic" in2="effect2_dropShadow_2541_45" result="shape"/>
</filter>
<clipPath id="clip0_2541_45">
<rect width="281" height="158" fill="white"/>
</clipPath>
</defs>
</svg>
