<svg width="281" height="158" viewBox="0 0 281 158" fill="none" xmlns="http://www.w3.org/2000/svg">
<rect width="281" height="158" fill="#CD5742"/>
<circle cx="39" cy="25" r="5" fill="#F2A395"/>
<circle cx="49" cy="122" r="5" fill="#F2A395"/>
<circle cx="136" cy="30" r="5" fill="#F2A395"/>
<circle cx="173" cy="97" r="5" fill="#F2A395"/>
<circle cx="24" cy="61" r="5" fill="#F2A395"/>
<circle cx="87" cy="74" r="5" fill="#F2A395"/>
<circle cx="126" cy="132" r="5" fill="#F2A395"/>
<circle cx="190" cy="79" r="5" fill="#F2A395"/>
<circle cx="239" cy="25" r="5" fill="#F2A395"/>
<circle cx="249" cy="102" r="5" fill="#F2A395"/>
<circle cx="217" cy="142" r="5" fill="#F2A395"/>
<g filter="url(#filter0_bd_2541_57)">
<mask id="path-12-outside-1_2541_57" maskUnits="userSpaceOnUse" x="114" y="59" width="56" height="39" fill="black">
<rect fill="white" x="114" y="59" width="56" height="39"/>
<path d="M119.763 97V96.12L124.878 94.085V66.64L115.528 71.04V68.95L129.058 60.7H131.533V94.085L136.098 96.12V97H119.763ZM143.86 97V95.24C146.903 91.83 149.415 88.97 151.395 86.66C153.412 84.35 154.988 82.4067 156.125 80.83C157.298 79.2533 158.16 77.8783 158.71 76.705C159.26 75.5317 159.608 74.395 159.755 73.295C159.902 72.1583 159.975 70.8933 159.975 69.5C159.975 67.5567 159.498 65.9617 158.545 64.715C157.592 63.4683 156.29 62.845 154.64 62.845C150.9 62.845 149.03 64.9167 149.03 69.06V71.59L148.7 72.03H145.455C144.722 72.03 144.172 71.9017 143.805 71.645C143.438 71.3883 143.255 70.7467 143.255 69.72C143.255 68.6933 143.567 67.6667 144.19 66.64C144.85 65.5767 145.858 64.55 147.215 63.56C148.168 62.9 149.085 62.3133 149.965 61.8C150.845 61.2867 151.817 60.8833 152.88 60.59C153.98 60.2967 155.263 60.15 156.73 60.15C158.783 60.15 160.598 60.59 162.175 61.47C163.788 62.35 165.035 63.5233 165.915 64.99C166.832 66.4567 167.29 68.0883 167.29 69.885C167.29 71.0583 167.143 72.14 166.85 73.13C166.593 74.12 166.117 75.1467 165.42 76.21C164.723 77.2733 163.733 78.4833 162.45 79.84C161.203 81.1967 159.608 82.8283 157.665 84.735C155.722 86.605 153.338 88.86 150.515 91.5H164.485L167.51 86.11H168.39L167.84 97H143.86Z"/>
</mask>
<path d="M119.763 97V96.12L124.878 94.085V66.64L115.528 71.04V68.95L129.058 60.7H131.533V94.085L136.098 96.12V97H119.763ZM143.86 97V95.24C146.903 91.83 149.415 88.97 151.395 86.66C153.412 84.35 154.988 82.4067 156.125 80.83C157.298 79.2533 158.16 77.8783 158.71 76.705C159.26 75.5317 159.608 74.395 159.755 73.295C159.902 72.1583 159.975 70.8933 159.975 69.5C159.975 67.5567 159.498 65.9617 158.545 64.715C157.592 63.4683 156.29 62.845 154.64 62.845C150.9 62.845 149.03 64.9167 149.03 69.06V71.59L148.7 72.03H145.455C144.722 72.03 144.172 71.9017 143.805 71.645C143.438 71.3883 143.255 70.7467 143.255 69.72C143.255 68.6933 143.567 67.6667 144.19 66.64C144.85 65.5767 145.858 64.55 147.215 63.56C148.168 62.9 149.085 62.3133 149.965 61.8C150.845 61.2867 151.817 60.8833 152.88 60.59C153.98 60.2967 155.263 60.15 156.73 60.15C158.783 60.15 160.598 60.59 162.175 61.47C163.788 62.35 165.035 63.5233 165.915 64.99C166.832 66.4567 167.29 68.0883 167.29 69.885C167.29 71.0583 167.143 72.14 166.85 73.13C166.593 74.12 166.117 75.1467 165.42 76.21C164.723 77.2733 163.733 78.4833 162.45 79.84C161.203 81.1967 159.608 82.8283 157.665 84.735C155.722 86.605 153.338 88.86 150.515 91.5H164.485L167.51 86.11H168.39L167.84 97H143.86Z" fill="white"/>
<path d="M119.763 97H118.763V98H119.763V97ZM119.763 96.12L119.393 95.1908L118.763 95.4416V96.12H119.763ZM124.878 94.085L125.247 95.0142L125.878 94.7634V94.085H124.878ZM124.878 66.64H125.878V65.0642L124.452 65.7352L124.878 66.64ZM115.528 71.04H114.528V72.6158L115.953 71.9448L115.528 71.04ZM115.528 68.95L115.007 68.0962L114.528 68.3885V68.95H115.528ZM129.058 60.7V59.7H128.777L128.537 59.8462L129.058 60.7ZM131.533 60.7H132.533V59.7H131.533V60.7ZM131.533 94.085H130.533V94.7341L131.126 94.9984L131.533 94.085ZM136.098 96.12H137.098V95.4709L136.505 95.2066L136.098 96.12ZM136.098 97V98H137.098V97H136.098ZM120.763 97V96.12H118.763V97H120.763ZM120.132 97.0492L125.247 95.0142L124.508 93.1558L119.393 95.1908L120.132 97.0492ZM125.878 94.085V66.64H123.878V94.085H125.878ZM124.452 65.7352L115.102 70.1352L115.953 71.9448L125.303 67.5448L124.452 65.7352ZM116.528 71.04V68.95H114.528V71.04H116.528ZM116.048 69.8038L129.578 61.5538L128.537 59.8462L115.007 68.0962L116.048 69.8038ZM129.058 61.7H131.533V59.7H129.058V61.7ZM130.533 60.7V94.085H132.533V60.7H130.533ZM131.126 94.9984L135.691 97.0334L136.505 95.2066L131.94 93.1716L131.126 94.9984ZM135.098 96.12V97H137.098V96.12H135.098ZM136.098 96H119.763V98H136.098V96ZM143.86 97H142.86V98H143.86V97ZM143.86 95.24L143.114 94.5741L142.86 94.8587V95.24H143.86ZM151.395 86.66L150.642 86.0023L150.636 86.0092L151.395 86.66ZM156.125 80.83L155.323 80.233L155.318 80.2391L155.314 80.2452L156.125 80.83ZM158.71 76.705L159.615 77.1294L158.71 76.705ZM159.755 73.295L160.746 73.4272L160.747 73.423L159.755 73.295ZM158.545 64.715L157.751 65.3224L157.751 65.3225L158.545 64.715ZM149.03 71.59L149.83 72.19L150.03 71.9233V71.59H149.03ZM148.7 72.03V73.03H149.2L149.5 72.63L148.7 72.03ZM144.19 66.64L143.34 66.1126L143.335 66.121L144.19 66.64ZM147.215 63.56L146.646 62.7378L146.636 62.7449L146.626 62.7522L147.215 63.56ZM149.965 61.8L149.461 60.9362L149.965 61.8ZM152.88 60.59L152.622 59.6237L152.614 59.626L152.88 60.59ZM162.175 61.47L161.688 62.3432L161.696 62.3479L162.175 61.47ZM165.915 64.99L165.058 65.5045L165.062 65.5123L165.067 65.52L165.915 64.99ZM166.85 73.13L165.891 72.8459L165.886 72.8624L165.882 72.879L166.85 73.13ZM165.42 76.21L166.256 76.758L165.42 76.21ZM162.45 79.84L161.724 79.1528L161.719 79.1581L161.714 79.1634L162.45 79.84ZM157.665 84.735L158.358 85.4556L158.365 85.4488L157.665 84.735ZM150.515 91.5L149.832 90.7696L147.981 92.5H150.515V91.5ZM164.485 91.5V92.5H165.07L165.357 91.9894L164.485 91.5ZM167.51 86.11V85.11H166.924L166.638 85.6206L167.51 86.11ZM168.39 86.11L169.389 86.1604L169.442 85.11H168.39V86.11ZM167.84 97V98H168.791L168.839 97.0504L167.84 97ZM144.86 97V95.24H142.86V97H144.86ZM144.606 95.9059C147.652 92.4931 150.168 89.6277 152.154 87.3108L150.636 86.0092C148.662 88.3123 146.155 91.1669 143.114 94.5741L144.606 95.9059ZM152.148 87.3177C154.175 84.996 155.774 83.0267 156.936 81.4148L155.314 80.2452C154.203 81.7867 152.648 83.704 150.642 86.0023L152.148 87.3177ZM156.927 81.427C158.122 79.821 159.026 78.3862 159.615 77.1294L157.805 76.2806C157.294 77.3705 156.474 78.6856 155.323 80.233L156.927 81.427ZM159.615 77.1294C160.202 75.8788 160.584 74.6437 160.746 73.4272L158.764 73.1628C158.633 74.1463 158.318 75.1846 157.805 76.2806L159.615 77.1294ZM160.747 73.423C160.9 72.236 160.975 70.9274 160.975 69.5H158.975C158.975 70.8593 158.903 72.0807 158.763 73.167L160.747 73.423ZM160.975 69.5C160.975 67.3905 160.455 65.5668 159.339 64.1075L157.751 65.3225C158.541 66.3566 158.975 67.7228 158.975 69.5H160.975ZM159.339 64.1075C158.186 62.599 156.583 61.845 154.64 61.845V63.845C155.997 63.845 156.998 64.3376 157.751 65.3224L159.339 64.1075ZM154.64 61.845C152.588 61.845 150.873 62.418 149.69 63.7287C148.525 65.0199 148.03 66.858 148.03 69.06H150.03C150.03 67.1186 150.47 65.8493 151.175 65.0688C151.862 64.3078 152.952 63.845 154.64 63.845V61.845ZM148.03 69.06V71.59H150.03V69.06H148.03ZM148.23 70.99L147.9 71.43L149.5 72.63L149.83 72.19L148.23 70.99ZM148.7 71.03H145.455V73.03H148.7V71.03ZM145.455 71.03C144.808 71.03 144.5 70.9112 144.378 70.8258L143.232 72.4642C143.843 72.8922 144.636 73.03 145.455 73.03V71.03ZM144.378 70.8258C144.456 70.8801 144.412 70.9009 144.354 70.6965C144.298 70.4994 144.255 70.1846 144.255 69.72H142.255C142.255 70.282 142.304 70.8014 142.431 71.246C142.556 71.6832 142.787 72.1533 143.232 72.4642L144.378 70.8258ZM144.255 69.72C144.255 68.9055 144.5 68.0561 145.045 67.159L143.335 66.121C142.633 67.2772 142.255 68.4812 142.255 69.72H144.255ZM145.04 67.1674C145.613 66.2438 146.518 65.3064 147.804 64.3678L146.626 62.7522C145.198 63.7936 144.087 64.9095 143.34 66.1126L145.04 67.1674ZM147.784 64.3822C148.719 63.7349 149.614 63.1625 150.469 62.6638L149.461 60.9362C148.556 61.4642 147.618 62.0651 146.646 62.7378L147.784 64.3822ZM150.469 62.6638C151.268 62.1974 152.159 61.8262 153.146 61.554L152.614 59.626C151.474 59.9404 150.422 60.3759 149.461 60.9362L150.469 62.6638ZM153.138 61.5562C154.134 61.2907 155.327 61.15 156.73 61.15V59.15C155.2 59.15 153.826 59.3027 152.622 59.6238L153.138 61.5562ZM156.73 61.15C158.636 61.15 160.279 61.5572 161.688 62.3432L162.662 60.5968C160.917 59.6228 158.93 59.15 156.73 59.15V61.15ZM161.696 62.3479C163.165 63.1492 164.276 64.2019 165.058 65.5045L166.772 64.4755C165.794 62.8448 164.411 61.5508 162.654 60.5921L161.696 62.3479ZM165.067 65.52C165.88 66.8214 166.29 68.2681 166.29 69.885H168.29C168.29 67.9086 167.783 66.092 166.763 64.46L165.067 65.52ZM166.29 69.885C166.29 70.975 166.154 71.9597 165.891 72.8459L167.809 73.4141C168.133 72.3203 168.29 71.1416 168.29 69.885H166.29ZM165.882 72.879C165.658 73.7414 165.234 74.6686 164.584 75.662L166.256 76.758C166.999 75.6247 167.528 74.4986 167.818 73.381L165.882 72.879ZM164.584 75.662C163.931 76.6586 162.983 77.8212 161.724 79.1528L163.176 80.5272C164.483 79.1455 165.516 77.8881 166.256 76.758L164.584 75.662ZM161.714 79.1634C160.483 80.5029 158.901 82.1215 156.965 84.0212L158.365 85.4488C160.316 83.5352 161.924 81.8904 163.186 80.5166L161.714 79.1634ZM156.972 84.0144C155.033 85.88 152.653 88.1316 149.832 90.7696L151.198 92.2304C154.023 89.5884 156.41 87.33 158.358 85.4556L156.972 84.0144ZM150.515 92.5H164.485V90.5H150.515V92.5ZM165.357 91.9894L168.382 86.5994L166.638 85.6206L163.613 91.0106L165.357 91.9894ZM167.51 87.11H168.39V85.11H167.51V87.11ZM167.391 86.0596L166.841 96.9496L168.839 97.0504L169.389 86.1604L167.391 86.0596ZM167.84 96H143.86V98H167.84V96Z" fill="black" mask="url(#path-12-outside-1_2541_57)"/>
</g>
<defs>
<filter id="filter0_bd_2541_57" x="111.528" y="56.15" width="60.8623" height="48.85" filterUnits="userSpaceOnUse" color-interpolation-filters="sRGB">
<feFlood flood-opacity="0" result="BackgroundImageFix"/>
<feGaussianBlur in="BackgroundImageFix" stdDeviation="2"/>
<feComposite in2="SourceAlpha" operator="in" result="effect1_backgroundBlur_2541_57"/>
<feColorMatrix in="SourceAlpha" type="matrix" values="0 0 0 0 0 0 0 0 0 0 0 0 0 0 0 0 0 0 127 0" result="hardAlpha"/>
<feOffset dy="4"/>
<feGaussianBlur stdDeviation="2"/>
<feComposite in2="hardAlpha" operator="out"/>
<feColorMatrix type="matrix" values="0 0 0 0 0 0 0 0 0 0 0 0 0 0 0 0 0 0 0.25 0"/>
<feBlend mode="normal" in2="effect1_backgroundBlur_2541_57" result="effect2_dropShadow_2541_57"/>
<feBlend mode="normal" in="SourceGraphic" in2="effect2_dropShadow_2541_57" result="shape"/>
</filter>
</defs>
</svg>
