<svg width="281" height="158" viewBox="0 0 281 158" fill="none" xmlns="http://www.w3.org/2000/svg">
<rect width="281" height="158" fill="#CD5742"/>
<circle cx="140" cy="78" r="45" fill="#6A0404"/>
<rect x="131" y="99" width="18" height="15" fill="#F2A395"/>
<path d="M140 88L152.99 103.75H127.01L140 88Z" fill="#F2A395"/>
<circle cx="117.5" cy="45.5" r="1.5" fill="#F2A395"/>
<circle cx="115.5" cy="67.5" r="1.5" fill="#F2A395"/>
<circle cx="108.5" cy="87.5" r="1.5" fill="#F2A395"/>
<circle cx="140.5" cy="58.5" r="1.5" fill="#F2A395"/>
<circle cx="164.5" cy="86.5" r="1.5" fill="#F2A395"/>
<circle cx="166.5" cy="56.5" r="1.5" fill="#F2A395"/>
<circle cx="137.5" cy="75.5" r="1.5" fill="#F2A395"/>
<circle cx="151" cy="68" r="1" fill="#F2A395"/>
<circle cx="164" cy="103" r="1" fill="#F2A395"/>
<circle cx="119" cy="72" r="1" fill="#F2A395"/>
<circle cx="138" cy="41" r="1" fill="#F2A395"/>
<circle cx="177" cy="75" r="1" fill="#F2A395"/>
<circle cx="120" cy="96" r="1" fill="#F2A395"/>
<circle cx="151" cy="49" r="1" fill="#F2A395"/>
<rect x="138" y="107" width="4" height="8" rx="2" fill="#6A0404"/>
<rect x="112" y="113" width="57" height="12" fill="#1B0909"/>
<g filter="url(#filter0_bd_2541_54)">
<mask id="path-20-outside-1_2541_54" maskUnits="userSpaceOnUse" x="125" y="59" width="29" height="40" fill="black">
<rect fill="white" x="125" y="59" width="29" height="40"/>
<path d="M130.261 97.55V95.735C134.625 94.3783 138.071 92.16 140.601 89.08C143.131 86 144.708 82.3517 145.331 78.135C144.341 79.4183 143.113 80.4267 141.646 81.16C140.216 81.8933 138.566 82.26 136.696 82.26C134.716 82.26 132.993 81.8017 131.526 80.885C130.06 79.9683 128.923 78.7217 128.116 77.145C127.346 75.5317 126.961 73.735 126.961 71.755C126.961 69.775 127.438 67.905 128.391 66.145C129.345 64.3483 130.775 62.9 132.681 61.8C134.588 60.7 136.971 60.15 139.831 60.15C142.435 60.15 144.708 60.7367 146.651 61.91C148.595 63.0467 150.098 64.66 151.161 66.75C152.261 68.8033 152.811 71.1867 152.811 73.9C152.811 77.86 151.895 81.4167 150.061 84.57C148.228 87.7233 145.625 90.4183 142.251 92.655C138.915 94.855 134.918 96.4867 130.261 97.55ZM134.001 70.38C134.001 72.8733 134.478 74.8167 135.431 76.21C136.385 77.6033 137.851 78.3 139.831 78.3C141.041 78.3 142.141 78.025 143.131 77.475C144.121 76.8883 144.946 76.1183 145.606 75.165C145.606 74.7983 145.606 74.4317 145.606 74.065C145.606 70.2883 145.056 67.465 143.956 65.595C142.856 63.6883 141.426 62.735 139.666 62.735C138.346 62.735 137.265 63.12 136.421 63.89C135.578 64.66 134.955 65.65 134.551 66.86C134.185 68.0333 134.001 69.2067 134.001 70.38Z"/>
</mask>
<path d="M130.261 97.55V95.735C134.625 94.3783 138.071 92.16 140.601 89.08C143.131 86 144.708 82.3517 145.331 78.135C144.341 79.4183 143.113 80.4267 141.646 81.16C140.216 81.8933 138.566 82.26 136.696 82.26C134.716 82.26 132.993 81.8017 131.526 80.885C130.06 79.9683 128.923 78.7217 128.116 77.145C127.346 75.5317 126.961 73.735 126.961 71.755C126.961 69.775 127.438 67.905 128.391 66.145C129.345 64.3483 130.775 62.9 132.681 61.8C134.588 60.7 136.971 60.15 139.831 60.15C142.435 60.15 144.708 60.7367 146.651 61.91C148.595 63.0467 150.098 64.66 151.161 66.75C152.261 68.8033 152.811 71.1867 152.811 73.9C152.811 77.86 151.895 81.4167 150.061 84.57C148.228 87.7233 145.625 90.4183 142.251 92.655C138.915 94.855 134.918 96.4867 130.261 97.55ZM134.001 70.38C134.001 72.8733 134.478 74.8167 135.431 76.21C136.385 77.6033 137.851 78.3 139.831 78.3C141.041 78.3 142.141 78.025 143.131 77.475C144.121 76.8883 144.946 76.1183 145.606 75.165C145.606 74.7983 145.606 74.4317 145.606 74.065C145.606 70.2883 145.056 67.465 143.956 65.595C142.856 63.6883 141.426 62.735 139.666 62.735C138.346 62.735 137.265 63.12 136.421 63.89C135.578 64.66 134.955 65.65 134.551 66.86C134.185 68.0333 134.001 69.2067 134.001 70.38Z" fill="white"/>
<path d="M130.261 97.55H129.261V98.8041L130.484 98.5249L130.261 97.55ZM130.261 95.735L129.964 94.7801L129.261 94.9987V95.735H130.261ZM140.601 89.08L139.829 88.4453L140.601 89.08ZM145.331 78.135L146.321 78.2812L146.881 74.4887L144.54 77.5242L145.331 78.135ZM141.646 81.16L141.199 80.2655L141.19 80.2702L141.646 81.16ZM128.116 77.145L127.214 77.5757L127.22 77.5882L127.226 77.6005L128.116 77.145ZM128.391 66.145L129.271 66.6213L129.275 66.6137L128.391 66.145ZM132.681 61.8L132.182 60.9338V60.9338L132.681 61.8ZM146.651 61.91L146.134 62.7661L146.146 62.7732L146.651 61.91ZM151.161 66.75L150.27 67.2035L150.275 67.2129L150.28 67.2222L151.161 66.75ZM150.061 84.57L149.197 84.0674L150.061 84.57ZM142.251 92.655L142.802 93.4899L142.804 93.4884L142.251 92.655ZM135.431 76.21L136.257 75.6453L135.431 76.21ZM143.131 77.475L143.617 78.3492L143.629 78.3424L143.641 78.3353L143.131 77.475ZM145.606 75.165L146.429 75.7342L146.606 75.4774V75.165H145.606ZM143.956 65.595L143.09 66.0947L143.094 66.102L143.956 65.595ZM136.421 63.89L135.747 63.1515V63.1515L136.421 63.89ZM134.551 66.86L133.603 66.5438L133.6 66.5527L133.597 66.5617L134.551 66.86ZM131.261 97.55V95.735H129.261V97.55H131.261ZM130.558 96.6899C135.08 95.284 138.703 92.9668 141.374 89.7147L139.829 88.4453C137.44 91.3532 134.169 93.4727 129.964 94.7801L130.558 96.6899ZM141.374 89.7147C144.027 86.4848 145.673 82.6644 146.321 78.2812L144.342 77.9888C143.743 82.0389 142.235 85.5152 139.829 88.4453L141.374 89.7147ZM144.54 77.5242C143.643 78.6868 142.533 79.5988 141.199 80.2656L142.094 82.0544C143.693 81.2545 145.04 80.1499 146.123 78.7458L144.54 77.5242ZM141.19 80.2702C139.923 80.9201 138.434 81.26 136.696 81.26V83.26C138.699 83.26 140.51 82.8666 142.103 82.0498L141.19 80.2702ZM136.696 81.26C134.876 81.26 133.342 80.8406 132.056 80.037L130.996 81.733C132.644 82.7627 134.557 83.26 136.696 83.26V81.26ZM132.056 80.037C130.747 79.2186 129.733 78.1092 129.007 76.6895L127.226 77.6005C128.113 79.3341 129.372 80.7181 130.996 81.733L132.056 80.037ZM129.019 76.7143C128.32 75.2493 127.961 73.6021 127.961 71.755H125.961C125.961 73.8678 126.373 75.814 127.214 77.5757L129.019 76.7143ZM127.961 71.755C127.961 69.9432 128.396 68.2367 129.271 66.6213L127.512 65.6687C126.48 67.5733 125.961 69.6068 125.961 71.755H127.961ZM129.275 66.6137C130.133 64.9966 131.423 63.6804 133.181 62.6662L132.182 60.9338C130.126 62.1196 128.557 63.7001 127.508 65.6763L129.275 66.6137ZM133.181 62.6662C134.897 61.6763 137.096 61.15 139.831 61.15V59.15C136.847 59.15 134.279 59.7237 132.182 60.9338L133.181 62.6662ZM139.831 61.15C142.28 61.15 144.369 61.7001 146.134 62.7661L147.168 61.0539C145.047 59.7733 142.59 59.15 139.831 59.15V61.15ZM146.146 62.7732C147.917 63.809 149.29 65.2768 150.27 67.2035L152.053 66.2965C150.906 64.0432 149.272 62.2844 147.156 61.0468L146.146 62.7732ZM150.28 67.2222C151.29 69.108 151.811 71.3242 151.811 73.9H153.811C153.811 71.0492 153.233 68.4986 152.043 66.2778L150.28 67.2222ZM151.811 73.9C151.811 77.699 150.934 81.0796 149.197 84.0674L150.926 85.0726C152.855 81.7537 153.811 78.021 153.811 73.9H151.811ZM149.197 84.0674C147.449 87.074 144.958 89.6603 141.699 91.8216L142.804 93.4884C146.291 91.1763 149.007 88.3727 150.926 85.0726L149.197 84.0674ZM141.701 91.8201C138.482 93.9427 134.601 95.5334 130.039 96.5751L130.484 98.5249C135.235 97.44 139.348 95.7673 142.802 93.4899L141.701 91.8201ZM133.001 70.38C133.001 72.9839 133.497 75.1531 134.606 76.7747L136.257 75.6453C135.459 74.4802 135.001 72.7628 135.001 70.38H133.001ZM134.606 76.7747C135.78 78.4905 137.587 79.3 139.831 79.3V77.3C138.116 77.3 136.989 76.7162 136.257 75.6453L134.606 76.7747ZM139.831 79.3C141.199 79.3 142.468 78.9873 143.617 78.3492L142.646 76.6008C141.814 77.0627 140.883 77.3 139.831 77.3V79.3ZM143.641 78.3353C144.756 77.6746 145.687 76.805 146.429 75.7342L144.784 74.5958C144.205 75.4317 143.487 76.102 142.622 76.6147L143.641 78.3353ZM146.606 75.165C146.606 75.1643 146.606 75.1636 146.606 75.1628C146.606 75.1621 146.606 75.1614 146.606 75.1607C146.606 75.16 146.606 75.1593 146.606 75.1586C146.606 75.1578 146.606 75.1571 146.606 75.1564C146.606 75.1557 146.606 75.155 146.606 75.1543C146.606 75.1535 146.606 75.1528 146.606 75.1521C146.606 75.1514 146.606 75.1507 146.606 75.15C146.606 75.1492 146.606 75.1485 146.606 75.1478C146.606 75.1471 146.606 75.1464 146.606 75.1457C146.606 75.1449 146.606 75.1442 146.606 75.1435C146.606 75.1428 146.606 75.1421 146.606 75.1414C146.606 75.1407 146.606 75.1399 146.606 75.1392C146.606 75.1385 146.606 75.1378 146.606 75.1371C146.606 75.1364 146.606 75.1356 146.606 75.1349C146.606 75.1342 146.606 75.1335 146.606 75.1328C146.606 75.1321 146.606 75.1313 146.606 75.1306C146.606 75.1299 146.606 75.1292 146.606 75.1285C146.606 75.1278 146.606 75.127 146.606 75.1263C146.606 75.1256 146.606 75.1249 146.606 75.1242C146.606 75.1235 146.606 75.1227 146.606 75.122C146.606 75.1213 146.606 75.1206 146.606 75.1199C146.606 75.1192 146.606 75.1185 146.606 75.1177C146.606 75.117 146.606 75.1163 146.606 75.1156C146.606 75.1149 146.606 75.1142 146.606 75.1134C146.606 75.1127 146.606 75.112 146.606 75.1113C146.606 75.1106 146.606 75.1099 146.606 75.1091C146.606 75.1084 146.606 75.1077 146.606 75.107C146.606 75.1063 146.606 75.1056 146.606 75.1048C146.606 75.1041 146.606 75.1034 146.606 75.1027C146.606 75.102 146.606 75.1013 146.606 75.1005C146.606 75.0998 146.606 75.0991 146.606 75.0984C146.606 75.0977 146.606 75.097 146.606 75.0962C146.606 75.0955 146.606 75.0948 146.606 75.0941C146.606 75.0934 146.606 75.0927 146.606 75.092C146.606 75.0912 146.606 75.0905 146.606 75.0898C146.606 75.0891 146.606 75.0884 146.606 75.0877C146.606 75.0869 146.606 75.0862 146.606 75.0855C146.606 75.0848 146.606 75.0841 146.606 75.0834C146.606 75.0826 146.606 75.0819 146.606 75.0812C146.606 75.0805 146.606 75.0798 146.606 75.0791C146.606 75.0783 146.606 75.0776 146.606 75.0769C146.606 75.0762 146.606 75.0755 146.606 75.0748C146.606 75.074 146.606 75.0733 146.606 75.0726C146.606 75.0719 146.606 75.0712 146.606 75.0705C146.606 75.0698 146.606 75.069 146.606 75.0683C146.606 75.0676 146.606 75.0669 146.606 75.0662C146.606 75.0655 146.606 75.0647 146.606 75.064C146.606 75.0633 146.606 75.0626 146.606 75.0619C146.606 75.0612 146.606 75.0604 146.606 75.0597C146.606 75.059 146.606 75.0583 146.606 75.0576C146.606 75.0569 146.606 75.0561 146.606 75.0554C146.606 75.0547 146.606 75.054 146.606 75.0533C146.606 75.0526 146.606 75.0518 146.606 75.0511C146.606 75.0504 146.606 75.0497 146.606 75.049C146.606 75.0483 146.606 75.0476 146.606 75.0468C146.606 75.0461 146.606 75.0454 146.606 75.0447C146.606 75.044 146.606 75.0433 146.606 75.0425C146.606 75.0418 146.606 75.0411 146.606 75.0404C146.606 75.0397 146.606 75.039 146.606 75.0382C146.606 75.0375 146.606 75.0368 146.606 75.0361C146.606 75.0354 146.606 75.0347 146.606 75.0339C146.606 75.0332 146.606 75.0325 146.606 75.0318C146.606 75.0311 146.606 75.0304 146.606 75.0296C146.606 75.0289 146.606 75.0282 146.606 75.0275C146.606 75.0268 146.606 75.0261 146.606 75.0254C146.606 75.0246 146.606 75.0239 146.606 75.0232C146.606 75.0225 146.606 75.0218 146.606 75.0211C146.606 75.0203 146.606 75.0196 146.606 75.0189C146.606 75.0182 146.606 75.0175 146.606 75.0168C146.606 75.016 146.606 75.0153 146.606 75.0146C146.606 75.0139 146.606 75.0132 146.606 75.0125C146.606 75.0117 146.606 75.011 146.606 75.0103C146.606 75.0096 146.606 75.0089 146.606 75.0082C146.606 75.0074 146.606 75.0067 146.606 75.006C146.606 75.0053 146.606 75.0046 146.606 75.0039C146.606 75.0032 146.606 75.0024 146.606 75.0017C146.606 75.001 146.606 75.0003 146.606 74.9996C146.606 74.9989 146.606 74.9981 146.606 74.9974C146.606 74.9967 146.606 74.996 146.606 74.9953C146.606 74.9946 146.606 74.9938 146.606 74.9931C146.606 74.9924 146.606 74.9917 146.606 74.991C146.606 74.9903 146.606 74.9895 146.606 74.9888C146.606 74.9881 146.606 74.9874 146.606 74.9867C146.606 74.986 146.606 74.9852 146.606 74.9845C146.606 74.9838 146.606 74.9831 146.606 74.9824C146.606 74.9817 146.606 74.9809 146.606 74.9802C146.606 74.9795 146.606 74.9788 146.606 74.9781C146.606 74.9774 146.606 74.9767 146.606 74.9759C146.606 74.9752 146.606 74.9745 146.606 74.9738C146.606 74.9731 146.606 74.9724 146.606 74.9716C146.606 74.9709 146.606 74.9702 146.606 74.9695C146.606 74.9688 146.606 74.9681 146.606 74.9673C146.606 74.9666 146.606 74.9659 146.606 74.9652C146.606 74.9645 146.606 74.9638 146.606 74.963C146.606 74.9623 146.606 74.9616 146.606 74.9609C146.606 74.9602 146.606 74.9595 146.606 74.9587C146.606 74.958 146.606 74.9573 146.606 74.9566C146.606 74.9559 146.606 74.9552 146.606 74.9545C146.606 74.9537 146.606 74.953 146.606 74.9523C146.606 74.9516 146.606 74.9509 146.606 74.9502C146.606 74.9494 146.606 74.9487 146.606 74.948C146.606 74.9473 146.606 74.9466 146.606 74.9459C146.606 74.9451 146.606 74.9444 146.606 74.9437C146.606 74.943 146.606 74.9423 146.606 74.9416C146.606 74.9408 146.606 74.9401 146.606 74.9394C146.606 74.9387 146.606 74.938 146.606 74.9373C146.606 74.9366 146.606 74.9358 146.606 74.9351C146.606 74.9344 146.606 74.9337 146.606 74.933C146.606 74.9323 146.606 74.9315 146.606 74.9308C146.606 74.9301 146.606 74.9294 146.606 74.9287C146.606 74.928 146.606 74.9272 146.606 74.9265C146.606 74.9258 146.606 74.9251 146.606 74.9244C146.606 74.9237 146.606 74.9229 146.606 74.9222C146.606 74.9215 146.606 74.9208 146.606 74.9201C146.606 74.9194 146.606 74.9186 146.606 74.9179C146.606 74.9172 146.606 74.9165 146.606 74.9158C146.606 74.9151 146.606 74.9143 146.606 74.9136C146.606 74.9129 146.606 74.9122 146.606 74.9115C146.606 74.9108 146.606 74.9101 146.606 74.9093C146.606 74.9086 146.606 74.9079 146.606 74.9072C146.606 74.9065 146.606 74.9058 146.606 74.905C146.606 74.9043 146.606 74.9036 146.606 74.9029C146.606 74.9022 146.606 74.9015 146.606 74.9007C146.606 74.9 146.606 74.8993 146.606 74.8986C146.606 74.8979 146.606 74.8972 146.606 74.8964C146.606 74.8957 146.606 74.895 146.606 74.8943C146.606 74.8936 146.606 74.8929 146.606 74.8921C146.606 74.8914 146.606 74.8907 146.606 74.89C146.606 74.8893 146.606 74.8886 146.606 74.8879C146.606 74.8871 146.606 74.8864 146.606 74.8857C146.606 74.885 146.606 74.8843 146.606 74.8836C146.606 74.8828 146.606 74.8821 146.606 74.8814C146.606 74.8807 146.606 74.88 146.606 74.8793C146.606 74.8785 146.606 74.8778 146.606 74.8771C146.606 74.8764 146.606 74.8757 146.606 74.875C146.606 74.8742 146.606 74.8735 146.606 74.8728C146.606 74.8721 146.606 74.8714 146.606 74.8707C146.606 74.8699 146.606 74.8692 146.606 74.8685C146.606 74.8678 146.606 74.8671 146.606 74.8664C146.606 74.8657 146.606 74.8649 146.606 74.8642C146.606 74.8635 146.606 74.8628 146.606 74.8621C146.606 74.8614 146.606 74.8606 146.606 74.8599C146.606 74.8592 146.606 74.8585 146.606 74.8578C146.606 74.8571 146.606 74.8563 146.606 74.8556C146.606 74.8549 146.606 74.8542 146.606 74.8535C146.606 74.8528 146.606 74.852 146.606 74.8513C146.606 74.8506 146.606 74.8499 146.606 74.8492C146.606 74.8485 146.606 74.8477 146.606 74.847C146.606 74.8463 146.606 74.8456 146.606 74.8449C146.606 74.8442 146.606 74.8434 146.606 74.8427C146.606 74.842 146.606 74.8413 146.606 74.8406C146.606 74.8399 146.606 74.8392 146.606 74.8384C146.606 74.8377 146.606 74.837 146.606 74.8363C146.606 74.8356 146.606 74.8349 146.606 74.8341C146.606 74.8334 146.606 74.8327 146.606 74.832C146.606 74.8313 146.606 74.8306 146.606 74.8298C146.606 74.8291 146.606 74.8284 146.606 74.8277C146.606 74.827 146.606 74.8263 146.606 74.8255C146.606 74.8248 146.606 74.8241 146.606 74.8234C146.606 74.8227 146.606 74.822 146.606 74.8213C146.606 74.8205 146.606 74.8198 146.606 74.8191C146.606 74.8184 146.606 74.8177 146.606 74.817C146.606 74.8162 146.606 74.8155 146.606 74.8148C146.606 74.8141 146.606 74.8134 146.606 74.8127C146.606 74.8119 146.606 74.8112 146.606 74.8105C146.606 74.8098 146.606 74.8091 146.606 74.8084C146.606 74.8076 146.606 74.8069 146.606 74.8062C146.606 74.8055 146.606 74.8048 146.606 74.8041C146.606 74.8033 146.606 74.8026 146.606 74.8019C146.606 74.8012 146.606 74.8005 146.606 74.7998C146.606 74.799 146.606 74.7983 146.606 74.7976C146.606 74.7969 146.606 74.7962 146.606 74.7955C146.606 74.7948 146.606 74.794 146.606 74.7933C146.606 74.7926 146.606 74.7919 146.606 74.7912C146.606 74.7905 146.606 74.7897 146.606 74.789C146.606 74.7883 146.606 74.7876 146.606 74.7869C146.606 74.7862 146.606 74.7854 146.606 74.7847C146.606 74.784 146.606 74.7833 146.606 74.7826C146.606 74.7819 146.606 74.7811 146.606 74.7804C146.606 74.7797 146.606 74.779 146.606 74.7783C146.606 74.7776 146.606 74.7768 146.606 74.7761C146.606 74.7754 146.606 74.7747 146.606 74.774C146.606 74.7733 146.606 74.7726 146.606 74.7718C146.606 74.7711 146.606 74.7704 146.606 74.7697C146.606 74.769 146.606 74.7683 146.606 74.7675C146.606 74.7668 146.606 74.7661 146.606 74.7654C146.606 74.7647 146.606 74.764 146.606 74.7632C146.606 74.7625 146.606 74.7618 146.606 74.7611C146.606 74.7604 146.606 74.7597 146.606 74.7589C146.606 74.7582 146.606 74.7575 146.606 74.7568C146.606 74.7561 146.606 74.7554 146.606 74.7546C146.606 74.7539 146.606 74.7532 146.606 74.7525C146.606 74.7518 146.606 74.7511 146.606 74.7504C146.606 74.7496 146.606 74.7489 146.606 74.7482C146.606 74.7475 146.606 74.7468 146.606 74.7461C146.606 74.7453 146.606 74.7446 146.606 74.7439C146.606 74.7432 146.606 74.7425 146.606 74.7418C146.606 74.741 146.606 74.7403 146.606 74.7396C146.606 74.7389 146.606 74.7382 146.606 74.7375C146.606 74.7367 146.606 74.736 146.606 74.7353C146.606 74.7346 146.606 74.7339 146.606 74.7332C146.606 74.7324 146.606 74.7317 146.606 74.731C146.606 74.7303 146.606 74.7296 146.606 74.7289C146.606 74.7281 146.606 74.7274 146.606 74.7267C146.606 74.726 146.606 74.7253 146.606 74.7246C146.606 74.7239 146.606 74.7231 146.606 74.7224C146.606 74.7217 146.606 74.721 146.606 74.7203C146.606 74.7196 146.606 74.7188 146.606 74.7181C146.606 74.7174 146.606 74.7167 146.606 74.716C146.606 74.7153 146.606 74.7145 146.606 74.7138C146.606 74.7131 146.606 74.7124 146.606 74.7117C146.606 74.711 146.606 74.7102 146.606 74.7095C146.606 74.7088 146.606 74.7081 146.606 74.7074C146.606 74.7067 146.606 74.706 146.606 74.7052C146.606 74.7045 146.606 74.7038 146.606 74.7031C146.606 74.7024 146.606 74.7017 146.606 74.7009C146.606 74.7002 146.606 74.6995 146.606 74.6988C146.606 74.6981 146.606 74.6974 146.606 74.6966C146.606 74.6959 146.606 74.6952 146.606 74.6945C146.606 74.6938 146.606 74.6931 146.606 74.6923C146.606 74.6916 146.606 74.6909 146.606 74.6902C146.606 74.6895 146.606 74.6888 146.606 74.688C146.606 74.6873 146.606 74.6866 146.606 74.6859C146.606 74.6852 146.606 74.6845 146.606 74.6838C146.606 74.683 146.606 74.6823 146.606 74.6816C146.606 74.6809 146.606 74.6802 146.606 74.6795C146.606 74.6787 146.606 74.678 146.606 74.6773C146.606 74.6766 146.606 74.6759 146.606 74.6752C146.606 74.6744 146.606 74.6737 146.606 74.673C146.606 74.6723 146.606 74.6716 146.606 74.6709C146.606 74.6701 146.606 74.6694 146.606 74.6687C146.606 74.668 146.606 74.6673 146.606 74.6666C146.606 74.6658 146.606 74.6651 146.606 74.6644C146.606 74.6637 146.606 74.663 146.606 74.6623C146.606 74.6615 146.606 74.6608 146.606 74.6601C146.606 74.6594 146.606 74.6587 146.606 74.658C146.606 74.6573 146.606 74.6565 146.606 74.6558C146.606 74.6551 146.606 74.6544 146.606 74.6537C146.606 74.653 146.606 74.6522 146.606 74.6515C146.606 74.6508 146.606 74.6501 146.606 74.6494C146.606 74.6487 146.606 74.6479 146.606 74.6472C146.606 74.6465 146.606 74.6458 146.606 74.6451C146.606 74.6444 146.606 74.6436 146.606 74.6429C146.606 74.6422 146.606 74.6415 146.606 74.6408C146.606 74.6401 146.606 74.6393 146.606 74.6386C146.606 74.6379 146.606 74.6372 146.606 74.6365C146.606 74.6358 146.606 74.6351 146.606 74.6343C146.606 74.6336 146.606 74.6329 146.606 74.6322C146.606 74.6315 146.606 74.6308 146.606 74.63C146.606 74.6293 146.606 74.6286 146.606 74.6279C146.606 74.6272 146.606 74.6265 146.606 74.6257C146.606 74.625 146.606 74.6243 146.606 74.6236C146.606 74.6229 146.606 74.6222 146.606 74.6214C146.606 74.6207 146.606 74.62 146.606 74.6193C146.606 74.6186 146.606 74.6179 146.606 74.6171C146.606 74.6164 146.606 74.6157 146.606 74.615C146.606 74.6143 146.606 74.6136 146.606 74.6129C146.606 74.6121 146.606 74.6114 146.606 74.6107C146.606 74.61 146.606 74.6093 146.606 74.6086C146.606 74.6078 146.606 74.6071 146.606 74.6064C146.606 74.6057 146.606 74.605 146.606 74.6043C146.606 74.6035 146.606 74.6028 146.606 74.6021C146.606 74.6014 146.606 74.6007 146.606 74.6C146.606 74.5992 146.606 74.5985 146.606 74.5978C146.606 74.5971 146.606 74.5964 146.606 74.5957C146.606 74.5949 146.606 74.5942 146.606 74.5935C146.606 74.5928 146.606 74.5921 146.606 74.5914C146.606 74.5906 146.606 74.5899 146.606 74.5892C146.606 74.5885 146.606 74.5878 146.606 74.5871C146.606 74.5864 146.606 74.5856 146.606 74.5849C146.606 74.5842 146.606 74.5835 146.606 74.5828C146.606 74.5821 146.606 74.5813 146.606 74.5806C146.606 74.5799 146.606 74.5792 146.606 74.5785C146.606 74.5778 146.606 74.577 146.606 74.5763C146.606 74.5756 146.606 74.5749 146.606 74.5742C146.606 74.5735 146.606 74.5727 146.606 74.572C146.606 74.5713 146.606 74.5706 146.606 74.5699C146.606 74.5692 146.606 74.5685 146.606 74.5677C146.606 74.567 146.606 74.5663 146.606 74.5656C146.606 74.5649 146.606 74.5642 146.606 74.5634C146.606 74.5627 146.606 74.562 146.606 74.5613C146.606 74.5606 146.606 74.5599 146.606 74.5591C146.606 74.5584 146.606 74.5577 146.606 74.557C146.606 74.5563 146.606 74.5556 146.606 74.5548C146.606 74.5541 146.606 74.5534 146.606 74.5527C146.606 74.552 146.606 74.5513 146.606 74.5505C146.606 74.5498 146.606 74.5491 146.606 74.5484C146.606 74.5477 146.606 74.547 146.606 74.5462C146.606 74.5455 146.606 74.5448 146.606 74.5441C146.606 74.5434 146.606 74.5427 146.606 74.542C146.606 74.5412 146.606 74.5405 146.606 74.5398C146.606 74.5391 146.606 74.5384 146.606 74.5377C146.606 74.5369 146.606 74.5362 146.606 74.5355C146.606 74.5348 146.606 74.5341 146.606 74.5334C146.606 74.5326 146.606 74.5319 146.606 74.5312C146.606 74.5305 146.606 74.5298 146.606 74.5291C146.606 74.5283 146.606 74.5276 146.606 74.5269C146.606 74.5262 146.606 74.5255 146.606 74.5248C146.606 74.524 146.606 74.5233 146.606 74.5226C146.606 74.5219 146.606 74.5212 146.606 74.5205C146.606 74.5198 146.606 74.519 146.606 74.5183C146.606 74.5176 146.606 74.5169 146.606 74.5162C146.606 74.5155 146.606 74.5147 146.606 74.514C146.606 74.5133 146.606 74.5126 146.606 74.5119C146.606 74.5112 146.606 74.5104 146.606 74.5097C146.606 74.509 146.606 74.5083 146.606 74.5076C146.606 74.5069 146.606 74.5061 146.606 74.5054C146.606 74.5047 146.606 74.504 146.606 74.5033C146.606 74.5026 146.606 74.5018 146.606 74.5011C146.606 74.5004 146.606 74.4997 146.606 74.499C146.606 74.4983 146.606 74.4976 146.606 74.4968C146.606 74.4961 146.606 74.4954 146.606 74.4947C146.606 74.494 146.606 74.4933 146.606 74.4925C146.606 74.4918 146.606 74.4911 146.606 74.4904C146.606 74.4897 146.606 74.489 146.606 74.4882C146.606 74.4875 146.606 74.4868 146.606 74.4861C146.606 74.4854 146.606 74.4847 146.606 74.4839C146.606 74.4832 146.606 74.4825 146.606 74.4818C146.606 74.4811 146.606 74.4804 146.606 74.4796C146.606 74.4789 146.606 74.4782 146.606 74.4775C146.606 74.4768 146.606 74.4761 146.606 74.4753C146.606 74.4746 146.606 74.4739 146.606 74.4732C146.606 74.4725 146.606 74.4718 146.606 74.4711C146.606 74.4703 146.606 74.4696 146.606 74.4689C146.606 74.4682 146.606 74.4675 146.606 74.4668C146.606 74.466 146.606 74.4653 146.606 74.4646C146.606 74.4639 146.606 74.4632 146.606 74.4625C146.606 74.4617 146.606 74.461 146.606 74.4603C146.606 74.4596 146.606 74.4589 146.606 74.4582C146.606 74.4574 146.606 74.4567 146.606 74.456C146.606 74.4553 146.606 74.4546 146.606 74.4539C146.606 74.4532 146.606 74.4524 146.606 74.4517C146.606 74.451 146.606 74.4503 146.606 74.4496C146.606 74.4489 146.606 74.4481 146.606 74.4474C146.606 74.4467 146.606 74.446 146.606 74.4453C146.606 74.4446 146.606 74.4438 146.606 74.4431C146.606 74.4424 146.606 74.4417 146.606 74.441C146.606 74.4403 146.606 74.4395 146.606 74.4388C146.606 74.4381 146.606 74.4374 146.606 74.4367C146.606 74.436 146.606 74.4352 146.606 74.4345C146.606 74.4338 146.606 74.4331 146.606 74.4324C146.606 74.4317 146.606 74.431 146.606 74.4302C146.606 74.4295 146.606 74.4288 146.606 74.4281C146.606 74.4274 146.606 74.4267 146.606 74.4259C146.606 74.4252 146.606 74.4245 146.606 74.4238C146.606 74.4231 146.606 74.4224 146.606 74.4216C146.606 74.4209 146.606 74.4202 146.606 74.4195C146.606 74.4188 146.606 74.4181 146.606 74.4173C146.606 74.4166 146.606 74.4159 146.606 74.4152C146.606 74.4145 146.606 74.4138 146.606 74.413C146.606 74.4123 146.606 74.4116 146.606 74.4109C146.606 74.4102 146.606 74.4095 146.606 74.4087C146.606 74.408 146.606 74.4073 146.606 74.4066C146.606 74.4059 146.606 74.4052 146.606 74.4045C146.606 74.4037 146.606 74.403 146.606 74.4023C146.606 74.4016 146.606 74.4009 146.606 74.4002C146.606 74.3994 146.606 74.3987 146.606 74.398C146.606 74.3973 146.606 74.3966 146.606 74.3959C146.606 74.3951 146.606 74.3944 146.606 74.3937C146.606 74.393 146.606 74.3923 146.606 74.3916C146.606 74.3908 146.606 74.3901 146.606 74.3894C146.606 74.3887 146.606 74.388 146.606 74.3873C146.606 74.3865 146.606 74.3858 146.606 74.3851C146.606 74.3844 146.606 74.3837 146.606 74.383C146.606 74.3823 146.606 74.3815 146.606 74.3808C146.606 74.3801 146.606 74.3794 146.606 74.3787C146.606 74.378 146.606 74.3772 146.606 74.3765C146.606 74.3758 146.606 74.3751 146.606 74.3744C146.606 74.3737 146.606 74.3729 146.606 74.3722C146.606 74.3715 146.606 74.3708 146.606 74.3701C146.606 74.3694 146.606 74.3686 146.606 74.3679C146.606 74.3672 146.606 74.3665 146.606 74.3658C146.606 74.3651 146.606 74.3643 146.606 74.3636C146.606 74.3629 146.606 74.3622 146.606 74.3615C146.606 74.3608 146.606 74.3601 146.606 74.3593C146.606 74.3586 146.606 74.3579 146.606 74.3572C146.606 74.3565 146.606 74.3558 146.606 74.355C146.606 74.3543 146.606 74.3536 146.606 74.3529C146.606 74.3522 146.606 74.3515 146.606 74.3507C146.606 74.35 146.606 74.3493 146.606 74.3486C146.606 74.3479 146.606 74.3472 146.606 74.3464C146.606 74.3457 146.606 74.345 146.606 74.3443C146.606 74.3436 146.606 74.3429 146.606 74.3421C146.606 74.3414 146.606 74.3407 146.606 74.34C146.606 74.3393 146.606 74.3386 146.606 74.3379C146.606 74.3371 146.606 74.3364 146.606 74.3357C146.606 74.335 146.606 74.3343 146.606 74.3336C146.606 74.3328 146.606 74.3321 146.606 74.3314C146.606 74.3307 146.606 74.33 146.606 74.3293C146.606 74.3285 146.606 74.3278 146.606 74.3271C146.606 74.3264 146.606 74.3257 146.606 74.325C146.606 74.3242 146.606 74.3235 146.606 74.3228C146.606 74.3221 146.606 74.3214 146.606 74.3207C146.606 74.3199 146.606 74.3192 146.606 74.3185C146.606 74.3178 146.606 74.3171 146.606 74.3164C146.606 74.3157 146.606 74.3149 146.606 74.3142C146.606 74.3135 146.606 74.3128 146.606 74.3121C146.606 74.3114 146.606 74.3106 146.606 74.3099C146.606 74.3092 146.606 74.3085 146.606 74.3078C146.606 74.3071 146.606 74.3063 146.606 74.3056C146.606 74.3049 146.606 74.3042 146.606 74.3035C146.606 74.3028 146.606 74.302 146.606 74.3013C146.606 74.3006 146.606 74.2999 146.606 74.2992C146.606 74.2985 146.606 74.2977 146.606 74.297C146.606 74.2963 146.606 74.2956 146.606 74.2949C146.606 74.2942 146.606 74.2934 146.606 74.2927C146.606 74.292 146.606 74.2913 146.606 74.2906C146.606 74.2899 146.606 74.2892 146.606 74.2884C146.606 74.2877 146.606 74.287 146.606 74.2863C146.606 74.2856 146.606 74.2849 146.606 74.2841C146.606 74.2834 146.606 74.2827 146.606 74.282C146.606 74.2813 146.606 74.2806 146.606 74.2798C146.606 74.2791 146.606 74.2784 146.606 74.2777C146.606 74.277 146.606 74.2763 146.606 74.2755C146.606 74.2748 146.606 74.2741 146.606 74.2734C146.606 74.2727 146.606 74.272 146.606 74.2712C146.606 74.2705 146.606 74.2698 146.606 74.2691C146.606 74.2684 146.606 74.2677 146.606 74.267C146.606 74.2662 146.606 74.2655 146.606 74.2648C146.606 74.2641 146.606 74.2634 146.606 74.2627C146.606 74.2619 146.606 74.2612 146.606 74.2605C146.606 74.2598 146.606 74.2591 146.606 74.2584C146.606 74.2576 146.606 74.2569 146.606 74.2562C146.606 74.2555 146.606 74.2548 146.606 74.2541C146.606 74.2533 146.606 74.2526 146.606 74.2519C146.606 74.2512 146.606 74.2505 146.606 74.2498C146.606 74.2491 146.606 74.2483 146.606 74.2476C146.606 74.2469 146.606 74.2462 146.606 74.2455C146.606 74.2448 146.606 74.244 146.606 74.2433C146.606 74.2426 146.606 74.2419 146.606 74.2412C146.606 74.2405 146.606 74.2397 146.606 74.239C146.606 74.2383 146.606 74.2376 146.606 74.2369C146.606 74.2362 146.606 74.2354 146.606 74.2347C146.606 74.234 146.606 74.2333 146.606 74.2326C146.606 74.2319 146.606 74.2311 146.606 74.2304C146.606 74.2297 146.606 74.229 146.606 74.2283C146.606 74.2276 146.606 74.2268 146.606 74.2261C146.606 74.2254 146.606 74.2247 146.606 74.224C146.606 74.2233 146.606 74.2225 146.606 74.2218C146.606 74.2211 146.606 74.2204 146.606 74.2197C146.606 74.219 146.606 74.2183 146.606 74.2175C146.606 74.2168 146.606 74.2161 146.606 74.2154C146.606 74.2147 146.606 74.214 146.606 74.2132C146.606 74.2125 146.606 74.2118 146.606 74.2111C146.606 74.2104 146.606 74.2097 146.606 74.2089C146.606 74.2082 146.606 74.2075 146.606 74.2068C146.606 74.2061 146.606 74.2054 146.606 74.2046C146.606 74.2039 146.606 74.2032 146.606 74.2025C146.606 74.2018 146.606 74.2011 146.606 74.2004C146.606 74.1996 146.606 74.1989 146.606 74.1982C146.606 74.1975 146.606 74.1968 146.606 74.1961C146.606 74.1953 146.606 74.1946 146.606 74.1939C146.606 74.1932 146.606 74.1925 146.606 74.1918C146.606 74.191 146.606 74.1903 146.606 74.1896C146.606 74.1889 146.606 74.1882 146.606 74.1875C146.606 74.1867 146.606 74.186 146.606 74.1853C146.606 74.1846 146.606 74.1839 146.606 74.1832C146.606 74.1824 146.606 74.1817 146.606 74.181C146.606 74.1803 146.606 74.1796 146.606 74.1789C146.606 74.1782 146.606 74.1774 146.606 74.1767C146.606 74.176 146.606 74.1753 146.606 74.1746C146.606 74.1739 146.606 74.1731 146.606 74.1724C146.606 74.1717 146.606 74.171 146.606 74.1703C146.606 74.1696 146.606 74.1688 146.606 74.1681C146.606 74.1674 146.606 74.1667 146.606 74.166C146.606 74.1653 146.606 74.1645 146.606 74.1638C146.606 74.1631 146.606 74.1624 146.606 74.1617C146.606 74.161 146.606 74.1602 146.606 74.1595C146.606 74.1588 146.606 74.1581 146.606 74.1574C146.606 74.1567 146.606 74.1559 146.606 74.1552C146.606 74.1545 146.606 74.1538 146.606 74.1531C146.606 74.1524 146.606 74.1517 146.606 74.1509C146.606 74.1502 146.606 74.1495 146.606 74.1488C146.606 74.1481 146.606 74.1474 146.606 74.1466C146.606 74.1459 146.606 74.1452 146.606 74.1445C146.606 74.1438 146.606 74.1431 146.606 74.1423C146.606 74.1416 146.606 74.1409 146.606 74.1402C146.606 74.1395 146.606 74.1388 146.606 74.138C146.606 74.1373 146.606 74.1366 146.606 74.1359C146.606 74.1352 146.606 74.1345 146.606 74.1337C146.606 74.133 146.606 74.1323 146.606 74.1316C146.606 74.1309 146.606 74.1302 146.606 74.1295C146.606 74.1287 146.606 74.128 146.606 74.1273C146.606 74.1266 146.606 74.1259 146.606 74.1252C146.606 74.1244 146.606 74.1237 146.606 74.123C146.606 74.1223 146.606 74.1216 146.606 74.1209C146.606 74.1201 146.606 74.1194 146.606 74.1187C146.606 74.118 146.606 74.1173 146.606 74.1166C146.606 74.1158 146.606 74.1151 146.606 74.1144C146.606 74.1137 146.606 74.113 146.606 74.1123C146.606 74.1115 146.606 74.1108 146.606 74.1101C146.606 74.1094 146.606 74.1087 146.606 74.108C146.606 74.1073 146.606 74.1065 146.606 74.1058C146.606 74.1051 146.606 74.1044 146.606 74.1037C146.606 74.103 146.606 74.1022 146.606 74.1015C146.606 74.1008 146.606 74.1001 146.606 74.0994C146.606 74.0987 146.606 74.0979 146.606 74.0972C146.606 74.0965 146.606 74.0958 146.606 74.0951C146.606 74.0944 146.606 74.0936 146.606 74.0929C146.606 74.0922 146.606 74.0915 146.606 74.0908C146.606 74.0901 146.606 74.0893 146.606 74.0886C146.606 74.0879 146.606 74.0872 146.606 74.0865C146.606 74.0858 146.606 74.0851 146.606 74.0843C146.606 74.0836 146.606 74.0829 146.606 74.0822C146.606 74.0815 146.606 74.0808 146.606 74.08C146.606 74.0793 146.606 74.0786 146.606 74.0779C146.606 74.0772 146.606 74.0765 146.606 74.0757C146.606 74.075 146.606 74.0743 146.606 74.0736C146.606 74.0729 146.606 74.0722 146.606 74.0714C146.606 74.0707 146.606 74.07 146.606 74.0693C146.606 74.0686 146.606 74.0679 146.606 74.0671C146.606 74.0664 146.606 74.0657 146.606 74.065H144.606C144.606 74.0657 144.606 74.0664 144.606 74.0671C144.606 74.0679 144.606 74.0686 144.606 74.0693C144.606 74.07 144.606 74.0707 144.606 74.0714C144.606 74.0722 144.606 74.0729 144.606 74.0736C144.606 74.0743 144.606 74.075 144.606 74.0757C144.606 74.0765 144.606 74.0772 144.606 74.0779C144.606 74.0786 144.606 74.0793 144.606 74.08C144.606 74.0808 144.606 74.0815 144.606 74.0822C144.606 74.0829 144.606 74.0836 144.606 74.0843C144.606 74.0851 144.606 74.0858 144.606 74.0865C144.606 74.0872 144.606 74.0879 144.606 74.0886C144.606 74.0893 144.606 74.0901 144.606 74.0908C144.606 74.0915 144.606 74.0922 144.606 74.0929C144.606 74.0936 144.606 74.0944 144.606 74.0951C144.606 74.0958 144.606 74.0965 144.606 74.0972C144.606 74.0979 144.606 74.0987 144.606 74.0994C144.606 74.1001 144.606 74.1008 144.606 74.1015C144.606 74.1022 144.606 74.103 144.606 74.1037C144.606 74.1044 144.606 74.1051 144.606 74.1058C144.606 74.1065 144.606 74.1073 144.606 74.108C144.606 74.1087 144.606 74.1094 144.606 74.1101C144.606 74.1108 144.606 74.1115 144.606 74.1123C144.606 74.113 144.606 74.1137 144.606 74.1144C144.606 74.1151 144.606 74.1158 144.606 74.1166C144.606 74.1173 144.606 74.118 144.606 74.1187C144.606 74.1194 144.606 74.1201 144.606 74.1209C144.606 74.1216 144.606 74.1223 144.606 74.123C144.606 74.1237 144.606 74.1244 144.606 74.1252C144.606 74.1259 144.606 74.1266 144.606 74.1273C144.606 74.128 144.606 74.1287 144.606 74.1295C144.606 74.1302 144.606 74.1309 144.606 74.1316C144.606 74.1323 144.606 74.133 144.606 74.1337C144.606 74.1345 144.606 74.1352 144.606 74.1359C144.606 74.1366 144.606 74.1373 144.606 74.138C144.606 74.1388 144.606 74.1395 144.606 74.1402C144.606 74.1409 144.606 74.1416 144.606 74.1423C144.606 74.1431 144.606 74.1438 144.606 74.1445C144.606 74.1452 144.606 74.1459 144.606 74.1466C144.606 74.1474 144.606 74.1481 144.606 74.1488C144.606 74.1495 144.606 74.1502 144.606 74.1509C144.606 74.1517 144.606 74.1524 144.606 74.1531C144.606 74.1538 144.606 74.1545 144.606 74.1552C144.606 74.1559 144.606 74.1567 144.606 74.1574C144.606 74.1581 144.606 74.1588 144.606 74.1595C144.606 74.1602 144.606 74.161 144.606 74.1617C144.606 74.1624 144.606 74.1631 144.606 74.1638C144.606 74.1645 144.606 74.1653 144.606 74.166C144.606 74.1667 144.606 74.1674 144.606 74.1681C144.606 74.1688 144.606 74.1696 144.606 74.1703C144.606 74.171 144.606 74.1717 144.606 74.1724C144.606 74.1731 144.606 74.1739 144.606 74.1746C144.606 74.1753 144.606 74.176 144.606 74.1767C144.606 74.1774 144.606 74.1782 144.606 74.1789C144.606 74.1796 144.606 74.1803 144.606 74.181C144.606 74.1817 144.606 74.1824 144.606 74.1832C144.606 74.1839 144.606 74.1846 144.606 74.1853C144.606 74.186 144.606 74.1867 144.606 74.1875C144.606 74.1882 144.606 74.1889 144.606 74.1896C144.606 74.1903 144.606 74.191 144.606 74.1918C144.606 74.1925 144.606 74.1932 144.606 74.1939C144.606 74.1946 144.606 74.1953 144.606 74.1961C144.606 74.1968 144.606 74.1975 144.606 74.1982C144.606 74.1989 144.606 74.1996 144.606 74.2004C144.606 74.2011 144.606 74.2018 144.606 74.2025C144.606 74.2032 144.606 74.2039 144.606 74.2046C144.606 74.2054 144.606 74.2061 144.606 74.2068C144.606 74.2075 144.606 74.2082 144.606 74.2089C144.606 74.2097 144.606 74.2104 144.606 74.2111C144.606 74.2118 144.606 74.2125 144.606 74.2132C144.606 74.214 144.606 74.2147 144.606 74.2154C144.606 74.2161 144.606 74.2168 144.606 74.2175C144.606 74.2183 144.606 74.219 144.606 74.2197C144.606 74.2204 144.606 74.2211 144.606 74.2218C144.606 74.2225 144.606 74.2233 144.606 74.224C144.606 74.2247 144.606 74.2254 144.606 74.2261C144.606 74.2268 144.606 74.2276 144.606 74.2283C144.606 74.229 144.606 74.2297 144.606 74.2304C144.606 74.2311 144.606 74.2319 144.606 74.2326C144.606 74.2333 144.606 74.234 144.606 74.2347C144.606 74.2354 144.606 74.2362 144.606 74.2369C144.606 74.2376 144.606 74.2383 144.606 74.239C144.606 74.2397 144.606 74.2405 144.606 74.2412C144.606 74.2419 144.606 74.2426 144.606 74.2433C144.606 74.244 144.606 74.2448 144.606 74.2455C144.606 74.2462 144.606 74.2469 144.606 74.2476C144.606 74.2483 144.606 74.2491 144.606 74.2498C144.606 74.2505 144.606 74.2512 144.606 74.2519C144.606 74.2526 144.606 74.2533 144.606 74.2541C144.606 74.2548 144.606 74.2555 144.606 74.2562C144.606 74.2569 144.606 74.2576 144.606 74.2584C144.606 74.2591 144.606 74.2598 144.606 74.2605C144.606 74.2612 144.606 74.2619 144.606 74.2627C144.606 74.2634 144.606 74.2641 144.606 74.2648C144.606 74.2655 144.606 74.2662 144.606 74.267C144.606 74.2677 144.606 74.2684 144.606 74.2691C144.606 74.2698 144.606 74.2705 144.606 74.2712C144.606 74.272 144.606 74.2727 144.606 74.2734C144.606 74.2741 144.606 74.2748 144.606 74.2755C144.606 74.2763 144.606 74.277 144.606 74.2777C144.606 74.2784 144.606 74.2791 144.606 74.2798C144.606 74.2806 144.606 74.2813 144.606 74.282C144.606 74.2827 144.606 74.2834 144.606 74.2841C144.606 74.2849 144.606 74.2856 144.606 74.2863C144.606 74.287 144.606 74.2877 144.606 74.2884C144.606 74.2892 144.606 74.2899 144.606 74.2906C144.606 74.2913 144.606 74.292 144.606 74.2927C144.606 74.2934 144.606 74.2942 144.606 74.2949C144.606 74.2956 144.606 74.2963 144.606 74.297C144.606 74.2977 144.606 74.2985 144.606 74.2992C144.606 74.2999 144.606 74.3006 144.606 74.3013C144.606 74.302 144.606 74.3028 144.606 74.3035C144.606 74.3042 144.606 74.3049 144.606 74.3056C144.606 74.3063 144.606 74.3071 144.606 74.3078C144.606 74.3085 144.606 74.3092 144.606 74.3099C144.606 74.3106 144.606 74.3114 144.606 74.3121C144.606 74.3128 144.606 74.3135 144.606 74.3142C144.606 74.3149 144.606 74.3157 144.606 74.3164C144.606 74.3171 144.606 74.3178 144.606 74.3185C144.606 74.3192 144.606 74.3199 144.606 74.3207C144.606 74.3214 144.606 74.3221 144.606 74.3228C144.606 74.3235 144.606 74.3242 144.606 74.325C144.606 74.3257 144.606 74.3264 144.606 74.3271C144.606 74.3278 144.606 74.3285 144.606 74.3293C144.606 74.33 144.606 74.3307 144.606 74.3314C144.606 74.3321 144.606 74.3328 144.606 74.3336C144.606 74.3343 144.606 74.335 144.606 74.3357C144.606 74.3364 144.606 74.3371 144.606 74.3379C144.606 74.3386 144.606 74.3393 144.606 74.34C144.606 74.3407 144.606 74.3414 144.606 74.3421C144.606 74.3429 144.606 74.3436 144.606 74.3443C144.606 74.345 144.606 74.3457 144.606 74.3464C144.606 74.3472 144.606 74.3479 144.606 74.3486C144.606 74.3493 144.606 74.35 144.606 74.3507C144.606 74.3515 144.606 74.3522 144.606 74.3529C144.606 74.3536 144.606 74.3543 144.606 74.355C144.606 74.3558 144.606 74.3565 144.606 74.3572C144.606 74.3579 144.606 74.3586 144.606 74.3593C144.606 74.3601 144.606 74.3608 144.606 74.3615C144.606 74.3622 144.606 74.3629 144.606 74.3636C144.606 74.3643 144.606 74.3651 144.606 74.3658C144.606 74.3665 144.606 74.3672 144.606 74.3679C144.606 74.3686 144.606 74.3694 144.606 74.3701C144.606 74.3708 144.606 74.3715 144.606 74.3722C144.606 74.3729 144.606 74.3737 144.606 74.3744C144.606 74.3751 144.606 74.3758 144.606 74.3765C144.606 74.3772 144.606 74.378 144.606 74.3787C144.606 74.3794 144.606 74.3801 144.606 74.3808C144.606 74.3815 144.606 74.3823 144.606 74.383C144.606 74.3837 144.606 74.3844 144.606 74.3851C144.606 74.3858 144.606 74.3865 144.606 74.3873C144.606 74.388 144.606 74.3887 144.606 74.3894C144.606 74.3901 144.606 74.3908 144.606 74.3916C144.606 74.3923 144.606 74.393 144.606 74.3937C144.606 74.3944 144.606 74.3951 144.606 74.3959C144.606 74.3966 144.606 74.3973 144.606 74.398C144.606 74.3987 144.606 74.3994 144.606 74.4002C144.606 74.4009 144.606 74.4016 144.606 74.4023C144.606 74.403 144.606 74.4037 144.606 74.4045C144.606 74.4052 144.606 74.4059 144.606 74.4066C144.606 74.4073 144.606 74.408 144.606 74.4087C144.606 74.4095 144.606 74.4102 144.606 74.4109C144.606 74.4116 144.606 74.4123 144.606 74.413C144.606 74.4138 144.606 74.4145 144.606 74.4152C144.606 74.4159 144.606 74.4166 144.606 74.4173C144.606 74.4181 144.606 74.4188 144.606 74.4195C144.606 74.4202 144.606 74.4209 144.606 74.4216C144.606 74.4224 144.606 74.4231 144.606 74.4238C144.606 74.4245 144.606 74.4252 144.606 74.4259C144.606 74.4267 144.606 74.4274 144.606 74.4281C144.606 74.4288 144.606 74.4295 144.606 74.4302C144.606 74.431 144.606 74.4317 144.606 74.4324C144.606 74.4331 144.606 74.4338 144.606 74.4345C144.606 74.4352 144.606 74.436 144.606 74.4367C144.606 74.4374 144.606 74.4381 144.606 74.4388C144.606 74.4395 144.606 74.4403 144.606 74.441C144.606 74.4417 144.606 74.4424 144.606 74.4431C144.606 74.4438 144.606 74.4446 144.606 74.4453C144.606 74.446 144.606 74.4467 144.606 74.4474C144.606 74.4481 144.606 74.4489 144.606 74.4496C144.606 74.4503 144.606 74.451 144.606 74.4517C144.606 74.4524 144.606 74.4532 144.606 74.4539C144.606 74.4546 144.606 74.4553 144.606 74.456C144.606 74.4567 144.606 74.4574 144.606 74.4582C144.606 74.4589 144.606 74.4596 144.606 74.4603C144.606 74.461 144.606 74.4617 144.606 74.4625C144.606 74.4632 144.606 74.4639 144.606 74.4646C144.606 74.4653 144.606 74.466 144.606 74.4668C144.606 74.4675 144.606 74.4682 144.606 74.4689C144.606 74.4696 144.606 74.4703 144.606 74.4711C144.606 74.4718 144.606 74.4725 144.606 74.4732C144.606 74.4739 144.606 74.4746 144.606 74.4753C144.606 74.4761 144.606 74.4768 144.606 74.4775C144.606 74.4782 144.606 74.4789 144.606 74.4796C144.606 74.4804 144.606 74.4811 144.606 74.4818C144.606 74.4825 144.606 74.4832 144.606 74.4839C144.606 74.4847 144.606 74.4854 144.606 74.4861C144.606 74.4868 144.606 74.4875 144.606 74.4882C144.606 74.489 144.606 74.4897 144.606 74.4904C144.606 74.4911 144.606 74.4918 144.606 74.4925C144.606 74.4933 144.606 74.494 144.606 74.4947C144.606 74.4954 144.606 74.4961 144.606 74.4968C144.606 74.4976 144.606 74.4983 144.606 74.499C144.606 74.4997 144.606 74.5004 144.606 74.5011C144.606 74.5018 144.606 74.5026 144.606 74.5033C144.606 74.504 144.606 74.5047 144.606 74.5054C144.606 74.5061 144.606 74.5069 144.606 74.5076C144.606 74.5083 144.606 74.509 144.606 74.5097C144.606 74.5104 144.606 74.5112 144.606 74.5119C144.606 74.5126 144.606 74.5133 144.606 74.514C144.606 74.5147 144.606 74.5155 144.606 74.5162C144.606 74.5169 144.606 74.5176 144.606 74.5183C144.606 74.519 144.606 74.5198 144.606 74.5205C144.606 74.5212 144.606 74.5219 144.606 74.5226C144.606 74.5233 144.606 74.524 144.606 74.5248C144.606 74.5255 144.606 74.5262 144.606 74.5269C144.606 74.5276 144.606 74.5283 144.606 74.5291C144.606 74.5298 144.606 74.5305 144.606 74.5312C144.606 74.5319 144.606 74.5326 144.606 74.5334C144.606 74.5341 144.606 74.5348 144.606 74.5355C144.606 74.5362 144.606 74.5369 144.606 74.5377C144.606 74.5384 144.606 74.5391 144.606 74.5398C144.606 74.5405 144.606 74.5412 144.606 74.542C144.606 74.5427 144.606 74.5434 144.606 74.5441C144.606 74.5448 144.606 74.5455 144.606 74.5462C144.606 74.547 144.606 74.5477 144.606 74.5484C144.606 74.5491 144.606 74.5498 144.606 74.5505C144.606 74.5513 144.606 74.552 144.606 74.5527C144.606 74.5534 144.606 74.5541 144.606 74.5548C144.606 74.5556 144.606 74.5563 144.606 74.557C144.606 74.5577 144.606 74.5584 144.606 74.5591C144.606 74.5599 144.606 74.5606 144.606 74.5613C144.606 74.562 144.606 74.5627 144.606 74.5634C144.606 74.5642 144.606 74.5649 144.606 74.5656C144.606 74.5663 144.606 74.567 144.606 74.5677C144.606 74.5685 144.606 74.5692 144.606 74.5699C144.606 74.5706 144.606 74.5713 144.606 74.572C144.606 74.5727 144.606 74.5735 144.606 74.5742C144.606 74.5749 144.606 74.5756 144.606 74.5763C144.606 74.577 144.606 74.5778 144.606 74.5785C144.606 74.5792 144.606 74.5799 144.606 74.5806C144.606 74.5813 144.606 74.5821 144.606 74.5828C144.606 74.5835 144.606 74.5842 144.606 74.5849C144.606 74.5856 144.606 74.5864 144.606 74.5871C144.606 74.5878 144.606 74.5885 144.606 74.5892C144.606 74.5899 144.606 74.5906 144.606 74.5914C144.606 74.5921 144.606 74.5928 144.606 74.5935C144.606 74.5942 144.606 74.5949 144.606 74.5957C144.606 74.5964 144.606 74.5971 144.606 74.5978C144.606 74.5985 144.606 74.5992 144.606 74.6C144.606 74.6007 144.606 74.6014 144.606 74.6021C144.606 74.6028 144.606 74.6035 144.606 74.6043C144.606 74.605 144.606 74.6057 144.606 74.6064C144.606 74.6071 144.606 74.6078 144.606 74.6086C144.606 74.6093 144.606 74.61 144.606 74.6107C144.606 74.6114 144.606 74.6121 144.606 74.6129C144.606 74.6136 144.606 74.6143 144.606 74.615C144.606 74.6157 144.606 74.6164 144.606 74.6171C144.606 74.6179 144.606 74.6186 144.606 74.6193C144.606 74.62 144.606 74.6207 144.606 74.6214C144.606 74.6222 144.606 74.6229 144.606 74.6236C144.606 74.6243 144.606 74.625 144.606 74.6257C144.606 74.6265 144.606 74.6272 144.606 74.6279C144.606 74.6286 144.606 74.6293 144.606 74.63C144.606 74.6308 144.606 74.6315 144.606 74.6322C144.606 74.6329 144.606 74.6336 144.606 74.6343C144.606 74.6351 144.606 74.6358 144.606 74.6365C144.606 74.6372 144.606 74.6379 144.606 74.6386C144.606 74.6393 144.606 74.6401 144.606 74.6408C144.606 74.6415 144.606 74.6422 144.606 74.6429C144.606 74.6436 144.606 74.6444 144.606 74.6451C144.606 74.6458 144.606 74.6465 144.606 74.6472C144.606 74.6479 144.606 74.6487 144.606 74.6494C144.606 74.6501 144.606 74.6508 144.606 74.6515C144.606 74.6522 144.606 74.653 144.606 74.6537C144.606 74.6544 144.606 74.6551 144.606 74.6558C144.606 74.6565 144.606 74.6573 144.606 74.658C144.606 74.6587 144.606 74.6594 144.606 74.6601C144.606 74.6608 144.606 74.6615 144.606 74.6623C144.606 74.663 144.606 74.6637 144.606 74.6644C144.606 74.6651 144.606 74.6658 144.606 74.6666C144.606 74.6673 144.606 74.668 144.606 74.6687C144.606 74.6694 144.606 74.6701 144.606 74.6709C144.606 74.6716 144.606 74.6723 144.606 74.673C144.606 74.6737 144.606 74.6744 144.606 74.6752C144.606 74.6759 144.606 74.6766 144.606 74.6773C144.606 74.678 144.606 74.6787 144.606 74.6795C144.606 74.6802 144.606 74.6809 144.606 74.6816C144.606 74.6823 144.606 74.683 144.606 74.6838C144.606 74.6845 144.606 74.6852 144.606 74.6859C144.606 74.6866 144.606 74.6873 144.606 74.688C144.606 74.6888 144.606 74.6895 144.606 74.6902C144.606 74.6909 144.606 74.6916 144.606 74.6923C144.606 74.6931 144.606 74.6938 144.606 74.6945C144.606 74.6952 144.606 74.6959 144.606 74.6966C144.606 74.6974 144.606 74.6981 144.606 74.6988C144.606 74.6995 144.606 74.7002 144.606 74.7009C144.606 74.7017 144.606 74.7024 144.606 74.7031C144.606 74.7038 144.606 74.7045 144.606 74.7052C144.606 74.706 144.606 74.7067 144.606 74.7074C144.606 74.7081 144.606 74.7088 144.606 74.7095C144.606 74.7102 144.606 74.711 144.606 74.7117C144.606 74.7124 144.606 74.7131 144.606 74.7138C144.606 74.7145 144.606 74.7153 144.606 74.716C144.606 74.7167 144.606 74.7174 144.606 74.7181C144.606 74.7188 144.606 74.7196 144.606 74.7203C144.606 74.721 144.606 74.7217 144.606 74.7224C144.606 74.7231 144.606 74.7239 144.606 74.7246C144.606 74.7253 144.606 74.726 144.606 74.7267C144.606 74.7274 144.606 74.7281 144.606 74.7289C144.606 74.7296 144.606 74.7303 144.606 74.731C144.606 74.7317 144.606 74.7324 144.606 74.7332C144.606 74.7339 144.606 74.7346 144.606 74.7353C144.606 74.736 144.606 74.7367 144.606 74.7375C144.606 74.7382 144.606 74.7389 144.606 74.7396C144.606 74.7403 144.606 74.741 144.606 74.7418C144.606 74.7425 144.606 74.7432 144.606 74.7439C144.606 74.7446 144.606 74.7453 144.606 74.7461C144.606 74.7468 144.606 74.7475 144.606 74.7482C144.606 74.7489 144.606 74.7496 144.606 74.7504C144.606 74.7511 144.606 74.7518 144.606 74.7525C144.606 74.7532 144.606 74.7539 144.606 74.7546C144.606 74.7554 144.606 74.7561 144.606 74.7568C144.606 74.7575 144.606 74.7582 144.606 74.7589C144.606 74.7597 144.606 74.7604 144.606 74.7611C144.606 74.7618 144.606 74.7625 144.606 74.7632C144.606 74.764 144.606 74.7647 144.606 74.7654C144.606 74.7661 144.606 74.7668 144.606 74.7675C144.606 74.7683 144.606 74.769 144.606 74.7697C144.606 74.7704 144.606 74.7711 144.606 74.7718C144.606 74.7726 144.606 74.7733 144.606 74.774C144.606 74.7747 144.606 74.7754 144.606 74.7761C144.606 74.7768 144.606 74.7776 144.606 74.7783C144.606 74.779 144.606 74.7797 144.606 74.7804C144.606 74.7811 144.606 74.7819 144.606 74.7826C144.606 74.7833 144.606 74.784 144.606 74.7847C144.606 74.7854 144.606 74.7862 144.606 74.7869C144.606 74.7876 144.606 74.7883 144.606 74.789C144.606 74.7897 144.606 74.7905 144.606 74.7912C144.606 74.7919 144.606 74.7926 144.606 74.7933C144.606 74.794 144.606 74.7948 144.606 74.7955C144.606 74.7962 144.606 74.7969 144.606 74.7976C144.606 74.7983 144.606 74.799 144.606 74.7998C144.606 74.8005 144.606 74.8012 144.606 74.8019C144.606 74.8026 144.606 74.8033 144.606 74.8041C144.606 74.8048 144.606 74.8055 144.606 74.8062C144.606 74.8069 144.606 74.8076 144.606 74.8084C144.606 74.8091 144.606 74.8098 144.606 74.8105C144.606 74.8112 144.606 74.8119 144.606 74.8127C144.606 74.8134 144.606 74.8141 144.606 74.8148C144.606 74.8155 144.606 74.8162 144.606 74.817C144.606 74.8177 144.606 74.8184 144.606 74.8191C144.606 74.8198 144.606 74.8205 144.606 74.8213C144.606 74.822 144.606 74.8227 144.606 74.8234C144.606 74.8241 144.606 74.8248 144.606 74.8255C144.606 74.8263 144.606 74.827 144.606 74.8277C144.606 74.8284 144.606 74.8291 144.606 74.8298C144.606 74.8306 144.606 74.8313 144.606 74.832C144.606 74.8327 144.606 74.8334 144.606 74.8341C144.606 74.8349 144.606 74.8356 144.606 74.8363C144.606 74.837 144.606 74.8377 144.606 74.8384C144.606 74.8392 144.606 74.8399 144.606 74.8406C144.606 74.8413 144.606 74.842 144.606 74.8427C144.606 74.8434 144.606 74.8442 144.606 74.8449C144.606 74.8456 144.606 74.8463 144.606 74.847C144.606 74.8477 144.606 74.8485 144.606 74.8492C144.606 74.8499 144.606 74.8506 144.606 74.8513C144.606 74.852 144.606 74.8528 144.606 74.8535C144.606 74.8542 144.606 74.8549 144.606 74.8556C144.606 74.8563 144.606 74.8571 144.606 74.8578C144.606 74.8585 144.606 74.8592 144.606 74.8599C144.606 74.8606 144.606 74.8614 144.606 74.8621C144.606 74.8628 144.606 74.8635 144.606 74.8642C144.606 74.8649 144.606 74.8657 144.606 74.8664C144.606 74.8671 144.606 74.8678 144.606 74.8685C144.606 74.8692 144.606 74.8699 144.606 74.8707C144.606 74.8714 144.606 74.8721 144.606 74.8728C144.606 74.8735 144.606 74.8742 144.606 74.875C144.606 74.8757 144.606 74.8764 144.606 74.8771C144.606 74.8778 144.606 74.8785 144.606 74.8793C144.606 74.88 144.606 74.8807 144.606 74.8814C144.606 74.8821 144.606 74.8828 144.606 74.8836C144.606 74.8843 144.606 74.885 144.606 74.8857C144.606 74.8864 144.606 74.8871 144.606 74.8879C144.606 74.8886 144.606 74.8893 144.606 74.89C144.606 74.8907 144.606 74.8914 144.606 74.8921C144.606 74.8929 144.606 74.8936 144.606 74.8943C144.606 74.895 144.606 74.8957 144.606 74.8964C144.606 74.8972 144.606 74.8979 144.606 74.8986C144.606 74.8993 144.606 74.9 144.606 74.9007C144.606 74.9015 144.606 74.9022 144.606 74.9029C144.606 74.9036 144.606 74.9043 144.606 74.905C144.606 74.9058 144.606 74.9065 144.606 74.9072C144.606 74.9079 144.606 74.9086 144.606 74.9093C144.606 74.9101 144.606 74.9108 144.606 74.9115C144.606 74.9122 144.606 74.9129 144.606 74.9136C144.606 74.9143 144.606 74.9151 144.606 74.9158C144.606 74.9165 144.606 74.9172 144.606 74.9179C144.606 74.9186 144.606 74.9194 144.606 74.9201C144.606 74.9208 144.606 74.9215 144.606 74.9222C144.606 74.9229 144.606 74.9237 144.606 74.9244C144.606 74.9251 144.606 74.9258 144.606 74.9265C144.606 74.9272 144.606 74.928 144.606 74.9287C144.606 74.9294 144.606 74.9301 144.606 74.9308C144.606 74.9315 144.606 74.9323 144.606 74.933C144.606 74.9337 144.606 74.9344 144.606 74.9351C144.606 74.9358 144.606 74.9366 144.606 74.9373C144.606 74.938 144.606 74.9387 144.606 74.9394C144.606 74.9401 144.606 74.9408 144.606 74.9416C144.606 74.9423 144.606 74.943 144.606 74.9437C144.606 74.9444 144.606 74.9451 144.606 74.9459C144.606 74.9466 144.606 74.9473 144.606 74.948C144.606 74.9487 144.606 74.9494 144.606 74.9502C144.606 74.9509 144.606 74.9516 144.606 74.9523C144.606 74.953 144.606 74.9537 144.606 74.9545C144.606 74.9552 144.606 74.9559 144.606 74.9566C144.606 74.9573 144.606 74.958 144.606 74.9587C144.606 74.9595 144.606 74.9602 144.606 74.9609C144.606 74.9616 144.606 74.9623 144.606 74.963C144.606 74.9638 144.606 74.9645 144.606 74.9652C144.606 74.9659 144.606 74.9666 144.606 74.9673C144.606 74.9681 144.606 74.9688 144.606 74.9695C144.606 74.9702 144.606 74.9709 144.606 74.9716C144.606 74.9724 144.606 74.9731 144.606 74.9738C144.606 74.9745 144.606 74.9752 144.606 74.9759C144.606 74.9767 144.606 74.9774 144.606 74.9781C144.606 74.9788 144.606 74.9795 144.606 74.9802C144.606 74.9809 144.606 74.9817 144.606 74.9824C144.606 74.9831 144.606 74.9838 144.606 74.9845C144.606 74.9852 144.606 74.986 144.606 74.9867C144.606 74.9874 144.606 74.9881 144.606 74.9888C144.606 74.9895 144.606 74.9903 144.606 74.991C144.606 74.9917 144.606 74.9924 144.606 74.9931C144.606 74.9938 144.606 74.9946 144.606 74.9953C144.606 74.996 144.606 74.9967 144.606 74.9974C144.606 74.9981 144.606 74.9989 144.606 74.9996C144.606 75.0003 144.606 75.001 144.606 75.0017C144.606 75.0024 144.606 75.0032 144.606 75.0039C144.606 75.0046 144.606 75.0053 144.606 75.006C144.606 75.0067 144.606 75.0074 144.606 75.0082C144.606 75.0089 144.606 75.0096 144.606 75.0103C144.606 75.011 144.606 75.0117 144.606 75.0125C144.606 75.0132 144.606 75.0139 144.606 75.0146C144.606 75.0153 144.606 75.016 144.606 75.0168C144.606 75.0175 144.606 75.0182 144.606 75.0189C144.606 75.0196 144.606 75.0203 144.606 75.0211C144.606 75.0218 144.606 75.0225 144.606 75.0232C144.606 75.0239 144.606 75.0246 144.606 75.0254C144.606 75.0261 144.606 75.0268 144.606 75.0275C144.606 75.0282 144.606 75.0289 144.606 75.0296C144.606 75.0304 144.606 75.0311 144.606 75.0318C144.606 75.0325 144.606 75.0332 144.606 75.0339C144.606 75.0347 144.606 75.0354 144.606 75.0361C144.606 75.0368 144.606 75.0375 144.606 75.0382C144.606 75.039 144.606 75.0397 144.606 75.0404C144.606 75.0411 144.606 75.0418 144.606 75.0425C144.606 75.0433 144.606 75.044 144.606 75.0447C144.606 75.0454 144.606 75.0461 144.606 75.0468C144.606 75.0476 144.606 75.0483 144.606 75.049C144.606 75.0497 144.606 75.0504 144.606 75.0511C144.606 75.0518 144.606 75.0526 144.606 75.0533C144.606 75.054 144.606 75.0547 144.606 75.0554C144.606 75.0561 144.606 75.0569 144.606 75.0576C144.606 75.0583 144.606 75.059 144.606 75.0597C144.606 75.0604 144.606 75.0612 144.606 75.0619C144.606 75.0626 144.606 75.0633 144.606 75.064C144.606 75.0647 144.606 75.0655 144.606 75.0662C144.606 75.0669 144.606 75.0676 144.606 75.0683C144.606 75.069 144.606 75.0698 144.606 75.0705C144.606 75.0712 144.606 75.0719 144.606 75.0726C144.606 75.0733 144.606 75.074 144.606 75.0748C144.606 75.0755 144.606 75.0762 144.606 75.0769C144.606 75.0776 144.606 75.0783 144.606 75.0791C144.606 75.0798 144.606 75.0805 144.606 75.0812C144.606 75.0819 144.606 75.0826 144.606 75.0834C144.606 75.0841 144.606 75.0848 144.606 75.0855C144.606 75.0862 144.606 75.0869 144.606 75.0877C144.606 75.0884 144.606 75.0891 144.606 75.0898C144.606 75.0905 144.606 75.0912 144.606 75.092C144.606 75.0927 144.606 75.0934 144.606 75.0941C144.606 75.0948 144.606 75.0955 144.606 75.0962C144.606 75.097 144.606 75.0977 144.606 75.0984C144.606 75.0991 144.606 75.0998 144.606 75.1005C144.606 75.1013 144.606 75.102 144.606 75.1027C144.606 75.1034 144.606 75.1041 144.606 75.1048C144.606 75.1056 144.606 75.1063 144.606 75.107C144.606 75.1077 144.606 75.1084 144.606 75.1091C144.606 75.1099 144.606 75.1106 144.606 75.1113C144.606 75.112 144.606 75.1127 144.606 75.1134C144.606 75.1142 144.606 75.1149 144.606 75.1156C144.606 75.1163 144.606 75.117 144.606 75.1177C144.606 75.1185 144.606 75.1192 144.606 75.1199C144.606 75.1206 144.606 75.1213 144.606 75.122C144.606 75.1227 144.606 75.1235 144.606 75.1242C144.606 75.1249 144.606 75.1256 144.606 75.1263C144.606 75.127 144.606 75.1278 144.606 75.1285C144.606 75.1292 144.606 75.1299 144.606 75.1306C144.606 75.1313 144.606 75.1321 144.606 75.1328C144.606 75.1335 144.606 75.1342 144.606 75.1349C144.606 75.1356 144.606 75.1364 144.606 75.1371C144.606 75.1378 144.606 75.1385 144.606 75.1392C144.606 75.1399 144.606 75.1407 144.606 75.1414C144.606 75.1421 144.606 75.1428 144.606 75.1435C144.606 75.1442 144.606 75.1449 144.606 75.1457C144.606 75.1464 144.606 75.1471 144.606 75.1478C144.606 75.1485 144.606 75.1492 144.606 75.15C144.606 75.1507 144.606 75.1514 144.606 75.1521C144.606 75.1528 144.606 75.1535 144.606 75.1543C144.606 75.155 144.606 75.1557 144.606 75.1564C144.606 75.1571 144.606 75.1578 144.606 75.1586C144.606 75.1593 144.606 75.16 144.606 75.1607C144.606 75.1614 144.606 75.1621 144.606 75.1628C144.606 75.1636 144.606 75.1643 144.606 75.165H146.606ZM146.606 74.065C146.606 70.2252 146.053 67.1873 144.818 65.088L143.094 66.102C144.06 67.7427 144.606 70.3515 144.606 74.065H146.606ZM144.823 65.0953C143.596 62.9694 141.877 61.735 139.666 61.735V63.735C140.976 63.735 142.117 64.4072 143.09 66.0947L144.823 65.0953ZM139.666 61.735C138.138 61.735 136.803 62.1872 135.747 63.1515L137.096 64.6285C137.726 64.0528 138.554 63.735 139.666 63.735V61.735ZM135.747 63.1515C134.764 64.0495 134.054 65.1912 133.603 66.5438L135.5 67.1762C135.856 66.1088 136.392 65.2705 137.096 64.6285L135.747 63.1515ZM133.597 66.5617C133.201 67.827 133.001 69.1008 133.001 70.38H135.001C135.001 69.3126 135.168 68.2397 135.506 67.1583L133.597 66.5617Z" fill="black" mask="url(#path-20-outside-1_2541_54)"/>
</g>
<defs>
<filter id="filter0_bd_2541_54" x="122.961" y="56.15" width="33.85" height="49.4" filterUnits="userSpaceOnUse" color-interpolation-filters="sRGB">
<feFlood flood-opacity="0" result="BackgroundImageFix"/>
<feGaussianBlur in="BackgroundImageFix" stdDeviation="2"/>
<feComposite in2="SourceAlpha" operator="in" result="effect1_backgroundBlur_2541_54"/>
<feColorMatrix in="SourceAlpha" type="matrix" values="0 0 0 0 0 0 0 0 0 0 0 0 0 0 0 0 0 0 127 0" result="hardAlpha"/>
<feOffset dy="4"/>
<feGaussianBlur stdDeviation="2"/>
<feComposite in2="hardAlpha" operator="out"/>
<feColorMatrix type="matrix" values="0 0 0 0 0 0 0 0 0 0 0 0 0 0 0 0 0 0 0.25 0"/>
<feBlend mode="normal" in2="effect1_backgroundBlur_2541_54" result="effect2_dropShadow_2541_54"/>
<feBlend mode="normal" in="SourceGraphic" in2="effect2_dropShadow_2541_54" result="shape"/>
</filter>
</defs>
</svg>
