<svg width="281" height="158" viewBox="0 0 281 158" fill="none" xmlns="http://www.w3.org/2000/svg">
<rect width="281" height="158" fill="#CD5742"/>
<rect x="77" y="46" width="127" height="66" fill="#6A0404"/>
<rect x="138" y="46" width="4" height="66" fill="#F2A395"/>
<rect x="77" y="77" width="127" height="4" fill="#F2A395"/>
<g filter="url(#filter0_bd_2541_51)">
<mask id="path-4-outside-1_2541_51" maskUnits="userSpaceOnUse" x="126" y="58" width="29" height="41" fill="black">
<rect fill="white" x="126" y="58" width="29" height="41"/>
<path d="M140.161 97.55C137.558 97.55 135.285 96.9817 133.341 95.845C131.435 94.6717 129.931 93.0583 128.831 91.005C127.768 88.915 127.236 86.5133 127.236 83.8C127.236 79.84 128.135 76.2833 129.931 73.13C131.765 69.9767 134.35 67.3 137.686 65.1C141.06 62.8633 145.075 61.2133 149.731 60.15V61.965C145.368 63.3217 141.921 65.54 139.391 68.62C136.861 71.7 135.285 75.3667 134.661 79.62C135.651 78.3 136.861 77.2733 138.291 76.54C139.758 75.8067 141.426 75.44 143.296 75.44C145.313 75.44 147.036 75.8983 148.466 76.815C149.933 77.7317 151.051 78.9967 151.821 80.61C152.628 82.1867 153.031 83.965 153.031 85.945C153.031 87.925 152.555 89.8133 151.601 91.61C150.648 93.37 149.218 94.8 147.311 95.9C145.405 97 143.021 97.55 140.161 97.55ZM134.386 83.635C134.386 87.4117 134.936 90.2533 136.036 92.16C137.173 94.03 138.621 94.965 140.381 94.965C141.665 94.965 142.728 94.58 143.571 93.81C144.415 93.04 145.038 92.0683 145.441 90.895C145.845 89.685 146.046 88.4933 146.046 87.32C146.046 84.8267 145.551 82.8833 144.561 81.49C143.608 80.0967 142.141 79.4 140.161 79.4C138.951 79.4 137.851 79.6933 136.861 80.28C135.871 80.83 135.046 81.5817 134.386 82.535C134.386 82.9017 134.386 83.2683 134.386 83.635Z"/>
</mask>
<path d="M140.161 97.55C137.558 97.55 135.285 96.9817 133.341 95.845C131.435 94.6717 129.931 93.0583 128.831 91.005C127.768 88.915 127.236 86.5133 127.236 83.8C127.236 79.84 128.135 76.2833 129.931 73.13C131.765 69.9767 134.35 67.3 137.686 65.1C141.06 62.8633 145.075 61.2133 149.731 60.15V61.965C145.368 63.3217 141.921 65.54 139.391 68.62C136.861 71.7 135.285 75.3667 134.661 79.62C135.651 78.3 136.861 77.2733 138.291 76.54C139.758 75.8067 141.426 75.44 143.296 75.44C145.313 75.44 147.036 75.8983 148.466 76.815C149.933 77.7317 151.051 78.9967 151.821 80.61C152.628 82.1867 153.031 83.965 153.031 85.945C153.031 87.925 152.555 89.8133 151.601 91.61C150.648 93.37 149.218 94.8 147.311 95.9C145.405 97 143.021 97.55 140.161 97.55ZM134.386 83.635C134.386 87.4117 134.936 90.2533 136.036 92.16C137.173 94.03 138.621 94.965 140.381 94.965C141.665 94.965 142.728 94.58 143.571 93.81C144.415 93.04 145.038 92.0683 145.441 90.895C145.845 89.685 146.046 88.4933 146.046 87.32C146.046 84.8267 145.551 82.8833 144.561 81.49C143.608 80.0967 142.141 79.4 140.161 79.4C138.951 79.4 137.851 79.6933 136.861 80.28C135.871 80.83 135.046 81.5817 134.386 82.535C134.386 82.9017 134.386 83.2683 134.386 83.635Z" fill="white"/>
<path d="M133.341 95.845L132.817 96.6967L132.827 96.7025L132.836 96.7082L133.341 95.845ZM128.831 91.005L127.94 91.4585L127.945 91.4679L127.95 91.4772L128.831 91.005ZM129.931 73.13L129.067 72.6274L129.062 72.6349L129.931 73.13ZM137.686 65.1L138.237 65.9349L138.239 65.9334L137.686 65.1ZM149.731 60.15H150.731V58.8959L149.509 59.1751L149.731 60.15ZM149.731 61.965L150.028 62.9199L150.731 62.7013V61.965H149.731ZM139.391 68.62L138.619 67.9853L139.391 68.62ZM134.661 79.62L133.672 79.475L135.461 80.22L134.661 79.62ZM138.291 76.54L137.844 75.6455L137.835 75.6502L138.291 76.54ZM148.466 76.815L147.927 77.6569L147.936 77.663L148.466 76.815ZM151.821 80.61L150.919 81.0407L150.925 81.0532L150.931 81.0655L151.821 80.61ZM151.601 91.61L152.481 92.0863L152.485 92.0787L151.601 91.61ZM147.311 95.9L147.811 96.7662H147.811L147.311 95.9ZM136.036 92.16L135.17 92.6597L135.176 92.6696L135.182 92.6794L136.036 92.16ZM145.441 90.895L146.387 91.2201L146.39 91.2112L145.441 90.895ZM144.561 81.49L143.736 82.0547L143.741 82.062L143.746 82.0692L144.561 81.49ZM136.861 80.28L137.347 81.1542L137.359 81.1474L137.371 81.1403L136.861 80.28ZM134.386 82.535L133.564 81.9658L133.386 82.2226V82.535H134.386ZM140.161 96.55C137.707 96.55 135.614 96.0157 133.846 94.9818L132.836 96.7082C134.956 97.9477 137.409 98.55 140.161 98.55V96.55ZM133.865 94.9933C132.116 93.9165 130.733 92.4368 129.713 90.5328L127.95 91.4772C129.13 93.6798 130.754 95.4268 132.817 96.6967L133.865 94.9933ZM129.723 90.5515C128.741 88.6226 128.236 86.3805 128.236 83.8H126.236C126.236 86.6461 126.795 89.2074 127.94 91.4585L129.723 90.5515ZM128.236 83.8C128.236 79.9973 129.097 76.614 130.8 73.625L129.062 72.6349C127.172 75.9527 126.236 79.6827 126.236 83.8H128.236ZM130.796 73.6326C132.544 70.6252 135.017 68.0581 138.237 65.9349L137.136 64.2651C133.683 66.5419 130.985 69.3281 129.067 72.6274L130.796 73.6326ZM138.239 65.9334C141.495 63.7743 145.394 62.1661 149.954 61.1249L149.509 59.1751C144.755 60.2605 140.624 61.9524 137.134 64.2666L138.239 65.9334ZM148.731 60.15V61.965H150.731V60.15H148.731ZM149.434 61.0101C144.913 62.416 141.29 64.7332 138.619 67.9853L140.164 69.2547C142.553 66.3468 145.823 64.2273 150.028 62.9199L149.434 61.0101ZM138.619 67.9853C135.964 71.2168 134.319 75.0564 133.672 79.475L135.651 79.765C136.25 75.6769 137.759 72.1832 140.164 69.2547L138.619 67.9853ZM135.461 80.22C136.363 79.0181 137.456 78.092 138.748 77.4298L137.835 75.6502C136.266 76.4547 134.94 77.5819 133.861 79.02L135.461 80.22ZM138.739 77.4344C140.048 76.7797 141.56 76.44 143.296 76.44V74.44C141.293 74.44 139.468 74.8336 137.844 75.6456L138.739 77.4344ZM143.296 76.44C145.158 76.44 146.686 76.8615 147.927 77.6569L149.006 75.9731C147.387 74.9352 145.468 74.44 143.296 74.44V76.44ZM147.936 77.663C149.236 78.4753 150.228 79.593 150.919 81.0407L152.724 80.1793C151.875 78.4003 150.63 76.988 148.996 75.967L147.936 77.663ZM150.931 81.0655C151.657 82.4852 152.031 84.1045 152.031 85.945H154.031C154.031 83.8255 153.599 81.8881 152.712 80.1545L150.931 81.0655ZM152.031 85.945C152.031 87.757 151.597 89.4849 150.718 91.1413L152.485 92.0787C153.512 90.1418 154.031 88.093 154.031 85.945H152.031ZM150.722 91.1337C149.865 92.7152 148.575 94.0167 146.812 95.0338L147.811 96.7662C149.861 95.5833 151.431 94.0248 152.481 92.0863L150.722 91.1337ZM146.812 95.0338C145.096 96.0237 142.897 96.55 140.161 96.55V98.55C143.146 98.55 145.714 97.9763 147.811 96.7662L146.812 95.0338ZM133.386 83.635C133.386 87.4771 133.94 90.528 135.17 92.6597L136.903 91.6603C135.932 89.9787 135.386 87.3462 135.386 83.635H133.386ZM135.182 92.6794C136.449 94.7639 138.184 95.965 140.381 95.965V93.965C139.059 93.965 137.897 93.2961 136.891 91.6406L135.182 92.6794ZM140.381 95.965C141.881 95.965 143.195 95.5079 144.246 94.5485L142.897 93.0715C142.261 93.6521 141.448 93.965 140.381 93.965V95.965ZM144.246 94.5485C145.223 93.656 145.934 92.5377 146.387 91.2201L144.496 90.5699C144.142 91.5989 143.606 92.424 142.897 93.0715L144.246 94.5485ZM146.39 91.2112C146.824 89.9081 147.046 88.6098 147.046 87.32H145.046C145.046 88.3769 144.865 89.4619 144.493 90.5788L146.39 91.2112ZM147.046 87.32C147.046 84.71 146.53 82.5348 145.377 80.9108L143.746 82.0692C144.572 83.2318 145.046 84.9433 145.046 87.32H147.046ZM145.387 80.9253C144.213 79.2095 142.406 78.4 140.161 78.4V80.4C141.877 80.4 143.003 80.9838 143.736 82.0547L145.387 80.9253ZM140.161 78.4C138.782 78.4 137.504 78.7368 136.352 79.4197L137.371 81.1403C138.199 80.6499 139.121 80.4 140.161 80.4V78.4ZM136.376 79.4058C135.248 80.0322 134.309 80.8895 133.564 81.9658L135.209 83.1042C135.783 82.2739 136.494 81.6278 137.347 81.1542L136.376 79.4058ZM133.386 82.535C133.386 82.5357 133.386 82.5364 133.386 82.5371C133.386 82.5379 133.386 82.5386 133.386 82.5393C133.386 82.54 133.386 82.5407 133.386 82.5414C133.386 82.5422 133.386 82.5429 133.386 82.5436C133.386 82.5443 133.386 82.545 133.386 82.5457C133.386 82.5465 133.386 82.5472 133.386 82.5479C133.386 82.5486 133.386 82.5493 133.386 82.55C133.386 82.5508 133.386 82.5515 133.386 82.5522C133.386 82.5529 133.386 82.5536 133.386 82.5543C133.386 82.555 133.386 82.5558 133.386 82.5565C133.386 82.5572 133.386 82.5579 133.386 82.5586C133.386 82.5593 133.386 82.5601 133.386 82.5608C133.386 82.5615 133.386 82.5622 133.386 82.5629C133.386 82.5636 133.386 82.5644 133.386 82.5651C133.386 82.5658 133.386 82.5665 133.386 82.5672C133.386 82.5679 133.386 82.5687 133.386 82.5694C133.386 82.5701 133.386 82.5708 133.386 82.5715C133.386 82.5722 133.386 82.573 133.386 82.5737C133.386 82.5744 133.386 82.5751 133.386 82.5758C133.386 82.5765 133.386 82.5773 133.386 82.578C133.386 82.5787 133.386 82.5794 133.386 82.5801C133.386 82.5808 133.386 82.5816 133.386 82.5823C133.386 82.583 133.386 82.5837 133.386 82.5844C133.386 82.5851 133.386 82.5858 133.386 82.5866C133.386 82.5873 133.386 82.588 133.386 82.5887C133.386 82.5894 133.386 82.5901 133.386 82.5909C133.386 82.5916 133.386 82.5923 133.386 82.593C133.386 82.5937 133.386 82.5944 133.386 82.5952C133.386 82.5959 133.386 82.5966 133.386 82.5973C133.386 82.598 133.386 82.5987 133.386 82.5995C133.386 82.6002 133.386 82.6009 133.386 82.6016C133.386 82.6023 133.386 82.603 133.386 82.6037C133.386 82.6045 133.386 82.6052 133.386 82.6059C133.386 82.6066 133.386 82.6073 133.386 82.608C133.386 82.6088 133.386 82.6095 133.386 82.6102C133.386 82.6109 133.386 82.6116 133.386 82.6123C133.386 82.6131 133.386 82.6138 133.386 82.6145C133.386 82.6152 133.386 82.6159 133.386 82.6166C133.386 82.6174 133.386 82.6181 133.386 82.6188C133.386 82.6195 133.386 82.6202 133.386 82.6209C133.386 82.6217 133.386 82.6224 133.386 82.6231C133.386 82.6238 133.386 82.6245 133.386 82.6252C133.386 82.6259 133.386 82.6267 133.386 82.6274C133.386 82.6281 133.386 82.6288 133.386 82.6295C133.386 82.6302 133.386 82.631 133.386 82.6317C133.386 82.6324 133.386 82.6331 133.386 82.6338C133.386 82.6345 133.386 82.6353 133.386 82.636C133.386 82.6367 133.386 82.6374 133.386 82.6381C133.386 82.6388 133.386 82.6396 133.386 82.6403C133.386 82.641 133.386 82.6417 133.386 82.6424C133.386 82.6431 133.386 82.6439 133.386 82.6446C133.386 82.6453 133.386 82.646 133.386 82.6467C133.386 82.6474 133.386 82.6482 133.386 82.6489C133.386 82.6496 133.386 82.6503 133.386 82.651C133.386 82.6517 133.386 82.6524 133.386 82.6532C133.386 82.6539 133.386 82.6546 133.386 82.6553C133.386 82.656 133.386 82.6567 133.386 82.6575C133.386 82.6582 133.386 82.6589 133.386 82.6596C133.386 82.6603 133.386 82.661 133.386 82.6618C133.386 82.6625 133.386 82.6632 133.386 82.6639C133.386 82.6646 133.386 82.6653 133.386 82.6661C133.386 82.6668 133.386 82.6675 133.386 82.6682C133.386 82.6689 133.386 82.6696 133.386 82.6703C133.386 82.6711 133.386 82.6718 133.386 82.6725C133.386 82.6732 133.386 82.6739 133.386 82.6746C133.386 82.6754 133.386 82.6761 133.386 82.6768C133.386 82.6775 133.386 82.6782 133.386 82.6789C133.386 82.6797 133.386 82.6804 133.386 82.6811C133.386 82.6818 133.386 82.6825 133.386 82.6832C133.386 82.684 133.386 82.6847 133.386 82.6854C133.386 82.6861 133.386 82.6868 133.386 82.6875C133.386 82.6883 133.386 82.689 133.386 82.6897C133.386 82.6904 133.386 82.6911 133.386 82.6918C133.386 82.6926 133.386 82.6933 133.386 82.694C133.386 82.6947 133.386 82.6954 133.386 82.6961C133.386 82.6968 133.386 82.6976 133.386 82.6983C133.386 82.699 133.386 82.6997 133.386 82.7004C133.386 82.7011 133.386 82.7019 133.386 82.7026C133.386 82.7033 133.386 82.704 133.386 82.7047C133.386 82.7054 133.386 82.7062 133.386 82.7069C133.386 82.7076 133.386 82.7083 133.386 82.709C133.386 82.7097 133.386 82.7105 133.386 82.7112C133.386 82.7119 133.386 82.7126 133.386 82.7133C133.386 82.714 133.386 82.7148 133.386 82.7155C133.386 82.7162 133.386 82.7169 133.386 82.7176C133.386 82.7183 133.386 82.719 133.386 82.7198C133.386 82.7205 133.386 82.7212 133.386 82.7219C133.386 82.7226 133.386 82.7233 133.386 82.7241C133.386 82.7248 133.386 82.7255 133.386 82.7262C133.386 82.7269 133.386 82.7276 133.386 82.7284C133.386 82.7291 133.386 82.7298 133.386 82.7305C133.386 82.7312 133.386 82.7319 133.386 82.7327C133.386 82.7334 133.386 82.7341 133.386 82.7348C133.386 82.7355 133.386 82.7362 133.386 82.737C133.386 82.7377 133.386 82.7384 133.386 82.7391C133.386 82.7398 133.386 82.7405 133.386 82.7412C133.386 82.742 133.386 82.7427 133.386 82.7434C133.386 82.7441 133.386 82.7448 133.386 82.7455C133.386 82.7463 133.386 82.747 133.386 82.7477C133.386 82.7484 133.386 82.7491 133.386 82.7498C133.386 82.7506 133.386 82.7513 133.386 82.752C133.386 82.7527 133.386 82.7534 133.386 82.7541C133.386 82.7549 133.386 82.7556 133.386 82.7563C133.386 82.757 133.386 82.7577 133.386 82.7584C133.386 82.7592 133.386 82.7599 133.386 82.7606C133.386 82.7613 133.386 82.762 133.386 82.7627C133.386 82.7635 133.386 82.7642 133.386 82.7649C133.386 82.7656 133.386 82.7663 133.386 82.767C133.386 82.7677 133.386 82.7685 133.386 82.7692C133.386 82.7699 133.386 82.7706 133.386 82.7713C133.386 82.772 133.386 82.7728 133.386 82.7735C133.386 82.7742 133.386 82.7749 133.386 82.7756C133.386 82.7763 133.386 82.7771 133.386 82.7778C133.386 82.7785 133.386 82.7792 133.386 82.7799C133.386 82.7806 133.386 82.7814 133.386 82.7821C133.386 82.7828 133.386 82.7835 133.386 82.7842C133.386 82.7849 133.386 82.7856 133.386 82.7864C133.386 82.7871 133.386 82.7878 133.386 82.7885C133.386 82.7892 133.386 82.7899 133.386 82.7907C133.386 82.7914 133.386 82.7921 133.386 82.7928C133.386 82.7935 133.386 82.7942 133.386 82.795C133.386 82.7957 133.386 82.7964 133.386 82.7971C133.386 82.7978 133.386 82.7985 133.386 82.7993C133.386 82.8 133.386 82.8007 133.386 82.8014C133.386 82.8021 133.386 82.8028 133.386 82.8036C133.386 82.8043 133.386 82.805 133.386 82.8057C133.386 82.8064 133.386 82.8071 133.386 82.8078C133.386 82.8086 133.386 82.8093 133.386 82.81C133.386 82.8107 133.386 82.8114 133.386 82.8121C133.386 82.8129 133.386 82.8136 133.386 82.8143C133.386 82.815 133.386 82.8157 133.386 82.8164C133.386 82.8172 133.386 82.8179 133.386 82.8186C133.386 82.8193 133.386 82.82 133.386 82.8207C133.386 82.8215 133.386 82.8222 133.386 82.8229C133.386 82.8236 133.386 82.8243 133.386 82.825C133.386 82.8258 133.386 82.8265 133.386 82.8272C133.386 82.8279 133.386 82.8286 133.386 82.8293C133.386 82.8301 133.386 82.8308 133.386 82.8315C133.386 82.8322 133.386 82.8329 133.386 82.8336C133.386 82.8343 133.386 82.8351 133.386 82.8358C133.386 82.8365 133.386 82.8372 133.386 82.8379C133.386 82.8386 133.386 82.8394 133.386 82.8401C133.386 82.8408 133.386 82.8415 133.386 82.8422C133.386 82.8429 133.386 82.8437 133.386 82.8444C133.386 82.8451 133.386 82.8458 133.386 82.8465C133.386 82.8472 133.386 82.848 133.386 82.8487C133.386 82.8494 133.386 82.8501 133.386 82.8508C133.386 82.8515 133.386 82.8523 133.386 82.853C133.386 82.8537 133.386 82.8544 133.386 82.8551C133.386 82.8558 133.386 82.8565 133.386 82.8573C133.386 82.858 133.386 82.8587 133.386 82.8594C133.386 82.8601 133.386 82.8608 133.386 82.8616C133.386 82.8623 133.386 82.863 133.386 82.8637C133.386 82.8644 133.386 82.8651 133.386 82.8659C133.386 82.8666 133.386 82.8673 133.386 82.868C133.386 82.8687 133.386 82.8694 133.386 82.8702C133.386 82.8709 133.386 82.8716 133.386 82.8723C133.386 82.873 133.386 82.8737 133.386 82.8745C133.386 82.8752 133.386 82.8759 133.386 82.8766C133.386 82.8773 133.386 82.878 133.386 82.8787C133.386 82.8795 133.386 82.8802 133.386 82.8809C133.386 82.8816 133.386 82.8823 133.386 82.883C133.386 82.8838 133.386 82.8845 133.386 82.8852C133.386 82.8859 133.386 82.8866 133.386 82.8873C133.386 82.8881 133.386 82.8888 133.386 82.8895C133.386 82.8902 133.386 82.8909 133.386 82.8916C133.386 82.8924 133.386 82.8931 133.386 82.8938C133.386 82.8945 133.386 82.8952 133.386 82.8959C133.386 82.8967 133.386 82.8974 133.386 82.8981C133.386 82.8988 133.386 82.8995 133.386 82.9002C133.386 82.901 133.386 82.9017 133.386 82.9024C133.386 82.9031 133.386 82.9038 133.386 82.9045C133.386 82.9052 133.386 82.906 133.386 82.9067C133.386 82.9074 133.386 82.9081 133.386 82.9088C133.386 82.9095 133.386 82.9103 133.386 82.911C133.386 82.9117 133.386 82.9124 133.386 82.9131C133.386 82.9138 133.386 82.9146 133.386 82.9153C133.386 82.916 133.386 82.9167 133.386 82.9174C133.386 82.9181 133.386 82.9189 133.386 82.9196C133.386 82.9203 133.386 82.921 133.386 82.9217C133.386 82.9224 133.386 82.9231 133.386 82.9239C133.386 82.9246 133.386 82.9253 133.386 82.926C133.386 82.9267 133.386 82.9274 133.386 82.9282C133.386 82.9289 133.386 82.9296 133.386 82.9303C133.386 82.931 133.386 82.9317 133.386 82.9325C133.386 82.9332 133.386 82.9339 133.386 82.9346C133.386 82.9353 133.386 82.936 133.386 82.9368C133.386 82.9375 133.386 82.9382 133.386 82.9389C133.386 82.9396 133.386 82.9403 133.386 82.9411C133.386 82.9418 133.386 82.9425 133.386 82.9432C133.386 82.9439 133.386 82.9446 133.386 82.9454C133.386 82.9461 133.386 82.9468 133.386 82.9475C133.386 82.9482 133.386 82.9489 133.386 82.9496C133.386 82.9504 133.386 82.9511 133.386 82.9518C133.386 82.9525 133.386 82.9532 133.386 82.9539C133.386 82.9547 133.386 82.9554 133.386 82.9561C133.386 82.9568 133.386 82.9575 133.386 82.9582C133.386 82.959 133.386 82.9597 133.386 82.9604C133.386 82.9611 133.386 82.9618 133.386 82.9625C133.386 82.9633 133.386 82.964 133.386 82.9647C133.386 82.9654 133.386 82.9661 133.386 82.9668C133.386 82.9676 133.386 82.9683 133.386 82.969C133.386 82.9697 133.386 82.9704 133.386 82.9711C133.386 82.9718 133.386 82.9726 133.386 82.9733C133.386 82.974 133.386 82.9747 133.386 82.9754C133.386 82.9761 133.386 82.9769 133.386 82.9776C133.386 82.9783 133.386 82.979 133.386 82.9797C133.386 82.9804 133.386 82.9812 133.386 82.9819C133.386 82.9826 133.386 82.9833 133.386 82.984C133.386 82.9847 133.386 82.9855 133.386 82.9862C133.386 82.9869 133.386 82.9876 133.386 82.9883C133.386 82.989 133.386 82.9897 133.386 82.9905C133.386 82.9912 133.386 82.9919 133.386 82.9926C133.386 82.9933 133.386 82.994 133.386 82.9948C133.386 82.9955 133.386 82.9962 133.386 82.9969C133.386 82.9976 133.386 82.9983 133.386 82.9991C133.386 82.9998 133.386 83.0005 133.386 83.0012C133.386 83.0019 133.386 83.0026 133.386 83.0034C133.386 83.0041 133.386 83.0048 133.386 83.0055C133.386 83.0062 133.386 83.0069 133.386 83.0077C133.386 83.0084 133.386 83.0091 133.386 83.0098C133.386 83.0105 133.386 83.0112 133.386 83.012C133.386 83.0127 133.386 83.0134 133.386 83.0141C133.386 83.0148 133.386 83.0155 133.386 83.0163C133.386 83.017 133.386 83.0177 133.386 83.0184C133.386 83.0191 133.386 83.0198 133.386 83.0205C133.386 83.0213 133.386 83.022 133.386 83.0227C133.386 83.0234 133.386 83.0241 133.386 83.0248C133.386 83.0256 133.386 83.0263 133.386 83.027C133.386 83.0277 133.386 83.0284 133.386 83.0291C133.386 83.0299 133.386 83.0306 133.386 83.0313C133.386 83.032 133.386 83.0327 133.386 83.0334C133.386 83.0342 133.386 83.0349 133.386 83.0356C133.386 83.0363 133.386 83.037 133.386 83.0377C133.386 83.0384 133.386 83.0392 133.386 83.0399C133.386 83.0406 133.386 83.0413 133.386 83.042C133.386 83.0427 133.386 83.0435 133.386 83.0442C133.386 83.0449 133.386 83.0456 133.386 83.0463C133.386 83.047 133.386 83.0478 133.386 83.0485C133.386 83.0492 133.386 83.0499 133.386 83.0506C133.386 83.0513 133.386 83.0521 133.386 83.0528C133.386 83.0535 133.386 83.0542 133.386 83.0549C133.386 83.0556 133.386 83.0564 133.386 83.0571C133.386 83.0578 133.386 83.0585 133.386 83.0592C133.386 83.0599 133.386 83.0606 133.386 83.0614C133.386 83.0621 133.386 83.0628 133.386 83.0635C133.386 83.0642 133.386 83.0649 133.386 83.0657C133.386 83.0664 133.386 83.0671 133.386 83.0678C133.386 83.0685 133.386 83.0692 133.386 83.07C133.386 83.0707 133.386 83.0714 133.386 83.0721C133.386 83.0728 133.386 83.0735 133.386 83.0743C133.386 83.075 133.386 83.0757 133.386 83.0764C133.386 83.0771 133.386 83.0778 133.386 83.0786C133.386 83.0793 133.386 83.08 133.386 83.0807C133.386 83.0814 133.386 83.0821 133.386 83.0829C133.386 83.0836 133.386 83.0843 133.386 83.085C133.386 83.0857 133.386 83.0864 133.386 83.0871C133.386 83.0879 133.386 83.0886 133.386 83.0893C133.386 83.09 133.386 83.0907 133.386 83.0914C133.386 83.0922 133.386 83.0929 133.386 83.0936C133.386 83.0943 133.386 83.095 133.386 83.0957C133.386 83.0965 133.386 83.0972 133.386 83.0979C133.386 83.0986 133.386 83.0993 133.386 83.1C133.386 83.1008 133.386 83.1015 133.386 83.1022C133.386 83.1029 133.386 83.1036 133.386 83.1043C133.386 83.1051 133.386 83.1058 133.386 83.1065C133.386 83.1072 133.386 83.1079 133.386 83.1086C133.386 83.1093 133.386 83.1101 133.386 83.1108C133.386 83.1115 133.386 83.1122 133.386 83.1129C133.386 83.1136 133.386 83.1144 133.386 83.1151C133.386 83.1158 133.386 83.1165 133.386 83.1172C133.386 83.1179 133.386 83.1187 133.386 83.1194C133.386 83.1201 133.386 83.1208 133.386 83.1215C133.386 83.1222 133.386 83.123 133.386 83.1237C133.386 83.1244 133.386 83.1251 133.386 83.1258C133.386 83.1265 133.386 83.1273 133.386 83.128C133.386 83.1287 133.386 83.1294 133.386 83.1301C133.386 83.1308 133.386 83.1315 133.386 83.1323C133.386 83.133 133.386 83.1337 133.386 83.1344C133.386 83.1351 133.386 83.1358 133.386 83.1366C133.386 83.1373 133.386 83.138 133.386 83.1387C133.386 83.1394 133.386 83.1401 133.386 83.1409C133.386 83.1416 133.386 83.1423 133.386 83.143C133.386 83.1437 133.386 83.1444 133.386 83.1452C133.386 83.1459 133.386 83.1466 133.386 83.1473C133.386 83.148 133.386 83.1487 133.386 83.1495C133.386 83.1502 133.386 83.1509 133.386 83.1516C133.386 83.1523 133.386 83.153 133.386 83.1537C133.386 83.1545 133.386 83.1552 133.386 83.1559C133.386 83.1566 133.386 83.1573 133.386 83.158C133.386 83.1588 133.386 83.1595 133.386 83.1602C133.386 83.1609 133.386 83.1616 133.386 83.1623C133.386 83.1631 133.386 83.1638 133.386 83.1645C133.386 83.1652 133.386 83.1659 133.386 83.1666C133.386 83.1674 133.386 83.1681 133.386 83.1688C133.386 83.1695 133.386 83.1702 133.386 83.1709C133.386 83.1717 133.386 83.1724 133.386 83.1731C133.386 83.1738 133.386 83.1745 133.386 83.1752C133.386 83.1759 133.386 83.1767 133.386 83.1774C133.386 83.1781 133.386 83.1788 133.386 83.1795C133.386 83.1802 133.386 83.181 133.386 83.1817C133.386 83.1824 133.386 83.1831 133.386 83.1838C133.386 83.1845 133.386 83.1853 133.386 83.186C133.386 83.1867 133.386 83.1874 133.386 83.1881C133.386 83.1888 133.386 83.1896 133.386 83.1903C133.386 83.191 133.386 83.1917 133.386 83.1924C133.386 83.1931 133.386 83.1939 133.386 83.1946C133.386 83.1953 133.386 83.196 133.386 83.1967C133.386 83.1974 133.386 83.1982 133.386 83.1989C133.386 83.1996 133.386 83.2003 133.386 83.201C133.386 83.2017 133.386 83.2024 133.386 83.2032C133.386 83.2039 133.386 83.2046 133.386 83.2053C133.386 83.206 133.386 83.2067 133.386 83.2075C133.386 83.2082 133.386 83.2089 133.386 83.2096C133.386 83.2103 133.386 83.211 133.386 83.2118C133.386 83.2125 133.386 83.2132 133.386 83.2139C133.386 83.2146 133.386 83.2153 133.386 83.2161C133.386 83.2168 133.386 83.2175 133.386 83.2182C133.386 83.2189 133.386 83.2196 133.386 83.2204C133.386 83.2211 133.386 83.2218 133.386 83.2225C133.386 83.2232 133.386 83.2239 133.386 83.2246C133.386 83.2254 133.386 83.2261 133.386 83.2268C133.386 83.2275 133.386 83.2282 133.386 83.2289C133.386 83.2297 133.386 83.2304 133.386 83.2311C133.386 83.2318 133.386 83.2325 133.386 83.2332C133.386 83.234 133.386 83.2347 133.386 83.2354C133.386 83.2361 133.386 83.2368 133.386 83.2375C133.386 83.2383 133.386 83.239 133.386 83.2397C133.386 83.2404 133.386 83.2411 133.386 83.2418C133.386 83.2425 133.386 83.2433 133.386 83.244C133.386 83.2447 133.386 83.2454 133.386 83.2461C133.386 83.2468 133.386 83.2476 133.386 83.2483C133.386 83.249 133.386 83.2497 133.386 83.2504C133.386 83.2511 133.386 83.2519 133.386 83.2526C133.386 83.2533 133.386 83.254 133.386 83.2547C133.386 83.2554 133.386 83.2562 133.386 83.2569C133.386 83.2576 133.386 83.2583 133.386 83.259C133.386 83.2597 133.386 83.2605 133.386 83.2612C133.386 83.2619 133.386 83.2626 133.386 83.2633C133.386 83.264 133.386 83.2648 133.386 83.2655C133.386 83.2662 133.386 83.2669 133.386 83.2676C133.386 83.2683 133.386 83.269 133.386 83.2698C133.386 83.2705 133.386 83.2712 133.386 83.2719C133.386 83.2726 133.386 83.2733 133.386 83.2741C133.386 83.2748 133.386 83.2755 133.386 83.2762C133.386 83.2769 133.386 83.2776 133.386 83.2784C133.386 83.2791 133.386 83.2798 133.386 83.2805C133.386 83.2812 133.386 83.2819 133.386 83.2827C133.386 83.2834 133.386 83.2841 133.386 83.2848C133.386 83.2855 133.386 83.2862 133.386 83.287C133.386 83.2877 133.386 83.2884 133.386 83.2891C133.386 83.2898 133.386 83.2905 133.386 83.2912C133.386 83.292 133.386 83.2927 133.386 83.2934C133.386 83.2941 133.386 83.2948 133.386 83.2955C133.386 83.2963 133.386 83.297 133.386 83.2977C133.386 83.2984 133.386 83.2991 133.386 83.2998C133.386 83.3006 133.386 83.3013 133.386 83.302C133.386 83.3027 133.386 83.3034 133.386 83.3041C133.386 83.3049 133.386 83.3056 133.386 83.3063C133.386 83.307 133.386 83.3077 133.386 83.3084C133.386 83.3092 133.386 83.3099 133.386 83.3106C133.386 83.3113 133.386 83.312 133.386 83.3127C133.386 83.3134 133.386 83.3142 133.386 83.3149C133.386 83.3156 133.386 83.3163 133.386 83.317C133.386 83.3177 133.386 83.3185 133.386 83.3192C133.386 83.3199 133.386 83.3206 133.386 83.3213C133.386 83.322 133.386 83.3228 133.386 83.3235C133.386 83.3242 133.386 83.3249 133.386 83.3256C133.386 83.3263 133.386 83.3271 133.386 83.3278C133.386 83.3285 133.386 83.3292 133.386 83.3299C133.386 83.3306 133.386 83.3314 133.386 83.3321C133.386 83.3328 133.386 83.3335 133.386 83.3342C133.386 83.3349 133.386 83.3357 133.386 83.3364C133.386 83.3371 133.386 83.3378 133.386 83.3385C133.386 83.3392 133.386 83.3399 133.386 83.3407C133.386 83.3414 133.386 83.3421 133.386 83.3428C133.386 83.3435 133.386 83.3442 133.386 83.345C133.386 83.3457 133.386 83.3464 133.386 83.3471C133.386 83.3478 133.386 83.3485 133.386 83.3493C133.386 83.35 133.386 83.3507 133.386 83.3514C133.386 83.3521 133.386 83.3528 133.386 83.3536C133.386 83.3543 133.386 83.355 133.386 83.3557C133.386 83.3564 133.386 83.3571 133.386 83.3578C133.386 83.3586 133.386 83.3593 133.386 83.36C133.386 83.3607 133.386 83.3614 133.386 83.3621C133.386 83.3629 133.386 83.3636 133.386 83.3643C133.386 83.365 133.386 83.3657 133.386 83.3664C133.386 83.3672 133.386 83.3679 133.386 83.3686C133.386 83.3693 133.386 83.37 133.386 83.3707C133.386 83.3715 133.386 83.3722 133.386 83.3729C133.386 83.3736 133.386 83.3743 133.386 83.375C133.386 83.3758 133.386 83.3765 133.386 83.3772C133.386 83.3779 133.386 83.3786 133.386 83.3793C133.386 83.3801 133.386 83.3808 133.386 83.3815C133.386 83.3822 133.386 83.3829 133.386 83.3836C133.386 83.3843 133.386 83.3851 133.386 83.3858C133.386 83.3865 133.386 83.3872 133.386 83.3879C133.386 83.3886 133.386 83.3894 133.386 83.3901C133.386 83.3908 133.386 83.3915 133.386 83.3922C133.386 83.3929 133.386 83.3937 133.386 83.3944C133.386 83.3951 133.386 83.3958 133.386 83.3965C133.386 83.3972 133.386 83.398 133.386 83.3987C133.386 83.3994 133.386 83.4001 133.386 83.4008C133.386 83.4015 133.386 83.4023 133.386 83.403C133.386 83.4037 133.386 83.4044 133.386 83.4051C133.386 83.4058 133.386 83.4065 133.386 83.4073C133.386 83.408 133.386 83.4087 133.386 83.4094C133.386 83.4101 133.386 83.4108 133.386 83.4116C133.386 83.4123 133.386 83.413 133.386 83.4137C133.386 83.4144 133.386 83.4151 133.386 83.4159C133.386 83.4166 133.386 83.4173 133.386 83.418C133.386 83.4187 133.386 83.4194 133.386 83.4202C133.386 83.4209 133.386 83.4216 133.386 83.4223C133.386 83.423 133.386 83.4237 133.386 83.4245C133.386 83.4252 133.386 83.4259 133.386 83.4266C133.386 83.4273 133.386 83.428 133.386 83.4287C133.386 83.4295 133.386 83.4302 133.386 83.4309C133.386 83.4316 133.386 83.4323 133.386 83.433C133.386 83.4338 133.386 83.4345 133.386 83.4352C133.386 83.4359 133.386 83.4366 133.386 83.4373C133.386 83.4381 133.386 83.4388 133.386 83.4395C133.386 83.4402 133.386 83.4409 133.386 83.4416C133.386 83.4424 133.386 83.4431 133.386 83.4438C133.386 83.4445 133.386 83.4452 133.386 83.4459C133.386 83.4467 133.386 83.4474 133.386 83.4481C133.386 83.4488 133.386 83.4495 133.386 83.4502C133.386 83.451 133.386 83.4517 133.386 83.4524C133.386 83.4531 133.386 83.4538 133.386 83.4545C133.386 83.4552 133.386 83.456 133.386 83.4567C133.386 83.4574 133.386 83.4581 133.386 83.4588C133.386 83.4595 133.386 83.4603 133.386 83.461C133.386 83.4617 133.386 83.4624 133.386 83.4631C133.386 83.4638 133.386 83.4646 133.386 83.4653C133.386 83.466 133.386 83.4667 133.386 83.4674C133.386 83.4681 133.386 83.4689 133.386 83.4696C133.386 83.4703 133.386 83.471 133.386 83.4717C133.386 83.4724 133.386 83.4731 133.386 83.4739C133.386 83.4746 133.386 83.4753 133.386 83.476C133.386 83.4767 133.386 83.4774 133.386 83.4782C133.386 83.4789 133.386 83.4796 133.386 83.4803C133.386 83.481 133.386 83.4817 133.386 83.4825C133.386 83.4832 133.386 83.4839 133.386 83.4846C133.386 83.4853 133.386 83.486 133.386 83.4868C133.386 83.4875 133.386 83.4882 133.386 83.4889C133.386 83.4896 133.386 83.4903 133.386 83.4911C133.386 83.4918 133.386 83.4925 133.386 83.4932C133.386 83.4939 133.386 83.4946 133.386 83.4953C133.386 83.4961 133.386 83.4968 133.386 83.4975C133.386 83.4982 133.386 83.4989 133.386 83.4996C133.386 83.5004 133.386 83.5011 133.386 83.5018C133.386 83.5025 133.386 83.5032 133.386 83.5039C133.386 83.5047 133.386 83.5054 133.386 83.5061C133.386 83.5068 133.386 83.5075 133.386 83.5082C133.386 83.509 133.386 83.5097 133.386 83.5104C133.386 83.5111 133.386 83.5118 133.386 83.5125C133.386 83.5133 133.386 83.514 133.386 83.5147C133.386 83.5154 133.386 83.5161 133.386 83.5168C133.386 83.5176 133.386 83.5183 133.386 83.519C133.386 83.5197 133.386 83.5204 133.386 83.5211C133.386 83.5218 133.386 83.5226 133.386 83.5233C133.386 83.524 133.386 83.5247 133.386 83.5254C133.386 83.5261 133.386 83.5269 133.386 83.5276C133.386 83.5283 133.386 83.529 133.386 83.5297C133.386 83.5304 133.386 83.5312 133.386 83.5319C133.386 83.5326 133.386 83.5333 133.386 83.534C133.386 83.5347 133.386 83.5355 133.386 83.5362C133.386 83.5369 133.386 83.5376 133.386 83.5383C133.386 83.539 133.386 83.5398 133.386 83.5405C133.386 83.5412 133.386 83.5419 133.386 83.5426C133.386 83.5433 133.386 83.544 133.386 83.5448C133.386 83.5455 133.386 83.5462 133.386 83.5469C133.386 83.5476 133.386 83.5483 133.386 83.5491C133.386 83.5498 133.386 83.5505 133.386 83.5512C133.386 83.5519 133.386 83.5526 133.386 83.5534C133.386 83.5541 133.386 83.5548 133.386 83.5555C133.386 83.5562 133.386 83.5569 133.386 83.5577C133.386 83.5584 133.386 83.5591 133.386 83.5598C133.386 83.5605 133.386 83.5612 133.386 83.562C133.386 83.5627 133.386 83.5634 133.386 83.5641C133.386 83.5648 133.386 83.5655 133.386 83.5662C133.386 83.567 133.386 83.5677 133.386 83.5684C133.386 83.5691 133.386 83.5698 133.386 83.5705C133.386 83.5713 133.386 83.572 133.386 83.5727C133.386 83.5734 133.386 83.5741 133.386 83.5748C133.386 83.5756 133.386 83.5763 133.386 83.577C133.386 83.5777 133.386 83.5784 133.386 83.5791C133.386 83.5799 133.386 83.5806 133.386 83.5813C133.386 83.582 133.386 83.5827 133.386 83.5834C133.386 83.5842 133.386 83.5849 133.386 83.5856C133.386 83.5863 133.386 83.587 133.386 83.5877C133.386 83.5885 133.386 83.5892 133.386 83.5899C133.386 83.5906 133.386 83.5913 133.386 83.592C133.386 83.5927 133.386 83.5935 133.386 83.5942C133.386 83.5949 133.386 83.5956 133.386 83.5963C133.386 83.597 133.386 83.5978 133.386 83.5985C133.386 83.5992 133.386 83.5999 133.386 83.6006C133.386 83.6013 133.386 83.6021 133.386 83.6028C133.386 83.6035 133.386 83.6042 133.386 83.6049C133.386 83.6056 133.386 83.6064 133.386 83.6071C133.386 83.6078 133.386 83.6085 133.386 83.6092C133.386 83.6099 133.386 83.6106 133.386 83.6114C133.386 83.6121 133.386 83.6128 133.386 83.6135C133.386 83.6142 133.386 83.6149 133.386 83.6157C133.386 83.6164 133.386 83.6171 133.386 83.6178C133.386 83.6185 133.386 83.6192 133.386 83.62C133.386 83.6207 133.386 83.6214 133.386 83.6221C133.386 83.6228 133.386 83.6235 133.386 83.6243C133.386 83.625 133.386 83.6257 133.386 83.6264C133.386 83.6271 133.386 83.6278 133.386 83.6286C133.386 83.6293 133.386 83.63 133.386 83.6307C133.386 83.6314 133.386 83.6321 133.386 83.6329C133.386 83.6336 133.386 83.6343 133.386 83.635H135.386C135.386 83.6343 135.386 83.6336 135.386 83.6329C135.386 83.6321 135.386 83.6314 135.386 83.6307C135.386 83.63 135.386 83.6293 135.386 83.6286C135.386 83.6278 135.386 83.6271 135.386 83.6264C135.386 83.6257 135.386 83.625 135.386 83.6243C135.386 83.6235 135.386 83.6228 135.386 83.6221C135.386 83.6214 135.386 83.6207 135.386 83.62C135.386 83.6192 135.386 83.6185 135.386 83.6178C135.386 83.6171 135.386 83.6164 135.386 83.6157C135.386 83.6149 135.386 83.6142 135.386 83.6135C135.386 83.6128 135.386 83.6121 135.386 83.6114C135.386 83.6106 135.386 83.6099 135.386 83.6092C135.386 83.6085 135.386 83.6078 135.386 83.6071C135.386 83.6064 135.386 83.6056 135.386 83.6049C135.386 83.6042 135.386 83.6035 135.386 83.6028C135.386 83.6021 135.386 83.6013 135.386 83.6006C135.386 83.5999 135.386 83.5992 135.386 83.5985C135.386 83.5978 135.386 83.597 135.386 83.5963C135.386 83.5956 135.386 83.5949 135.386 83.5942C135.386 83.5935 135.386 83.5927 135.386 83.592C135.386 83.5913 135.386 83.5906 135.386 83.5899C135.386 83.5892 135.386 83.5885 135.386 83.5877C135.386 83.587 135.386 83.5863 135.386 83.5856C135.386 83.5849 135.386 83.5842 135.386 83.5834C135.386 83.5827 135.386 83.582 135.386 83.5813C135.386 83.5806 135.386 83.5799 135.386 83.5791C135.386 83.5784 135.386 83.5777 135.386 83.577C135.386 83.5763 135.386 83.5756 135.386 83.5748C135.386 83.5741 135.386 83.5734 135.386 83.5727C135.386 83.572 135.386 83.5713 135.386 83.5705C135.386 83.5698 135.386 83.5691 135.386 83.5684C135.386 83.5677 135.386 83.567 135.386 83.5662C135.386 83.5655 135.386 83.5648 135.386 83.5641C135.386 83.5634 135.386 83.5627 135.386 83.562C135.386 83.5612 135.386 83.5605 135.386 83.5598C135.386 83.5591 135.386 83.5584 135.386 83.5577C135.386 83.5569 135.386 83.5562 135.386 83.5555C135.386 83.5548 135.386 83.5541 135.386 83.5534C135.386 83.5526 135.386 83.5519 135.386 83.5512C135.386 83.5505 135.386 83.5498 135.386 83.5491C135.386 83.5483 135.386 83.5476 135.386 83.5469C135.386 83.5462 135.386 83.5455 135.386 83.5448C135.386 83.544 135.386 83.5433 135.386 83.5426C135.386 83.5419 135.386 83.5412 135.386 83.5405C135.386 83.5398 135.386 83.539 135.386 83.5383C135.386 83.5376 135.386 83.5369 135.386 83.5362C135.386 83.5355 135.386 83.5347 135.386 83.534C135.386 83.5333 135.386 83.5326 135.386 83.5319C135.386 83.5312 135.386 83.5304 135.386 83.5297C135.386 83.529 135.386 83.5283 135.386 83.5276C135.386 83.5269 135.386 83.5261 135.386 83.5254C135.386 83.5247 135.386 83.524 135.386 83.5233C135.386 83.5226 135.386 83.5218 135.386 83.5211C135.386 83.5204 135.386 83.5197 135.386 83.519C135.386 83.5183 135.386 83.5176 135.386 83.5168C135.386 83.5161 135.386 83.5154 135.386 83.5147C135.386 83.514 135.386 83.5133 135.386 83.5125C135.386 83.5118 135.386 83.5111 135.386 83.5104C135.386 83.5097 135.386 83.509 135.386 83.5082C135.386 83.5075 135.386 83.5068 135.386 83.5061C135.386 83.5054 135.386 83.5047 135.386 83.5039C135.386 83.5032 135.386 83.5025 135.386 83.5018C135.386 83.5011 135.386 83.5004 135.386 83.4996C135.386 83.4989 135.386 83.4982 135.386 83.4975C135.386 83.4968 135.386 83.4961 135.386 83.4953C135.386 83.4946 135.386 83.4939 135.386 83.4932C135.386 83.4925 135.386 83.4918 135.386 83.4911C135.386 83.4903 135.386 83.4896 135.386 83.4889C135.386 83.4882 135.386 83.4875 135.386 83.4868C135.386 83.486 135.386 83.4853 135.386 83.4846C135.386 83.4839 135.386 83.4832 135.386 83.4825C135.386 83.4817 135.386 83.481 135.386 83.4803C135.386 83.4796 135.386 83.4789 135.386 83.4782C135.386 83.4774 135.386 83.4767 135.386 83.476C135.386 83.4753 135.386 83.4746 135.386 83.4739C135.386 83.4731 135.386 83.4724 135.386 83.4717C135.386 83.471 135.386 83.4703 135.386 83.4696C135.386 83.4689 135.386 83.4681 135.386 83.4674C135.386 83.4667 135.386 83.466 135.386 83.4653C135.386 83.4646 135.386 83.4638 135.386 83.4631C135.386 83.4624 135.386 83.4617 135.386 83.461C135.386 83.4603 135.386 83.4595 135.386 83.4588C135.386 83.4581 135.386 83.4574 135.386 83.4567C135.386 83.456 135.386 83.4552 135.386 83.4545C135.386 83.4538 135.386 83.4531 135.386 83.4524C135.386 83.4517 135.386 83.451 135.386 83.4502C135.386 83.4495 135.386 83.4488 135.386 83.4481C135.386 83.4474 135.386 83.4467 135.386 83.4459C135.386 83.4452 135.386 83.4445 135.386 83.4438C135.386 83.4431 135.386 83.4424 135.386 83.4416C135.386 83.4409 135.386 83.4402 135.386 83.4395C135.386 83.4388 135.386 83.4381 135.386 83.4373C135.386 83.4366 135.386 83.4359 135.386 83.4352C135.386 83.4345 135.386 83.4338 135.386 83.433C135.386 83.4323 135.386 83.4316 135.386 83.4309C135.386 83.4302 135.386 83.4295 135.386 83.4287C135.386 83.428 135.386 83.4273 135.386 83.4266C135.386 83.4259 135.386 83.4252 135.386 83.4245C135.386 83.4237 135.386 83.423 135.386 83.4223C135.386 83.4216 135.386 83.4209 135.386 83.4202C135.386 83.4194 135.386 83.4187 135.386 83.418C135.386 83.4173 135.386 83.4166 135.386 83.4159C135.386 83.4151 135.386 83.4144 135.386 83.4137C135.386 83.413 135.386 83.4123 135.386 83.4116C135.386 83.4108 135.386 83.4101 135.386 83.4094C135.386 83.4087 135.386 83.408 135.386 83.4073C135.386 83.4065 135.386 83.4058 135.386 83.4051C135.386 83.4044 135.386 83.4037 135.386 83.403C135.386 83.4023 135.386 83.4015 135.386 83.4008C135.386 83.4001 135.386 83.3994 135.386 83.3987C135.386 83.398 135.386 83.3972 135.386 83.3965C135.386 83.3958 135.386 83.3951 135.386 83.3944C135.386 83.3937 135.386 83.3929 135.386 83.3922C135.386 83.3915 135.386 83.3908 135.386 83.3901C135.386 83.3894 135.386 83.3886 135.386 83.3879C135.386 83.3872 135.386 83.3865 135.386 83.3858C135.386 83.3851 135.386 83.3843 135.386 83.3836C135.386 83.3829 135.386 83.3822 135.386 83.3815C135.386 83.3808 135.386 83.3801 135.386 83.3793C135.386 83.3786 135.386 83.3779 135.386 83.3772C135.386 83.3765 135.386 83.3758 135.386 83.375C135.386 83.3743 135.386 83.3736 135.386 83.3729C135.386 83.3722 135.386 83.3715 135.386 83.3707C135.386 83.37 135.386 83.3693 135.386 83.3686C135.386 83.3679 135.386 83.3672 135.386 83.3664C135.386 83.3657 135.386 83.365 135.386 83.3643C135.386 83.3636 135.386 83.3629 135.386 83.3621C135.386 83.3614 135.386 83.3607 135.386 83.36C135.386 83.3593 135.386 83.3586 135.386 83.3578C135.386 83.3571 135.386 83.3564 135.386 83.3557C135.386 83.355 135.386 83.3543 135.386 83.3536C135.386 83.3528 135.386 83.3521 135.386 83.3514C135.386 83.3507 135.386 83.35 135.386 83.3493C135.386 83.3485 135.386 83.3478 135.386 83.3471C135.386 83.3464 135.386 83.3457 135.386 83.345C135.386 83.3442 135.386 83.3435 135.386 83.3428C135.386 83.3421 135.386 83.3414 135.386 83.3407C135.386 83.3399 135.386 83.3392 135.386 83.3385C135.386 83.3378 135.386 83.3371 135.386 83.3364C135.386 83.3357 135.386 83.3349 135.386 83.3342C135.386 83.3335 135.386 83.3328 135.386 83.3321C135.386 83.3314 135.386 83.3306 135.386 83.3299C135.386 83.3292 135.386 83.3285 135.386 83.3278C135.386 83.3271 135.386 83.3263 135.386 83.3256C135.386 83.3249 135.386 83.3242 135.386 83.3235C135.386 83.3228 135.386 83.322 135.386 83.3213C135.386 83.3206 135.386 83.3199 135.386 83.3192C135.386 83.3185 135.386 83.3177 135.386 83.317C135.386 83.3163 135.386 83.3156 135.386 83.3149C135.386 83.3142 135.386 83.3134 135.386 83.3127C135.386 83.312 135.386 83.3113 135.386 83.3106C135.386 83.3099 135.386 83.3092 135.386 83.3084C135.386 83.3077 135.386 83.307 135.386 83.3063C135.386 83.3056 135.386 83.3049 135.386 83.3041C135.386 83.3034 135.386 83.3027 135.386 83.302C135.386 83.3013 135.386 83.3006 135.386 83.2998C135.386 83.2991 135.386 83.2984 135.386 83.2977C135.386 83.297 135.386 83.2963 135.386 83.2955C135.386 83.2948 135.386 83.2941 135.386 83.2934C135.386 83.2927 135.386 83.292 135.386 83.2912C135.386 83.2905 135.386 83.2898 135.386 83.2891C135.386 83.2884 135.386 83.2877 135.386 83.287C135.386 83.2862 135.386 83.2855 135.386 83.2848C135.386 83.2841 135.386 83.2834 135.386 83.2827C135.386 83.2819 135.386 83.2812 135.386 83.2805C135.386 83.2798 135.386 83.2791 135.386 83.2784C135.386 83.2776 135.386 83.2769 135.386 83.2762C135.386 83.2755 135.386 83.2748 135.386 83.2741C135.386 83.2733 135.386 83.2726 135.386 83.2719C135.386 83.2712 135.386 83.2705 135.386 83.2698C135.386 83.269 135.386 83.2683 135.386 83.2676C135.386 83.2669 135.386 83.2662 135.386 83.2655C135.386 83.2648 135.386 83.264 135.386 83.2633C135.386 83.2626 135.386 83.2619 135.386 83.2612C135.386 83.2605 135.386 83.2597 135.386 83.259C135.386 83.2583 135.386 83.2576 135.386 83.2569C135.386 83.2562 135.386 83.2554 135.386 83.2547C135.386 83.254 135.386 83.2533 135.386 83.2526C135.386 83.2519 135.386 83.2511 135.386 83.2504C135.386 83.2497 135.386 83.249 135.386 83.2483C135.386 83.2476 135.386 83.2468 135.386 83.2461C135.386 83.2454 135.386 83.2447 135.386 83.244C135.386 83.2433 135.386 83.2425 135.386 83.2418C135.386 83.2411 135.386 83.2404 135.386 83.2397C135.386 83.239 135.386 83.2383 135.386 83.2375C135.386 83.2368 135.386 83.2361 135.386 83.2354C135.386 83.2347 135.386 83.234 135.386 83.2332C135.386 83.2325 135.386 83.2318 135.386 83.2311C135.386 83.2304 135.386 83.2297 135.386 83.2289C135.386 83.2282 135.386 83.2275 135.386 83.2268C135.386 83.2261 135.386 83.2254 135.386 83.2246C135.386 83.2239 135.386 83.2232 135.386 83.2225C135.386 83.2218 135.386 83.2211 135.386 83.2204C135.386 83.2196 135.386 83.2189 135.386 83.2182C135.386 83.2175 135.386 83.2168 135.386 83.2161C135.386 83.2153 135.386 83.2146 135.386 83.2139C135.386 83.2132 135.386 83.2125 135.386 83.2118C135.386 83.211 135.386 83.2103 135.386 83.2096C135.386 83.2089 135.386 83.2082 135.386 83.2075C135.386 83.2067 135.386 83.206 135.386 83.2053C135.386 83.2046 135.386 83.2039 135.386 83.2032C135.386 83.2024 135.386 83.2017 135.386 83.201C135.386 83.2003 135.386 83.1996 135.386 83.1989C135.386 83.1982 135.386 83.1974 135.386 83.1967C135.386 83.196 135.386 83.1953 135.386 83.1946C135.386 83.1939 135.386 83.1931 135.386 83.1924C135.386 83.1917 135.386 83.191 135.386 83.1903C135.386 83.1896 135.386 83.1888 135.386 83.1881C135.386 83.1874 135.386 83.1867 135.386 83.186C135.386 83.1853 135.386 83.1845 135.386 83.1838C135.386 83.1831 135.386 83.1824 135.386 83.1817C135.386 83.181 135.386 83.1802 135.386 83.1795C135.386 83.1788 135.386 83.1781 135.386 83.1774C135.386 83.1767 135.386 83.1759 135.386 83.1752C135.386 83.1745 135.386 83.1738 135.386 83.1731C135.386 83.1724 135.386 83.1717 135.386 83.1709C135.386 83.1702 135.386 83.1695 135.386 83.1688C135.386 83.1681 135.386 83.1674 135.386 83.1666C135.386 83.1659 135.386 83.1652 135.386 83.1645C135.386 83.1638 135.386 83.1631 135.386 83.1623C135.386 83.1616 135.386 83.1609 135.386 83.1602C135.386 83.1595 135.386 83.1588 135.386 83.158C135.386 83.1573 135.386 83.1566 135.386 83.1559C135.386 83.1552 135.386 83.1545 135.386 83.1537C135.386 83.153 135.386 83.1523 135.386 83.1516C135.386 83.1509 135.386 83.1502 135.386 83.1495C135.386 83.1487 135.386 83.148 135.386 83.1473C135.386 83.1466 135.386 83.1459 135.386 83.1452C135.386 83.1444 135.386 83.1437 135.386 83.143C135.386 83.1423 135.386 83.1416 135.386 83.1409C135.386 83.1401 135.386 83.1394 135.386 83.1387C135.386 83.138 135.386 83.1373 135.386 83.1366C135.386 83.1358 135.386 83.1351 135.386 83.1344C135.386 83.1337 135.386 83.133 135.386 83.1323C135.386 83.1315 135.386 83.1308 135.386 83.1301C135.386 83.1294 135.386 83.1287 135.386 83.128C135.386 83.1273 135.386 83.1265 135.386 83.1258C135.386 83.1251 135.386 83.1244 135.386 83.1237C135.386 83.123 135.386 83.1222 135.386 83.1215C135.386 83.1208 135.386 83.1201 135.386 83.1194C135.386 83.1187 135.386 83.1179 135.386 83.1172C135.386 83.1165 135.386 83.1158 135.386 83.1151C135.386 83.1144 135.386 83.1136 135.386 83.1129C135.386 83.1122 135.386 83.1115 135.386 83.1108C135.386 83.1101 135.386 83.1093 135.386 83.1086C135.386 83.1079 135.386 83.1072 135.386 83.1065C135.386 83.1058 135.386 83.1051 135.386 83.1043C135.386 83.1036 135.386 83.1029 135.386 83.1022C135.386 83.1015 135.386 83.1008 135.386 83.1C135.386 83.0993 135.386 83.0986 135.386 83.0979C135.386 83.0972 135.386 83.0965 135.386 83.0957C135.386 83.095 135.386 83.0943 135.386 83.0936C135.386 83.0929 135.386 83.0922 135.386 83.0914C135.386 83.0907 135.386 83.09 135.386 83.0893C135.386 83.0886 135.386 83.0879 135.386 83.0871C135.386 83.0864 135.386 83.0857 135.386 83.085C135.386 83.0843 135.386 83.0836 135.386 83.0829C135.386 83.0821 135.386 83.0814 135.386 83.0807C135.386 83.08 135.386 83.0793 135.386 83.0786C135.386 83.0778 135.386 83.0771 135.386 83.0764C135.386 83.0757 135.386 83.075 135.386 83.0743C135.386 83.0735 135.386 83.0728 135.386 83.0721C135.386 83.0714 135.386 83.0707 135.386 83.07C135.386 83.0692 135.386 83.0685 135.386 83.0678C135.386 83.0671 135.386 83.0664 135.386 83.0657C135.386 83.0649 135.386 83.0642 135.386 83.0635C135.386 83.0628 135.386 83.0621 135.386 83.0614C135.386 83.0606 135.386 83.0599 135.386 83.0592C135.386 83.0585 135.386 83.0578 135.386 83.0571C135.386 83.0564 135.386 83.0556 135.386 83.0549C135.386 83.0542 135.386 83.0535 135.386 83.0528C135.386 83.0521 135.386 83.0513 135.386 83.0506C135.386 83.0499 135.386 83.0492 135.386 83.0485C135.386 83.0478 135.386 83.047 135.386 83.0463C135.386 83.0456 135.386 83.0449 135.386 83.0442C135.386 83.0435 135.386 83.0427 135.386 83.042C135.386 83.0413 135.386 83.0406 135.386 83.0399C135.386 83.0392 135.386 83.0384 135.386 83.0377C135.386 83.037 135.386 83.0363 135.386 83.0356C135.386 83.0349 135.386 83.0342 135.386 83.0334C135.386 83.0327 135.386 83.032 135.386 83.0313C135.386 83.0306 135.386 83.0299 135.386 83.0291C135.386 83.0284 135.386 83.0277 135.386 83.027C135.386 83.0263 135.386 83.0256 135.386 83.0248C135.386 83.0241 135.386 83.0234 135.386 83.0227C135.386 83.022 135.386 83.0213 135.386 83.0205C135.386 83.0198 135.386 83.0191 135.386 83.0184C135.386 83.0177 135.386 83.017 135.386 83.0163C135.386 83.0155 135.386 83.0148 135.386 83.0141C135.386 83.0134 135.386 83.0127 135.386 83.012C135.386 83.0112 135.386 83.0105 135.386 83.0098C135.386 83.0091 135.386 83.0084 135.386 83.0077C135.386 83.0069 135.386 83.0062 135.386 83.0055C135.386 83.0048 135.386 83.0041 135.386 83.0034C135.386 83.0026 135.386 83.0019 135.386 83.0012C135.386 83.0005 135.386 82.9998 135.386 82.9991C135.386 82.9983 135.386 82.9976 135.386 82.9969C135.386 82.9962 135.386 82.9955 135.386 82.9948C135.386 82.994 135.386 82.9933 135.386 82.9926C135.386 82.9919 135.386 82.9912 135.386 82.9905C135.386 82.9897 135.386 82.989 135.386 82.9883C135.386 82.9876 135.386 82.9869 135.386 82.9862C135.386 82.9855 135.386 82.9847 135.386 82.984C135.386 82.9833 135.386 82.9826 135.386 82.9819C135.386 82.9812 135.386 82.9804 135.386 82.9797C135.386 82.979 135.386 82.9783 135.386 82.9776C135.386 82.9769 135.386 82.9761 135.386 82.9754C135.386 82.9747 135.386 82.974 135.386 82.9733C135.386 82.9726 135.386 82.9718 135.386 82.9711C135.386 82.9704 135.386 82.9697 135.386 82.969C135.386 82.9683 135.386 82.9676 135.386 82.9668C135.386 82.9661 135.386 82.9654 135.386 82.9647C135.386 82.964 135.386 82.9633 135.386 82.9625C135.386 82.9618 135.386 82.9611 135.386 82.9604C135.386 82.9597 135.386 82.959 135.386 82.9582C135.386 82.9575 135.386 82.9568 135.386 82.9561C135.386 82.9554 135.386 82.9547 135.386 82.9539C135.386 82.9532 135.386 82.9525 135.386 82.9518C135.386 82.9511 135.386 82.9504 135.386 82.9496C135.386 82.9489 135.386 82.9482 135.386 82.9475C135.386 82.9468 135.386 82.9461 135.386 82.9454C135.386 82.9446 135.386 82.9439 135.386 82.9432C135.386 82.9425 135.386 82.9418 135.386 82.9411C135.386 82.9403 135.386 82.9396 135.386 82.9389C135.386 82.9382 135.386 82.9375 135.386 82.9368C135.386 82.936 135.386 82.9353 135.386 82.9346C135.386 82.9339 135.386 82.9332 135.386 82.9325C135.386 82.9317 135.386 82.931 135.386 82.9303C135.386 82.9296 135.386 82.9289 135.386 82.9282C135.386 82.9274 135.386 82.9267 135.386 82.926C135.386 82.9253 135.386 82.9246 135.386 82.9239C135.386 82.9231 135.386 82.9224 135.386 82.9217C135.386 82.921 135.386 82.9203 135.386 82.9196C135.386 82.9189 135.386 82.9181 135.386 82.9174C135.386 82.9167 135.386 82.916 135.386 82.9153C135.386 82.9146 135.386 82.9138 135.386 82.9131C135.386 82.9124 135.386 82.9117 135.386 82.911C135.386 82.9103 135.386 82.9095 135.386 82.9088C135.386 82.9081 135.386 82.9074 135.386 82.9067C135.386 82.906 135.386 82.9052 135.386 82.9045C135.386 82.9038 135.386 82.9031 135.386 82.9024C135.386 82.9017 135.386 82.901 135.386 82.9002C135.386 82.8995 135.386 82.8988 135.386 82.8981C135.386 82.8974 135.386 82.8967 135.386 82.8959C135.386 82.8952 135.386 82.8945 135.386 82.8938C135.386 82.8931 135.386 82.8924 135.386 82.8916C135.386 82.8909 135.386 82.8902 135.386 82.8895C135.386 82.8888 135.386 82.8881 135.386 82.8873C135.386 82.8866 135.386 82.8859 135.386 82.8852C135.386 82.8845 135.386 82.8838 135.386 82.883C135.386 82.8823 135.386 82.8816 135.386 82.8809C135.386 82.8802 135.386 82.8795 135.386 82.8787C135.386 82.878 135.386 82.8773 135.386 82.8766C135.386 82.8759 135.386 82.8752 135.386 82.8745C135.386 82.8737 135.386 82.873 135.386 82.8723C135.386 82.8716 135.386 82.8709 135.386 82.8702C135.386 82.8694 135.386 82.8687 135.386 82.868C135.386 82.8673 135.386 82.8666 135.386 82.8659C135.386 82.8651 135.386 82.8644 135.386 82.8637C135.386 82.863 135.386 82.8623 135.386 82.8616C135.386 82.8608 135.386 82.8601 135.386 82.8594C135.386 82.8587 135.386 82.858 135.386 82.8573C135.386 82.8565 135.386 82.8558 135.386 82.8551C135.386 82.8544 135.386 82.8537 135.386 82.853C135.386 82.8523 135.386 82.8515 135.386 82.8508C135.386 82.8501 135.386 82.8494 135.386 82.8487C135.386 82.848 135.386 82.8472 135.386 82.8465C135.386 82.8458 135.386 82.8451 135.386 82.8444C135.386 82.8437 135.386 82.8429 135.386 82.8422C135.386 82.8415 135.386 82.8408 135.386 82.8401C135.386 82.8394 135.386 82.8386 135.386 82.8379C135.386 82.8372 135.386 82.8365 135.386 82.8358C135.386 82.8351 135.386 82.8343 135.386 82.8336C135.386 82.8329 135.386 82.8322 135.386 82.8315C135.386 82.8308 135.386 82.8301 135.386 82.8293C135.386 82.8286 135.386 82.8279 135.386 82.8272C135.386 82.8265 135.386 82.8258 135.386 82.825C135.386 82.8243 135.386 82.8236 135.386 82.8229C135.386 82.8222 135.386 82.8215 135.386 82.8207C135.386 82.82 135.386 82.8193 135.386 82.8186C135.386 82.8179 135.386 82.8172 135.386 82.8164C135.386 82.8157 135.386 82.815 135.386 82.8143C135.386 82.8136 135.386 82.8129 135.386 82.8121C135.386 82.8114 135.386 82.8107 135.386 82.81C135.386 82.8093 135.386 82.8086 135.386 82.8078C135.386 82.8071 135.386 82.8064 135.386 82.8057C135.386 82.805 135.386 82.8043 135.386 82.8036C135.386 82.8028 135.386 82.8021 135.386 82.8014C135.386 82.8007 135.386 82.8 135.386 82.7993C135.386 82.7985 135.386 82.7978 135.386 82.7971C135.386 82.7964 135.386 82.7957 135.386 82.795C135.386 82.7942 135.386 82.7935 135.386 82.7928C135.386 82.7921 135.386 82.7914 135.386 82.7907C135.386 82.7899 135.386 82.7892 135.386 82.7885C135.386 82.7878 135.386 82.7871 135.386 82.7864C135.386 82.7856 135.386 82.7849 135.386 82.7842C135.386 82.7835 135.386 82.7828 135.386 82.7821C135.386 82.7814 135.386 82.7806 135.386 82.7799C135.386 82.7792 135.386 82.7785 135.386 82.7778C135.386 82.7771 135.386 82.7763 135.386 82.7756C135.386 82.7749 135.386 82.7742 135.386 82.7735C135.386 82.7728 135.386 82.772 135.386 82.7713C135.386 82.7706 135.386 82.7699 135.386 82.7692C135.386 82.7685 135.386 82.7677 135.386 82.767C135.386 82.7663 135.386 82.7656 135.386 82.7649C135.386 82.7642 135.386 82.7635 135.386 82.7627C135.386 82.762 135.386 82.7613 135.386 82.7606C135.386 82.7599 135.386 82.7592 135.386 82.7584C135.386 82.7577 135.386 82.757 135.386 82.7563C135.386 82.7556 135.386 82.7549 135.386 82.7541C135.386 82.7534 135.386 82.7527 135.386 82.752C135.386 82.7513 135.386 82.7506 135.386 82.7498C135.386 82.7491 135.386 82.7484 135.386 82.7477C135.386 82.747 135.386 82.7463 135.386 82.7455C135.386 82.7448 135.386 82.7441 135.386 82.7434C135.386 82.7427 135.386 82.742 135.386 82.7412C135.386 82.7405 135.386 82.7398 135.386 82.7391C135.386 82.7384 135.386 82.7377 135.386 82.737C135.386 82.7362 135.386 82.7355 135.386 82.7348C135.386 82.7341 135.386 82.7334 135.386 82.7327C135.386 82.7319 135.386 82.7312 135.386 82.7305C135.386 82.7298 135.386 82.7291 135.386 82.7284C135.386 82.7276 135.386 82.7269 135.386 82.7262C135.386 82.7255 135.386 82.7248 135.386 82.7241C135.386 82.7233 135.386 82.7226 135.386 82.7219C135.386 82.7212 135.386 82.7205 135.386 82.7198C135.386 82.719 135.386 82.7183 135.386 82.7176C135.386 82.7169 135.386 82.7162 135.386 82.7155C135.386 82.7148 135.386 82.714 135.386 82.7133C135.386 82.7126 135.386 82.7119 135.386 82.7112C135.386 82.7105 135.386 82.7097 135.386 82.709C135.386 82.7083 135.386 82.7076 135.386 82.7069C135.386 82.7062 135.386 82.7054 135.386 82.7047C135.386 82.704 135.386 82.7033 135.386 82.7026C135.386 82.7019 135.386 82.7011 135.386 82.7004C135.386 82.6997 135.386 82.699 135.386 82.6983C135.386 82.6976 135.386 82.6968 135.386 82.6961C135.386 82.6954 135.386 82.6947 135.386 82.694C135.386 82.6933 135.386 82.6926 135.386 82.6918C135.386 82.6911 135.386 82.6904 135.386 82.6897C135.386 82.689 135.386 82.6883 135.386 82.6875C135.386 82.6868 135.386 82.6861 135.386 82.6854C135.386 82.6847 135.386 82.684 135.386 82.6832C135.386 82.6825 135.386 82.6818 135.386 82.6811C135.386 82.6804 135.386 82.6797 135.386 82.6789C135.386 82.6782 135.386 82.6775 135.386 82.6768C135.386 82.6761 135.386 82.6754 135.386 82.6746C135.386 82.6739 135.386 82.6732 135.386 82.6725C135.386 82.6718 135.386 82.6711 135.386 82.6703C135.386 82.6696 135.386 82.6689 135.386 82.6682C135.386 82.6675 135.386 82.6668 135.386 82.6661C135.386 82.6653 135.386 82.6646 135.386 82.6639C135.386 82.6632 135.386 82.6625 135.386 82.6618C135.386 82.661 135.386 82.6603 135.386 82.6596C135.386 82.6589 135.386 82.6582 135.386 82.6575C135.386 82.6567 135.386 82.656 135.386 82.6553C135.386 82.6546 135.386 82.6539 135.386 82.6532C135.386 82.6524 135.386 82.6517 135.386 82.651C135.386 82.6503 135.386 82.6496 135.386 82.6489C135.386 82.6482 135.386 82.6474 135.386 82.6467C135.386 82.646 135.386 82.6453 135.386 82.6446C135.386 82.6439 135.386 82.6431 135.386 82.6424C135.386 82.6417 135.386 82.641 135.386 82.6403C135.386 82.6396 135.386 82.6388 135.386 82.6381C135.386 82.6374 135.386 82.6367 135.386 82.636C135.386 82.6353 135.386 82.6345 135.386 82.6338C135.386 82.6331 135.386 82.6324 135.386 82.6317C135.386 82.631 135.386 82.6302 135.386 82.6295C135.386 82.6288 135.386 82.6281 135.386 82.6274C135.386 82.6267 135.386 82.6259 135.386 82.6252C135.386 82.6245 135.386 82.6238 135.386 82.6231C135.386 82.6224 135.386 82.6217 135.386 82.6209C135.386 82.6202 135.386 82.6195 135.386 82.6188C135.386 82.6181 135.386 82.6174 135.386 82.6166C135.386 82.6159 135.386 82.6152 135.386 82.6145C135.386 82.6138 135.386 82.6131 135.386 82.6123C135.386 82.6116 135.386 82.6109 135.386 82.6102C135.386 82.6095 135.386 82.6088 135.386 82.608C135.386 82.6073 135.386 82.6066 135.386 82.6059C135.386 82.6052 135.386 82.6045 135.386 82.6037C135.386 82.603 135.386 82.6023 135.386 82.6016C135.386 82.6009 135.386 82.6002 135.386 82.5995C135.386 82.5987 135.386 82.598 135.386 82.5973C135.386 82.5966 135.386 82.5959 135.386 82.5952C135.386 82.5944 135.386 82.5937 135.386 82.593C135.386 82.5923 135.386 82.5916 135.386 82.5909C135.386 82.5901 135.386 82.5894 135.386 82.5887C135.386 82.588 135.386 82.5873 135.386 82.5866C135.386 82.5858 135.386 82.5851 135.386 82.5844C135.386 82.5837 135.386 82.583 135.386 82.5823C135.386 82.5816 135.386 82.5808 135.386 82.5801C135.386 82.5794 135.386 82.5787 135.386 82.578C135.386 82.5773 135.386 82.5765 135.386 82.5758C135.386 82.5751 135.386 82.5744 135.386 82.5737C135.386 82.573 135.386 82.5722 135.386 82.5715C135.386 82.5708 135.386 82.5701 135.386 82.5694C135.386 82.5687 135.386 82.5679 135.386 82.5672C135.386 82.5665 135.386 82.5658 135.386 82.5651C135.386 82.5644 135.386 82.5636 135.386 82.5629C135.386 82.5622 135.386 82.5615 135.386 82.5608C135.386 82.5601 135.386 82.5593 135.386 82.5586C135.386 82.5579 135.386 82.5572 135.386 82.5565C135.386 82.5558 135.386 82.555 135.386 82.5543C135.386 82.5536 135.386 82.5529 135.386 82.5522C135.386 82.5515 135.386 82.5508 135.386 82.55C135.386 82.5493 135.386 82.5486 135.386 82.5479C135.386 82.5472 135.386 82.5465 135.386 82.5457C135.386 82.545 135.386 82.5443 135.386 82.5436C135.386 82.5429 135.386 82.5422 135.386 82.5414C135.386 82.5407 135.386 82.54 135.386 82.5393C135.386 82.5386 135.386 82.5379 135.386 82.5371C135.386 82.5364 135.386 82.5357 135.386 82.535H133.386Z" fill="black" mask="url(#path-4-outside-1_2541_51)"/>
</g>
<defs>
<filter id="filter0_bd_2541_51" x="123.236" y="56.1499" width="33.795" height="49.4001" filterUnits="userSpaceOnUse" color-interpolation-filters="sRGB">
<feFlood flood-opacity="0" result="BackgroundImageFix"/>
<feGaussianBlur in="BackgroundImageFix" stdDeviation="2"/>
<feComposite in2="SourceAlpha" operator="in" result="effect1_backgroundBlur_2541_51"/>
<feColorMatrix in="SourceAlpha" type="matrix" values="0 0 0 0 0 0 0 0 0 0 0 0 0 0 0 0 0 0 127 0" result="hardAlpha"/>
<feOffset dy="4"/>
<feGaussianBlur stdDeviation="2"/>
<feComposite in2="hardAlpha" operator="out"/>
<feColorMatrix type="matrix" values="0 0 0 0 0 0 0 0 0 0 0 0 0 0 0 0 0 0 0.25 0"/>
<feBlend mode="normal" in2="effect1_backgroundBlur_2541_51" result="effect2_dropShadow_2541_51"/>
<feBlend mode="normal" in="SourceGraphic" in2="effect2_dropShadow_2541_51" result="shape"/>
</filter>
</defs>
</svg>
