<svg width="281" height="158" viewBox="0 0 281 158" fill="none" xmlns="http://www.w3.org/2000/svg">
<rect width="281" height="158" fill="#CD5742"/>
<circle cx="141" cy="78" r="45" fill="#6A0404"/>
<rect x="132" y="99" width="18" height="15" fill="#F2A395"/>
<path d="M141 88L153.99 103.75H128.01L141 88Z" fill="#F2A395"/>
<circle cx="118.5" cy="45.5" r="1.5" fill="#F2A395"/>
<circle cx="116.5" cy="67.5" r="1.5" fill="#F2A395"/>
<circle cx="109.5" cy="87.5" r="1.5" fill="#F2A395"/>
<circle cx="141.5" cy="58.5" r="1.5" fill="#F2A395"/>
<circle cx="165.5" cy="86.5" r="1.5" fill="#F2A395"/>
<circle cx="167.5" cy="56.5" r="1.5" fill="#F2A395"/>
<circle cx="138.5" cy="75.5" r="1.5" fill="#F2A395"/>
<circle cx="152" cy="68" r="1" fill="#F2A395"/>
<circle cx="165" cy="103" r="1" fill="#F2A395"/>
<circle cx="120" cy="72" r="1" fill="#F2A395"/>
<circle cx="139" cy="41" r="1" fill="#F2A395"/>
<circle cx="178" cy="75" r="1" fill="#F2A395"/>
<circle cx="121" cy="96" r="1" fill="#F2A395"/>
<circle cx="152" cy="49" r="1" fill="#F2A395"/>
<rect x="139" y="107" width="4" height="8" rx="2" fill="#6A0404"/>
<rect x="113" y="113" width="57" height="12" fill="#1B0909"/>
<g filter="url(#filter0_bd_2541_64)">
<mask id="path-20-outside-1_2541_64" maskUnits="userSpaceOnUse" x="114" y="59" width="56" height="40" fill="black">
<rect fill="white" x="114" y="59" width="56" height="40"/>
<path d="M119.763 97V96.12L124.878 94.085V66.64L115.528 71.04V68.95L129.058 60.7H131.533V94.085L136.098 96.12V97H119.763ZM146.005 97.55V95.735C150.368 94.3783 153.815 92.16 156.345 89.08C158.875 86 160.452 82.3517 161.075 78.135C160.085 79.4183 158.857 80.4267 157.39 81.16C155.96 81.8933 154.31 82.26 152.44 82.26C150.46 82.26 148.737 81.8017 147.27 80.885C145.803 79.9683 144.667 78.7217 143.86 77.145C143.09 75.5317 142.705 73.735 142.705 71.755C142.705 69.775 143.182 67.905 144.135 66.145C145.088 64.3483 146.518 62.9 148.425 61.8C150.332 60.7 152.715 60.15 155.575 60.15C158.178 60.15 160.452 60.7367 162.395 61.91C164.338 63.0467 165.842 64.66 166.905 66.75C168.005 68.8033 168.555 71.1867 168.555 73.9C168.555 77.86 167.638 81.4167 165.805 84.57C163.972 87.7233 161.368 90.4183 157.995 92.655C154.658 94.855 150.662 96.4867 146.005 97.55ZM149.745 70.38C149.745 72.8733 150.222 74.8167 151.175 76.21C152.128 77.6033 153.595 78.3 155.575 78.3C156.785 78.3 157.885 78.025 158.875 77.475C159.865 76.8883 160.69 76.1183 161.35 75.165C161.35 74.7983 161.35 74.4317 161.35 74.065C161.35 70.2883 160.8 67.465 159.7 65.595C158.6 63.6883 157.17 62.735 155.41 62.735C154.09 62.735 153.008 63.12 152.165 63.89C151.322 64.66 150.698 65.65 150.295 66.86C149.928 68.0333 149.745 69.2067 149.745 70.38Z"/>
</mask>
<path d="M119.763 97V96.12L124.878 94.085V66.64L115.528 71.04V68.95L129.058 60.7H131.533V94.085L136.098 96.12V97H119.763ZM146.005 97.55V95.735C150.368 94.3783 153.815 92.16 156.345 89.08C158.875 86 160.452 82.3517 161.075 78.135C160.085 79.4183 158.857 80.4267 157.39 81.16C155.96 81.8933 154.31 82.26 152.44 82.26C150.46 82.26 148.737 81.8017 147.27 80.885C145.803 79.9683 144.667 78.7217 143.86 77.145C143.09 75.5317 142.705 73.735 142.705 71.755C142.705 69.775 143.182 67.905 144.135 66.145C145.088 64.3483 146.518 62.9 148.425 61.8C150.332 60.7 152.715 60.15 155.575 60.15C158.178 60.15 160.452 60.7367 162.395 61.91C164.338 63.0467 165.842 64.66 166.905 66.75C168.005 68.8033 168.555 71.1867 168.555 73.9C168.555 77.86 167.638 81.4167 165.805 84.57C163.972 87.7233 161.368 90.4183 157.995 92.655C154.658 94.855 150.662 96.4867 146.005 97.55ZM149.745 70.38C149.745 72.8733 150.222 74.8167 151.175 76.21C152.128 77.6033 153.595 78.3 155.575 78.3C156.785 78.3 157.885 78.025 158.875 77.475C159.865 76.8883 160.69 76.1183 161.35 75.165C161.35 74.7983 161.35 74.4317 161.35 74.065C161.35 70.2883 160.8 67.465 159.7 65.595C158.6 63.6883 157.17 62.735 155.41 62.735C154.09 62.735 153.008 63.12 152.165 63.89C151.322 64.66 150.698 65.65 150.295 66.86C149.928 68.0333 149.745 69.2067 149.745 70.38Z" fill="white"/>
<path d="M119.763 97H118.763V98H119.763V97ZM119.763 96.12L119.393 95.1908L118.763 95.4416V96.12H119.763ZM124.878 94.085L125.247 95.0142L125.878 94.7634V94.085H124.878ZM124.878 66.64H125.878V65.0642L124.452 65.7352L124.878 66.64ZM115.528 71.04H114.528V72.6158L115.953 71.9448L115.528 71.04ZM115.528 68.95L115.007 68.0962L114.528 68.3885V68.95H115.528ZM129.058 60.7V59.7H128.777L128.537 59.8462L129.058 60.7ZM131.533 60.7H132.533V59.7H131.533V60.7ZM131.533 94.085H130.533V94.7341L131.126 94.9984L131.533 94.085ZM136.098 96.12H137.098V95.4709L136.505 95.2066L136.098 96.12ZM136.098 97V98H137.098V97H136.098ZM120.763 97V96.12H118.763V97H120.763ZM120.132 97.0492L125.247 95.0142L124.508 93.1558L119.393 95.1908L120.132 97.0492ZM125.878 94.085V66.64H123.878V94.085H125.878ZM124.452 65.7352L115.102 70.1352L115.953 71.9448L125.303 67.5448L124.452 65.7352ZM116.528 71.04V68.95H114.528V71.04H116.528ZM116.048 69.8038L129.578 61.5538L128.537 59.8462L115.007 68.0962L116.048 69.8038ZM129.058 61.7H131.533V59.7H129.058V61.7ZM130.533 60.7V94.085H132.533V60.7H130.533ZM131.126 94.9984L135.691 97.0334L136.505 95.2066L131.94 93.1716L131.126 94.9984ZM135.098 96.12V97H137.098V96.12H135.098ZM136.098 96H119.763V98H136.098V96ZM146.005 97.55H145.005V98.8041L146.228 98.5249L146.005 97.55ZM146.005 95.735L145.708 94.7801L145.005 94.9987V95.735H146.005ZM156.345 89.08L155.572 88.4453L156.345 89.08ZM161.075 78.135L162.064 78.2812L162.625 74.4887L160.283 77.5242L161.075 78.135ZM157.39 81.16L156.943 80.2655L156.934 80.2702L157.39 81.16ZM143.86 77.145L142.958 77.5757L142.963 77.5882L142.97 77.6005L143.86 77.145ZM144.135 66.145L145.014 66.6213L145.018 66.6137L144.135 66.145ZM148.425 61.8L147.925 60.9338V60.9338L148.425 61.8ZM162.395 61.91L161.878 62.7661L161.89 62.7732L162.395 61.91ZM166.905 66.75L166.014 67.2035L166.019 67.2129L166.024 67.2222L166.905 66.75ZM165.805 84.57L164.94 84.0674L165.805 84.57ZM157.995 92.655L158.545 93.4899L158.548 93.4884L157.995 92.655ZM151.175 76.21L152 75.6453L151.175 76.21ZM158.875 77.475L159.361 78.3492L159.373 78.3424L159.385 78.3353L158.875 77.475ZM161.35 75.165L162.172 75.7342L162.35 75.4774V75.165H161.35ZM159.7 65.595L158.834 66.0947L158.838 66.102L159.7 65.595ZM152.165 63.89L151.491 63.1515V63.1515L152.165 63.89ZM150.295 66.86L149.346 66.5438L149.343 66.5527L149.341 66.5617L150.295 66.86ZM147.005 97.55V95.735H145.005V97.55H147.005ZM146.302 96.6899C150.824 95.284 154.446 92.9668 157.118 89.7147L155.572 88.4453C153.184 91.3532 149.913 93.4727 145.708 94.7801L146.302 96.6899ZM157.118 89.7147C159.771 86.4848 161.416 82.6644 162.064 78.2812L160.086 77.9888C159.487 82.0389 157.979 85.5152 155.572 88.4453L157.118 89.7147ZM160.283 77.5242C159.386 78.6868 158.276 79.5988 156.943 80.2656L157.837 82.0544C159.437 81.2545 160.784 80.1499 161.867 78.7458L160.283 77.5242ZM156.934 80.2702C155.666 80.9201 154.177 81.26 152.44 81.26V83.26C154.443 83.26 156.254 82.8666 157.846 82.0498L156.934 80.2702ZM152.44 81.26C150.62 81.26 149.086 80.8406 147.8 80.037L146.74 81.733C148.388 82.7627 150.3 83.26 152.44 83.26V81.26ZM147.8 80.037C146.491 79.2186 145.477 78.1092 144.75 76.6895L142.97 77.6005C143.857 79.3341 145.116 80.7181 146.74 81.733L147.8 80.037ZM144.762 76.7143C144.063 75.2493 143.705 73.6021 143.705 71.755H141.705C141.705 73.8678 142.117 75.814 142.958 77.5757L144.762 76.7143ZM143.705 71.755C143.705 69.9432 144.139 68.2367 145.014 66.6213L143.256 65.6687C142.224 67.5733 141.705 69.6068 141.705 71.755H143.705ZM145.018 66.6137C145.876 64.9966 147.167 63.6804 148.925 62.6662L147.925 60.9338C145.87 62.1196 144.3 63.7001 143.252 65.6763L145.018 66.6137ZM148.925 62.6662C150.64 61.6763 152.839 61.15 155.575 61.15V59.15C152.591 59.15 150.023 59.7237 147.925 60.9338L148.925 62.6662ZM155.575 61.15C158.023 61.15 160.113 61.7001 161.878 62.7661L162.912 61.0539C160.791 59.7733 158.333 59.15 155.575 59.15V61.15ZM161.89 62.7732C163.661 63.809 165.033 65.2768 166.014 67.2035L167.796 66.2965C166.65 64.0432 165.016 62.2844 162.9 61.0468L161.89 62.7732ZM166.024 67.2222C167.034 69.108 167.555 71.3242 167.555 73.9H169.555C169.555 71.0492 168.976 68.4986 167.786 66.2778L166.024 67.2222ZM167.555 73.9C167.555 77.699 166.678 81.0796 164.94 84.0674L166.67 85.0726C168.599 81.7537 169.555 78.021 169.555 73.9H167.555ZM164.94 84.0674C163.192 87.074 160.702 89.6603 157.442 91.8216L158.548 93.4884C162.035 91.1763 164.751 88.3727 166.67 85.0726L164.94 84.0674ZM157.445 91.8201C154.225 93.9427 150.344 95.5334 145.782 96.5751L146.228 98.5249C150.979 97.44 155.091 95.7673 158.545 93.4899L157.445 91.8201ZM148.745 70.38C148.745 72.9839 149.24 75.1531 150.35 76.7747L152 75.6453C151.203 74.4802 150.745 72.7628 150.745 70.38H148.745ZM150.35 76.7747C151.524 78.4905 153.331 79.3 155.575 79.3V77.3C153.859 77.3 152.733 76.7162 152 75.6453L150.35 76.7747ZM155.575 79.3C156.943 79.3 158.212 78.9873 159.361 78.3492L158.389 76.6008C157.558 77.0627 156.627 77.3 155.575 77.3V79.3ZM159.385 78.3353C160.5 77.6746 161.431 76.805 162.172 75.7342L160.528 74.5958C159.949 75.4317 159.23 76.102 158.365 76.6147L159.385 78.3353ZM162.35 75.165C162.35 75.1643 162.35 75.1636 162.35 75.1628C162.35 75.1621 162.35 75.1614 162.35 75.1607C162.35 75.16 162.35 75.1593 162.35 75.1586C162.35 75.1578 162.35 75.1571 162.35 75.1564C162.35 75.1557 162.35 75.155 162.35 75.1543C162.35 75.1535 162.35 75.1528 162.35 75.1521C162.35 75.1514 162.35 75.1507 162.35 75.15C162.35 75.1492 162.35 75.1485 162.35 75.1478C162.35 75.1471 162.35 75.1464 162.35 75.1457C162.35 75.1449 162.35 75.1442 162.35 75.1435C162.35 75.1428 162.35 75.1421 162.35 75.1414C162.35 75.1407 162.35 75.1399 162.35 75.1392C162.35 75.1385 162.35 75.1378 162.35 75.1371C162.35 75.1364 162.35 75.1356 162.35 75.1349C162.35 75.1342 162.35 75.1335 162.35 75.1328C162.35 75.1321 162.35 75.1313 162.35 75.1306C162.35 75.1299 162.35 75.1292 162.35 75.1285C162.35 75.1278 162.35 75.127 162.35 75.1263C162.35 75.1256 162.35 75.1249 162.35 75.1242C162.35 75.1235 162.35 75.1227 162.35 75.122C162.35 75.1213 162.35 75.1206 162.35 75.1199C162.35 75.1192 162.35 75.1185 162.35 75.1177C162.35 75.117 162.35 75.1163 162.35 75.1156C162.35 75.1149 162.35 75.1142 162.35 75.1134C162.35 75.1127 162.35 75.112 162.35 75.1113C162.35 75.1106 162.35 75.1099 162.35 75.1091C162.35 75.1084 162.35 75.1077 162.35 75.107C162.35 75.1063 162.35 75.1056 162.35 75.1048C162.35 75.1041 162.35 75.1034 162.35 75.1027C162.35 75.102 162.35 75.1013 162.35 75.1005C162.35 75.0998 162.35 75.0991 162.35 75.0984C162.35 75.0977 162.35 75.097 162.35 75.0962C162.35 75.0955 162.35 75.0948 162.35 75.0941C162.35 75.0934 162.35 75.0927 162.35 75.092C162.35 75.0912 162.35 75.0905 162.35 75.0898C162.35 75.0891 162.35 75.0884 162.35 75.0877C162.35 75.0869 162.35 75.0862 162.35 75.0855C162.35 75.0848 162.35 75.0841 162.35 75.0834C162.35 75.0826 162.35 75.0819 162.35 75.0812C162.35 75.0805 162.35 75.0798 162.35 75.0791C162.35 75.0783 162.35 75.0776 162.35 75.0769C162.35 75.0762 162.35 75.0755 162.35 75.0748C162.35 75.074 162.35 75.0733 162.35 75.0726C162.35 75.0719 162.35 75.0712 162.35 75.0705C162.35 75.0698 162.35 75.069 162.35 75.0683C162.35 75.0676 162.35 75.0669 162.35 75.0662C162.35 75.0655 162.35 75.0647 162.35 75.064C162.35 75.0633 162.35 75.0626 162.35 75.0619C162.35 75.0612 162.35 75.0604 162.35 75.0597C162.35 75.059 162.35 75.0583 162.35 75.0576C162.35 75.0569 162.35 75.0561 162.35 75.0554C162.35 75.0547 162.35 75.054 162.35 75.0533C162.35 75.0526 162.35 75.0518 162.35 75.0511C162.35 75.0504 162.35 75.0497 162.35 75.049C162.35 75.0483 162.35 75.0476 162.35 75.0468C162.35 75.0461 162.35 75.0454 162.35 75.0447C162.35 75.044 162.35 75.0433 162.35 75.0425C162.35 75.0418 162.35 75.0411 162.35 75.0404C162.35 75.0397 162.35 75.039 162.35 75.0382C162.35 75.0375 162.35 75.0368 162.35 75.0361C162.35 75.0354 162.35 75.0347 162.35 75.0339C162.35 75.0332 162.35 75.0325 162.35 75.0318C162.35 75.0311 162.35 75.0304 162.35 75.0296C162.35 75.0289 162.35 75.0282 162.35 75.0275C162.35 75.0268 162.35 75.0261 162.35 75.0254C162.35 75.0246 162.35 75.0239 162.35 75.0232C162.35 75.0225 162.35 75.0218 162.35 75.0211C162.35 75.0203 162.35 75.0196 162.35 75.0189C162.35 75.0182 162.35 75.0175 162.35 75.0168C162.35 75.016 162.35 75.0153 162.35 75.0146C162.35 75.0139 162.35 75.0132 162.35 75.0125C162.35 75.0117 162.35 75.011 162.35 75.0103C162.35 75.0096 162.35 75.0089 162.35 75.0082C162.35 75.0074 162.35 75.0067 162.35 75.006C162.35 75.0053 162.35 75.0046 162.35 75.0039C162.35 75.0032 162.35 75.0024 162.35 75.0017C162.35 75.001 162.35 75.0003 162.35 74.9996C162.35 74.9989 162.35 74.9981 162.35 74.9974C162.35 74.9967 162.35 74.996 162.35 74.9953C162.35 74.9946 162.35 74.9938 162.35 74.9931C162.35 74.9924 162.35 74.9917 162.35 74.991C162.35 74.9903 162.35 74.9895 162.35 74.9888C162.35 74.9881 162.35 74.9874 162.35 74.9867C162.35 74.986 162.35 74.9852 162.35 74.9845C162.35 74.9838 162.35 74.9831 162.35 74.9824C162.35 74.9817 162.35 74.9809 162.35 74.9802C162.35 74.9795 162.35 74.9788 162.35 74.9781C162.35 74.9774 162.35 74.9767 162.35 74.9759C162.35 74.9752 162.35 74.9745 162.35 74.9738C162.35 74.9731 162.35 74.9724 162.35 74.9716C162.35 74.9709 162.35 74.9702 162.35 74.9695C162.35 74.9688 162.35 74.9681 162.35 74.9673C162.35 74.9666 162.35 74.9659 162.35 74.9652C162.35 74.9645 162.35 74.9638 162.35 74.963C162.35 74.9623 162.35 74.9616 162.35 74.9609C162.35 74.9602 162.35 74.9595 162.35 74.9587C162.35 74.958 162.35 74.9573 162.35 74.9566C162.35 74.9559 162.35 74.9552 162.35 74.9545C162.35 74.9537 162.35 74.953 162.35 74.9523C162.35 74.9516 162.35 74.9509 162.35 74.9502C162.35 74.9494 162.35 74.9487 162.35 74.948C162.35 74.9473 162.35 74.9466 162.35 74.9459C162.35 74.9451 162.35 74.9444 162.35 74.9437C162.35 74.943 162.35 74.9423 162.35 74.9416C162.35 74.9408 162.35 74.9401 162.35 74.9394C162.35 74.9387 162.35 74.938 162.35 74.9373C162.35 74.9366 162.35 74.9358 162.35 74.9351C162.35 74.9344 162.35 74.9337 162.35 74.933C162.35 74.9323 162.35 74.9315 162.35 74.9308C162.35 74.9301 162.35 74.9294 162.35 74.9287C162.35 74.928 162.35 74.9272 162.35 74.9265C162.35 74.9258 162.35 74.9251 162.35 74.9244C162.35 74.9237 162.35 74.9229 162.35 74.9222C162.35 74.9215 162.35 74.9208 162.35 74.9201C162.35 74.9194 162.35 74.9186 162.35 74.9179C162.35 74.9172 162.35 74.9165 162.35 74.9158C162.35 74.9151 162.35 74.9143 162.35 74.9136C162.35 74.9129 162.35 74.9122 162.35 74.9115C162.35 74.9108 162.35 74.9101 162.35 74.9093C162.35 74.9086 162.35 74.9079 162.35 74.9072C162.35 74.9065 162.35 74.9058 162.35 74.905C162.35 74.9043 162.35 74.9036 162.35 74.9029C162.35 74.9022 162.35 74.9015 162.35 74.9007C162.35 74.9 162.35 74.8993 162.35 74.8986C162.35 74.8979 162.35 74.8972 162.35 74.8964C162.35 74.8957 162.35 74.895 162.35 74.8943C162.35 74.8936 162.35 74.8929 162.35 74.8921C162.35 74.8914 162.35 74.8907 162.35 74.89C162.35 74.8893 162.35 74.8886 162.35 74.8879C162.35 74.8871 162.35 74.8864 162.35 74.8857C162.35 74.885 162.35 74.8843 162.35 74.8836C162.35 74.8828 162.35 74.8821 162.35 74.8814C162.35 74.8807 162.35 74.88 162.35 74.8793C162.35 74.8785 162.35 74.8778 162.35 74.8771C162.35 74.8764 162.35 74.8757 162.35 74.875C162.35 74.8742 162.35 74.8735 162.35 74.8728C162.35 74.8721 162.35 74.8714 162.35 74.8707C162.35 74.8699 162.35 74.8692 162.35 74.8685C162.35 74.8678 162.35 74.8671 162.35 74.8664C162.35 74.8657 162.35 74.8649 162.35 74.8642C162.35 74.8635 162.35 74.8628 162.35 74.8621C162.35 74.8614 162.35 74.8606 162.35 74.8599C162.35 74.8592 162.35 74.8585 162.35 74.8578C162.35 74.8571 162.35 74.8563 162.35 74.8556C162.35 74.8549 162.35 74.8542 162.35 74.8535C162.35 74.8528 162.35 74.852 162.35 74.8513C162.35 74.8506 162.35 74.8499 162.35 74.8492C162.35 74.8485 162.35 74.8477 162.35 74.847C162.35 74.8463 162.35 74.8456 162.35 74.8449C162.35 74.8442 162.35 74.8434 162.35 74.8427C162.35 74.842 162.35 74.8413 162.35 74.8406C162.35 74.8399 162.35 74.8392 162.35 74.8384C162.35 74.8377 162.35 74.837 162.35 74.8363C162.35 74.8356 162.35 74.8349 162.35 74.8341C162.35 74.8334 162.35 74.8327 162.35 74.832C162.35 74.8313 162.35 74.8306 162.35 74.8298C162.35 74.8291 162.35 74.8284 162.35 74.8277C162.35 74.827 162.35 74.8263 162.35 74.8255C162.35 74.8248 162.35 74.8241 162.35 74.8234C162.35 74.8227 162.35 74.822 162.35 74.8213C162.35 74.8205 162.35 74.8198 162.35 74.8191C162.35 74.8184 162.35 74.8177 162.35 74.817C162.35 74.8162 162.35 74.8155 162.35 74.8148C162.35 74.8141 162.35 74.8134 162.35 74.8127C162.35 74.8119 162.35 74.8112 162.35 74.8105C162.35 74.8098 162.35 74.8091 162.35 74.8084C162.35 74.8076 162.35 74.8069 162.35 74.8062C162.35 74.8055 162.35 74.8048 162.35 74.8041C162.35 74.8033 162.35 74.8026 162.35 74.8019C162.35 74.8012 162.35 74.8005 162.35 74.7998C162.35 74.799 162.35 74.7983 162.35 74.7976C162.35 74.7969 162.35 74.7962 162.35 74.7955C162.35 74.7948 162.35 74.794 162.35 74.7933C162.35 74.7926 162.35 74.7919 162.35 74.7912C162.35 74.7905 162.35 74.7897 162.35 74.789C162.35 74.7883 162.35 74.7876 162.35 74.7869C162.35 74.7862 162.35 74.7854 162.35 74.7847C162.35 74.784 162.35 74.7833 162.35 74.7826C162.35 74.7819 162.35 74.7811 162.35 74.7804C162.35 74.7797 162.35 74.779 162.35 74.7783C162.35 74.7776 162.35 74.7768 162.35 74.7761C162.35 74.7754 162.35 74.7747 162.35 74.774C162.35 74.7733 162.35 74.7726 162.35 74.7718C162.35 74.7711 162.35 74.7704 162.35 74.7697C162.35 74.769 162.35 74.7683 162.35 74.7675C162.35 74.7668 162.35 74.7661 162.35 74.7654C162.35 74.7647 162.35 74.764 162.35 74.7632C162.35 74.7625 162.35 74.7618 162.35 74.7611C162.35 74.7604 162.35 74.7597 162.35 74.7589C162.35 74.7582 162.35 74.7575 162.35 74.7568C162.35 74.7561 162.35 74.7554 162.35 74.7546C162.35 74.7539 162.35 74.7532 162.35 74.7525C162.35 74.7518 162.35 74.7511 162.35 74.7504C162.35 74.7496 162.35 74.7489 162.35 74.7482C162.35 74.7475 162.35 74.7468 162.35 74.7461C162.35 74.7453 162.35 74.7446 162.35 74.7439C162.35 74.7432 162.35 74.7425 162.35 74.7418C162.35 74.741 162.35 74.7403 162.35 74.7396C162.35 74.7389 162.35 74.7382 162.35 74.7375C162.35 74.7367 162.35 74.736 162.35 74.7353C162.35 74.7346 162.35 74.7339 162.35 74.7332C162.35 74.7324 162.35 74.7317 162.35 74.731C162.35 74.7303 162.35 74.7296 162.35 74.7289C162.35 74.7281 162.35 74.7274 162.35 74.7267C162.35 74.726 162.35 74.7253 162.35 74.7246C162.35 74.7239 162.35 74.7231 162.35 74.7224C162.35 74.7217 162.35 74.721 162.35 74.7203C162.35 74.7196 162.35 74.7188 162.35 74.7181C162.35 74.7174 162.35 74.7167 162.35 74.716C162.35 74.7153 162.35 74.7145 162.35 74.7138C162.35 74.7131 162.35 74.7124 162.35 74.7117C162.35 74.711 162.35 74.7102 162.35 74.7095C162.35 74.7088 162.35 74.7081 162.35 74.7074C162.35 74.7067 162.35 74.706 162.35 74.7052C162.35 74.7045 162.35 74.7038 162.35 74.7031C162.35 74.7024 162.35 74.7017 162.35 74.7009C162.35 74.7002 162.35 74.6995 162.35 74.6988C162.35 74.6981 162.35 74.6974 162.35 74.6966C162.35 74.6959 162.35 74.6952 162.35 74.6945C162.35 74.6938 162.35 74.6931 162.35 74.6923C162.35 74.6916 162.35 74.6909 162.35 74.6902C162.35 74.6895 162.35 74.6888 162.35 74.688C162.35 74.6873 162.35 74.6866 162.35 74.6859C162.35 74.6852 162.35 74.6845 162.35 74.6838C162.35 74.683 162.35 74.6823 162.35 74.6816C162.35 74.6809 162.35 74.6802 162.35 74.6795C162.35 74.6787 162.35 74.678 162.35 74.6773C162.35 74.6766 162.35 74.6759 162.35 74.6752C162.35 74.6744 162.35 74.6737 162.35 74.673C162.35 74.6723 162.35 74.6716 162.35 74.6709C162.35 74.6701 162.35 74.6694 162.35 74.6687C162.35 74.668 162.35 74.6673 162.35 74.6666C162.35 74.6658 162.35 74.6651 162.35 74.6644C162.35 74.6637 162.35 74.663 162.35 74.6623C162.35 74.6615 162.35 74.6608 162.35 74.6601C162.35 74.6594 162.35 74.6587 162.35 74.658C162.35 74.6573 162.35 74.6565 162.35 74.6558C162.35 74.6551 162.35 74.6544 162.35 74.6537C162.35 74.653 162.35 74.6522 162.35 74.6515C162.35 74.6508 162.35 74.6501 162.35 74.6494C162.35 74.6487 162.35 74.6479 162.35 74.6472C162.35 74.6465 162.35 74.6458 162.35 74.6451C162.35 74.6444 162.35 74.6436 162.35 74.6429C162.35 74.6422 162.35 74.6415 162.35 74.6408C162.35 74.6401 162.35 74.6393 162.35 74.6386C162.35 74.6379 162.35 74.6372 162.35 74.6365C162.35 74.6358 162.35 74.6351 162.35 74.6343C162.35 74.6336 162.35 74.6329 162.35 74.6322C162.35 74.6315 162.35 74.6308 162.35 74.63C162.35 74.6293 162.35 74.6286 162.35 74.6279C162.35 74.6272 162.35 74.6265 162.35 74.6257C162.35 74.625 162.35 74.6243 162.35 74.6236C162.35 74.6229 162.35 74.6222 162.35 74.6214C162.35 74.6207 162.35 74.62 162.35 74.6193C162.35 74.6186 162.35 74.6179 162.35 74.6171C162.35 74.6164 162.35 74.6157 162.35 74.615C162.35 74.6143 162.35 74.6136 162.35 74.6129C162.35 74.6121 162.35 74.6114 162.35 74.6107C162.35 74.61 162.35 74.6093 162.35 74.6086C162.35 74.6078 162.35 74.6071 162.35 74.6064C162.35 74.6057 162.35 74.605 162.35 74.6043C162.35 74.6035 162.35 74.6028 162.35 74.6021C162.35 74.6014 162.35 74.6007 162.35 74.6C162.35 74.5992 162.35 74.5985 162.35 74.5978C162.35 74.5971 162.35 74.5964 162.35 74.5957C162.35 74.5949 162.35 74.5942 162.35 74.5935C162.35 74.5928 162.35 74.5921 162.35 74.5914C162.35 74.5906 162.35 74.5899 162.35 74.5892C162.35 74.5885 162.35 74.5878 162.35 74.5871C162.35 74.5864 162.35 74.5856 162.35 74.5849C162.35 74.5842 162.35 74.5835 162.35 74.5828C162.35 74.5821 162.35 74.5813 162.35 74.5806C162.35 74.5799 162.35 74.5792 162.35 74.5785C162.35 74.5778 162.35 74.577 162.35 74.5763C162.35 74.5756 162.35 74.5749 162.35 74.5742C162.35 74.5735 162.35 74.5727 162.35 74.572C162.35 74.5713 162.35 74.5706 162.35 74.5699C162.35 74.5692 162.35 74.5685 162.35 74.5677C162.35 74.567 162.35 74.5663 162.35 74.5656C162.35 74.5649 162.35 74.5642 162.35 74.5634C162.35 74.5627 162.35 74.562 162.35 74.5613C162.35 74.5606 162.35 74.5599 162.35 74.5591C162.35 74.5584 162.35 74.5577 162.35 74.557C162.35 74.5563 162.35 74.5556 162.35 74.5548C162.35 74.5541 162.35 74.5534 162.35 74.5527C162.35 74.552 162.35 74.5513 162.35 74.5505C162.35 74.5498 162.35 74.5491 162.35 74.5484C162.35 74.5477 162.35 74.547 162.35 74.5462C162.35 74.5455 162.35 74.5448 162.35 74.5441C162.35 74.5434 162.35 74.5427 162.35 74.542C162.35 74.5412 162.35 74.5405 162.35 74.5398C162.35 74.5391 162.35 74.5384 162.35 74.5377C162.35 74.5369 162.35 74.5362 162.35 74.5355C162.35 74.5348 162.35 74.5341 162.35 74.5334C162.35 74.5326 162.35 74.5319 162.35 74.5312C162.35 74.5305 162.35 74.5298 162.35 74.5291C162.35 74.5283 162.35 74.5276 162.35 74.5269C162.35 74.5262 162.35 74.5255 162.35 74.5248C162.35 74.524 162.35 74.5233 162.35 74.5226C162.35 74.5219 162.35 74.5212 162.35 74.5205C162.35 74.5198 162.35 74.519 162.35 74.5183C162.35 74.5176 162.35 74.5169 162.35 74.5162C162.35 74.5155 162.35 74.5147 162.35 74.514C162.35 74.5133 162.35 74.5126 162.35 74.5119C162.35 74.5112 162.35 74.5104 162.35 74.5097C162.35 74.509 162.35 74.5083 162.35 74.5076C162.35 74.5069 162.35 74.5061 162.35 74.5054C162.35 74.5047 162.35 74.504 162.35 74.5033C162.35 74.5026 162.35 74.5018 162.35 74.5011C162.35 74.5004 162.35 74.4997 162.35 74.499C162.35 74.4983 162.35 74.4976 162.35 74.4968C162.35 74.4961 162.35 74.4954 162.35 74.4947C162.35 74.494 162.35 74.4933 162.35 74.4925C162.35 74.4918 162.35 74.4911 162.35 74.4904C162.35 74.4897 162.35 74.489 162.35 74.4882C162.35 74.4875 162.35 74.4868 162.35 74.4861C162.35 74.4854 162.35 74.4847 162.35 74.4839C162.35 74.4832 162.35 74.4825 162.35 74.4818C162.35 74.4811 162.35 74.4804 162.35 74.4796C162.35 74.4789 162.35 74.4782 162.35 74.4775C162.35 74.4768 162.35 74.4761 162.35 74.4753C162.35 74.4746 162.35 74.4739 162.35 74.4732C162.35 74.4725 162.35 74.4718 162.35 74.4711C162.35 74.4703 162.35 74.4696 162.35 74.4689C162.35 74.4682 162.35 74.4675 162.35 74.4668C162.35 74.466 162.35 74.4653 162.35 74.4646C162.35 74.4639 162.35 74.4632 162.35 74.4625C162.35 74.4617 162.35 74.461 162.35 74.4603C162.35 74.4596 162.35 74.4589 162.35 74.4582C162.35 74.4574 162.35 74.4567 162.35 74.456C162.35 74.4553 162.35 74.4546 162.35 74.4539C162.35 74.4532 162.35 74.4524 162.35 74.4517C162.35 74.451 162.35 74.4503 162.35 74.4496C162.35 74.4489 162.35 74.4481 162.35 74.4474C162.35 74.4467 162.35 74.446 162.35 74.4453C162.35 74.4446 162.35 74.4438 162.35 74.4431C162.35 74.4424 162.35 74.4417 162.35 74.441C162.35 74.4403 162.35 74.4395 162.35 74.4388C162.35 74.4381 162.35 74.4374 162.35 74.4367C162.35 74.436 162.35 74.4352 162.35 74.4345C162.35 74.4338 162.35 74.4331 162.35 74.4324C162.35 74.4317 162.35 74.431 162.35 74.4302C162.35 74.4295 162.35 74.4288 162.35 74.4281C162.35 74.4274 162.35 74.4267 162.35 74.4259C162.35 74.4252 162.35 74.4245 162.35 74.4238C162.35 74.4231 162.35 74.4224 162.35 74.4216C162.35 74.4209 162.35 74.4202 162.35 74.4195C162.35 74.4188 162.35 74.4181 162.35 74.4173C162.35 74.4166 162.35 74.4159 162.35 74.4152C162.35 74.4145 162.35 74.4138 162.35 74.413C162.35 74.4123 162.35 74.4116 162.35 74.4109C162.35 74.4102 162.35 74.4095 162.35 74.4087C162.35 74.408 162.35 74.4073 162.35 74.4066C162.35 74.4059 162.35 74.4052 162.35 74.4045C162.35 74.4037 162.35 74.403 162.35 74.4023C162.35 74.4016 162.35 74.4009 162.35 74.4002C162.35 74.3994 162.35 74.3987 162.35 74.398C162.35 74.3973 162.35 74.3966 162.35 74.3959C162.35 74.3951 162.35 74.3944 162.35 74.3937C162.35 74.393 162.35 74.3923 162.35 74.3916C162.35 74.3908 162.35 74.3901 162.35 74.3894C162.35 74.3887 162.35 74.388 162.35 74.3873C162.35 74.3865 162.35 74.3858 162.35 74.3851C162.35 74.3844 162.35 74.3837 162.35 74.383C162.35 74.3823 162.35 74.3815 162.35 74.3808C162.35 74.3801 162.35 74.3794 162.35 74.3787C162.35 74.378 162.35 74.3772 162.35 74.3765C162.35 74.3758 162.35 74.3751 162.35 74.3744C162.35 74.3737 162.35 74.3729 162.35 74.3722C162.35 74.3715 162.35 74.3708 162.35 74.3701C162.35 74.3694 162.35 74.3686 162.35 74.3679C162.35 74.3672 162.35 74.3665 162.35 74.3658C162.35 74.3651 162.35 74.3643 162.35 74.3636C162.35 74.3629 162.35 74.3622 162.35 74.3615C162.35 74.3608 162.35 74.3601 162.35 74.3593C162.35 74.3586 162.35 74.3579 162.35 74.3572C162.35 74.3565 162.35 74.3558 162.35 74.355C162.35 74.3543 162.35 74.3536 162.35 74.3529C162.35 74.3522 162.35 74.3515 162.35 74.3507C162.35 74.35 162.35 74.3493 162.35 74.3486C162.35 74.3479 162.35 74.3472 162.35 74.3464C162.35 74.3457 162.35 74.345 162.35 74.3443C162.35 74.3436 162.35 74.3429 162.35 74.3421C162.35 74.3414 162.35 74.3407 162.35 74.34C162.35 74.3393 162.35 74.3386 162.35 74.3379C162.35 74.3371 162.35 74.3364 162.35 74.3357C162.35 74.335 162.35 74.3343 162.35 74.3336C162.35 74.3328 162.35 74.3321 162.35 74.3314C162.35 74.3307 162.35 74.33 162.35 74.3293C162.35 74.3285 162.35 74.3278 162.35 74.3271C162.35 74.3264 162.35 74.3257 162.35 74.325C162.35 74.3242 162.35 74.3235 162.35 74.3228C162.35 74.3221 162.35 74.3214 162.35 74.3207C162.35 74.3199 162.35 74.3192 162.35 74.3185C162.35 74.3178 162.35 74.3171 162.35 74.3164C162.35 74.3157 162.35 74.3149 162.35 74.3142C162.35 74.3135 162.35 74.3128 162.35 74.3121C162.35 74.3114 162.35 74.3106 162.35 74.3099C162.35 74.3092 162.35 74.3085 162.35 74.3078C162.35 74.3071 162.35 74.3063 162.35 74.3056C162.35 74.3049 162.35 74.3042 162.35 74.3035C162.35 74.3028 162.35 74.302 162.35 74.3013C162.35 74.3006 162.35 74.2999 162.35 74.2992C162.35 74.2985 162.35 74.2977 162.35 74.297C162.35 74.2963 162.35 74.2956 162.35 74.2949C162.35 74.2942 162.35 74.2934 162.35 74.2927C162.35 74.292 162.35 74.2913 162.35 74.2906C162.35 74.2899 162.35 74.2892 162.35 74.2884C162.35 74.2877 162.35 74.287 162.35 74.2863C162.35 74.2856 162.35 74.2849 162.35 74.2841C162.35 74.2834 162.35 74.2827 162.35 74.282C162.35 74.2813 162.35 74.2806 162.35 74.2798C162.35 74.2791 162.35 74.2784 162.35 74.2777C162.35 74.277 162.35 74.2763 162.35 74.2755C162.35 74.2748 162.35 74.2741 162.35 74.2734C162.35 74.2727 162.35 74.272 162.35 74.2712C162.35 74.2705 162.35 74.2698 162.35 74.2691C162.35 74.2684 162.35 74.2677 162.35 74.267C162.35 74.2662 162.35 74.2655 162.35 74.2648C162.35 74.2641 162.35 74.2634 162.35 74.2627C162.35 74.2619 162.35 74.2612 162.35 74.2605C162.35 74.2598 162.35 74.2591 162.35 74.2584C162.35 74.2576 162.35 74.2569 162.35 74.2562C162.35 74.2555 162.35 74.2548 162.35 74.2541C162.35 74.2533 162.35 74.2526 162.35 74.2519C162.35 74.2512 162.35 74.2505 162.35 74.2498C162.35 74.2491 162.35 74.2483 162.35 74.2476C162.35 74.2469 162.35 74.2462 162.35 74.2455C162.35 74.2448 162.35 74.244 162.35 74.2433C162.35 74.2426 162.35 74.2419 162.35 74.2412C162.35 74.2405 162.35 74.2397 162.35 74.239C162.35 74.2383 162.35 74.2376 162.35 74.2369C162.35 74.2362 162.35 74.2354 162.35 74.2347C162.35 74.234 162.35 74.2333 162.35 74.2326C162.35 74.2319 162.35 74.2311 162.35 74.2304C162.35 74.2297 162.35 74.229 162.35 74.2283C162.35 74.2276 162.35 74.2268 162.35 74.2261C162.35 74.2254 162.35 74.2247 162.35 74.224C162.35 74.2233 162.35 74.2225 162.35 74.2218C162.35 74.2211 162.35 74.2204 162.35 74.2197C162.35 74.219 162.35 74.2183 162.35 74.2175C162.35 74.2168 162.35 74.2161 162.35 74.2154C162.35 74.2147 162.35 74.214 162.35 74.2132C162.35 74.2125 162.35 74.2118 162.35 74.2111C162.35 74.2104 162.35 74.2097 162.35 74.2089C162.35 74.2082 162.35 74.2075 162.35 74.2068C162.35 74.2061 162.35 74.2054 162.35 74.2046C162.35 74.2039 162.35 74.2032 162.35 74.2025C162.35 74.2018 162.35 74.2011 162.35 74.2004C162.35 74.1996 162.35 74.1989 162.35 74.1982C162.35 74.1975 162.35 74.1968 162.35 74.1961C162.35 74.1953 162.35 74.1946 162.35 74.1939C162.35 74.1932 162.35 74.1925 162.35 74.1918C162.35 74.191 162.35 74.1903 162.35 74.1896C162.35 74.1889 162.35 74.1882 162.35 74.1875C162.35 74.1867 162.35 74.186 162.35 74.1853C162.35 74.1846 162.35 74.1839 162.35 74.1832C162.35 74.1824 162.35 74.1817 162.35 74.181C162.35 74.1803 162.35 74.1796 162.35 74.1789C162.35 74.1782 162.35 74.1774 162.35 74.1767C162.35 74.176 162.35 74.1753 162.35 74.1746C162.35 74.1739 162.35 74.1731 162.35 74.1724C162.35 74.1717 162.35 74.171 162.35 74.1703C162.35 74.1696 162.35 74.1688 162.35 74.1681C162.35 74.1674 162.35 74.1667 162.35 74.166C162.35 74.1653 162.35 74.1645 162.35 74.1638C162.35 74.1631 162.35 74.1624 162.35 74.1617C162.35 74.161 162.35 74.1602 162.35 74.1595C162.35 74.1588 162.35 74.1581 162.35 74.1574C162.35 74.1567 162.35 74.1559 162.35 74.1552C162.35 74.1545 162.35 74.1538 162.35 74.1531C162.35 74.1524 162.35 74.1517 162.35 74.1509C162.35 74.1502 162.35 74.1495 162.35 74.1488C162.35 74.1481 162.35 74.1474 162.35 74.1466C162.35 74.1459 162.35 74.1452 162.35 74.1445C162.35 74.1438 162.35 74.1431 162.35 74.1423C162.35 74.1416 162.35 74.1409 162.35 74.1402C162.35 74.1395 162.35 74.1388 162.35 74.138C162.35 74.1373 162.35 74.1366 162.35 74.1359C162.35 74.1352 162.35 74.1345 162.35 74.1337C162.35 74.133 162.35 74.1323 162.35 74.1316C162.35 74.1309 162.35 74.1302 162.35 74.1295C162.35 74.1287 162.35 74.128 162.35 74.1273C162.35 74.1266 162.35 74.1259 162.35 74.1252C162.35 74.1244 162.35 74.1237 162.35 74.123C162.35 74.1223 162.35 74.1216 162.35 74.1209C162.35 74.1201 162.35 74.1194 162.35 74.1187C162.35 74.118 162.35 74.1173 162.35 74.1166C162.35 74.1158 162.35 74.1151 162.35 74.1144C162.35 74.1137 162.35 74.113 162.35 74.1123C162.35 74.1115 162.35 74.1108 162.35 74.1101C162.35 74.1094 162.35 74.1087 162.35 74.108C162.35 74.1073 162.35 74.1065 162.35 74.1058C162.35 74.1051 162.35 74.1044 162.35 74.1037C162.35 74.103 162.35 74.1022 162.35 74.1015C162.35 74.1008 162.35 74.1001 162.35 74.0994C162.35 74.0987 162.35 74.0979 162.35 74.0972C162.35 74.0965 162.35 74.0958 162.35 74.0951C162.35 74.0944 162.35 74.0936 162.35 74.0929C162.35 74.0922 162.35 74.0915 162.35 74.0908C162.35 74.0901 162.35 74.0893 162.35 74.0886C162.35 74.0879 162.35 74.0872 162.35 74.0865C162.35 74.0858 162.35 74.0851 162.35 74.0843C162.35 74.0836 162.35 74.0829 162.35 74.0822C162.35 74.0815 162.35 74.0808 162.35 74.08C162.35 74.0793 162.35 74.0786 162.35 74.0779C162.35 74.0772 162.35 74.0765 162.35 74.0757C162.35 74.075 162.35 74.0743 162.35 74.0736C162.35 74.0729 162.35 74.0722 162.35 74.0714C162.35 74.0707 162.35 74.07 162.35 74.0693C162.35 74.0686 162.35 74.0679 162.35 74.0671C162.35 74.0664 162.35 74.0657 162.35 74.065H160.35C160.35 74.0657 160.35 74.0664 160.35 74.0671C160.35 74.0679 160.35 74.0686 160.35 74.0693C160.35 74.07 160.35 74.0707 160.35 74.0714C160.35 74.0722 160.35 74.0729 160.35 74.0736C160.35 74.0743 160.35 74.075 160.35 74.0757C160.35 74.0765 160.35 74.0772 160.35 74.0779C160.35 74.0786 160.35 74.0793 160.35 74.08C160.35 74.0808 160.35 74.0815 160.35 74.0822C160.35 74.0829 160.35 74.0836 160.35 74.0843C160.35 74.0851 160.35 74.0858 160.35 74.0865C160.35 74.0872 160.35 74.0879 160.35 74.0886C160.35 74.0893 160.35 74.0901 160.35 74.0908C160.35 74.0915 160.35 74.0922 160.35 74.0929C160.35 74.0936 160.35 74.0944 160.35 74.0951C160.35 74.0958 160.35 74.0965 160.35 74.0972C160.35 74.0979 160.35 74.0987 160.35 74.0994C160.35 74.1001 160.35 74.1008 160.35 74.1015C160.35 74.1022 160.35 74.103 160.35 74.1037C160.35 74.1044 160.35 74.1051 160.35 74.1058C160.35 74.1065 160.35 74.1073 160.35 74.108C160.35 74.1087 160.35 74.1094 160.35 74.1101C160.35 74.1108 160.35 74.1115 160.35 74.1123C160.35 74.113 160.35 74.1137 160.35 74.1144C160.35 74.1151 160.35 74.1158 160.35 74.1166C160.35 74.1173 160.35 74.118 160.35 74.1187C160.35 74.1194 160.35 74.1201 160.35 74.1209C160.35 74.1216 160.35 74.1223 160.35 74.123C160.35 74.1237 160.35 74.1244 160.35 74.1252C160.35 74.1259 160.35 74.1266 160.35 74.1273C160.35 74.128 160.35 74.1287 160.35 74.1295C160.35 74.1302 160.35 74.1309 160.35 74.1316C160.35 74.1323 160.35 74.133 160.35 74.1337C160.35 74.1345 160.35 74.1352 160.35 74.1359C160.35 74.1366 160.35 74.1373 160.35 74.138C160.35 74.1388 160.35 74.1395 160.35 74.1402C160.35 74.1409 160.35 74.1416 160.35 74.1423C160.35 74.1431 160.35 74.1438 160.35 74.1445C160.35 74.1452 160.35 74.1459 160.35 74.1466C160.35 74.1474 160.35 74.1481 160.35 74.1488C160.35 74.1495 160.35 74.1502 160.35 74.1509C160.35 74.1517 160.35 74.1524 160.35 74.1531C160.35 74.1538 160.35 74.1545 160.35 74.1552C160.35 74.1559 160.35 74.1567 160.35 74.1574C160.35 74.1581 160.35 74.1588 160.35 74.1595C160.35 74.1602 160.35 74.161 160.35 74.1617C160.35 74.1624 160.35 74.1631 160.35 74.1638C160.35 74.1645 160.35 74.1653 160.35 74.166C160.35 74.1667 160.35 74.1674 160.35 74.1681C160.35 74.1688 160.35 74.1696 160.35 74.1703C160.35 74.171 160.35 74.1717 160.35 74.1724C160.35 74.1731 160.35 74.1739 160.35 74.1746C160.35 74.1753 160.35 74.176 160.35 74.1767C160.35 74.1774 160.35 74.1782 160.35 74.1789C160.35 74.1796 160.35 74.1803 160.35 74.181C160.35 74.1817 160.35 74.1824 160.35 74.1832C160.35 74.1839 160.35 74.1846 160.35 74.1853C160.35 74.186 160.35 74.1867 160.35 74.1875C160.35 74.1882 160.35 74.1889 160.35 74.1896C160.35 74.1903 160.35 74.191 160.35 74.1918C160.35 74.1925 160.35 74.1932 160.35 74.1939C160.35 74.1946 160.35 74.1953 160.35 74.1961C160.35 74.1968 160.35 74.1975 160.35 74.1982C160.35 74.1989 160.35 74.1996 160.35 74.2004C160.35 74.2011 160.35 74.2018 160.35 74.2025C160.35 74.2032 160.35 74.2039 160.35 74.2046C160.35 74.2054 160.35 74.2061 160.35 74.2068C160.35 74.2075 160.35 74.2082 160.35 74.2089C160.35 74.2097 160.35 74.2104 160.35 74.2111C160.35 74.2118 160.35 74.2125 160.35 74.2132C160.35 74.214 160.35 74.2147 160.35 74.2154C160.35 74.2161 160.35 74.2168 160.35 74.2175C160.35 74.2183 160.35 74.219 160.35 74.2197C160.35 74.2204 160.35 74.2211 160.35 74.2218C160.35 74.2225 160.35 74.2233 160.35 74.224C160.35 74.2247 160.35 74.2254 160.35 74.2261C160.35 74.2268 160.35 74.2276 160.35 74.2283C160.35 74.229 160.35 74.2297 160.35 74.2304C160.35 74.2311 160.35 74.2319 160.35 74.2326C160.35 74.2333 160.35 74.234 160.35 74.2347C160.35 74.2354 160.35 74.2362 160.35 74.2369C160.35 74.2376 160.35 74.2383 160.35 74.239C160.35 74.2397 160.35 74.2405 160.35 74.2412C160.35 74.2419 160.35 74.2426 160.35 74.2433C160.35 74.244 160.35 74.2448 160.35 74.2455C160.35 74.2462 160.35 74.2469 160.35 74.2476C160.35 74.2483 160.35 74.2491 160.35 74.2498C160.35 74.2505 160.35 74.2512 160.35 74.2519C160.35 74.2526 160.35 74.2533 160.35 74.2541C160.35 74.2548 160.35 74.2555 160.35 74.2562C160.35 74.2569 160.35 74.2576 160.35 74.2584C160.35 74.2591 160.35 74.2598 160.35 74.2605C160.35 74.2612 160.35 74.2619 160.35 74.2627C160.35 74.2634 160.35 74.2641 160.35 74.2648C160.35 74.2655 160.35 74.2662 160.35 74.267C160.35 74.2677 160.35 74.2684 160.35 74.2691C160.35 74.2698 160.35 74.2705 160.35 74.2712C160.35 74.272 160.35 74.2727 160.35 74.2734C160.35 74.2741 160.35 74.2748 160.35 74.2755C160.35 74.2763 160.35 74.277 160.35 74.2777C160.35 74.2784 160.35 74.2791 160.35 74.2798C160.35 74.2806 160.35 74.2813 160.35 74.282C160.35 74.2827 160.35 74.2834 160.35 74.2841C160.35 74.2849 160.35 74.2856 160.35 74.2863C160.35 74.287 160.35 74.2877 160.35 74.2884C160.35 74.2892 160.35 74.2899 160.35 74.2906C160.35 74.2913 160.35 74.292 160.35 74.2927C160.35 74.2934 160.35 74.2942 160.35 74.2949C160.35 74.2956 160.35 74.2963 160.35 74.297C160.35 74.2977 160.35 74.2985 160.35 74.2992C160.35 74.2999 160.35 74.3006 160.35 74.3013C160.35 74.302 160.35 74.3028 160.35 74.3035C160.35 74.3042 160.35 74.3049 160.35 74.3056C160.35 74.3063 160.35 74.3071 160.35 74.3078C160.35 74.3085 160.35 74.3092 160.35 74.3099C160.35 74.3106 160.35 74.3114 160.35 74.3121C160.35 74.3128 160.35 74.3135 160.35 74.3142C160.35 74.3149 160.35 74.3157 160.35 74.3164C160.35 74.3171 160.35 74.3178 160.35 74.3185C160.35 74.3192 160.35 74.3199 160.35 74.3207C160.35 74.3214 160.35 74.3221 160.35 74.3228C160.35 74.3235 160.35 74.3242 160.35 74.325C160.35 74.3257 160.35 74.3264 160.35 74.3271C160.35 74.3278 160.35 74.3285 160.35 74.3293C160.35 74.33 160.35 74.3307 160.35 74.3314C160.35 74.3321 160.35 74.3328 160.35 74.3336C160.35 74.3343 160.35 74.335 160.35 74.3357C160.35 74.3364 160.35 74.3371 160.35 74.3379C160.35 74.3386 160.35 74.3393 160.35 74.34C160.35 74.3407 160.35 74.3414 160.35 74.3421C160.35 74.3429 160.35 74.3436 160.35 74.3443C160.35 74.345 160.35 74.3457 160.35 74.3464C160.35 74.3472 160.35 74.3479 160.35 74.3486C160.35 74.3493 160.35 74.35 160.35 74.3507C160.35 74.3515 160.35 74.3522 160.35 74.3529C160.35 74.3536 160.35 74.3543 160.35 74.355C160.35 74.3558 160.35 74.3565 160.35 74.3572C160.35 74.3579 160.35 74.3586 160.35 74.3593C160.35 74.3601 160.35 74.3608 160.35 74.3615C160.35 74.3622 160.35 74.3629 160.35 74.3636C160.35 74.3643 160.35 74.3651 160.35 74.3658C160.35 74.3665 160.35 74.3672 160.35 74.3679C160.35 74.3686 160.35 74.3694 160.35 74.3701C160.35 74.3708 160.35 74.3715 160.35 74.3722C160.35 74.3729 160.35 74.3737 160.35 74.3744C160.35 74.3751 160.35 74.3758 160.35 74.3765C160.35 74.3772 160.35 74.378 160.35 74.3787C160.35 74.3794 160.35 74.3801 160.35 74.3808C160.35 74.3815 160.35 74.3823 160.35 74.383C160.35 74.3837 160.35 74.3844 160.35 74.3851C160.35 74.3858 160.35 74.3865 160.35 74.3873C160.35 74.388 160.35 74.3887 160.35 74.3894C160.35 74.3901 160.35 74.3908 160.35 74.3916C160.35 74.3923 160.35 74.393 160.35 74.3937C160.35 74.3944 160.35 74.3951 160.35 74.3959C160.35 74.3966 160.35 74.3973 160.35 74.398C160.35 74.3987 160.35 74.3994 160.35 74.4002C160.35 74.4009 160.35 74.4016 160.35 74.4023C160.35 74.403 160.35 74.4037 160.35 74.4045C160.35 74.4052 160.35 74.4059 160.35 74.4066C160.35 74.4073 160.35 74.408 160.35 74.4087C160.35 74.4095 160.35 74.4102 160.35 74.4109C160.35 74.4116 160.35 74.4123 160.35 74.413C160.35 74.4138 160.35 74.4145 160.35 74.4152C160.35 74.4159 160.35 74.4166 160.35 74.4173C160.35 74.4181 160.35 74.4188 160.35 74.4195C160.35 74.4202 160.35 74.4209 160.35 74.4216C160.35 74.4224 160.35 74.4231 160.35 74.4238C160.35 74.4245 160.35 74.4252 160.35 74.4259C160.35 74.4267 160.35 74.4274 160.35 74.4281C160.35 74.4288 160.35 74.4295 160.35 74.4302C160.35 74.431 160.35 74.4317 160.35 74.4324C160.35 74.4331 160.35 74.4338 160.35 74.4345C160.35 74.4352 160.35 74.436 160.35 74.4367C160.35 74.4374 160.35 74.4381 160.35 74.4388C160.35 74.4395 160.35 74.4403 160.35 74.441C160.35 74.4417 160.35 74.4424 160.35 74.4431C160.35 74.4438 160.35 74.4446 160.35 74.4453C160.35 74.446 160.35 74.4467 160.35 74.4474C160.35 74.4481 160.35 74.4489 160.35 74.4496C160.35 74.4503 160.35 74.451 160.35 74.4517C160.35 74.4524 160.35 74.4532 160.35 74.4539C160.35 74.4546 160.35 74.4553 160.35 74.456C160.35 74.4567 160.35 74.4574 160.35 74.4582C160.35 74.4589 160.35 74.4596 160.35 74.4603C160.35 74.461 160.35 74.4617 160.35 74.4625C160.35 74.4632 160.35 74.4639 160.35 74.4646C160.35 74.4653 160.35 74.466 160.35 74.4668C160.35 74.4675 160.35 74.4682 160.35 74.4689C160.35 74.4696 160.35 74.4703 160.35 74.4711C160.35 74.4718 160.35 74.4725 160.35 74.4732C160.35 74.4739 160.35 74.4746 160.35 74.4753C160.35 74.4761 160.35 74.4768 160.35 74.4775C160.35 74.4782 160.35 74.4789 160.35 74.4796C160.35 74.4804 160.35 74.4811 160.35 74.4818C160.35 74.4825 160.35 74.4832 160.35 74.4839C160.35 74.4847 160.35 74.4854 160.35 74.4861C160.35 74.4868 160.35 74.4875 160.35 74.4882C160.35 74.489 160.35 74.4897 160.35 74.4904C160.35 74.4911 160.35 74.4918 160.35 74.4925C160.35 74.4933 160.35 74.494 160.35 74.4947C160.35 74.4954 160.35 74.4961 160.35 74.4968C160.35 74.4976 160.35 74.4983 160.35 74.499C160.35 74.4997 160.35 74.5004 160.35 74.5011C160.35 74.5018 160.35 74.5026 160.35 74.5033C160.35 74.504 160.35 74.5047 160.35 74.5054C160.35 74.5061 160.35 74.5069 160.35 74.5076C160.35 74.5083 160.35 74.509 160.35 74.5097C160.35 74.5104 160.35 74.5112 160.35 74.5119C160.35 74.5126 160.35 74.5133 160.35 74.514C160.35 74.5147 160.35 74.5155 160.35 74.5162C160.35 74.5169 160.35 74.5176 160.35 74.5183C160.35 74.519 160.35 74.5198 160.35 74.5205C160.35 74.5212 160.35 74.5219 160.35 74.5226C160.35 74.5233 160.35 74.524 160.35 74.5248C160.35 74.5255 160.35 74.5262 160.35 74.5269C160.35 74.5276 160.35 74.5283 160.35 74.5291C160.35 74.5298 160.35 74.5305 160.35 74.5312C160.35 74.5319 160.35 74.5326 160.35 74.5334C160.35 74.5341 160.35 74.5348 160.35 74.5355C160.35 74.5362 160.35 74.5369 160.35 74.5377C160.35 74.5384 160.35 74.5391 160.35 74.5398C160.35 74.5405 160.35 74.5412 160.35 74.542C160.35 74.5427 160.35 74.5434 160.35 74.5441C160.35 74.5448 160.35 74.5455 160.35 74.5462C160.35 74.547 160.35 74.5477 160.35 74.5484C160.35 74.5491 160.35 74.5498 160.35 74.5505C160.35 74.5513 160.35 74.552 160.35 74.5527C160.35 74.5534 160.35 74.5541 160.35 74.5548C160.35 74.5556 160.35 74.5563 160.35 74.557C160.35 74.5577 160.35 74.5584 160.35 74.5591C160.35 74.5599 160.35 74.5606 160.35 74.5613C160.35 74.562 160.35 74.5627 160.35 74.5634C160.35 74.5642 160.35 74.5649 160.35 74.5656C160.35 74.5663 160.35 74.567 160.35 74.5677C160.35 74.5685 160.35 74.5692 160.35 74.5699C160.35 74.5706 160.35 74.5713 160.35 74.572C160.35 74.5727 160.35 74.5735 160.35 74.5742C160.35 74.5749 160.35 74.5756 160.35 74.5763C160.35 74.577 160.35 74.5778 160.35 74.5785C160.35 74.5792 160.35 74.5799 160.35 74.5806C160.35 74.5813 160.35 74.5821 160.35 74.5828C160.35 74.5835 160.35 74.5842 160.35 74.5849C160.35 74.5856 160.35 74.5864 160.35 74.5871C160.35 74.5878 160.35 74.5885 160.35 74.5892C160.35 74.5899 160.35 74.5906 160.35 74.5914C160.35 74.5921 160.35 74.5928 160.35 74.5935C160.35 74.5942 160.35 74.5949 160.35 74.5957C160.35 74.5964 160.35 74.5971 160.35 74.5978C160.35 74.5985 160.35 74.5992 160.35 74.6C160.35 74.6007 160.35 74.6014 160.35 74.6021C160.35 74.6028 160.35 74.6035 160.35 74.6043C160.35 74.605 160.35 74.6057 160.35 74.6064C160.35 74.6071 160.35 74.6078 160.35 74.6086C160.35 74.6093 160.35 74.61 160.35 74.6107C160.35 74.6114 160.35 74.6121 160.35 74.6129C160.35 74.6136 160.35 74.6143 160.35 74.615C160.35 74.6157 160.35 74.6164 160.35 74.6171C160.35 74.6179 160.35 74.6186 160.35 74.6193C160.35 74.62 160.35 74.6207 160.35 74.6214C160.35 74.6222 160.35 74.6229 160.35 74.6236C160.35 74.6243 160.35 74.625 160.35 74.6257C160.35 74.6265 160.35 74.6272 160.35 74.6279C160.35 74.6286 160.35 74.6293 160.35 74.63C160.35 74.6308 160.35 74.6315 160.35 74.6322C160.35 74.6329 160.35 74.6336 160.35 74.6343C160.35 74.6351 160.35 74.6358 160.35 74.6365C160.35 74.6372 160.35 74.6379 160.35 74.6386C160.35 74.6393 160.35 74.6401 160.35 74.6408C160.35 74.6415 160.35 74.6422 160.35 74.6429C160.35 74.6436 160.35 74.6444 160.35 74.6451C160.35 74.6458 160.35 74.6465 160.35 74.6472C160.35 74.6479 160.35 74.6487 160.35 74.6494C160.35 74.6501 160.35 74.6508 160.35 74.6515C160.35 74.6522 160.35 74.653 160.35 74.6537C160.35 74.6544 160.35 74.6551 160.35 74.6558C160.35 74.6565 160.35 74.6573 160.35 74.658C160.35 74.6587 160.35 74.6594 160.35 74.6601C160.35 74.6608 160.35 74.6615 160.35 74.6623C160.35 74.663 160.35 74.6637 160.35 74.6644C160.35 74.6651 160.35 74.6658 160.35 74.6666C160.35 74.6673 160.35 74.668 160.35 74.6687C160.35 74.6694 160.35 74.6701 160.35 74.6709C160.35 74.6716 160.35 74.6723 160.35 74.673C160.35 74.6737 160.35 74.6744 160.35 74.6752C160.35 74.6759 160.35 74.6766 160.35 74.6773C160.35 74.678 160.35 74.6787 160.35 74.6795C160.35 74.6802 160.35 74.6809 160.35 74.6816C160.35 74.6823 160.35 74.683 160.35 74.6838C160.35 74.6845 160.35 74.6852 160.35 74.6859C160.35 74.6866 160.35 74.6873 160.35 74.688C160.35 74.6888 160.35 74.6895 160.35 74.6902C160.35 74.6909 160.35 74.6916 160.35 74.6923C160.35 74.6931 160.35 74.6938 160.35 74.6945C160.35 74.6952 160.35 74.6959 160.35 74.6966C160.35 74.6974 160.35 74.6981 160.35 74.6988C160.35 74.6995 160.35 74.7002 160.35 74.7009C160.35 74.7017 160.35 74.7024 160.35 74.7031C160.35 74.7038 160.35 74.7045 160.35 74.7052C160.35 74.706 160.35 74.7067 160.35 74.7074C160.35 74.7081 160.35 74.7088 160.35 74.7095C160.35 74.7102 160.35 74.711 160.35 74.7117C160.35 74.7124 160.35 74.7131 160.35 74.7138C160.35 74.7145 160.35 74.7153 160.35 74.716C160.35 74.7167 160.35 74.7174 160.35 74.7181C160.35 74.7188 160.35 74.7196 160.35 74.7203C160.35 74.721 160.35 74.7217 160.35 74.7224C160.35 74.7231 160.35 74.7239 160.35 74.7246C160.35 74.7253 160.35 74.726 160.35 74.7267C160.35 74.7274 160.35 74.7281 160.35 74.7289C160.35 74.7296 160.35 74.7303 160.35 74.731C160.35 74.7317 160.35 74.7324 160.35 74.7332C160.35 74.7339 160.35 74.7346 160.35 74.7353C160.35 74.736 160.35 74.7367 160.35 74.7375C160.35 74.7382 160.35 74.7389 160.35 74.7396C160.35 74.7403 160.35 74.741 160.35 74.7418C160.35 74.7425 160.35 74.7432 160.35 74.7439C160.35 74.7446 160.35 74.7453 160.35 74.7461C160.35 74.7468 160.35 74.7475 160.35 74.7482C160.35 74.7489 160.35 74.7496 160.35 74.7504C160.35 74.7511 160.35 74.7518 160.35 74.7525C160.35 74.7532 160.35 74.7539 160.35 74.7546C160.35 74.7554 160.35 74.7561 160.35 74.7568C160.35 74.7575 160.35 74.7582 160.35 74.7589C160.35 74.7597 160.35 74.7604 160.35 74.7611C160.35 74.7618 160.35 74.7625 160.35 74.7632C160.35 74.764 160.35 74.7647 160.35 74.7654C160.35 74.7661 160.35 74.7668 160.35 74.7675C160.35 74.7683 160.35 74.769 160.35 74.7697C160.35 74.7704 160.35 74.7711 160.35 74.7718C160.35 74.7726 160.35 74.7733 160.35 74.774C160.35 74.7747 160.35 74.7754 160.35 74.7761C160.35 74.7768 160.35 74.7776 160.35 74.7783C160.35 74.779 160.35 74.7797 160.35 74.7804C160.35 74.7811 160.35 74.7819 160.35 74.7826C160.35 74.7833 160.35 74.784 160.35 74.7847C160.35 74.7854 160.35 74.7862 160.35 74.7869C160.35 74.7876 160.35 74.7883 160.35 74.789C160.35 74.7897 160.35 74.7905 160.35 74.7912C160.35 74.7919 160.35 74.7926 160.35 74.7933C160.35 74.794 160.35 74.7948 160.35 74.7955C160.35 74.7962 160.35 74.7969 160.35 74.7976C160.35 74.7983 160.35 74.799 160.35 74.7998C160.35 74.8005 160.35 74.8012 160.35 74.8019C160.35 74.8026 160.35 74.8033 160.35 74.8041C160.35 74.8048 160.35 74.8055 160.35 74.8062C160.35 74.8069 160.35 74.8076 160.35 74.8084C160.35 74.8091 160.35 74.8098 160.35 74.8105C160.35 74.8112 160.35 74.8119 160.35 74.8127C160.35 74.8134 160.35 74.8141 160.35 74.8148C160.35 74.8155 160.35 74.8162 160.35 74.817C160.35 74.8177 160.35 74.8184 160.35 74.8191C160.35 74.8198 160.35 74.8205 160.35 74.8213C160.35 74.822 160.35 74.8227 160.35 74.8234C160.35 74.8241 160.35 74.8248 160.35 74.8255C160.35 74.8263 160.35 74.827 160.35 74.8277C160.35 74.8284 160.35 74.8291 160.35 74.8298C160.35 74.8306 160.35 74.8313 160.35 74.832C160.35 74.8327 160.35 74.8334 160.35 74.8341C160.35 74.8349 160.35 74.8356 160.35 74.8363C160.35 74.837 160.35 74.8377 160.35 74.8384C160.35 74.8392 160.35 74.8399 160.35 74.8406C160.35 74.8413 160.35 74.842 160.35 74.8427C160.35 74.8434 160.35 74.8442 160.35 74.8449C160.35 74.8456 160.35 74.8463 160.35 74.847C160.35 74.8477 160.35 74.8485 160.35 74.8492C160.35 74.8499 160.35 74.8506 160.35 74.8513C160.35 74.852 160.35 74.8528 160.35 74.8535C160.35 74.8542 160.35 74.8549 160.35 74.8556C160.35 74.8563 160.35 74.8571 160.35 74.8578C160.35 74.8585 160.35 74.8592 160.35 74.8599C160.35 74.8606 160.35 74.8614 160.35 74.8621C160.35 74.8628 160.35 74.8635 160.35 74.8642C160.35 74.8649 160.35 74.8657 160.35 74.8664C160.35 74.8671 160.35 74.8678 160.35 74.8685C160.35 74.8692 160.35 74.8699 160.35 74.8707C160.35 74.8714 160.35 74.8721 160.35 74.8728C160.35 74.8735 160.35 74.8742 160.35 74.875C160.35 74.8757 160.35 74.8764 160.35 74.8771C160.35 74.8778 160.35 74.8785 160.35 74.8793C160.35 74.88 160.35 74.8807 160.35 74.8814C160.35 74.8821 160.35 74.8828 160.35 74.8836C160.35 74.8843 160.35 74.885 160.35 74.8857C160.35 74.8864 160.35 74.8871 160.35 74.8879C160.35 74.8886 160.35 74.8893 160.35 74.89C160.35 74.8907 160.35 74.8914 160.35 74.8921C160.35 74.8929 160.35 74.8936 160.35 74.8943C160.35 74.895 160.35 74.8957 160.35 74.8964C160.35 74.8972 160.35 74.8979 160.35 74.8986C160.35 74.8993 160.35 74.9 160.35 74.9007C160.35 74.9015 160.35 74.9022 160.35 74.9029C160.35 74.9036 160.35 74.9043 160.35 74.905C160.35 74.9058 160.35 74.9065 160.35 74.9072C160.35 74.9079 160.35 74.9086 160.35 74.9093C160.35 74.9101 160.35 74.9108 160.35 74.9115C160.35 74.9122 160.35 74.9129 160.35 74.9136C160.35 74.9143 160.35 74.9151 160.35 74.9158C160.35 74.9165 160.35 74.9172 160.35 74.9179C160.35 74.9186 160.35 74.9194 160.35 74.9201C160.35 74.9208 160.35 74.9215 160.35 74.9222C160.35 74.9229 160.35 74.9237 160.35 74.9244C160.35 74.9251 160.35 74.9258 160.35 74.9265C160.35 74.9272 160.35 74.928 160.35 74.9287C160.35 74.9294 160.35 74.9301 160.35 74.9308C160.35 74.9315 160.35 74.9323 160.35 74.933C160.35 74.9337 160.35 74.9344 160.35 74.9351C160.35 74.9358 160.35 74.9366 160.35 74.9373C160.35 74.938 160.35 74.9387 160.35 74.9394C160.35 74.9401 160.35 74.9408 160.35 74.9416C160.35 74.9423 160.35 74.943 160.35 74.9437C160.35 74.9444 160.35 74.9451 160.35 74.9459C160.35 74.9466 160.35 74.9473 160.35 74.948C160.35 74.9487 160.35 74.9494 160.35 74.9502C160.35 74.9509 160.35 74.9516 160.35 74.9523C160.35 74.953 160.35 74.9537 160.35 74.9545C160.35 74.9552 160.35 74.9559 160.35 74.9566C160.35 74.9573 160.35 74.958 160.35 74.9587C160.35 74.9595 160.35 74.9602 160.35 74.9609C160.35 74.9616 160.35 74.9623 160.35 74.963C160.35 74.9638 160.35 74.9645 160.35 74.9652C160.35 74.9659 160.35 74.9666 160.35 74.9673C160.35 74.9681 160.35 74.9688 160.35 74.9695C160.35 74.9702 160.35 74.9709 160.35 74.9716C160.35 74.9724 160.35 74.9731 160.35 74.9738C160.35 74.9745 160.35 74.9752 160.35 74.9759C160.35 74.9767 160.35 74.9774 160.35 74.9781C160.35 74.9788 160.35 74.9795 160.35 74.9802C160.35 74.9809 160.35 74.9817 160.35 74.9824C160.35 74.9831 160.35 74.9838 160.35 74.9845C160.35 74.9852 160.35 74.986 160.35 74.9867C160.35 74.9874 160.35 74.9881 160.35 74.9888C160.35 74.9895 160.35 74.9903 160.35 74.991C160.35 74.9917 160.35 74.9924 160.35 74.9931C160.35 74.9938 160.35 74.9946 160.35 74.9953C160.35 74.996 160.35 74.9967 160.35 74.9974C160.35 74.9981 160.35 74.9989 160.35 74.9996C160.35 75.0003 160.35 75.001 160.35 75.0017C160.35 75.0024 160.35 75.0032 160.35 75.0039C160.35 75.0046 160.35 75.0053 160.35 75.006C160.35 75.0067 160.35 75.0074 160.35 75.0082C160.35 75.0089 160.35 75.0096 160.35 75.0103C160.35 75.011 160.35 75.0117 160.35 75.0125C160.35 75.0132 160.35 75.0139 160.35 75.0146C160.35 75.0153 160.35 75.016 160.35 75.0168C160.35 75.0175 160.35 75.0182 160.35 75.0189C160.35 75.0196 160.35 75.0203 160.35 75.0211C160.35 75.0218 160.35 75.0225 160.35 75.0232C160.35 75.0239 160.35 75.0246 160.35 75.0254C160.35 75.0261 160.35 75.0268 160.35 75.0275C160.35 75.0282 160.35 75.0289 160.35 75.0296C160.35 75.0304 160.35 75.0311 160.35 75.0318C160.35 75.0325 160.35 75.0332 160.35 75.0339C160.35 75.0347 160.35 75.0354 160.35 75.0361C160.35 75.0368 160.35 75.0375 160.35 75.0382C160.35 75.039 160.35 75.0397 160.35 75.0404C160.35 75.0411 160.35 75.0418 160.35 75.0425C160.35 75.0433 160.35 75.044 160.35 75.0447C160.35 75.0454 160.35 75.0461 160.35 75.0468C160.35 75.0476 160.35 75.0483 160.35 75.049C160.35 75.0497 160.35 75.0504 160.35 75.0511C160.35 75.0518 160.35 75.0526 160.35 75.0533C160.35 75.054 160.35 75.0547 160.35 75.0554C160.35 75.0561 160.35 75.0569 160.35 75.0576C160.35 75.0583 160.35 75.059 160.35 75.0597C160.35 75.0604 160.35 75.0612 160.35 75.0619C160.35 75.0626 160.35 75.0633 160.35 75.064C160.35 75.0647 160.35 75.0655 160.35 75.0662C160.35 75.0669 160.35 75.0676 160.35 75.0683C160.35 75.069 160.35 75.0698 160.35 75.0705C160.35 75.0712 160.35 75.0719 160.35 75.0726C160.35 75.0733 160.35 75.074 160.35 75.0748C160.35 75.0755 160.35 75.0762 160.35 75.0769C160.35 75.0776 160.35 75.0783 160.35 75.0791C160.35 75.0798 160.35 75.0805 160.35 75.0812C160.35 75.0819 160.35 75.0826 160.35 75.0834C160.35 75.0841 160.35 75.0848 160.35 75.0855C160.35 75.0862 160.35 75.0869 160.35 75.0877C160.35 75.0884 160.35 75.0891 160.35 75.0898C160.35 75.0905 160.35 75.0912 160.35 75.092C160.35 75.0927 160.35 75.0934 160.35 75.0941C160.35 75.0948 160.35 75.0955 160.35 75.0962C160.35 75.097 160.35 75.0977 160.35 75.0984C160.35 75.0991 160.35 75.0998 160.35 75.1005C160.35 75.1013 160.35 75.102 160.35 75.1027C160.35 75.1034 160.35 75.1041 160.35 75.1048C160.35 75.1056 160.35 75.1063 160.35 75.107C160.35 75.1077 160.35 75.1084 160.35 75.1091C160.35 75.1099 160.35 75.1106 160.35 75.1113C160.35 75.112 160.35 75.1127 160.35 75.1134C160.35 75.1142 160.35 75.1149 160.35 75.1156C160.35 75.1163 160.35 75.117 160.35 75.1177C160.35 75.1185 160.35 75.1192 160.35 75.1199C160.35 75.1206 160.35 75.1213 160.35 75.122C160.35 75.1227 160.35 75.1235 160.35 75.1242C160.35 75.1249 160.35 75.1256 160.35 75.1263C160.35 75.127 160.35 75.1278 160.35 75.1285C160.35 75.1292 160.35 75.1299 160.35 75.1306C160.35 75.1313 160.35 75.1321 160.35 75.1328C160.35 75.1335 160.35 75.1342 160.35 75.1349C160.35 75.1356 160.35 75.1364 160.35 75.1371C160.35 75.1378 160.35 75.1385 160.35 75.1392C160.35 75.1399 160.35 75.1407 160.35 75.1414C160.35 75.1421 160.35 75.1428 160.35 75.1435C160.35 75.1442 160.35 75.1449 160.35 75.1457C160.35 75.1464 160.35 75.1471 160.35 75.1478C160.35 75.1485 160.35 75.1492 160.35 75.15C160.35 75.1507 160.35 75.1514 160.35 75.1521C160.35 75.1528 160.35 75.1535 160.35 75.1543C160.35 75.155 160.35 75.1557 160.35 75.1564C160.35 75.1571 160.35 75.1578 160.35 75.1586C160.35 75.1593 160.35 75.16 160.35 75.1607C160.35 75.1614 160.35 75.1621 160.35 75.1628C160.35 75.1636 160.35 75.1643 160.35 75.165H162.35ZM162.35 74.065C162.35 70.2252 161.797 67.1873 160.562 65.088L158.838 66.102C159.803 67.7427 160.35 70.3515 160.35 74.065H162.35ZM160.566 65.0953C159.34 62.9694 157.621 61.735 155.41 61.735V63.735C156.719 63.735 157.86 64.4072 158.834 66.0947L160.566 65.0953ZM155.41 61.735C153.882 61.735 152.547 62.1872 151.491 63.1515L152.839 64.6285C153.47 64.0528 154.298 63.735 155.41 63.735V61.735ZM151.491 63.1515C150.507 64.0495 149.797 65.1912 149.346 66.5438L151.244 67.1762C151.599 66.1088 152.136 65.2705 152.839 64.6285L151.491 63.1515ZM149.341 66.5617C148.945 67.827 148.745 69.1008 148.745 70.38H150.745C150.745 69.3126 150.912 68.2397 151.249 67.1583L149.341 66.5617Z" fill="black" mask="url(#path-20-outside-1_2541_64)"/>
</g>
<defs>
<filter id="filter0_bd_2541_64" x="111.528" y="56.15" width="61.0273" height="49.4" filterUnits="userSpaceOnUse" color-interpolation-filters="sRGB">
<feFlood flood-opacity="0" result="BackgroundImageFix"/>
<feGaussianBlur in="BackgroundImageFix" stdDeviation="2"/>
<feComposite in2="SourceAlpha" operator="in" result="effect1_backgroundBlur_2541_64"/>
<feColorMatrix in="SourceAlpha" type="matrix" values="0 0 0 0 0 0 0 0 0 0 0 0 0 0 0 0 0 0 127 0" result="hardAlpha"/>
<feOffset dy="4"/>
<feGaussianBlur stdDeviation="2"/>
<feComposite in2="hardAlpha" operator="out"/>
<feColorMatrix type="matrix" values="0 0 0 0 0 0 0 0 0 0 0 0 0 0 0 0 0 0 0.25 0"/>
<feBlend mode="normal" in2="effect1_backgroundBlur_2541_64" result="effect2_dropShadow_2541_64"/>
<feBlend mode="normal" in="SourceGraphic" in2="effect2_dropShadow_2541_64" result="shape"/>
</filter>
</defs>
</svg>
