<svg width="281" height="158" viewBox="0 0 281 158" fill="none" xmlns="http://www.w3.org/2000/svg">
<g clip-path="url(#clip0_2541_72)">
<rect width="281" height="158" fill="#CD5742"/>
<circle cx="-30" cy="86" r="125" fill="#6A0404"/>
<g filter="url(#filter0_bd_2541_72)">
<mask id="path-2-outside-1_2541_72" maskUnits="userSpaceOnUse" x="112" y="59" width="58" height="40" fill="black">
<rect fill="white" x="112" y="59" width="58" height="40"/>
<path d="M114.373 97V95.24C117.416 91.83 119.928 88.97 121.908 86.66C123.924 84.35 125.501 82.4067 126.638 80.83C127.811 79.2533 128.673 77.8783 129.223 76.705C129.773 75.5317 130.121 74.395 130.268 73.295C130.414 72.1583 130.488 70.8933 130.488 69.5C130.488 67.5567 130.011 65.9617 129.058 64.715C128.104 63.4683 126.803 62.845 125.153 62.845C121.413 62.845 119.543 64.9167 119.543 69.06V71.59L119.213 72.03H115.968C115.234 72.03 114.684 71.9017 114.318 71.645C113.951 71.3883 113.768 70.7467 113.768 69.72C113.768 68.6933 114.079 67.6667 114.703 66.64C115.363 65.5767 116.371 64.55 117.728 63.56C118.681 62.9 119.598 62.3133 120.478 61.8C121.358 61.2867 122.329 60.8833 123.393 60.59C124.493 60.2967 125.776 60.15 127.243 60.15C129.296 60.15 131.111 60.59 132.688 61.47C134.301 62.35 135.548 63.5233 136.428 64.99C137.344 66.4567 137.803 68.0883 137.803 69.885C137.803 71.0583 137.656 72.14 137.363 73.13C137.106 74.12 136.629 75.1467 135.933 76.21C135.236 77.2733 134.246 78.4833 132.963 79.84C131.716 81.1967 130.121 82.8283 128.178 84.735C126.234 86.605 123.851 88.86 121.028 91.5H134.998L138.023 86.11H138.903L138.353 97H114.373ZM155.19 97.55C153.503 97.55 151.908 97.3483 150.405 96.945C148.902 96.5417 147.527 95.9183 146.28 95.075C145.253 94.3417 144.447 93.5717 143.86 92.765C143.273 91.9583 142.98 91.0967 142.98 90.18C142.98 89.3367 143.145 88.805 143.475 88.585C143.805 88.365 144.318 88.255 145.015 88.255H148.205L148.7 88.75V90.62C148.7 92.0133 149.213 93.095 150.24 93.865C151.303 94.5983 152.825 94.965 154.805 94.965C156.968 94.965 158.618 94.2683 159.755 92.875C160.928 91.4817 161.515 89.7033 161.515 87.54C161.515 85.01 160.855 83.03 159.535 81.6C158.215 80.17 155.923 79.455 152.66 79.455H149.635V76.925H151.835C154.218 76.925 156.107 76.1917 157.5 74.725C158.93 73.2583 159.645 71.37 159.645 69.06C159.645 66.86 159.205 65.2467 158.325 64.22C157.445 63.1933 156.18 62.68 154.53 62.68C153.1 62.68 151.908 63.1383 150.955 64.055C150.038 64.935 149.58 66.1267 149.58 67.63V69.885L149.14 70.38H146.06C145.327 70.38 144.777 70.27 144.41 70.05C144.043 69.7933 143.86 69.2067 143.86 68.29C143.86 66.2367 145.125 64.4217 147.655 62.845C149.085 61.9283 150.423 61.25 151.67 60.81C152.917 60.37 154.438 60.15 156.235 60.15C158.252 60.15 160.067 60.5167 161.68 61.25C163.33 61.9467 164.613 62.955 165.53 64.275C166.483 65.5583 166.96 67.0617 166.96 68.785C166.96 70.8383 166.117 72.6167 164.43 74.12C162.78 75.6233 160.653 76.6683 158.05 77.255C161.57 77.7317 164.247 78.8133 166.08 80.5C167.95 82.1867 168.885 84.405 168.885 87.155C168.885 89.0983 168.243 90.8583 166.96 92.435C165.713 94.0117 164.045 95.2583 161.955 96.175C159.865 97.0917 157.61 97.55 155.19 97.55Z"/>
</mask>
<path d="M114.373 97V95.24C117.416 91.83 119.928 88.97 121.908 86.66C123.924 84.35 125.501 82.4067 126.638 80.83C127.811 79.2533 128.673 77.8783 129.223 76.705C129.773 75.5317 130.121 74.395 130.268 73.295C130.414 72.1583 130.488 70.8933 130.488 69.5C130.488 67.5567 130.011 65.9617 129.058 64.715C128.104 63.4683 126.803 62.845 125.153 62.845C121.413 62.845 119.543 64.9167 119.543 69.06V71.59L119.213 72.03H115.968C115.234 72.03 114.684 71.9017 114.318 71.645C113.951 71.3883 113.768 70.7467 113.768 69.72C113.768 68.6933 114.079 67.6667 114.703 66.64C115.363 65.5767 116.371 64.55 117.728 63.56C118.681 62.9 119.598 62.3133 120.478 61.8C121.358 61.2867 122.329 60.8833 123.393 60.59C124.493 60.2967 125.776 60.15 127.243 60.15C129.296 60.15 131.111 60.59 132.688 61.47C134.301 62.35 135.548 63.5233 136.428 64.99C137.344 66.4567 137.803 68.0883 137.803 69.885C137.803 71.0583 137.656 72.14 137.363 73.13C137.106 74.12 136.629 75.1467 135.933 76.21C135.236 77.2733 134.246 78.4833 132.963 79.84C131.716 81.1967 130.121 82.8283 128.178 84.735C126.234 86.605 123.851 88.86 121.028 91.5H134.998L138.023 86.11H138.903L138.353 97H114.373ZM155.19 97.55C153.503 97.55 151.908 97.3483 150.405 96.945C148.902 96.5417 147.527 95.9183 146.28 95.075C145.253 94.3417 144.447 93.5717 143.86 92.765C143.273 91.9583 142.98 91.0967 142.98 90.18C142.98 89.3367 143.145 88.805 143.475 88.585C143.805 88.365 144.318 88.255 145.015 88.255H148.205L148.7 88.75V90.62C148.7 92.0133 149.213 93.095 150.24 93.865C151.303 94.5983 152.825 94.965 154.805 94.965C156.968 94.965 158.618 94.2683 159.755 92.875C160.928 91.4817 161.515 89.7033 161.515 87.54C161.515 85.01 160.855 83.03 159.535 81.6C158.215 80.17 155.923 79.455 152.66 79.455H149.635V76.925H151.835C154.218 76.925 156.107 76.1917 157.5 74.725C158.93 73.2583 159.645 71.37 159.645 69.06C159.645 66.86 159.205 65.2467 158.325 64.22C157.445 63.1933 156.18 62.68 154.53 62.68C153.1 62.68 151.908 63.1383 150.955 64.055C150.038 64.935 149.58 66.1267 149.58 67.63V69.885L149.14 70.38H146.06C145.327 70.38 144.777 70.27 144.41 70.05C144.043 69.7933 143.86 69.2067 143.86 68.29C143.86 66.2367 145.125 64.4217 147.655 62.845C149.085 61.9283 150.423 61.25 151.67 60.81C152.917 60.37 154.438 60.15 156.235 60.15C158.252 60.15 160.067 60.5167 161.68 61.25C163.33 61.9467 164.613 62.955 165.53 64.275C166.483 65.5583 166.96 67.0617 166.96 68.785C166.96 70.8383 166.117 72.6167 164.43 74.12C162.78 75.6233 160.653 76.6683 158.05 77.255C161.57 77.7317 164.247 78.8133 166.08 80.5C167.95 82.1867 168.885 84.405 168.885 87.155C168.885 89.0983 168.243 90.8583 166.96 92.435C165.713 94.0117 164.045 95.2583 161.955 96.175C159.865 97.0917 157.61 97.55 155.19 97.55Z" fill="white"/>
<path d="M114.373 97H113.373V98H114.373V97ZM114.373 95.24L113.627 94.5741L113.373 94.8587V95.24H114.373ZM121.908 86.66L121.154 86.0023L121.148 86.0092L121.908 86.66ZM126.638 80.83L125.835 80.233L125.831 80.2391L125.827 80.2452L126.638 80.83ZM129.223 76.705L130.128 77.1294L129.223 76.705ZM130.268 73.295L131.259 73.4272L131.259 73.423L130.268 73.295ZM129.058 64.715L128.263 65.3224L128.263 65.3225L129.058 64.715ZM119.543 71.59L120.343 72.19L120.543 71.9233V71.59H119.543ZM119.213 72.03V73.03H119.713L120.013 72.63L119.213 72.03ZM114.703 66.64L113.853 66.1126L113.848 66.121L114.703 66.64ZM117.728 63.56L117.158 62.7378L117.148 62.7449L117.138 62.7522L117.728 63.56ZM120.478 61.8L119.974 60.9362H119.974L120.478 61.8ZM123.393 60.59L123.135 59.6237L123.127 59.626L123.393 60.59ZM132.688 61.47L132.2 62.3432L132.209 62.3479L132.688 61.47ZM136.428 64.99L135.57 65.5045L135.575 65.5123L135.58 65.52L136.428 64.99ZM137.363 73.13L136.404 72.8459L136.399 72.8624L136.395 72.879L137.363 73.13ZM135.933 76.21L136.769 76.758L135.933 76.21ZM132.963 79.84L132.236 79.1528L132.231 79.1581L132.226 79.1634L132.963 79.84ZM128.178 84.735L128.871 85.4556L128.878 85.4488L128.178 84.735ZM121.028 91.5L120.345 90.7696L118.494 92.5H121.028V91.5ZM134.998 91.5V92.5H135.583L135.87 91.9894L134.998 91.5ZM138.023 86.11V85.11H137.437L137.151 85.6206L138.023 86.11ZM138.903 86.11L139.901 86.1604L139.954 85.11H138.903V86.11ZM138.353 97V98H139.303L139.351 97.0504L138.353 97ZM115.373 97V95.24H113.373V97H115.373ZM115.119 95.9059C118.165 92.4931 120.681 89.6277 122.667 87.3108L121.148 86.0092C119.174 88.3123 116.667 91.1669 113.627 94.5741L115.119 95.9059ZM122.661 87.3177C124.688 84.996 126.287 83.0267 127.449 81.4148L125.827 80.2452C124.715 81.7867 123.161 83.704 121.154 86.0023L122.661 87.3177ZM127.44 81.427C128.635 79.821 129.539 78.3862 130.128 77.1294L128.317 76.2806C127.806 77.3705 126.987 78.6856 125.835 80.233L127.44 81.427ZM130.128 77.1294C130.714 75.8788 131.097 74.6437 131.259 73.4272L129.276 73.1628C129.145 74.1463 128.831 75.1846 128.317 76.2806L130.128 77.1294ZM131.259 73.423C131.413 72.236 131.488 70.9274 131.488 69.5H129.488C129.488 70.8593 129.416 72.0807 129.276 73.167L131.259 73.423ZM131.488 69.5C131.488 67.3905 130.968 65.5668 129.852 64.1075L128.263 65.3225C129.054 66.3566 129.488 67.7228 129.488 69.5H131.488ZM129.852 64.1075C128.698 62.599 127.096 61.845 125.153 61.845V63.845C126.51 63.845 127.51 64.3376 128.263 65.3224L129.852 64.1075ZM125.153 61.845C123.101 61.845 121.386 62.418 120.203 63.7287C119.037 65.0199 118.543 66.858 118.543 69.06H120.543C120.543 67.1186 120.983 65.8493 121.688 65.0688C122.374 64.3078 123.465 63.845 125.153 63.845V61.845ZM118.543 69.06V71.59H120.543V69.06H118.543ZM118.743 70.99L118.413 71.43L120.013 72.63L120.343 72.19L118.743 70.99ZM119.213 71.03H115.968V73.03H119.213V71.03ZM115.968 71.03C115.32 71.03 115.013 70.9112 114.891 70.8258L113.744 72.4642C114.356 72.8922 115.148 73.03 115.968 73.03V71.03ZM114.891 70.8258C114.969 70.8801 114.925 70.9009 114.867 70.6965C114.81 70.4994 114.768 70.1846 114.768 69.72H112.768C112.768 70.282 112.817 70.8014 112.944 71.246C113.069 71.6832 113.3 72.1533 113.744 72.4642L114.891 70.8258ZM114.768 69.72C114.768 68.9055 115.013 68.0561 115.557 67.159L113.848 66.121C113.146 67.2772 112.768 68.4812 112.768 69.72H114.768ZM115.552 67.1674C116.126 66.2438 117.031 65.3064 118.317 64.3678L117.138 62.7522C115.711 63.7936 114.6 64.9095 113.853 66.1126L115.552 67.1674ZM118.297 64.3822C119.232 63.7349 120.127 63.1625 120.982 62.6638L119.974 60.9362C119.069 61.4642 118.13 62.0651 117.158 62.7378L118.297 64.3822ZM120.982 62.6638C121.781 62.1974 122.672 61.8262 123.659 61.554L123.127 59.626C121.987 59.9404 120.934 60.3759 119.974 60.9362L120.982 62.6638ZM123.65 61.5562C124.646 61.2907 125.839 61.15 127.243 61.15V59.15C125.713 59.15 124.339 59.3027 123.135 59.6238L123.65 61.5562ZM127.243 61.15C129.149 61.15 130.792 61.5572 132.2 62.3432L133.175 60.5968C131.43 59.6228 129.443 59.15 127.243 59.15V61.15ZM132.209 62.3479C133.678 63.1492 134.789 64.2019 135.57 65.5045L137.285 64.4755C136.307 62.8448 134.924 61.5508 133.167 60.5921L132.209 62.3479ZM135.58 65.52C136.393 66.8214 136.803 68.2681 136.803 69.885H138.803C138.803 67.9086 138.296 66.092 137.276 64.46L135.58 65.52ZM136.803 69.885C136.803 70.975 136.666 71.9597 136.404 72.8459L138.321 73.4141C138.646 72.3203 138.803 71.1416 138.803 69.885H136.803ZM136.395 72.879C136.171 73.7414 135.747 74.6686 135.096 75.662L136.769 76.758C137.512 75.6247 138.041 74.4986 138.331 73.381L136.395 72.879ZM135.096 75.662C134.443 76.6586 133.496 77.8212 132.236 79.1528L133.689 80.5272C134.996 79.1455 136.029 77.8881 136.769 76.758L135.096 75.662ZM132.226 79.1634C130.995 80.5029 129.414 82.1215 127.477 84.0212L128.878 85.4488C130.828 83.5352 132.437 81.8904 133.699 80.5166L132.226 79.1634ZM127.484 84.0144C125.546 85.88 123.166 88.1316 120.345 90.7696L121.711 92.2304C124.536 89.5884 126.923 87.33 128.871 85.4556L127.484 84.0144ZM121.028 92.5H134.998V90.5H121.028V92.5ZM135.87 91.9894L138.895 86.5994L137.151 85.6206L134.126 91.0106L135.87 91.9894ZM138.023 87.11H138.903V85.11H138.023V87.11ZM137.904 86.0596L137.354 96.9496L139.351 97.0504L139.901 86.1604L137.904 86.0596ZM138.353 96H114.373V98H138.353V96ZM150.405 96.945L150.146 97.9108L150.405 96.945ZM146.28 95.075L145.699 95.8887L145.709 95.8961L145.72 95.9033L146.28 95.075ZM143.86 92.765L143.051 93.3532L143.86 92.765ZM143.475 88.585L142.92 87.7529L143.475 88.585ZM148.205 88.255L148.912 87.5479L148.619 87.255H148.205V88.255ZM148.7 88.75H149.7V88.3358L149.407 88.0429L148.7 88.75ZM150.24 93.865L149.64 94.665L149.656 94.6769L149.672 94.6882L150.24 93.865ZM159.755 92.875L158.99 92.2309L158.985 92.2368L158.98 92.2429L159.755 92.875ZM159.535 81.6L158.8 82.2783V82.2783L159.535 81.6ZM149.635 79.455H148.635V80.455H149.635V79.455ZM149.635 76.925V75.925H148.635V76.925H149.635ZM157.5 74.725L156.784 74.0268L156.775 74.0362L157.5 74.725ZM158.325 64.22L159.084 63.5692L158.325 64.22ZM150.955 64.055L151.648 64.7764L151.648 64.7758L150.955 64.055ZM149.58 69.885L150.327 70.5494L150.58 70.2652V69.885H149.58ZM149.14 70.38V71.38H149.589L149.887 71.0444L149.14 70.38ZM144.41 70.05L143.837 70.8692L143.865 70.8894L143.896 70.9075L144.41 70.05ZM147.655 62.845L148.184 63.6938L148.195 63.6869L147.655 62.845ZM151.67 60.81L151.337 59.867L151.67 60.81ZM161.68 61.25L161.266 62.1604L161.279 62.166L161.291 62.1712L161.68 61.25ZM165.53 64.275L164.709 64.8454L164.718 64.8585L164.727 64.8713L165.53 64.275ZM164.43 74.12L163.765 73.3734L163.757 73.3808L164.43 74.12ZM158.05 77.255L157.83 76.2795L157.916 78.246L158.05 77.255ZM166.08 80.5L165.403 81.236L165.41 81.2426L166.08 80.5ZM166.96 92.435L166.184 91.8037L166.18 91.8092L166.176 91.8148L166.96 92.435ZM161.955 96.175L162.357 97.0908L161.955 96.175ZM155.19 96.55C153.584 96.55 152.076 96.358 150.664 95.9792L150.146 97.9108C151.74 98.3387 153.423 98.55 155.19 98.55V96.55ZM150.664 95.9792C149.264 95.6036 147.992 95.0257 146.84 94.2467L145.72 95.9033C147.062 96.811 148.539 97.4797 150.146 97.9108L150.664 95.9792ZM146.861 94.2613C145.9 93.5746 145.178 92.8771 144.669 92.1768L143.051 93.3532C143.715 94.2663 144.607 95.1087 145.699 95.8887L146.861 94.2613ZM144.669 92.1768C144.195 91.5252 143.98 90.8665 143.98 90.18H141.98C141.98 91.3268 142.352 92.3915 143.051 93.3532L144.669 92.1768ZM143.98 90.18C143.98 89.8127 144.017 89.5791 144.059 89.4451C144.1 89.3114 144.12 89.357 144.03 89.417L142.92 87.7529C142.5 88.033 142.272 88.4544 142.149 88.8524C142.025 89.25 141.98 89.704 141.98 90.18H143.98ZM144.03 89.417C144.113 89.3618 144.385 89.255 145.015 89.255V87.255C144.252 87.255 143.497 87.3682 142.92 87.7529L144.03 89.417ZM145.015 89.255H148.205V87.255H145.015V89.255ZM147.498 88.9621L147.993 89.4571L149.407 88.0429L148.912 87.5479L147.498 88.9621ZM147.7 88.75V90.62H149.7V88.75H147.7ZM147.7 90.62C147.7 92.2968 148.338 93.6881 149.64 94.665L150.84 93.065C150.089 92.5019 149.7 91.7298 149.7 90.62H147.7ZM149.672 94.6882C150.97 95.5831 152.723 95.965 154.805 95.965V93.965C152.927 93.965 151.637 93.6136 150.808 93.0418L149.672 94.6882ZM154.805 95.965C157.201 95.965 159.164 95.181 160.53 93.5071L158.98 92.2429C158.072 93.3557 156.735 93.965 154.805 93.965V95.965ZM160.52 93.5191C161.872 91.913 162.515 89.8927 162.515 87.54H160.515C160.515 89.5139 159.984 91.0503 158.99 92.2309L160.52 93.5191ZM162.515 87.54C162.515 84.8363 161.807 82.5865 160.27 80.9217L158.8 82.2783C159.903 83.4735 160.515 85.1837 160.515 87.54H162.515ZM160.27 80.9217C158.666 79.1838 156.022 78.455 152.66 78.455V80.455C155.825 80.455 157.764 81.1562 158.8 82.2783L160.27 80.9217ZM152.66 78.455H149.635V80.455H152.66V78.455ZM150.635 79.455V76.925H148.635V79.455H150.635ZM149.635 77.925H151.835V75.925H149.635V77.925ZM151.835 77.925C154.439 77.925 156.609 77.1145 158.225 75.4137L156.775 74.0362C155.604 75.2688 153.997 75.925 151.835 75.925V77.925ZM158.216 75.4231C159.852 73.7453 160.645 71.5946 160.645 69.06H158.645C158.645 71.1454 158.008 72.7714 156.784 74.0269L158.216 75.4231ZM160.645 69.06C160.645 66.7612 160.191 64.8607 159.084 63.5692L157.566 64.8708C158.219 65.6326 158.645 66.9588 158.645 69.06H160.645ZM159.084 63.5692C157.973 62.2726 156.402 61.68 154.53 61.68V63.68C155.958 63.68 156.917 64.114 157.566 64.8708L159.084 63.5692ZM154.53 61.68C152.865 61.68 151.417 62.223 150.262 63.3342L151.648 64.7758C152.399 64.0536 153.335 63.68 154.53 63.68V61.68ZM150.262 63.3336C149.114 64.4365 148.58 65.9083 148.58 67.63H150.58C150.58 66.345 150.963 65.4335 151.648 64.7764L150.262 63.3336ZM148.58 67.63V69.885H150.58V67.63H148.58ZM148.833 69.2206L148.393 69.7156L149.887 71.0444L150.327 70.5494L148.833 69.2206ZM149.14 69.38H146.06V71.38H149.14V69.38ZM146.06 69.38C145.394 69.38 145.061 69.2743 144.924 69.1925L143.896 70.9075C144.493 71.2657 145.259 71.38 146.06 71.38V69.38ZM144.983 69.2308C145.038 69.2691 145.002 69.2792 144.952 69.1192C144.901 68.9574 144.86 68.6918 144.86 68.29H142.86C142.86 68.8049 142.91 69.291 143.043 69.7158C143.176 70.1424 143.415 70.5743 143.837 70.8692L144.983 69.2308ZM144.86 68.29C144.86 66.7228 145.803 65.1774 148.184 63.6937L147.126 61.9963C144.447 63.666 142.86 65.7505 142.86 68.29H144.86ZM148.195 63.6869C149.577 62.8006 150.846 62.1613 152.003 61.753L151.337 59.867C150.001 60.3387 148.593 61.056 147.115 62.0031L148.195 63.6869ZM152.003 61.753C153.112 61.3616 154.514 61.15 156.235 61.15V59.15C154.363 59.15 152.721 59.3784 151.337 59.867L152.003 61.753ZM156.235 61.15C158.129 61.15 159.8 61.4937 161.266 62.1604L162.094 60.3396C160.334 59.5396 158.375 59.15 156.235 59.15V61.15ZM161.291 62.1712C162.787 62.803 163.912 63.6983 164.709 64.8454L166.351 63.7046C165.315 62.2117 163.873 61.0904 162.069 60.3287L161.291 62.1712ZM164.727 64.8713C165.542 65.9685 165.96 67.2587 165.96 68.785H167.96C167.96 66.8646 167.424 65.1482 166.333 63.6787L164.727 64.8713ZM165.96 68.785C165.96 70.5226 165.262 72.0386 163.765 73.3735L165.095 74.8665C166.971 73.1948 167.96 71.154 167.96 68.785H165.96ZM163.757 73.3808C162.258 74.7465 160.297 75.7235 157.83 76.2795L158.27 78.2305C161.009 77.6132 163.302 76.5002 165.103 74.8592L163.757 73.3808ZM157.916 78.246C161.316 78.7064 163.772 79.7354 165.403 81.2359L166.757 79.7641C164.721 77.8913 161.824 76.7569 158.184 76.264L157.916 78.246ZM165.41 81.2426C167.049 82.7209 167.885 84.6589 167.885 87.155H169.885C169.885 84.1511 168.851 81.6524 166.75 79.7574L165.41 81.2426ZM167.885 87.155C167.885 88.8572 167.33 90.3965 166.184 91.8037L167.736 93.0663C169.157 91.3201 169.885 89.3395 169.885 87.155H167.885ZM166.176 91.8148C165.043 93.2466 163.514 94.3993 161.553 95.2592L162.357 97.0908C164.576 96.1174 166.383 94.7767 167.744 93.0552L166.176 91.8148ZM161.553 95.2592C159.598 96.117 157.48 96.55 155.19 96.55V98.55C157.74 98.55 160.132 98.0663 162.357 97.0908L161.553 95.2592Z" fill="black" mask="url(#path-2-outside-1_2541_72)"/>
</g>
</g>
<defs>
<filter id="filter0_bd_2541_72" x="109.768" y="56.15" width="63.1173" height="49.4" filterUnits="userSpaceOnUse" color-interpolation-filters="sRGB">
<feFlood flood-opacity="0" result="BackgroundImageFix"/>
<feGaussianBlur in="BackgroundImageFix" stdDeviation="2"/>
<feComposite in2="SourceAlpha" operator="in" result="effect1_backgroundBlur_2541_72"/>
<feColorMatrix in="SourceAlpha" type="matrix" values="0 0 0 0 0 0 0 0 0 0 0 0 0 0 0 0 0 0 127 0" result="hardAlpha"/>
<feOffset dy="4"/>
<feGaussianBlur stdDeviation="2"/>
<feComposite in2="hardAlpha" operator="out"/>
<feColorMatrix type="matrix" values="0 0 0 0 0 0 0 0 0 0 0 0 0 0 0 0 0 0 0.25 0"/>
<feBlend mode="normal" in2="effect1_backgroundBlur_2541_72" result="effect2_dropShadow_2541_72"/>
<feBlend mode="normal" in="SourceGraphic" in2="effect2_dropShadow_2541_72" result="shape"/>
</filter>
<clipPath id="clip0_2541_72">
<rect width="281" height="158" fill="white"/>
</clipPath>
</defs>
</svg>
