<svg width="281" height="158" viewBox="0 0 281 158" fill="none" xmlns="http://www.w3.org/2000/svg">
<rect width="281" height="158" fill="#CD5742"/>
<path d="M141 30L179.971 107.25H102.029L141 30Z" fill="#6A0404"/>
<rect x="96" y="106" width="90" height="10" rx="5" fill="#F2A395"/>
<circle cx="141" cy="29" r="4" fill="#F2A395"/>
<g filter="url(#filter0_bd_2541_43)">
<mask id="path-4-outside-1_2541_43" maskUnits="userSpaceOnUse" x="127" y="59" width="29" height="40" fill="black">
<rect fill="white" x="127" y="59" width="29" height="40"/>
<path d="M140.446 97.55C138.76 97.55 137.165 97.3483 135.661 96.945C134.158 96.5417 132.783 95.9183 131.536 95.075C130.51 94.3417 129.703 93.5717 129.116 92.765C128.53 91.9583 128.236 91.0967 128.236 90.18C128.236 89.3367 128.401 88.805 128.731 88.585C129.061 88.365 129.575 88.255 130.271 88.255H133.461L133.956 88.75V90.62C133.956 92.0133 134.47 93.095 135.496 93.865C136.56 94.5983 138.081 94.965 140.061 94.965C142.225 94.965 143.875 94.2683 145.011 92.875C146.185 91.4817 146.771 89.7033 146.771 87.54C146.771 85.01 146.111 83.03 144.791 81.6C143.471 80.17 141.18 79.455 137.916 79.455H134.891V76.925H137.091C139.475 76.925 141.363 76.1917 142.756 74.725C144.186 73.2583 144.901 71.37 144.901 69.06C144.901 66.86 144.461 65.2467 143.581 64.22C142.701 63.1933 141.436 62.68 139.786 62.68C138.356 62.68 137.165 63.1383 136.211 64.055C135.295 64.935 134.836 66.1267 134.836 67.63V69.885L134.396 70.38H131.316C130.583 70.38 130.033 70.27 129.666 70.05C129.3 69.7933 129.116 69.2067 129.116 68.29C129.116 66.2367 130.381 64.4217 132.911 62.845C134.341 61.9283 135.68 61.25 136.926 60.81C138.173 60.37 139.695 60.15 141.491 60.15C143.508 60.15 145.323 60.5167 146.936 61.25C148.586 61.9467 149.87 62.955 150.786 64.275C151.74 65.5583 152.216 67.0617 152.216 68.785C152.216 70.8383 151.373 72.6167 149.686 74.12C148.036 75.6233 145.91 76.6683 143.306 77.255C146.826 77.7317 149.503 78.8133 151.336 80.5C153.206 82.1867 154.141 84.405 154.141 87.155C154.141 89.0983 153.5 90.8583 152.216 92.435C150.97 94.0117 149.301 95.2583 147.211 96.175C145.121 97.0917 142.866 97.55 140.446 97.55Z"/>
</mask>
<path d="M140.446 97.55C138.76 97.55 137.165 97.3483 135.661 96.945C134.158 96.5417 132.783 95.9183 131.536 95.075C130.51 94.3417 129.703 93.5717 129.116 92.765C128.53 91.9583 128.236 91.0967 128.236 90.18C128.236 89.3367 128.401 88.805 128.731 88.585C129.061 88.365 129.575 88.255 130.271 88.255H133.461L133.956 88.75V90.62C133.956 92.0133 134.47 93.095 135.496 93.865C136.56 94.5983 138.081 94.965 140.061 94.965C142.225 94.965 143.875 94.2683 145.011 92.875C146.185 91.4817 146.771 89.7033 146.771 87.54C146.771 85.01 146.111 83.03 144.791 81.6C143.471 80.17 141.18 79.455 137.916 79.455H134.891V76.925H137.091C139.475 76.925 141.363 76.1917 142.756 74.725C144.186 73.2583 144.901 71.37 144.901 69.06C144.901 66.86 144.461 65.2467 143.581 64.22C142.701 63.1933 141.436 62.68 139.786 62.68C138.356 62.68 137.165 63.1383 136.211 64.055C135.295 64.935 134.836 66.1267 134.836 67.63V69.885L134.396 70.38H131.316C130.583 70.38 130.033 70.27 129.666 70.05C129.3 69.7933 129.116 69.2067 129.116 68.29C129.116 66.2367 130.381 64.4217 132.911 62.845C134.341 61.9283 135.68 61.25 136.926 60.81C138.173 60.37 139.695 60.15 141.491 60.15C143.508 60.15 145.323 60.5167 146.936 61.25C148.586 61.9467 149.87 62.955 150.786 64.275C151.74 65.5583 152.216 67.0617 152.216 68.785C152.216 70.8383 151.373 72.6167 149.686 74.12C148.036 75.6233 145.91 76.6683 143.306 77.255C146.826 77.7317 149.503 78.8133 151.336 80.5C153.206 82.1867 154.141 84.405 154.141 87.155C154.141 89.0983 153.5 90.8583 152.216 92.435C150.97 94.0117 149.301 95.2583 147.211 96.175C145.121 97.0917 142.866 97.55 140.446 97.55Z" fill="white"/>
<path d="M135.661 96.945L135.402 97.9108L135.661 96.945ZM131.536 95.075L130.955 95.8887L130.965 95.8961L130.976 95.9033L131.536 95.075ZM129.116 92.765L128.308 93.3532L129.116 92.765ZM128.731 88.585L128.177 87.7529L128.731 88.585ZM133.461 88.255L134.168 87.5479L133.876 87.255H133.461V88.255ZM133.956 88.75H134.956V88.3358L134.663 88.0429L133.956 88.75ZM135.496 93.865L134.896 94.665L134.912 94.6769L134.929 94.6882L135.496 93.865ZM145.011 92.875L144.246 92.2309L144.241 92.2368L144.236 92.2429L145.011 92.875ZM144.791 81.6L144.057 82.2783V82.2783L144.791 81.6ZM134.891 79.455H133.891V80.455H134.891V79.455ZM134.891 76.925V75.925H133.891V76.925H134.891ZM142.756 74.725L142.04 74.0268L142.031 74.0362L142.756 74.725ZM143.581 64.22L144.341 63.5692L143.581 64.22ZM136.211 64.055L136.904 64.7764L136.904 64.7758L136.211 64.055ZM134.836 69.885L135.584 70.5494L135.836 70.2652V69.885H134.836ZM134.396 70.38V71.38H134.845L135.144 71.0444L134.396 70.38ZM129.666 70.05L129.093 70.8692L129.122 70.8894L129.152 70.9075L129.666 70.05ZM132.911 62.845L133.44 63.6938L133.451 63.6869L132.911 62.845ZM136.926 60.81L136.594 59.867L136.926 60.81ZM146.936 61.25L146.523 62.1604L146.535 62.166L146.547 62.1712L146.936 61.25ZM150.786 64.275L149.965 64.8454L149.974 64.8585L149.984 64.8713L150.786 64.275ZM149.686 74.12L149.021 73.3734L149.013 73.3808L149.686 74.12ZM143.306 77.255L143.087 76.2795L143.172 78.246L143.306 77.255ZM151.336 80.5L150.659 81.236L150.667 81.2426L151.336 80.5ZM152.216 92.435L151.441 91.8037L151.436 91.8092L151.432 91.8148L152.216 92.435ZM147.211 96.175L147.613 97.0908L147.211 96.175ZM140.446 96.55C138.84 96.55 137.333 96.358 135.92 95.9792L135.402 97.9108C136.997 98.3387 138.679 98.55 140.446 98.55V96.55ZM135.92 95.9792C134.521 95.6036 133.248 95.0257 132.097 94.2467L130.976 95.9033C132.318 96.811 133.795 97.4797 135.402 97.9108L135.92 95.9792ZM132.118 94.2613C131.156 93.5746 130.434 92.8771 129.925 92.1768L128.308 93.3532C128.972 94.2663 129.863 95.1087 130.955 95.8887L132.118 94.2613ZM129.925 92.1768C129.451 91.5252 129.236 90.8665 129.236 90.18H127.236C127.236 91.3268 127.608 92.3915 128.308 93.3532L129.925 92.1768ZM129.236 90.18C129.236 89.8127 129.274 89.5791 129.315 89.4451C129.357 89.3114 129.376 89.357 129.286 89.417L128.177 87.7529C127.757 88.033 127.529 88.4544 127.405 88.8524C127.282 89.25 127.236 89.704 127.236 90.18H129.236ZM129.286 89.417C129.369 89.3618 129.641 89.255 130.271 89.255V87.255C129.508 87.255 128.754 87.3682 128.177 87.7529L129.286 89.417ZM130.271 89.255H133.461V87.255H130.271V89.255ZM132.754 88.9621L133.249 89.4571L134.663 88.0429L134.168 87.5479L132.754 88.9621ZM132.956 88.75V90.62H134.956V88.75H132.956ZM132.956 90.62C132.956 92.2968 133.594 93.6881 134.896 94.665L136.096 93.065C135.345 92.5019 134.956 91.7298 134.956 90.62H132.956ZM134.929 94.6882C136.226 95.5831 137.979 95.965 140.061 95.965V93.965C138.183 93.965 136.893 93.6136 136.064 93.0418L134.929 94.6882ZM140.061 95.965C142.458 95.965 144.421 95.181 145.786 93.5071L144.236 92.2429C143.329 93.3557 141.992 93.965 140.061 93.965V95.965ZM145.776 93.5191C147.129 91.913 147.771 89.8927 147.771 87.54H145.771C145.771 89.5139 145.241 91.0503 144.246 92.2309L145.776 93.5191ZM147.771 87.54C147.771 84.8363 147.063 82.5865 145.526 80.9217L144.057 82.2783C145.16 83.4735 145.771 85.1837 145.771 87.54H147.771ZM145.526 80.9217C143.922 79.1838 141.278 78.455 137.916 78.455V80.455C141.081 80.455 143.021 81.1562 144.057 82.2783L145.526 80.9217ZM137.916 78.455H134.891V80.455H137.916V78.455ZM135.891 79.455V76.925H133.891V79.455H135.891ZM134.891 77.925H137.091V75.925H134.891V77.925ZM137.091 77.925C139.696 77.925 141.866 77.1145 143.481 75.4137L142.031 74.0362C140.86 75.2688 139.254 75.925 137.091 75.925V77.925ZM143.472 75.4231C145.108 73.7453 145.901 71.5946 145.901 69.06H143.901C143.901 71.1454 143.264 72.7714 142.04 74.0269L143.472 75.4231ZM145.901 69.06C145.901 66.7612 145.448 64.8607 144.341 63.5692L142.822 64.8708C143.475 65.6326 143.901 66.9588 143.901 69.06H145.901ZM144.341 63.5692C143.229 62.2726 141.658 61.68 139.786 61.68V63.68C141.215 63.68 142.173 64.114 142.822 64.8708L144.341 63.5692ZM139.786 61.68C138.121 61.68 136.674 62.223 135.518 63.3342L136.904 64.7758C137.656 64.0536 138.592 63.68 139.786 63.68V61.68ZM135.519 63.3336C134.37 64.4365 133.836 65.9083 133.836 67.63H135.836C135.836 66.345 136.219 65.4335 136.904 64.7764L135.519 63.3336ZM133.836 67.63V69.885H135.836V67.63H133.836ZM134.089 69.2206L133.649 69.7156L135.144 71.0444L135.584 70.5494L134.089 69.2206ZM134.396 69.38H131.316V71.38H134.396V69.38ZM131.316 69.38C130.65 69.38 130.317 69.2743 130.181 69.1925L129.152 70.9075C129.749 71.2657 130.516 71.38 131.316 71.38V69.38ZM130.24 69.2308C130.295 69.2691 130.258 69.2792 130.208 69.1192C130.158 68.9574 130.116 68.6918 130.116 68.29H128.116C128.116 68.8049 128.167 69.291 128.299 69.7158C128.433 70.1424 128.672 70.5743 129.093 70.8692L130.24 69.2308ZM130.116 68.29C130.116 66.7228 131.059 65.1774 133.44 63.6937L132.382 61.9963C129.703 63.666 128.116 65.7505 128.116 68.29H130.116ZM133.451 63.6869C134.834 62.8006 136.102 62.1613 137.259 61.753L136.594 59.867C135.257 60.3387 133.849 61.056 132.372 62.0031L133.451 63.6869ZM137.259 61.753C138.368 61.3616 139.77 61.15 141.491 61.15V59.15C139.619 59.15 137.978 59.3784 136.594 59.867L137.259 61.753ZM141.491 61.15C143.385 61.15 145.056 61.4937 146.523 62.1604L147.35 60.3396C145.59 59.5396 143.631 59.15 141.491 59.15V61.15ZM146.547 62.1712C148.044 62.803 149.168 63.6983 149.965 64.8454L151.608 63.7046C150.571 62.2117 149.129 61.0904 147.325 60.3287L146.547 62.1712ZM149.984 64.8713C150.799 65.9685 151.216 67.2587 151.216 68.785H153.216C153.216 66.8646 152.681 65.1482 151.589 63.6787L149.984 64.8713ZM151.216 68.785C151.216 70.5226 150.519 72.0386 149.021 73.3735L150.352 74.8665C152.227 73.1948 153.216 71.154 153.216 68.785H151.216ZM149.013 73.3808C147.514 74.7465 145.554 75.7235 143.087 76.2795L143.526 78.2305C146.266 77.6132 148.559 76.5002 150.36 74.8592L149.013 73.3808ZM143.172 78.246C146.572 78.7064 149.028 79.7354 150.659 81.2359L152.013 79.7641C149.978 77.8913 147.08 76.7569 143.441 76.264L143.172 78.246ZM150.667 81.2426C152.306 82.7209 153.141 84.6589 153.141 87.155H155.141C155.141 84.1511 154.107 81.6524 152.006 79.7574L150.667 81.2426ZM153.141 87.155C153.141 88.8572 152.586 90.3965 151.441 91.8037L152.992 93.0663C154.413 91.3201 155.141 89.3395 155.141 87.155H153.141ZM151.432 91.8148C150.3 93.2466 148.77 94.3993 146.81 95.2592L147.613 97.0908C149.832 96.1174 151.64 94.7767 153.001 93.0552L151.432 91.8148ZM146.81 95.2592C144.854 96.117 142.737 96.55 140.446 96.55V98.55C142.996 98.55 145.389 98.0663 147.613 97.0908L146.81 95.2592Z" fill="black" mask="url(#path-4-outside-1_2541_43)"/>
</g>
<defs>
<filter id="filter0_bd_2541_43" x="124.236" y="56.1499" width="33.905" height="49.4001" filterUnits="userSpaceOnUse" color-interpolation-filters="sRGB">
<feFlood flood-opacity="0" result="BackgroundImageFix"/>
<feGaussianBlur in="BackgroundImageFix" stdDeviation="2"/>
<feComposite in2="SourceAlpha" operator="in" result="effect1_backgroundBlur_2541_43"/>
<feColorMatrix in="SourceAlpha" type="matrix" values="0 0 0 0 0 0 0 0 0 0 0 0 0 0 0 0 0 0 127 0" result="hardAlpha"/>
<feOffset dy="4"/>
<feGaussianBlur stdDeviation="2"/>
<feComposite in2="hardAlpha" operator="out"/>
<feColorMatrix type="matrix" values="0 0 0 0 0 0 0 0 0 0 0 0 0 0 0 0 0 0 0.25 0"/>
<feBlend mode="normal" in2="effect1_backgroundBlur_2541_43" result="effect2_dropShadow_2541_43"/>
<feBlend mode="normal" in="SourceGraphic" in2="effect2_dropShadow_2541_43" result="shape"/>
</filter>
</defs>
</svg>
