<svg width="281" height="158" viewBox="0 0 281 158" fill="none" xmlns="http://www.w3.org/2000/svg">
<g clip-path="url(#clip0_2541_42)">
<rect width="281" height="158" fill="#CD5742"/>
<path d="M-7.41495 99.4741L72.5851 169.474" stroke="#6A0404" stroke-width="20"/>
<path d="M-9.79514 44.7659L130.795 168.234" stroke="#6A0404" stroke-width="20"/>
<path d="M-2.44395 -2.63745L191.444 167.637" stroke="#6A0404" stroke-width="20"/>
<path d="M50.8811 -7.86475L252.119 168.865" stroke="#6A0404" stroke-width="20"/>
<path d="M108.086 -11.0981L293.914 152.098" stroke="#6A0404" stroke-width="20"/>
<path d="M177 -4L257 66" stroke="black" stroke-width="20"/>
<path d="M172.387 -8.44287L291.702 96.3411" stroke="#6A0404" stroke-width="20"/>
<path d="M207 -31L289 41" stroke="#6A0404" stroke-width="20"/>
<g filter="url(#filter0_bd_2541_42)">
<mask id="path-9-outside-1_2541_42" maskUnits="userSpaceOnUse" x="126" y="59" width="28" height="39" fill="black">
<rect fill="white" x="126" y="59" width="28" height="39"/>
<path d="M128.116 97V95.24C131.16 91.83 133.671 88.97 135.651 86.66C137.668 84.35 139.245 82.4067 140.381 80.83C141.555 79.2533 142.416 77.8783 142.966 76.705C143.516 75.5317 143.865 74.395 144.011 73.295C144.158 72.1583 144.231 70.8933 144.231 69.5C144.231 67.5567 143.755 65.9617 142.801 64.715C141.848 63.4683 140.546 62.845 138.896 62.845C135.156 62.845 133.286 64.9167 133.286 69.06V71.59L132.956 72.03H129.711C128.978 72.03 128.428 71.9017 128.061 71.645C127.695 71.3883 127.511 70.7467 127.511 69.72C127.511 68.6933 127.823 67.6667 128.446 66.64C129.106 65.5767 130.115 64.55 131.471 63.56C132.425 62.9 133.341 62.3133 134.221 61.8C135.101 61.2867 136.073 60.8833 137.136 60.59C138.236 60.2967 139.52 60.15 140.986 60.15C143.04 60.15 144.855 60.59 146.431 61.47C148.045 62.35 149.291 63.5233 150.171 64.99C151.088 66.4567 151.546 68.0883 151.546 69.885C151.546 71.0583 151.4 72.14 151.106 73.13C150.85 74.12 150.373 75.1467 149.676 76.21C148.98 77.2733 147.99 78.4833 146.706 79.84C145.46 81.1967 143.865 82.8283 141.921 84.735C139.978 86.605 137.595 88.86 134.771 91.5H148.741L151.766 86.11H152.646L152.096 97H128.116Z"/>
</mask>
<path d="M128.116 97V95.24C131.16 91.83 133.671 88.97 135.651 86.66C137.668 84.35 139.245 82.4067 140.381 80.83C141.555 79.2533 142.416 77.8783 142.966 76.705C143.516 75.5317 143.865 74.395 144.011 73.295C144.158 72.1583 144.231 70.8933 144.231 69.5C144.231 67.5567 143.755 65.9617 142.801 64.715C141.848 63.4683 140.546 62.845 138.896 62.845C135.156 62.845 133.286 64.9167 133.286 69.06V71.59L132.956 72.03H129.711C128.978 72.03 128.428 71.9017 128.061 71.645C127.695 71.3883 127.511 70.7467 127.511 69.72C127.511 68.6933 127.823 67.6667 128.446 66.64C129.106 65.5767 130.115 64.55 131.471 63.56C132.425 62.9 133.341 62.3133 134.221 61.8C135.101 61.2867 136.073 60.8833 137.136 60.59C138.236 60.2967 139.52 60.15 140.986 60.15C143.04 60.15 144.855 60.59 146.431 61.47C148.045 62.35 149.291 63.5233 150.171 64.99C151.088 66.4567 151.546 68.0883 151.546 69.885C151.546 71.0583 151.4 72.14 151.106 73.13C150.85 74.12 150.373 75.1467 149.676 76.21C148.98 77.2733 147.99 78.4833 146.706 79.84C145.46 81.1967 143.865 82.8283 141.921 84.735C139.978 86.605 137.595 88.86 134.771 91.5H148.741L151.766 86.11H152.646L152.096 97H128.116Z" fill="white"/>
<path d="M128.116 97H127.116V98H128.116V97ZM128.116 95.24L127.37 94.5741L127.116 94.8587V95.24H128.116ZM135.651 86.66L134.898 86.0023L134.892 86.0092L135.651 86.66ZM140.381 80.83L139.579 80.233L139.575 80.2391L139.57 80.2452L140.381 80.83ZM142.966 76.705L143.872 77.1294L142.966 76.705ZM144.011 73.295L145.003 73.4272L145.003 73.423L144.011 73.295ZM142.801 64.715L142.007 65.3224L142.007 65.3225L142.801 64.715ZM133.286 71.59L134.086 72.19L134.286 71.9233V71.59H133.286ZM132.956 72.03V73.03H133.456L133.756 72.63L132.956 72.03ZM128.446 66.64L127.597 66.1126L127.592 66.121L128.446 66.64ZM131.471 63.56L130.902 62.7378L130.892 62.7449L130.882 62.7522L131.471 63.56ZM134.221 61.8L133.717 60.9362L134.221 61.8ZM137.136 60.59L136.879 59.6237L136.87 59.626L137.136 60.59ZM146.431 61.47L145.944 62.3432L145.952 62.3479L146.431 61.47ZM150.171 64.99L149.314 65.5045L149.319 65.5123L149.323 65.52L150.171 64.99ZM151.106 73.13L150.148 72.8459L150.143 72.8624L150.138 72.879L151.106 73.13ZM149.676 76.21L150.513 76.758L149.676 76.21ZM146.706 79.84L145.98 79.1528L145.975 79.1581L145.97 79.1634L146.706 79.84ZM141.921 84.735L142.615 85.4556L142.622 85.4488L141.921 84.735ZM134.771 91.5L134.088 90.7696L132.238 92.5H134.771V91.5ZM148.741 91.5V92.5H149.327L149.613 91.9894L148.741 91.5ZM151.766 86.11V85.11H151.181L150.894 85.6206L151.766 86.11ZM152.646 86.11L153.645 86.1604L153.698 85.11H152.646V86.11ZM152.096 97V98H153.047L153.095 97.0504L152.096 97ZM129.116 97V95.24H127.116V97H129.116ZM128.862 95.9059C131.908 92.4931 134.425 89.6277 136.411 87.3108L134.892 86.0092C132.918 88.3123 130.411 91.1669 127.37 94.5741L128.862 95.9059ZM136.405 87.3177C138.432 84.996 140.03 83.0267 141.193 81.4148L139.57 80.2452C138.459 81.7867 136.904 83.704 134.898 86.0023L136.405 87.3177ZM141.184 81.427C142.379 79.821 143.283 78.3862 143.872 77.1294L142.061 76.2806C141.55 77.3705 140.731 78.6856 139.579 80.233L141.184 81.427ZM143.872 77.1294C144.458 75.8788 144.84 74.6437 145.003 73.4272L143.02 73.1628C142.889 74.1463 142.575 75.1846 142.061 76.2806L143.872 77.1294ZM145.003 73.423C145.156 72.236 145.231 70.9274 145.231 69.5H143.231C143.231 70.8593 143.16 72.0807 143.02 73.167L145.003 73.423ZM145.231 69.5C145.231 67.3905 144.712 65.5668 143.596 64.1075L142.007 65.3225C142.798 66.3566 143.231 67.7228 143.231 69.5H145.231ZM143.596 64.1075C142.442 62.599 140.839 61.845 138.896 61.845V63.845C140.254 63.845 141.254 64.3376 142.007 65.3224L143.596 64.1075ZM138.896 61.845C136.844 61.845 135.13 62.418 133.947 63.7287C132.781 65.0199 132.286 66.858 132.286 69.06H134.286C134.286 67.1186 134.727 65.8493 135.431 65.0688C136.118 64.3078 137.208 63.845 138.896 63.845V61.845ZM132.286 69.06V71.59H134.286V69.06H132.286ZM132.486 70.99L132.156 71.43L133.756 72.63L134.086 72.19L132.486 70.99ZM132.956 71.03H129.711V73.03H132.956V71.03ZM129.711 71.03C129.064 71.03 128.757 70.9112 128.635 70.8258L127.488 72.4642C128.099 72.8922 128.892 73.03 129.711 73.03V71.03ZM128.635 70.8258C128.712 70.8801 128.669 70.9009 128.61 70.6965C128.554 70.4994 128.511 70.1846 128.511 69.72H126.511C126.511 70.282 126.56 70.8014 126.687 71.246C126.812 71.6832 127.044 72.1533 127.488 72.4642L128.635 70.8258ZM128.511 69.72C128.511 68.9055 128.756 68.0561 129.301 67.159L127.592 66.121C126.89 67.2772 126.511 68.4812 126.511 69.72H128.511ZM129.296 67.1674C129.869 66.2438 130.775 65.3064 132.061 64.3678L130.882 62.7522C129.455 63.7936 128.343 64.9095 127.597 66.1126L129.296 67.1674ZM132.041 64.3822C132.975 63.7349 133.87 63.1625 134.725 62.6638L133.717 60.9362C132.812 61.4642 131.874 62.0651 130.902 62.7378L132.041 64.3822ZM134.725 62.6638C135.525 62.1974 136.415 61.8262 137.402 61.554L136.87 59.626C135.731 59.9404 134.678 60.3759 133.717 60.9362L134.725 62.6638ZM137.394 61.5562C138.39 61.2907 139.583 61.15 140.986 61.15V59.15C139.456 59.15 138.083 59.3027 136.879 59.6238L137.394 61.5562ZM140.986 61.15C142.893 61.15 144.536 61.5572 145.944 62.3432L146.919 60.5968C145.174 59.6228 143.187 59.15 140.986 59.15V61.15ZM145.952 62.3479C147.422 63.1492 148.532 64.2019 149.314 65.5045L151.029 64.4755C150.05 62.8448 148.668 61.5508 146.91 60.5921L145.952 62.3479ZM149.323 65.52C150.137 66.8214 150.546 68.2681 150.546 69.885H152.546C152.546 67.9086 152.039 66.092 151.019 64.46L149.323 65.52ZM150.546 69.885C150.546 70.975 150.41 71.9597 150.148 72.8459L152.065 73.4141C152.389 72.3203 152.546 71.1416 152.546 69.885H150.546ZM150.138 72.879C149.915 73.7414 149.491 74.6686 148.84 75.662L150.513 76.758C151.255 75.6247 151.785 74.4986 152.074 73.381L150.138 72.879ZM148.84 75.662C148.187 76.6586 147.24 77.8212 145.98 79.1528L147.433 80.5272C148.74 79.1455 149.772 77.8881 150.513 76.758L148.84 75.662ZM145.97 79.1634C144.739 80.5029 143.157 82.1215 141.221 84.0212L142.622 85.4488C144.572 83.5352 146.18 81.8904 147.443 80.5166L145.97 79.1634ZM141.228 84.0144C139.289 85.88 136.91 88.1316 134.088 90.7696L135.454 92.2304C138.28 89.5884 140.667 87.33 142.615 85.4556L141.228 84.0144ZM134.771 92.5H148.741V90.5H134.771V92.5ZM149.613 91.9894L152.638 86.5994L150.894 85.6206L147.869 91.0106L149.613 91.9894ZM151.766 87.11H152.646V85.11H151.766V87.11ZM151.648 86.0596L151.098 96.9496L153.095 97.0504L153.645 86.1604L151.648 86.0596ZM152.096 96H128.116V98H152.096V96Z" fill="black" mask="url(#path-9-outside-1_2541_42)"/>
</g>
</g>
<defs>
<filter id="filter0_bd_2541_42" x="123.511" y="56.1499" width="33.135" height="48.8501" filterUnits="userSpaceOnUse" color-interpolation-filters="sRGB">
<feFlood flood-opacity="0" result="BackgroundImageFix"/>
<feGaussianBlur in="BackgroundImageFix" stdDeviation="2"/>
<feComposite in2="SourceAlpha" operator="in" result="effect1_backgroundBlur_2541_42"/>
<feColorMatrix in="SourceAlpha" type="matrix" values="0 0 0 0 0 0 0 0 0 0 0 0 0 0 0 0 0 0 127 0" result="hardAlpha"/>
<feOffset dy="4"/>
<feGaussianBlur stdDeviation="2"/>
<feComposite in2="hardAlpha" operator="out"/>
<feColorMatrix type="matrix" values="0 0 0 0 0 0 0 0 0 0 0 0 0 0 0 0 0 0 0.25 0"/>
<feBlend mode="normal" in2="effect1_backgroundBlur_2541_42" result="effect2_dropShadow_2541_42"/>
<feBlend mode="normal" in="SourceGraphic" in2="effect2_dropShadow_2541_42" result="shape"/>
</filter>
<clipPath id="clip0_2541_42">
<rect width="281" height="158" fill="white"/>
</clipPath>
</defs>
</svg>
