<svg width="281" height="158" viewBox="0 0 281 158" fill="none" xmlns="http://www.w3.org/2000/svg">
<g clip-path="url(#clip0_2541_73)">
<rect width="281" height="158" fill="#CD5742"/>
<path d="M70.5 -16C56.2095 33.4738 31.5433 42.3751 -14 56.5" stroke="#6A0404" stroke-width="2"/>
<path d="M-4 139C38.1337 82.4381 104.259 68.3388 130.111 28.6694C155.964 -11 243.104 -5.26064 296 -11" stroke="#6A0404" stroke-width="2"/>
<circle cx="13" cy="50" r="6" fill="#F2A395"/>
<circle cx="47" cy="20" r="6" fill="#F2A395"/>
<circle cx="20" cy="118" r="6" fill="#F2A395"/>
<circle cx="42" cy="89" r="6" fill="#F2A395"/>
<circle cx="75" cy="67" r="6" fill="#F2A395"/>
<circle cx="123" cy="46" r="6" fill="#F2A395"/>
<circle cx="139" cy="11" r="6" fill="#F2A395"/>
<g filter="url(#filter0_bd_2541_73)">
<mask id="path-10-outside-1_2541_73" maskUnits="userSpaceOnUse" x="111" y="59" width="58" height="39" fill="black">
<rect fill="white" x="111" y="59" width="58" height="39"/>
<path d="M113.373 97V95.24C116.416 91.83 118.928 88.97 120.908 86.66C122.924 84.35 124.501 82.4067 125.638 80.83C126.811 79.2533 127.673 77.8783 128.223 76.705C128.773 75.5317 129.121 74.395 129.268 73.295C129.414 72.1583 129.488 70.8933 129.488 69.5C129.488 67.5567 129.011 65.9617 128.058 64.715C127.104 63.4683 125.803 62.845 124.153 62.845C120.413 62.845 118.543 64.9167 118.543 69.06V71.59L118.213 72.03H114.968C114.234 72.03 113.684 71.9017 113.318 71.645C112.951 71.3883 112.768 70.7467 112.768 69.72C112.768 68.6933 113.079 67.6667 113.703 66.64C114.363 65.5767 115.371 64.55 116.728 63.56C117.681 62.9 118.598 62.3133 119.478 61.8C120.358 61.2867 121.329 60.8833 122.393 60.59C123.493 60.2967 124.776 60.15 126.243 60.15C128.296 60.15 130.111 60.59 131.688 61.47C133.301 62.35 134.548 63.5233 135.428 64.99C136.344 66.4567 136.803 68.0883 136.803 69.885C136.803 71.0583 136.656 72.14 136.363 73.13C136.106 74.12 135.629 75.1467 134.933 76.21C134.236 77.2733 133.246 78.4833 131.963 79.84C130.716 81.1967 129.121 82.8283 127.178 84.735C125.234 86.605 122.851 88.86 120.028 91.5H133.998L137.023 86.11H137.903L137.353 97H113.373ZM142.86 97V95.24C145.903 91.83 148.415 88.97 150.395 86.66C152.412 84.35 153.988 82.4067 155.125 80.83C156.298 79.2533 157.16 77.8783 157.71 76.705C158.26 75.5317 158.608 74.395 158.755 73.295C158.902 72.1583 158.975 70.8933 158.975 69.5C158.975 67.5567 158.498 65.9617 157.545 64.715C156.592 63.4683 155.29 62.845 153.64 62.845C149.9 62.845 148.03 64.9167 148.03 69.06V71.59L147.7 72.03H144.455C143.722 72.03 143.172 71.9017 142.805 71.645C142.438 71.3883 142.255 70.7467 142.255 69.72C142.255 68.6933 142.567 67.6667 143.19 66.64C143.85 65.5767 144.858 64.55 146.215 63.56C147.168 62.9 148.085 62.3133 148.965 61.8C149.845 61.2867 150.817 60.8833 151.88 60.59C152.98 60.2967 154.263 60.15 155.73 60.15C157.783 60.15 159.598 60.59 161.175 61.47C162.788 62.35 164.035 63.5233 164.915 64.99C165.832 66.4567 166.29 68.0883 166.29 69.885C166.29 71.0583 166.143 72.14 165.85 73.13C165.593 74.12 165.117 75.1467 164.42 76.21C163.723 77.2733 162.733 78.4833 161.45 79.84C160.203 81.1967 158.608 82.8283 156.665 84.735C154.722 86.605 152.338 88.86 149.515 91.5H163.485L166.51 86.11H167.39L166.84 97H142.86Z"/>
</mask>
<path d="M113.373 97V95.24C116.416 91.83 118.928 88.97 120.908 86.66C122.924 84.35 124.501 82.4067 125.638 80.83C126.811 79.2533 127.673 77.8783 128.223 76.705C128.773 75.5317 129.121 74.395 129.268 73.295C129.414 72.1583 129.488 70.8933 129.488 69.5C129.488 67.5567 129.011 65.9617 128.058 64.715C127.104 63.4683 125.803 62.845 124.153 62.845C120.413 62.845 118.543 64.9167 118.543 69.06V71.59L118.213 72.03H114.968C114.234 72.03 113.684 71.9017 113.318 71.645C112.951 71.3883 112.768 70.7467 112.768 69.72C112.768 68.6933 113.079 67.6667 113.703 66.64C114.363 65.5767 115.371 64.55 116.728 63.56C117.681 62.9 118.598 62.3133 119.478 61.8C120.358 61.2867 121.329 60.8833 122.393 60.59C123.493 60.2967 124.776 60.15 126.243 60.15C128.296 60.15 130.111 60.59 131.688 61.47C133.301 62.35 134.548 63.5233 135.428 64.99C136.344 66.4567 136.803 68.0883 136.803 69.885C136.803 71.0583 136.656 72.14 136.363 73.13C136.106 74.12 135.629 75.1467 134.933 76.21C134.236 77.2733 133.246 78.4833 131.963 79.84C130.716 81.1967 129.121 82.8283 127.178 84.735C125.234 86.605 122.851 88.86 120.028 91.5H133.998L137.023 86.11H137.903L137.353 97H113.373ZM142.86 97V95.24C145.903 91.83 148.415 88.97 150.395 86.66C152.412 84.35 153.988 82.4067 155.125 80.83C156.298 79.2533 157.16 77.8783 157.71 76.705C158.26 75.5317 158.608 74.395 158.755 73.295C158.902 72.1583 158.975 70.8933 158.975 69.5C158.975 67.5567 158.498 65.9617 157.545 64.715C156.592 63.4683 155.29 62.845 153.64 62.845C149.9 62.845 148.03 64.9167 148.03 69.06V71.59L147.7 72.03H144.455C143.722 72.03 143.172 71.9017 142.805 71.645C142.438 71.3883 142.255 70.7467 142.255 69.72C142.255 68.6933 142.567 67.6667 143.19 66.64C143.85 65.5767 144.858 64.55 146.215 63.56C147.168 62.9 148.085 62.3133 148.965 61.8C149.845 61.2867 150.817 60.8833 151.88 60.59C152.98 60.2967 154.263 60.15 155.73 60.15C157.783 60.15 159.598 60.59 161.175 61.47C162.788 62.35 164.035 63.5233 164.915 64.99C165.832 66.4567 166.29 68.0883 166.29 69.885C166.29 71.0583 166.143 72.14 165.85 73.13C165.593 74.12 165.117 75.1467 164.42 76.21C163.723 77.2733 162.733 78.4833 161.45 79.84C160.203 81.1967 158.608 82.8283 156.665 84.735C154.722 86.605 152.338 88.86 149.515 91.5H163.485L166.51 86.11H167.39L166.84 97H142.86Z" fill="white"/>
<path d="M113.373 97H112.373V98H113.373V97ZM113.373 95.24L112.627 94.5741L112.373 94.8587V95.24H113.373ZM120.908 86.66L120.154 86.0023L120.148 86.0092L120.908 86.66ZM125.638 80.83L124.835 80.233L124.831 80.2391L124.827 80.2452L125.638 80.83ZM128.223 76.705L129.128 77.1294L128.223 76.705ZM129.268 73.295L130.259 73.4272L130.259 73.423L129.268 73.295ZM128.058 64.715L127.263 65.3224L127.263 65.3225L128.058 64.715ZM118.543 71.59L119.343 72.19L119.543 71.9233V71.59H118.543ZM118.213 72.03V73.03H118.713L119.013 72.63L118.213 72.03ZM113.703 66.64L112.853 66.1126L112.848 66.121L113.703 66.64ZM116.728 63.56L116.158 62.7378L116.148 62.7449L116.138 62.7522L116.728 63.56ZM119.478 61.8L118.974 60.9362H118.974L119.478 61.8ZM122.393 60.59L122.135 59.6237L122.127 59.626L122.393 60.59ZM131.688 61.47L131.2 62.3432L131.209 62.3479L131.688 61.47ZM135.428 64.99L134.57 65.5045L134.575 65.5123L134.58 65.52L135.428 64.99ZM136.363 73.13L135.404 72.8459L135.399 72.8624L135.395 72.879L136.363 73.13ZM134.933 76.21L135.769 76.758L134.933 76.21ZM131.963 79.84L131.236 79.1528L131.231 79.1581L131.226 79.1634L131.963 79.84ZM127.178 84.735L127.871 85.4556L127.878 85.4488L127.178 84.735ZM120.028 91.5L119.345 90.7696L117.494 92.5H120.028V91.5ZM133.998 91.5V92.5H134.583L134.87 91.9894L133.998 91.5ZM137.023 86.11V85.11H136.437L136.151 85.6206L137.023 86.11ZM137.903 86.11L138.901 86.1604L138.954 85.11H137.903V86.11ZM137.353 97V98H138.303L138.351 97.0504L137.353 97ZM114.373 97V95.24H112.373V97H114.373ZM114.119 95.9059C117.165 92.4931 119.681 89.6277 121.667 87.3108L120.148 86.0092C118.174 88.3123 115.667 91.1669 112.627 94.5741L114.119 95.9059ZM121.661 87.3177C123.688 84.996 125.287 83.0267 126.449 81.4148L124.827 80.2452C123.715 81.7867 122.161 83.704 120.154 86.0023L121.661 87.3177ZM126.44 81.427C127.635 79.821 128.539 78.3862 129.128 77.1294L127.317 76.2806C126.806 77.3705 125.987 78.6856 124.835 80.233L126.44 81.427ZM129.128 77.1294C129.714 75.8788 130.097 74.6437 130.259 73.4272L128.276 73.1628C128.145 74.1463 127.831 75.1846 127.317 76.2806L129.128 77.1294ZM130.259 73.423C130.413 72.236 130.488 70.9274 130.488 69.5H128.488C128.488 70.8593 128.416 72.0807 128.276 73.167L130.259 73.423ZM130.488 69.5C130.488 67.3905 129.968 65.5668 128.852 64.1075L127.263 65.3225C128.054 66.3566 128.488 67.7228 128.488 69.5H130.488ZM128.852 64.1075C127.698 62.599 126.096 61.845 124.153 61.845V63.845C125.51 63.845 126.51 64.3376 127.263 65.3224L128.852 64.1075ZM124.153 61.845C122.101 61.845 120.386 62.418 119.203 63.7287C118.037 65.0199 117.543 66.858 117.543 69.06H119.543C119.543 67.1186 119.983 65.8493 120.688 65.0688C121.374 64.3078 122.465 63.845 124.153 63.845V61.845ZM117.543 69.06V71.59H119.543V69.06H117.543ZM117.743 70.99L117.413 71.43L119.013 72.63L119.343 72.19L117.743 70.99ZM118.213 71.03H114.968V73.03H118.213V71.03ZM114.968 71.03C114.32 71.03 114.013 70.9112 113.891 70.8258L112.744 72.4642C113.356 72.8922 114.148 73.03 114.968 73.03V71.03ZM113.891 70.8258C113.969 70.8801 113.925 70.9009 113.867 70.6965C113.81 70.4994 113.768 70.1846 113.768 69.72H111.768C111.768 70.282 111.817 70.8014 111.944 71.246C112.069 71.6832 112.3 72.1533 112.744 72.4642L113.891 70.8258ZM113.768 69.72C113.768 68.9055 114.013 68.0561 114.557 67.159L112.848 66.121C112.146 67.2772 111.768 68.4812 111.768 69.72H113.768ZM114.552 67.1674C115.126 66.2438 116.031 65.3064 117.317 64.3678L116.138 62.7522C114.711 63.7936 113.6 64.9095 112.853 66.1126L114.552 67.1674ZM117.297 64.3822C118.232 63.7349 119.127 63.1625 119.982 62.6638L118.974 60.9362C118.069 61.4642 117.13 62.0651 116.158 62.7378L117.297 64.3822ZM119.982 62.6638C120.781 62.1974 121.672 61.8262 122.659 61.554L122.127 59.626C120.987 59.9404 119.934 60.3759 118.974 60.9362L119.982 62.6638ZM122.65 61.5562C123.646 61.2907 124.839 61.15 126.243 61.15V59.15C124.713 59.15 123.339 59.3027 122.135 59.6238L122.65 61.5562ZM126.243 61.15C128.149 61.15 129.792 61.5572 131.2 62.3432L132.175 60.5968C130.43 59.6228 128.443 59.15 126.243 59.15V61.15ZM131.209 62.3479C132.678 63.1492 133.789 64.2019 134.57 65.5045L136.285 64.4755C135.307 62.8448 133.924 61.5508 132.167 60.5921L131.209 62.3479ZM134.58 65.52C135.393 66.8214 135.803 68.2681 135.803 69.885H137.803C137.803 67.9086 137.296 66.092 136.276 64.46L134.58 65.52ZM135.803 69.885C135.803 70.975 135.666 71.9597 135.404 72.8459L137.321 73.4141C137.646 72.3203 137.803 71.1416 137.803 69.885H135.803ZM135.395 72.879C135.171 73.7414 134.747 74.6686 134.096 75.662L135.769 76.758C136.512 75.6247 137.041 74.4986 137.331 73.381L135.395 72.879ZM134.096 75.662C133.443 76.6586 132.496 77.8212 131.236 79.1528L132.689 80.5272C133.996 79.1455 135.029 77.8881 135.769 76.758L134.096 75.662ZM131.226 79.1634C129.995 80.5029 128.414 82.1215 126.477 84.0212L127.878 85.4488C129.828 83.5352 131.437 81.8904 132.699 80.5166L131.226 79.1634ZM126.484 84.0144C124.546 85.88 122.166 88.1316 119.345 90.7696L120.711 92.2304C123.536 89.5884 125.923 87.33 127.871 85.4556L126.484 84.0144ZM120.028 92.5H133.998V90.5H120.028V92.5ZM134.87 91.9894L137.895 86.5994L136.151 85.6206L133.126 91.0106L134.87 91.9894ZM137.023 87.11H137.903V85.11H137.023V87.11ZM136.904 86.0596L136.354 96.9496L138.351 97.0504L138.901 86.1604L136.904 86.0596ZM137.353 96H113.373V98H137.353V96ZM142.86 97H141.86V98H142.86V97ZM142.86 95.24L142.114 94.5741L141.86 94.8587V95.24H142.86ZM150.395 86.66L149.642 86.0023L149.636 86.0092L150.395 86.66ZM155.125 80.83L154.323 80.233L154.318 80.2391L154.314 80.2452L155.125 80.83ZM157.71 76.705L158.615 77.1294L157.71 76.705ZM158.755 73.295L159.746 73.4272L159.747 73.423L158.755 73.295ZM157.545 64.715L156.751 65.3224L156.751 65.3225L157.545 64.715ZM148.03 71.59L148.83 72.19L149.03 71.9233V71.59H148.03ZM147.7 72.03V73.03H148.2L148.5 72.63L147.7 72.03ZM143.19 66.64L142.34 66.1126L142.335 66.121L143.19 66.64ZM146.215 63.56L145.646 62.7378L145.636 62.7449L145.626 62.7522L146.215 63.56ZM148.965 61.8L148.461 60.9362L148.965 61.8ZM151.88 60.59L151.622 59.6237L151.614 59.626L151.88 60.59ZM161.175 61.47L160.688 62.3432L160.696 62.3479L161.175 61.47ZM164.915 64.99L164.058 65.5045L164.062 65.5123L164.067 65.52L164.915 64.99ZM165.85 73.13L164.891 72.8459L164.886 72.8624L164.882 72.879L165.85 73.13ZM164.42 76.21L165.256 76.758L164.42 76.21ZM161.45 79.84L160.724 79.1528L160.719 79.1581L160.714 79.1634L161.45 79.84ZM156.665 84.735L157.358 85.4556L157.365 85.4488L156.665 84.735ZM149.515 91.5L148.832 90.7696L146.981 92.5H149.515V91.5ZM163.485 91.5V92.5H164.07L164.357 91.9894L163.485 91.5ZM166.51 86.11V85.11H165.924L165.638 85.6206L166.51 86.11ZM167.39 86.11L168.389 86.1604L168.442 85.11H167.39V86.11ZM166.84 97V98H167.791L167.839 97.0504L166.84 97ZM143.86 97V95.24H141.86V97H143.86ZM143.606 95.9059C146.652 92.4931 149.168 89.6277 151.154 87.3108L149.636 86.0092C147.662 88.3123 145.155 91.1669 142.114 94.5741L143.606 95.9059ZM151.148 87.3177C153.175 84.996 154.774 83.0267 155.936 81.4148L154.314 80.2452C153.203 81.7867 151.648 83.704 149.642 86.0023L151.148 87.3177ZM155.927 81.427C157.122 79.821 158.026 78.3862 158.615 77.1294L156.805 76.2806C156.294 77.3705 155.474 78.6856 154.323 80.233L155.927 81.427ZM158.615 77.1294C159.202 75.8788 159.584 74.6437 159.746 73.4272L157.764 73.1628C157.633 74.1463 157.318 75.1846 156.805 76.2806L158.615 77.1294ZM159.747 73.423C159.9 72.236 159.975 70.9274 159.975 69.5H157.975C157.975 70.8593 157.903 72.0807 157.763 73.167L159.747 73.423ZM159.975 69.5C159.975 67.3905 159.455 65.5668 158.339 64.1075L156.751 65.3225C157.541 66.3566 157.975 67.7228 157.975 69.5H159.975ZM158.339 64.1075C157.186 62.599 155.583 61.845 153.64 61.845V63.845C154.997 63.845 155.998 64.3376 156.751 65.3224L158.339 64.1075ZM153.64 61.845C151.588 61.845 149.873 62.418 148.69 63.7287C147.525 65.0199 147.03 66.858 147.03 69.06H149.03C149.03 67.1186 149.47 65.8493 150.175 65.0688C150.862 64.3078 151.952 63.845 153.64 63.845V61.845ZM147.03 69.06V71.59H149.03V69.06H147.03ZM147.23 70.99L146.9 71.43L148.5 72.63L148.83 72.19L147.23 70.99ZM147.7 71.03H144.455V73.03H147.7V71.03ZM144.455 71.03C143.808 71.03 143.5 70.9112 143.378 70.8258L142.232 72.4642C142.843 72.8922 143.636 73.03 144.455 73.03V71.03ZM143.378 70.8258C143.456 70.8801 143.412 70.9009 143.354 70.6965C143.298 70.4994 143.255 70.1846 143.255 69.72H141.255C141.255 70.282 141.304 70.8014 141.431 71.246C141.556 71.6832 141.787 72.1533 142.232 72.4642L143.378 70.8258ZM143.255 69.72C143.255 68.9055 143.5 68.0561 144.045 67.159L142.335 66.121C141.633 67.2772 141.255 68.4812 141.255 69.72H143.255ZM144.04 67.1674C144.613 66.2438 145.518 65.3064 146.804 64.3678L145.626 62.7522C144.198 63.7936 143.087 64.9095 142.34 66.1126L144.04 67.1674ZM146.784 64.3822C147.719 63.7349 148.614 63.1625 149.469 62.6638L148.461 60.9362C147.556 61.4642 146.618 62.0651 145.646 62.7378L146.784 64.3822ZM149.469 62.6638C150.268 62.1974 151.159 61.8262 152.146 61.554L151.614 59.626C150.474 59.9404 149.422 60.3759 148.461 60.9362L149.469 62.6638ZM152.138 61.5562C153.134 61.2907 154.327 61.15 155.73 61.15V59.15C154.2 59.15 152.826 59.3027 151.622 59.6238L152.138 61.5562ZM155.73 61.15C157.636 61.15 159.279 61.5572 160.688 62.3432L161.662 60.5968C159.917 59.6228 157.93 59.15 155.73 59.15V61.15ZM160.696 62.3479C162.165 63.1492 163.276 64.2019 164.058 65.5045L165.772 64.4755C164.794 62.8448 163.411 61.5508 161.654 60.5921L160.696 62.3479ZM164.067 65.52C164.88 66.8214 165.29 68.2681 165.29 69.885H167.29C167.29 67.9086 166.783 66.092 165.763 64.46L164.067 65.52ZM165.29 69.885C165.29 70.975 165.154 71.9597 164.891 72.8459L166.809 73.4141C167.133 72.3203 167.29 71.1416 167.29 69.885H165.29ZM164.882 72.879C164.658 73.7414 164.234 74.6686 163.584 75.662L165.256 76.758C165.999 75.6247 166.528 74.4986 166.818 73.381L164.882 72.879ZM163.584 75.662C162.931 76.6586 161.983 77.8212 160.724 79.1528L162.176 80.5272C163.483 79.1455 164.516 77.8881 165.256 76.758L163.584 75.662ZM160.714 79.1634C159.483 80.5029 157.901 82.1215 155.965 84.0212L157.365 85.4488C159.316 83.5352 160.924 81.8904 162.186 80.5166L160.714 79.1634ZM155.972 84.0144C154.033 85.88 151.653 88.1316 148.832 90.7696L150.198 92.2304C153.023 89.5884 155.41 87.33 157.358 85.4556L155.972 84.0144ZM149.515 92.5H163.485V90.5H149.515V92.5ZM164.357 91.9894L167.382 86.5994L165.638 85.6206L162.613 91.0106L164.357 91.9894ZM166.51 87.11H167.39V85.11H166.51V87.11ZM166.391 86.0596L165.841 96.9496L167.839 97.0504L168.389 86.1604L166.391 86.0596ZM166.84 96H142.86V98H166.84V96Z" fill="black" mask="url(#path-10-outside-1_2541_73)"/>
</g>
</g>
<defs>
<filter id="filter0_bd_2541_73" x="108.768" y="56.15" width="62.6223" height="48.85" filterUnits="userSpaceOnUse" color-interpolation-filters="sRGB">
<feFlood flood-opacity="0" result="BackgroundImageFix"/>
<feGaussianBlur in="BackgroundImageFix" stdDeviation="2"/>
<feComposite in2="SourceAlpha" operator="in" result="effect1_backgroundBlur_2541_73"/>
<feColorMatrix in="SourceAlpha" type="matrix" values="0 0 0 0 0 0 0 0 0 0 0 0 0 0 0 0 0 0 127 0" result="hardAlpha"/>
<feOffset dy="4"/>
<feGaussianBlur stdDeviation="2"/>
<feComposite in2="hardAlpha" operator="out"/>
<feColorMatrix type="matrix" values="0 0 0 0 0 0 0 0 0 0 0 0 0 0 0 0 0 0 0.25 0"/>
<feBlend mode="normal" in2="effect1_backgroundBlur_2541_73" result="effect2_dropShadow_2541_73"/>
<feBlend mode="normal" in="SourceGraphic" in2="effect2_dropShadow_2541_73" result="shape"/>
</filter>
<clipPath id="clip0_2541_73">
<rect width="281" height="158" fill="white"/>
</clipPath>
</defs>
</svg>
