<svg width="281" height="158" viewBox="0 0 281 158" fill="none" xmlns="http://www.w3.org/2000/svg">
<rect width="281" height="158" fill="#CD5742"/>
<path d="M140 30L178.971 107.25H101.029L140 30Z" fill="#6A0404"/>
<rect x="95" y="106" width="90" height="10" rx="5" fill="#F2A395"/>
<circle cx="140" cy="29" r="4" fill="#F2A395"/>
<g filter="url(#filter0_bd_2541_62)">
<mask id="path-4-outside-1_2541_62" maskUnits="userSpaceOnUse" x="113" y="59" width="55" height="39" fill="black">
<rect fill="white" x="113" y="59" width="55" height="39"/>
<path d="M118.763 97V96.12L123.878 94.085V66.64L114.528 71.04V68.95L128.058 60.7H130.533V94.085L135.098 96.12V97H118.763ZM145.39 97C146.307 94.8367 147.26 92.7283 148.25 90.675C149.24 88.6217 150.358 86.4583 151.605 84.185C152.852 81.9117 154.3 79.3633 155.95 76.54C157.6 73.68 159.543 70.3617 161.78 66.585H143.025V60.7H166.73V62.405C165.41 64.935 164.035 67.63 162.605 70.49C161.212 73.35 159.837 76.2833 158.48 79.29C157.16 82.26 155.968 85.2483 154.905 88.255C153.878 91.225 153.072 94.14 152.485 97H145.39Z"/>
</mask>
<path d="M118.763 97V96.12L123.878 94.085V66.64L114.528 71.04V68.95L128.058 60.7H130.533V94.085L135.098 96.12V97H118.763ZM145.39 97C146.307 94.8367 147.26 92.7283 148.25 90.675C149.24 88.6217 150.358 86.4583 151.605 84.185C152.852 81.9117 154.3 79.3633 155.95 76.54C157.6 73.68 159.543 70.3617 161.78 66.585H143.025V60.7H166.73V62.405C165.41 64.935 164.035 67.63 162.605 70.49C161.212 73.35 159.837 76.2833 158.48 79.29C157.16 82.26 155.968 85.2483 154.905 88.255C153.878 91.225 153.072 94.14 152.485 97H145.39Z" fill="white"/>
<path d="M118.763 97H117.763V98H118.763V97ZM118.763 96.12L118.393 95.1908L117.763 95.4416V96.12H118.763ZM123.878 94.085L124.247 95.0142L124.878 94.7634V94.085H123.878ZM123.878 66.64H124.878V65.0642L123.452 65.7352L123.878 66.64ZM114.528 71.04H113.528V72.6158L114.953 71.9448L114.528 71.04ZM114.528 68.95L114.007 68.0962L113.528 68.3885V68.95H114.528ZM128.058 60.7V59.7H127.777L127.537 59.8462L128.058 60.7ZM130.533 60.7H131.533V59.7H130.533V60.7ZM130.533 94.085H129.533V94.7341L130.126 94.9984L130.533 94.085ZM135.098 96.12H136.098V95.4709L135.505 95.2066L135.098 96.12ZM135.098 97V98H136.098V97H135.098ZM119.763 97V96.12H117.763V97H119.763ZM119.132 97.0492L124.247 95.0142L123.508 93.1558L118.393 95.1908L119.132 97.0492ZM124.878 94.085V66.64H122.878V94.085H124.878ZM123.452 65.7352L114.102 70.1352L114.953 71.9448L124.303 67.5448L123.452 65.7352ZM115.528 71.04V68.95H113.528V71.04H115.528ZM115.048 69.8038L128.578 61.5538L127.537 59.8462L114.007 68.0962L115.048 69.8038ZM128.058 61.7H130.533V59.7H128.058V61.7ZM129.533 60.7V94.085H131.533V60.7H129.533ZM130.126 94.9984L134.691 97.0334L135.505 95.2066L130.94 93.1716L130.126 94.9984ZM134.098 96.12V97H136.098V96.12H134.098ZM135.098 96H118.763V98H135.098V96ZM145.39 97L144.469 96.6099L143.88 98H145.39V97ZM148.25 90.675L149.151 91.1093L148.25 90.675ZM151.605 84.185L152.482 84.6658L151.605 84.185ZM155.95 76.54L156.813 77.0446L156.816 77.0397L155.95 76.54ZM161.78 66.585L162.64 67.0946L163.534 65.585H161.78V66.585ZM143.025 66.585H142.025V67.585H143.025V66.585ZM143.025 60.7V59.7H142.025V60.7H143.025ZM166.73 60.7H167.73V59.7H166.73V60.7ZM166.73 62.405L167.617 62.8676L167.73 62.6502V62.405H166.73ZM162.605 70.49L161.711 70.0428L161.706 70.052L162.605 70.49ZM158.48 79.29L157.568 78.8787L157.566 78.8839L158.48 79.29ZM154.905 88.255L153.962 87.9216L153.96 87.9283L154.905 88.255ZM152.485 97V98H153.301L153.465 97.2009L152.485 97ZM146.311 97.3901C147.221 95.2412 148.168 93.1476 149.151 91.1093L147.349 90.2407C146.352 92.309 145.392 94.4321 144.469 96.6099L146.311 97.3901ZM149.151 91.1093C150.132 89.0736 151.242 86.9259 152.482 84.6658L150.728 83.7042C149.474 85.9908 148.348 88.1697 147.349 90.2407L149.151 91.1093ZM152.482 84.6658C153.723 82.4022 155.167 79.862 156.813 77.0446L155.087 76.0354C153.433 78.8647 151.98 81.4211 150.728 83.7042L152.482 84.6658ZM156.816 77.0397C158.464 74.1839 160.405 70.869 162.64 67.0946L160.92 66.0754C158.682 69.8544 156.736 73.1761 155.084 76.0403L156.816 77.0397ZM161.78 65.585H143.025V67.585H161.78V65.585ZM144.025 66.585V60.7H142.025V66.585H144.025ZM143.025 61.7H166.73V59.7H143.025V61.7ZM165.73 60.7V62.405H167.73V60.7H165.73ZM165.843 61.9424C164.52 64.4781 163.143 67.1782 161.711 70.0428L163.499 70.9372C164.927 68.0818 166.3 65.3919 167.617 62.8676L165.843 61.9424ZM161.706 70.052C160.308 72.9212 158.929 75.8634 157.568 78.8787L159.392 79.7013C160.744 76.7032 162.115 73.7788 163.504 70.928L161.706 70.052ZM157.566 78.8839C156.236 81.8773 155.034 84.8898 153.962 87.9216L155.848 88.5884C156.902 85.6068 158.084 82.6427 159.394 79.6961L157.566 78.8839ZM153.96 87.9283C152.92 90.9363 152.101 93.8933 151.505 96.7991L153.465 97.2009C154.042 94.3867 154.837 91.5137 155.85 88.5817L153.96 87.9283ZM152.485 96H145.39V98H152.485V96Z" fill="black" mask="url(#path-4-outside-1_2541_62)"/>
</g>
<defs>
<filter id="filter0_bd_2541_62" x="110.528" y="56.7" width="60.2023" height="48.3" filterUnits="userSpaceOnUse" color-interpolation-filters="sRGB">
<feFlood flood-opacity="0" result="BackgroundImageFix"/>
<feGaussianBlur in="BackgroundImageFix" stdDeviation="2"/>
<feComposite in2="SourceAlpha" operator="in" result="effect1_backgroundBlur_2541_62"/>
<feColorMatrix in="SourceAlpha" type="matrix" values="0 0 0 0 0 0 0 0 0 0 0 0 0 0 0 0 0 0 127 0" result="hardAlpha"/>
<feOffset dy="4"/>
<feGaussianBlur stdDeviation="2"/>
<feComposite in2="hardAlpha" operator="out"/>
<feColorMatrix type="matrix" values="0 0 0 0 0 0 0 0 0 0 0 0 0 0 0 0 0 0 0.25 0"/>
<feBlend mode="normal" in2="effect1_backgroundBlur_2541_62" result="effect2_dropShadow_2541_62"/>
<feBlend mode="normal" in="SourceGraphic" in2="effect2_dropShadow_2541_62" result="shape"/>
</filter>
</defs>
</svg>
