<svg width="281" height="158" viewBox="0 0 281 158" fill="none" xmlns="http://www.w3.org/2000/svg">
<g clip-path="url(#clip0_2541_55)">
<rect width="281" height="158" fill="#CD5742"/>
<path d="M23 0L23 186" stroke="#6A0404" stroke-width="20"/>
<path d="M63 0L63 186" stroke="#6A0404" stroke-width="20"/>
<path d="M103 -2L103 184" stroke="#6A0404" stroke-width="20"/>
<path d="M143 -1L143 185" stroke="#6A0404" stroke-width="20"/>
<path d="M183 -3L183 183" stroke="#6A0404" stroke-width="20"/>
<path d="M223 -2L223 184" stroke="#6A0404" stroke-width="20"/>
<path d="M263 -3V183" stroke="#6A0404" stroke-width="20"/>
<g filter="url(#filter0_bd_2541_55)">
<mask id="path-8-outside-1_2541_55" maskUnits="userSpaceOnUse" x="113" y="59" width="56" height="40" fill="black">
<rect fill="white" x="113" y="59" width="56" height="40"/>
<path d="M118.763 97V96.12L123.878 94.085V66.64L114.528 71.04V68.95L128.058 60.7H130.533V94.085L135.098 96.12V97H118.763ZM154.74 97.55C152.027 97.55 149.698 96.7983 147.755 95.295C145.812 93.7917 144.327 91.6467 143.3 88.86C142.31 86.0367 141.815 82.7 141.815 78.85C141.815 75.2567 142.365 72.0667 143.465 69.28C144.565 66.4567 146.068 64.2383 147.975 62.625C149.918 60.975 152.173 60.15 154.74 60.15C157.453 60.15 159.782 60.9017 161.725 62.405C163.668 63.9083 165.135 66.0717 166.125 68.895C167.152 71.6817 167.665 75 167.665 78.85C167.665 82.4433 167.115 85.6517 166.015 88.475C164.915 91.2617 163.393 93.48 161.45 95.13C159.507 96.7433 157.27 97.55 154.74 97.55ZM155.73 94.91C156.793 94.91 157.673 94.2867 158.37 93.04C159.103 91.7933 159.653 90.0883 160.02 87.925C160.387 85.7617 160.57 83.305 160.57 80.555C160.57 77.145 160.332 74.1017 159.855 71.425C159.378 68.7117 158.645 66.585 157.655 65.045C156.702 63.505 155.455 62.735 153.915 62.735C152.852 62.735 151.935 63.34 151.165 64.55C150.432 65.76 149.863 67.4467 149.46 69.61C149.093 71.7367 148.91 74.2117 148.91 77.035C148.91 80.4817 149.148 83.5617 149.625 86.275C150.102 88.9517 150.835 91.06 151.825 92.6C152.852 94.14 154.153 94.91 155.73 94.91Z"/>
</mask>
<path d="M118.763 97V96.12L123.878 94.085V66.64L114.528 71.04V68.95L128.058 60.7H130.533V94.085L135.098 96.12V97H118.763ZM154.74 97.55C152.027 97.55 149.698 96.7983 147.755 95.295C145.812 93.7917 144.327 91.6467 143.3 88.86C142.31 86.0367 141.815 82.7 141.815 78.85C141.815 75.2567 142.365 72.0667 143.465 69.28C144.565 66.4567 146.068 64.2383 147.975 62.625C149.918 60.975 152.173 60.15 154.74 60.15C157.453 60.15 159.782 60.9017 161.725 62.405C163.668 63.9083 165.135 66.0717 166.125 68.895C167.152 71.6817 167.665 75 167.665 78.85C167.665 82.4433 167.115 85.6517 166.015 88.475C164.915 91.2617 163.393 93.48 161.45 95.13C159.507 96.7433 157.27 97.55 154.74 97.55ZM155.73 94.91C156.793 94.91 157.673 94.2867 158.37 93.04C159.103 91.7933 159.653 90.0883 160.02 87.925C160.387 85.7617 160.57 83.305 160.57 80.555C160.57 77.145 160.332 74.1017 159.855 71.425C159.378 68.7117 158.645 66.585 157.655 65.045C156.702 63.505 155.455 62.735 153.915 62.735C152.852 62.735 151.935 63.34 151.165 64.55C150.432 65.76 149.863 67.4467 149.46 69.61C149.093 71.7367 148.91 74.2117 148.91 77.035C148.91 80.4817 149.148 83.5617 149.625 86.275C150.102 88.9517 150.835 91.06 151.825 92.6C152.852 94.14 154.153 94.91 155.73 94.91Z" fill="white"/>
<path d="M118.763 97H117.763V98H118.763V97ZM118.763 96.12L118.393 95.1908L117.763 95.4416V96.12H118.763ZM123.878 94.085L124.247 95.0142L124.878 94.7634V94.085H123.878ZM123.878 66.64H124.878V65.0642L123.452 65.7352L123.878 66.64ZM114.528 71.04H113.528V72.6158L114.953 71.9448L114.528 71.04ZM114.528 68.95L114.007 68.0962L113.528 68.3885V68.95H114.528ZM128.058 60.7V59.7H127.777L127.537 59.8462L128.058 60.7ZM130.533 60.7H131.533V59.7H130.533V60.7ZM130.533 94.085H129.533V94.7341L130.126 94.9984L130.533 94.085ZM135.098 96.12H136.098V95.4709L135.505 95.2066L135.098 96.12ZM135.098 97V98H136.098V97H135.098ZM119.763 97V96.12H117.763V97H119.763ZM119.132 97.0492L124.247 95.0142L123.508 93.1558L118.393 95.1908L119.132 97.0492ZM124.878 94.085V66.64H122.878V94.085H124.878ZM123.452 65.7352L114.102 70.1352L114.953 71.9448L124.303 67.5448L123.452 65.7352ZM115.528 71.04V68.95H113.528V71.04H115.528ZM115.048 69.8038L128.578 61.5538L127.537 59.8462L114.007 68.0962L115.048 69.8038ZM128.058 61.7H130.533V59.7H128.058V61.7ZM129.533 60.7V94.085H131.533V60.7H129.533ZM130.126 94.9984L134.691 97.0334L135.505 95.2066L130.94 93.1716L130.126 94.9984ZM134.098 96.12V97H136.098V96.12H134.098ZM135.098 96H118.763V98H135.098V96ZM147.755 95.295L147.143 96.086L147.755 95.295ZM143.3 88.86L142.356 89.1909L142.359 89.1983L142.362 89.2057L143.3 88.86ZM143.465 69.28L144.395 69.6472L144.397 69.643L143.465 69.28ZM147.975 62.625L148.621 63.3884L148.622 63.3873L147.975 62.625ZM166.125 68.895L165.181 69.2259L165.184 69.2333L165.187 69.2407L166.125 68.895ZM166.015 88.475L166.945 88.8422L166.947 88.838L166.015 88.475ZM161.45 95.13L162.089 95.8995L162.097 95.8923L161.45 95.13ZM158.37 93.04L157.508 92.533L157.502 92.5425L157.497 92.5522L158.37 93.04ZM160.02 87.925L161.006 88.0921V88.0921L160.02 87.925ZM159.855 71.425L158.87 71.598L158.87 71.6003L159.855 71.425ZM157.655 65.045L156.805 65.5714L156.809 65.5786L156.814 65.5858L157.655 65.045ZM151.165 64.55L150.321 64.0131L150.315 64.0223L150.31 64.0317L151.165 64.55ZM149.46 69.61L148.477 69.4267L148.475 69.4401L149.46 69.61ZM149.625 86.275L148.64 86.448L148.64 86.4503L149.625 86.275ZM151.825 92.6L150.984 93.1408L150.988 93.1478L150.993 93.1547L151.825 92.6ZM154.74 96.55C152.224 96.55 150.117 95.8576 148.367 94.504L147.143 96.086C149.28 97.739 151.83 98.55 154.74 98.55V96.55ZM148.367 94.504C146.6 93.1375 145.214 91.1618 144.238 88.5143L142.362 89.2057C143.44 92.1315 145.023 94.4458 147.143 96.086L148.367 94.504ZM144.244 88.5291C143.3 85.8376 142.815 82.618 142.815 78.85H140.815C140.815 82.782 141.32 86.2357 142.356 89.1909L144.244 88.5291ZM142.815 78.85C142.815 75.3579 143.35 72.2961 144.395 69.6472L142.535 68.9128C141.38 71.8372 140.815 75.1554 140.815 78.85H142.815ZM144.397 69.643C145.449 66.942 146.866 64.8735 148.621 63.3884L147.329 61.8616C145.271 63.6032 143.681 65.9713 142.533 68.917L144.397 69.643ZM148.622 63.3873C150.383 61.8919 152.409 61.15 154.74 61.15V59.15C151.938 59.15 149.453 60.0581 147.328 61.8627L148.622 63.3873ZM154.74 61.15C157.256 61.15 159.363 61.8424 161.113 63.196L162.337 61.614C160.2 59.961 157.65 59.15 154.74 59.15V61.15ZM161.113 63.196C162.873 64.5577 164.241 66.5448 165.181 69.2259L167.069 68.5641C166.029 65.5986 164.463 63.259 162.337 61.614L161.113 63.196ZM165.187 69.2407C166.162 71.8893 166.665 75.0848 166.665 78.85H168.665C168.665 74.9152 168.141 71.474 167.063 68.5493L165.187 69.2407ZM166.665 78.85C166.665 82.3417 166.131 85.4237 165.083 88.112L166.947 88.838C168.099 85.8796 168.665 82.5449 168.665 78.85H166.665ZM165.085 88.1078C164.035 90.7684 162.6 92.8414 160.803 94.3677L162.097 95.8923C164.186 94.1186 165.795 91.755 166.945 88.8422L165.085 88.1078ZM160.811 94.3606C159.048 95.8246 157.037 96.55 154.74 96.55V98.55C157.503 98.55 159.966 97.662 162.089 95.8994L160.811 94.3606ZM155.73 95.91C157.278 95.91 158.439 94.9668 159.243 93.5278L157.497 92.5522C156.908 93.6065 156.308 93.91 155.73 93.91V95.91ZM159.232 93.547C160.05 92.1559 160.628 90.3197 161.006 88.0921L159.034 87.7579C158.678 89.857 158.156 91.4307 157.508 92.533L159.232 93.547ZM161.006 88.0921C161.384 85.8618 161.57 83.3476 161.57 80.555H159.57C159.57 83.2624 159.389 85.6615 159.034 87.7579L161.006 88.0921ZM161.57 80.555C161.57 77.1003 161.329 73.9966 160.84 71.2497L158.87 71.6003C159.335 74.2067 159.57 77.1897 159.57 80.555H161.57ZM160.84 71.252C160.351 68.4675 159.585 66.1978 158.496 64.5042L156.814 65.5858C157.705 66.9722 158.406 68.9558 158.87 71.598L160.84 71.252ZM158.505 64.5186C157.407 62.745 155.867 61.735 153.915 61.735V63.735C155.043 63.735 155.996 64.265 156.805 65.5714L158.505 64.5186ZM153.915 61.735C152.395 61.735 151.204 62.6267 150.321 64.0131L152.009 65.0869C152.666 64.0533 153.308 63.735 153.915 63.735V61.735ZM150.31 64.0317C149.489 65.3856 148.891 67.2034 148.477 69.4267L150.443 69.7933C150.835 67.69 151.374 66.1344 152.02 65.0683L150.31 64.0317ZM148.475 69.4401C148.096 71.6369 147.91 74.171 147.91 77.035H149.91C149.91 74.2523 150.091 71.8364 150.445 69.7799L148.475 69.4401ZM147.91 77.035C147.91 80.5259 148.151 83.6655 148.64 86.448L150.61 86.102C150.145 83.4579 149.91 80.4374 149.91 77.035H147.91ZM148.64 86.4503C149.13 89.1997 149.896 91.4493 150.984 93.1408L152.666 92.0592C151.774 90.6707 151.073 88.7036 150.61 86.0997L148.64 86.4503ZM150.993 93.1547C152.168 94.9169 153.757 95.91 155.73 95.91V93.91C154.55 93.91 153.536 93.3631 152.657 92.0453L150.993 93.1547Z" fill="black" mask="url(#path-8-outside-1_2541_55)"/>
</g>
</g>
<defs>
<filter id="filter0_bd_2541_55" x="110.528" y="56.15" width="61.1373" height="49.4" filterUnits="userSpaceOnUse" color-interpolation-filters="sRGB">
<feFlood flood-opacity="0" result="BackgroundImageFix"/>
<feGaussianBlur in="BackgroundImageFix" stdDeviation="2"/>
<feComposite in2="SourceAlpha" operator="in" result="effect1_backgroundBlur_2541_55"/>
<feColorMatrix in="SourceAlpha" type="matrix" values="0 0 0 0 0 0 0 0 0 0 0 0 0 0 0 0 0 0 127 0" result="hardAlpha"/>
<feOffset dy="4"/>
<feGaussianBlur stdDeviation="2"/>
<feComposite in2="hardAlpha" operator="out"/>
<feColorMatrix type="matrix" values="0 0 0 0 0 0 0 0 0 0 0 0 0 0 0 0 0 0 0.25 0"/>
<feBlend mode="normal" in2="effect1_backgroundBlur_2541_55" result="effect2_dropShadow_2541_55"/>
<feBlend mode="normal" in="SourceGraphic" in2="effect2_dropShadow_2541_55" result="shape"/>
</filter>
<clipPath id="clip0_2541_55">
<rect width="281" height="158" fill="white"/>
</clipPath>
</defs>
</svg>
