<svg width="281" height="158" viewBox="0 0 281 158" fill="none" xmlns="http://www.w3.org/2000/svg">
<rect width="281" height="158" fill="#CD5742"/>
<circle cx="34" cy="41" r="15" fill="#6A0404"/>
<circle cx="60" cy="131" r="15" fill="#F2A395"/>
<path d="M207 71C207 79.2843 200.284 86 192 86C183.716 86 177 79.2843 177 71C177 62.7157 183.716 56 192 56C200.284 56 207 62.7157 207 71Z" fill="#F2A395"/>
<circle cx="212" cy="31" r="10" fill="#F2A395"/>
<circle cx="151" cy="46" r="10" fill="#F2A395"/>
<circle cx="212" cy="126" r="10" fill="#6A0404"/>
<circle cx="141" cy="121" r="10" fill="#6A0404"/>
<circle cx="85" cy="79" r="10" fill="#F2A395"/>
<circle cx="24" cy="86" r="5" fill="#6A0404"/>
<circle cx="54" cy="61" r="5" fill="#F2A395"/>
<circle cx="100" cy="136" r="5" fill="#F2A395"/>
<circle cx="124" cy="51" r="5" fill="#F2A395"/>
<circle cx="177" cy="116" r="5" fill="#F2A395"/>
<circle cx="243" cy="26" r="5" fill="#F2A395"/>
<circle cx="258" cy="136" r="5" fill="#F2A395"/>
<circle cx="141" cy="21" r="5" fill="#6A0404"/>
<g filter="url(#filter0_bd_2541_44)">
<mask id="path-17-outside-1_2541_44" maskUnits="userSpaceOnUse" x="125" y="59" width="32" height="39" fill="black">
<rect fill="white" x="125" y="59" width="32" height="39"/>
<path d="M136.706 97V96.12L141.876 94.085V86.99H126.916V85.56L146.001 60.7H148.476V82.92H155.021V86.99H148.476V94.085L153.096 96.12V97H136.706ZM132.196 82.92H141.876V69.94L132.196 82.92Z"/>
</mask>
<path d="M136.706 97V96.12L141.876 94.085V86.99H126.916V85.56L146.001 60.7H148.476V82.92H155.021V86.99H148.476V94.085L153.096 96.12V97H136.706ZM132.196 82.92H141.876V69.94L132.196 82.92Z" fill="white"/>
<path d="M136.706 97H135.706V98H136.706V97ZM136.706 96.12L136.34 95.1895L135.706 95.4389V96.12H136.706ZM141.876 94.085L142.243 95.0155L142.876 94.7661V94.085H141.876ZM141.876 86.99H142.876V85.99H141.876V86.99ZM126.916 86.99H125.916V87.99H126.916V86.99ZM126.916 85.56L126.123 84.9511L125.916 85.2204V85.56H126.916ZM146.001 60.7V59.7H145.508L145.208 60.0911L146.001 60.7ZM148.476 60.7H149.476V59.7H148.476V60.7ZM148.476 82.92H147.476V83.92H148.476V82.92ZM155.021 82.92H156.021V81.92H155.021V82.92ZM155.021 86.99V87.99H156.021V86.99H155.021ZM148.476 86.99V85.99H147.476V86.99H148.476ZM148.476 94.085H147.476V94.7372L148.073 95.0002L148.476 94.085ZM153.096 96.12H154.096V95.4678L153.499 95.2048L153.096 96.12ZM153.096 97V98H154.096V97H153.096ZM132.196 82.92L131.395 82.3222L130.203 83.92H132.196V82.92ZM141.876 82.92V83.92H142.876V82.92H141.876ZM141.876 69.94H142.876V66.9264L141.075 69.3422L141.876 69.94ZM137.706 97V96.12H135.706V97H137.706ZM137.073 97.0505L142.243 95.0155L141.51 93.1545L136.34 95.1895L137.073 97.0505ZM142.876 94.085V86.99H140.876V94.085H142.876ZM141.876 85.99H126.916V87.99H141.876V85.99ZM127.916 86.99V85.56H125.916V86.99H127.916ZM127.71 86.1689L146.795 61.3089L145.208 60.0911L126.123 84.9511L127.71 86.1689ZM146.001 61.7H148.476V59.7H146.001V61.7ZM147.476 60.7V82.92H149.476V60.7H147.476ZM148.476 83.92H155.021V81.92H148.476V83.92ZM154.021 82.92V86.99H156.021V82.92H154.021ZM155.021 85.99H148.476V87.99H155.021V85.99ZM147.476 86.99V94.085H149.476V86.99H147.476ZM148.073 95.0002L152.693 97.0352L153.499 95.2048L148.879 93.1698L148.073 95.0002ZM152.096 96.12V97H154.096V96.12H152.096ZM153.096 96H136.706V98H153.096V96ZM132.196 83.92H141.876V81.92H132.196V83.92ZM142.876 82.92V69.94H140.876V82.92H142.876ZM141.075 69.3422L131.395 82.3222L132.998 83.5178L142.678 70.5378L141.075 69.3422Z" fill="black" mask="url(#path-17-outside-1_2541_44)"/>
</g>
<defs>
<filter id="filter0_bd_2541_44" x="122.916" y="56.7" width="36.105" height="48.3" filterUnits="userSpaceOnUse" color-interpolation-filters="sRGB">
<feFlood flood-opacity="0" result="BackgroundImageFix"/>
<feGaussianBlur in="BackgroundImageFix" stdDeviation="2"/>
<feComposite in2="SourceAlpha" operator="in" result="effect1_backgroundBlur_2541_44"/>
<feColorMatrix in="SourceAlpha" type="matrix" values="0 0 0 0 0 0 0 0 0 0 0 0 0 0 0 0 0 0 127 0" result="hardAlpha"/>
<feOffset dy="4"/>
<feGaussianBlur stdDeviation="2"/>
<feComposite in2="hardAlpha" operator="out"/>
<feColorMatrix type="matrix" values="0 0 0 0 0 0 0 0 0 0 0 0 0 0 0 0 0 0 0.25 0"/>
<feBlend mode="normal" in2="effect1_backgroundBlur_2541_44" result="effect2_dropShadow_2541_44"/>
<feBlend mode="normal" in="SourceGraphic" in2="effect2_dropShadow_2541_44" result="shape"/>
</filter>
</defs>
</svg>
