<svg width="281" height="158" viewBox="0 0 281 158" fill="none" xmlns="http://www.w3.org/2000/svg">
<g clip-path="url(#clip0_2541_58)">
<rect width="281" height="158" fill="#CD5742"/>
<path d="M-4.00299 136.932H286.122" stroke="#6A0404" stroke-width="20"/>
<path d="M-2 97H288.125" stroke="#6A0404" stroke-width="20"/>
<path d="M0 56H290.125" stroke="#6A0404" stroke-width="20"/>
<path d="M0 16H290.125" stroke="#6A0404" stroke-width="20"/>
<g filter="url(#filter0_bd_2541_58)">
<mask id="path-5-outside-1_2541_58" maskUnits="userSpaceOnUse" x="113" y="59" width="56" height="40" fill="black">
<rect fill="white" x="113" y="59" width="56" height="40"/>
<path d="M118.763 97V96.12L123.878 94.085V66.64L114.528 71.04V68.95L128.058 60.7H130.533V94.085L135.098 96.12V97H118.763ZM154.19 97.55C152.503 97.55 150.908 97.3483 149.405 96.945C147.902 96.5417 146.527 95.9183 145.28 95.075C144.253 94.3417 143.447 93.5717 142.86 92.765C142.273 91.9583 141.98 91.0967 141.98 90.18C141.98 89.3367 142.145 88.805 142.475 88.585C142.805 88.365 143.318 88.255 144.015 88.255H147.205L147.7 88.75V90.62C147.7 92.0133 148.213 93.095 149.24 93.865C150.303 94.5983 151.825 94.965 153.805 94.965C155.968 94.965 157.618 94.2683 158.755 92.875C159.928 91.4817 160.515 89.7033 160.515 87.54C160.515 85.01 159.855 83.03 158.535 81.6C157.215 80.17 154.923 79.455 151.66 79.455H148.635V76.925H150.835C153.218 76.925 155.107 76.1917 156.5 74.725C157.93 73.2583 158.645 71.37 158.645 69.06C158.645 66.86 158.205 65.2467 157.325 64.22C156.445 63.1933 155.18 62.68 153.53 62.68C152.1 62.68 150.908 63.1383 149.955 64.055C149.038 64.935 148.58 66.1267 148.58 67.63V69.885L148.14 70.38H145.06C144.327 70.38 143.777 70.27 143.41 70.05C143.043 69.7933 142.86 69.2067 142.86 68.29C142.86 66.2367 144.125 64.4217 146.655 62.845C148.085 61.9283 149.423 61.25 150.67 60.81C151.917 60.37 153.438 60.15 155.235 60.15C157.252 60.15 159.067 60.5167 160.68 61.25C162.33 61.9467 163.613 62.955 164.53 64.275C165.483 65.5583 165.96 67.0617 165.96 68.785C165.96 70.8383 165.117 72.6167 163.43 74.12C161.78 75.6233 159.653 76.6683 157.05 77.255C160.57 77.7317 163.247 78.8133 165.08 80.5C166.95 82.1867 167.885 84.405 167.885 87.155C167.885 89.0983 167.243 90.8583 165.96 92.435C164.713 94.0117 163.045 95.2583 160.955 96.175C158.865 97.0917 156.61 97.55 154.19 97.55Z"/>
</mask>
<path d="M118.763 97V96.12L123.878 94.085V66.64L114.528 71.04V68.95L128.058 60.7H130.533V94.085L135.098 96.12V97H118.763ZM154.19 97.55C152.503 97.55 150.908 97.3483 149.405 96.945C147.902 96.5417 146.527 95.9183 145.28 95.075C144.253 94.3417 143.447 93.5717 142.86 92.765C142.273 91.9583 141.98 91.0967 141.98 90.18C141.98 89.3367 142.145 88.805 142.475 88.585C142.805 88.365 143.318 88.255 144.015 88.255H147.205L147.7 88.75V90.62C147.7 92.0133 148.213 93.095 149.24 93.865C150.303 94.5983 151.825 94.965 153.805 94.965C155.968 94.965 157.618 94.2683 158.755 92.875C159.928 91.4817 160.515 89.7033 160.515 87.54C160.515 85.01 159.855 83.03 158.535 81.6C157.215 80.17 154.923 79.455 151.66 79.455H148.635V76.925H150.835C153.218 76.925 155.107 76.1917 156.5 74.725C157.93 73.2583 158.645 71.37 158.645 69.06C158.645 66.86 158.205 65.2467 157.325 64.22C156.445 63.1933 155.18 62.68 153.53 62.68C152.1 62.68 150.908 63.1383 149.955 64.055C149.038 64.935 148.58 66.1267 148.58 67.63V69.885L148.14 70.38H145.06C144.327 70.38 143.777 70.27 143.41 70.05C143.043 69.7933 142.86 69.2067 142.86 68.29C142.86 66.2367 144.125 64.4217 146.655 62.845C148.085 61.9283 149.423 61.25 150.67 60.81C151.917 60.37 153.438 60.15 155.235 60.15C157.252 60.15 159.067 60.5167 160.68 61.25C162.33 61.9467 163.613 62.955 164.53 64.275C165.483 65.5583 165.96 67.0617 165.96 68.785C165.96 70.8383 165.117 72.6167 163.43 74.12C161.78 75.6233 159.653 76.6683 157.05 77.255C160.57 77.7317 163.247 78.8133 165.08 80.5C166.95 82.1867 167.885 84.405 167.885 87.155C167.885 89.0983 167.243 90.8583 165.96 92.435C164.713 94.0117 163.045 95.2583 160.955 96.175C158.865 97.0917 156.61 97.55 154.19 97.55Z" fill="white"/>
<path d="M118.763 97H117.763V98H118.763V97ZM118.763 96.12L118.393 95.1908L117.763 95.4416V96.12H118.763ZM123.878 94.085L124.247 95.0142L124.878 94.7634V94.085H123.878ZM123.878 66.64H124.878V65.0642L123.452 65.7352L123.878 66.64ZM114.528 71.04H113.528V72.6158L114.953 71.9448L114.528 71.04ZM114.528 68.95L114.007 68.0962L113.528 68.3885V68.95H114.528ZM128.058 60.7V59.7H127.777L127.537 59.8462L128.058 60.7ZM130.533 60.7H131.533V59.7H130.533V60.7ZM130.533 94.085H129.533V94.7341L130.126 94.9984L130.533 94.085ZM135.098 96.12H136.098V95.4709L135.505 95.2066L135.098 96.12ZM135.098 97V98H136.098V97H135.098ZM119.763 97V96.12H117.763V97H119.763ZM119.132 97.0492L124.247 95.0142L123.508 93.1558L118.393 95.1908L119.132 97.0492ZM124.878 94.085V66.64H122.878V94.085H124.878ZM123.452 65.7352L114.102 70.1352L114.953 71.9448L124.303 67.5448L123.452 65.7352ZM115.528 71.04V68.95H113.528V71.04H115.528ZM115.048 69.8038L128.578 61.5538L127.537 59.8462L114.007 68.0962L115.048 69.8038ZM128.058 61.7H130.533V59.7H128.058V61.7ZM129.533 60.7V94.085H131.533V60.7H129.533ZM130.126 94.9984L134.691 97.0334L135.505 95.2066L130.94 93.1716L130.126 94.9984ZM134.098 96.12V97H136.098V96.12H134.098ZM135.098 96H118.763V98H135.098V96ZM149.405 96.945L149.146 97.9108L149.405 96.945ZM145.28 95.075L144.699 95.8887L144.709 95.8961L144.72 95.9033L145.28 95.075ZM142.86 92.765L142.051 93.3532L142.86 92.765ZM142.475 88.585L141.92 87.7529L142.475 88.585ZM147.205 88.255L147.912 87.5479L147.619 87.255H147.205V88.255ZM147.7 88.75H148.7V88.3358L148.407 88.0429L147.7 88.75ZM149.24 93.865L148.64 94.665L148.656 94.6769L148.672 94.6882L149.24 93.865ZM158.755 92.875L157.99 92.2309L157.985 92.2368L157.98 92.2429L158.755 92.875ZM158.535 81.6L157.8 82.2783V82.2783L158.535 81.6ZM148.635 79.455H147.635V80.455H148.635V79.455ZM148.635 76.925V75.925H147.635V76.925H148.635ZM156.5 74.725L155.784 74.0268L155.775 74.0362L156.5 74.725ZM157.325 64.22L158.084 63.5692L157.325 64.22ZM149.955 64.055L150.648 64.7764L150.648 64.7758L149.955 64.055ZM148.58 69.885L149.327 70.5494L149.58 70.2652V69.885H148.58ZM148.14 70.38V71.38H148.589L148.887 71.0444L148.14 70.38ZM143.41 70.05L142.837 70.8692L142.865 70.8894L142.896 70.9075L143.41 70.05ZM146.655 62.845L147.184 63.6938L147.195 63.6869L146.655 62.845ZM150.67 60.81L150.337 59.867L150.67 60.81ZM160.68 61.25L160.266 62.1604L160.279 62.166L160.291 62.1712L160.68 61.25ZM164.53 64.275L163.709 64.8454L163.718 64.8585L163.727 64.8713L164.53 64.275ZM163.43 74.12L162.765 73.3734L162.757 73.3808L163.43 74.12ZM157.05 77.255L156.83 76.2795L156.916 78.246L157.05 77.255ZM165.08 80.5L164.403 81.236L164.41 81.2426L165.08 80.5ZM165.96 92.435L165.184 91.8037L165.18 91.8092L165.176 91.8148L165.96 92.435ZM160.955 96.175L161.357 97.0908L160.955 96.175ZM154.19 96.55C152.584 96.55 151.076 96.358 149.664 95.9792L149.146 97.9108C150.74 98.3387 152.423 98.55 154.19 98.55V96.55ZM149.664 95.9792C148.264 95.6036 146.992 95.0257 145.84 94.2467L144.72 95.9033C146.062 96.811 147.539 97.4797 149.146 97.9108L149.664 95.9792ZM145.861 94.2613C144.9 93.5746 144.178 92.8771 143.669 92.1768L142.051 93.3532C142.715 94.2663 143.607 95.1087 144.699 95.8887L145.861 94.2613ZM143.669 92.1768C143.195 91.5252 142.98 90.8665 142.98 90.18H140.98C140.98 91.3268 141.352 92.3915 142.051 93.3532L143.669 92.1768ZM142.98 90.18C142.98 89.8127 143.017 89.5791 143.059 89.4451C143.1 89.3114 143.12 89.357 143.03 89.417L141.92 87.7529C141.5 88.033 141.272 88.4544 141.149 88.8524C141.025 89.25 140.98 89.704 140.98 90.18H142.98ZM143.03 89.417C143.113 89.3618 143.385 89.255 144.015 89.255V87.255C143.252 87.255 142.497 87.3682 141.92 87.7529L143.03 89.417ZM144.015 89.255H147.205V87.255H144.015V89.255ZM146.498 88.9621L146.993 89.4571L148.407 88.0429L147.912 87.5479L146.498 88.9621ZM146.7 88.75V90.62H148.7V88.75H146.7ZM146.7 90.62C146.7 92.2968 147.338 93.6881 148.64 94.665L149.84 93.065C149.089 92.5019 148.7 91.7298 148.7 90.62H146.7ZM148.672 94.6882C149.97 95.5831 151.723 95.965 153.805 95.965V93.965C151.927 93.965 150.637 93.6136 149.808 93.0418L148.672 94.6882ZM153.805 95.965C156.201 95.965 158.164 95.181 159.53 93.5071L157.98 92.2429C157.072 93.3557 155.735 93.965 153.805 93.965V95.965ZM159.52 93.5191C160.872 91.913 161.515 89.8927 161.515 87.54H159.515C159.515 89.5139 158.984 91.0503 157.99 92.2309L159.52 93.5191ZM161.515 87.54C161.515 84.8363 160.807 82.5865 159.27 80.9217L157.8 82.2783C158.903 83.4735 159.515 85.1837 159.515 87.54H161.515ZM159.27 80.9217C157.666 79.1838 155.022 78.455 151.66 78.455V80.455C154.825 80.455 156.764 81.1562 157.8 82.2783L159.27 80.9217ZM151.66 78.455H148.635V80.455H151.66V78.455ZM149.635 79.455V76.925H147.635V79.455H149.635ZM148.635 77.925H150.835V75.925H148.635V77.925ZM150.835 77.925C153.439 77.925 155.609 77.1145 157.225 75.4137L155.775 74.0362C154.604 75.2688 152.997 75.925 150.835 75.925V77.925ZM157.216 75.4231C158.852 73.7453 159.645 71.5946 159.645 69.06H157.645C157.645 71.1454 157.008 72.7714 155.784 74.0269L157.216 75.4231ZM159.645 69.06C159.645 66.7612 159.191 64.8607 158.084 63.5692L156.566 64.8708C157.219 65.6326 157.645 66.9588 157.645 69.06H159.645ZM158.084 63.5692C156.973 62.2726 155.402 61.68 153.53 61.68V63.68C154.958 63.68 155.917 64.114 156.566 64.8708L158.084 63.5692ZM153.53 61.68C151.865 61.68 150.417 62.223 149.262 63.3342L150.648 64.7758C151.399 64.0536 152.335 63.68 153.53 63.68V61.68ZM149.262 63.3336C148.114 64.4365 147.58 65.9083 147.58 67.63H149.58C149.58 66.345 149.963 65.4335 150.648 64.7764L149.262 63.3336ZM147.58 67.63V69.885H149.58V67.63H147.58ZM147.833 69.2206L147.393 69.7156L148.887 71.0444L149.327 70.5494L147.833 69.2206ZM148.14 69.38H145.06V71.38H148.14V69.38ZM145.06 69.38C144.394 69.38 144.061 69.2743 143.924 69.1925L142.896 70.9075C143.493 71.2657 144.259 71.38 145.06 71.38V69.38ZM143.983 69.2308C144.038 69.2691 144.002 69.2792 143.952 69.1192C143.901 68.9574 143.86 68.6918 143.86 68.29H141.86C141.86 68.8049 141.91 69.291 142.043 69.7158C142.176 70.1424 142.415 70.5743 142.837 70.8692L143.983 69.2308ZM143.86 68.29C143.86 66.7228 144.803 65.1774 147.184 63.6937L146.126 61.9963C143.447 63.666 141.86 65.7505 141.86 68.29H143.86ZM147.195 63.6869C148.577 62.8006 149.846 62.1613 151.003 61.753L150.337 59.867C149.001 60.3387 147.593 61.056 146.115 62.0031L147.195 63.6869ZM151.003 61.753C152.112 61.3616 153.514 61.15 155.235 61.15V59.15C153.363 59.15 151.721 59.3784 150.337 59.867L151.003 61.753ZM155.235 61.15C157.129 61.15 158.8 61.4937 160.266 62.1604L161.094 60.3396C159.334 59.5396 157.375 59.15 155.235 59.15V61.15ZM160.291 62.1712C161.787 62.803 162.912 63.6983 163.709 64.8454L165.351 63.7046C164.315 62.2117 162.873 61.0904 161.069 60.3287L160.291 62.1712ZM163.727 64.8713C164.542 65.9685 164.96 67.2587 164.96 68.785H166.96C166.96 66.8646 166.424 65.1482 165.333 63.6787L163.727 64.8713ZM164.96 68.785C164.96 70.5226 164.262 72.0386 162.765 73.3735L164.095 74.8665C165.971 73.1948 166.96 71.154 166.96 68.785H164.96ZM162.757 73.3808C161.258 74.7465 159.297 75.7235 156.83 76.2795L157.27 78.2305C160.009 77.6132 162.302 76.5002 164.103 74.8592L162.757 73.3808ZM156.916 78.246C160.316 78.7064 162.772 79.7354 164.403 81.2359L165.757 79.7641C163.721 77.8913 160.824 76.7569 157.184 76.264L156.916 78.246ZM164.41 81.2426C166.049 82.7209 166.885 84.6589 166.885 87.155H168.885C168.885 84.1511 167.851 81.6524 165.75 79.7574L164.41 81.2426ZM166.885 87.155C166.885 88.8572 166.33 90.3965 165.184 91.8037L166.736 93.0663C168.157 91.3201 168.885 89.3395 168.885 87.155H166.885ZM165.176 91.8148C164.043 93.2466 162.514 94.3993 160.553 95.2592L161.357 97.0908C163.576 96.1174 165.383 94.7767 166.744 93.0552L165.176 91.8148ZM160.553 95.2592C158.598 96.117 156.48 96.55 154.19 96.55V98.55C156.74 98.55 159.132 98.0663 161.357 97.0908L160.553 95.2592Z" fill="black" mask="url(#path-5-outside-1_2541_58)"/>
</g>
</g>
<defs>
<filter id="filter0_bd_2541_58" x="110.528" y="56.15" width="61.3573" height="49.4" filterUnits="userSpaceOnUse" color-interpolation-filters="sRGB">
<feFlood flood-opacity="0" result="BackgroundImageFix"/>
<feGaussianBlur in="BackgroundImageFix" stdDeviation="2"/>
<feComposite in2="SourceAlpha" operator="in" result="effect1_backgroundBlur_2541_58"/>
<feColorMatrix in="SourceAlpha" type="matrix" values="0 0 0 0 0 0 0 0 0 0 0 0 0 0 0 0 0 0 127 0" result="hardAlpha"/>
<feOffset dy="4"/>
<feGaussianBlur stdDeviation="2"/>
<feComposite in2="hardAlpha" operator="out"/>
<feColorMatrix type="matrix" values="0 0 0 0 0 0 0 0 0 0 0 0 0 0 0 0 0 0 0.25 0"/>
<feBlend mode="normal" in2="effect1_backgroundBlur_2541_58" result="effect2_dropShadow_2541_58"/>
<feBlend mode="normal" in="SourceGraphic" in2="effect2_dropShadow_2541_58" result="shape"/>
</filter>
<clipPath id="clip0_2541_58">
<rect width="281" height="158" fill="white"/>
</clipPath>
</defs>
</svg>
