<svg width="281" height="158" viewBox="0 0 281 158" fill="none" xmlns="http://www.w3.org/2000/svg">
<rect width="281" height="158" fill="#CD5742"/>
<circle cx="141" cy="79" r="35" fill="#6A0404"/>
<rect x="128" y="37" width="25" height="18" fill="#6A0404"/>
<path d="M147.5 38.5C147.5 42.9957 144.067 46.5 140 46.5C135.933 46.5 132.5 42.9957 132.5 38.5C132.5 34.0043 135.933 30.5 140 30.5C144.067 30.5 147.5 34.0043 147.5 38.5Z" stroke="#6A0404" stroke-width="3"/>
<rect x="139" width="2" height="30" fill="#6A0404"/>
<g filter="url(#filter0_bd_2541_53)">
<mask id="path-5-outside-1_2541_53" maskUnits="userSpaceOnUse" x="127" y="59" width="28" height="40" fill="black">
<rect fill="white" x="127" y="59" width="28" height="40"/>
<path d="M140.886 97.55C138.613 97.55 136.541 97.2017 134.671 96.505C132.801 95.8083 131.298 94.8183 130.161 93.535C129.061 92.215 128.511 90.675 128.511 88.915C128.511 87.8517 128.713 86.7883 129.116 85.725C129.52 84.6617 130.253 83.6167 131.316 82.59C132.38 81.5267 133.883 80.4633 135.826 79.4C133.48 77.9333 131.848 76.485 130.931 75.055C130.015 73.625 129.556 71.9017 129.556 69.885C129.556 68.125 130.106 66.5117 131.206 65.045C132.306 63.5417 133.755 62.35 135.551 61.47C137.348 60.59 139.273 60.15 141.326 60.15C143.306 60.15 145.121 60.535 146.771 61.305C148.458 62.075 149.796 63.1383 150.786 64.495C151.813 65.8517 152.326 67.3917 152.326 69.115C152.326 70.6183 151.685 72.0117 150.401 73.295C149.118 74.5417 147.431 75.715 145.341 76.815C148.201 78.4283 150.273 80.0233 151.556 81.6C152.84 83.14 153.481 85.01 153.481 87.21C153.481 89.3367 152.876 91.17 151.666 92.71C150.493 94.25 148.953 95.4417 147.046 96.285C145.14 97.1283 143.086 97.55 140.886 97.55ZM135.936 67.575C135.936 68.5283 136.101 69.4083 136.431 70.215C136.761 71.0217 137.421 71.8467 138.411 72.69C139.438 73.5333 140.96 74.4867 142.976 75.55C144.113 74.78 145.011 73.8817 145.671 72.855C146.331 71.8283 146.661 70.6367 146.661 69.28C146.661 67.0433 146.13 65.3933 145.066 64.33C144.04 63.23 142.683 62.68 140.996 62.68C139.53 62.68 138.32 63.12 137.366 64C136.413 64.88 135.936 66.0717 135.936 67.575ZM134.396 87.925C134.396 90.1617 135.001 91.9217 136.211 93.205C137.421 94.4883 138.998 95.13 140.941 95.13C142.885 95.13 144.388 94.6167 145.451 93.59C146.551 92.5633 147.101 91.2067 147.101 89.52C147.101 88.2 146.79 87.1 146.166 86.22C145.543 85.34 144.553 84.4783 143.196 83.635C141.84 82.7917 140.08 81.7833 137.916 80.61C136.486 81.6733 135.533 82.755 135.056 83.855C134.616 84.955 134.396 86.3117 134.396 87.925Z"/>
</mask>
<path d="M140.886 97.55C138.613 97.55 136.541 97.2017 134.671 96.505C132.801 95.8083 131.298 94.8183 130.161 93.535C129.061 92.215 128.511 90.675 128.511 88.915C128.511 87.8517 128.713 86.7883 129.116 85.725C129.52 84.6617 130.253 83.6167 131.316 82.59C132.38 81.5267 133.883 80.4633 135.826 79.4C133.48 77.9333 131.848 76.485 130.931 75.055C130.015 73.625 129.556 71.9017 129.556 69.885C129.556 68.125 130.106 66.5117 131.206 65.045C132.306 63.5417 133.755 62.35 135.551 61.47C137.348 60.59 139.273 60.15 141.326 60.15C143.306 60.15 145.121 60.535 146.771 61.305C148.458 62.075 149.796 63.1383 150.786 64.495C151.813 65.8517 152.326 67.3917 152.326 69.115C152.326 70.6183 151.685 72.0117 150.401 73.295C149.118 74.5417 147.431 75.715 145.341 76.815C148.201 78.4283 150.273 80.0233 151.556 81.6C152.84 83.14 153.481 85.01 153.481 87.21C153.481 89.3367 152.876 91.17 151.666 92.71C150.493 94.25 148.953 95.4417 147.046 96.285C145.14 97.1283 143.086 97.55 140.886 97.55ZM135.936 67.575C135.936 68.5283 136.101 69.4083 136.431 70.215C136.761 71.0217 137.421 71.8467 138.411 72.69C139.438 73.5333 140.96 74.4867 142.976 75.55C144.113 74.78 145.011 73.8817 145.671 72.855C146.331 71.8283 146.661 70.6367 146.661 69.28C146.661 67.0433 146.13 65.3933 145.066 64.33C144.04 63.23 142.683 62.68 140.996 62.68C139.53 62.68 138.32 63.12 137.366 64C136.413 64.88 135.936 66.0717 135.936 67.575ZM134.396 87.925C134.396 90.1617 135.001 91.9217 136.211 93.205C137.421 94.4883 138.998 95.13 140.941 95.13C142.885 95.13 144.388 94.6167 145.451 93.59C146.551 92.5633 147.101 91.2067 147.101 89.52C147.101 88.2 146.79 87.1 146.166 86.22C145.543 85.34 144.553 84.4783 143.196 83.635C141.84 82.7917 140.08 81.7833 137.916 80.61C136.486 81.6733 135.533 82.755 135.056 83.855C134.616 84.955 134.396 86.3117 134.396 87.925Z" fill="white"/>
<path d="M134.671 96.505L135.02 95.5679L134.671 96.505ZM130.161 93.535L129.393 94.1752L129.403 94.1868L129.413 94.198L130.161 93.535ZM131.316 82.59L132.011 83.3094L132.017 83.3033L132.023 83.2971L131.316 82.59ZM135.826 79.4L136.306 80.2773L137.805 79.4573L136.356 78.552L135.826 79.4ZM130.931 75.055L130.089 75.5947L130.931 75.055ZM131.206 65.045L132.006 65.645L132.013 65.6355L131.206 65.045ZM135.551 61.47L135.991 62.3681L135.551 61.47ZM146.771 61.305L146.348 62.2112L146.356 62.2147L146.771 61.305ZM150.786 64.495L149.979 65.0845L149.984 65.0915L149.989 65.0984L150.786 64.495ZM150.401 73.295L151.098 74.0123L151.103 74.0072L151.108 74.0021L150.401 73.295ZM145.341 76.815L144.876 75.9301L143.252 76.7846L144.85 77.686L145.341 76.815ZM151.556 81.6L150.781 82.2313L150.788 82.2402L151.556 81.6ZM151.666 92.71L150.88 92.0922L150.875 92.098L150.871 92.104L151.666 92.71ZM147.046 96.285L147.451 97.1995L147.046 96.285ZM136.431 70.215L135.506 70.5936L136.431 70.215ZM138.411 72.69L137.763 73.4512L137.77 73.457L137.777 73.4627L138.411 72.69ZM142.976 75.55L142.51 76.4346L143.041 76.7143L143.537 76.3779L142.976 75.55ZM145.066 64.33L144.335 65.0123L144.347 65.0249L144.359 65.0371L145.066 64.33ZM137.366 64L136.688 63.2652L137.366 64ZM136.211 93.205L136.939 92.519L136.211 93.205ZM145.451 93.59L144.769 92.8589L144.763 92.8647L144.757 92.8706L145.451 93.59ZM143.196 83.635L143.724 82.7857H143.724L143.196 83.635ZM137.916 80.61L138.393 79.731L137.832 79.4266L137.32 79.8075L137.916 80.61ZM135.056 83.855L134.139 83.4574L134.133 83.4704L134.128 83.4836L135.056 83.855ZM140.886 96.55C138.716 96.55 136.764 96.2176 135.02 95.5679L134.322 97.4421C136.318 98.1857 138.51 98.55 140.886 98.55V96.55ZM135.02 95.5679C133.279 94.9191 131.921 94.0139 130.91 92.872L129.413 94.198C130.675 95.6228 132.324 96.6976 134.322 97.4421L135.02 95.5679ZM130.93 92.8948C129.983 91.7592 129.511 90.4473 129.511 88.915H127.511C127.511 90.9027 128.139 92.6708 129.393 94.1752L130.93 92.8948ZM129.511 88.915C129.511 87.9811 129.688 87.0376 130.051 86.0797L128.181 85.3703C127.738 86.539 127.511 87.7223 127.511 88.915H129.511ZM130.051 86.0797C130.389 85.189 131.023 84.2632 132.011 83.3094L130.622 81.8706C129.483 82.9702 128.65 84.1344 128.181 85.3703L130.051 86.0797ZM132.023 83.2971C132.996 82.3246 134.411 81.3144 136.306 80.2773L135.346 78.5227C133.355 79.6123 131.763 80.7287 130.609 81.8829L132.023 83.2971ZM136.356 78.552C134.065 77.1202 132.575 75.7663 131.773 74.5153L130.089 75.5947C131.121 77.2037 132.894 78.7464 135.296 80.248L136.356 78.552ZM131.773 74.5153C130.978 73.2745 130.556 71.7467 130.556 69.885H128.556C128.556 72.0566 129.052 73.9755 130.089 75.5947L131.773 74.5153ZM130.556 69.885C130.556 68.3508 131.03 66.9463 132.006 65.645L130.406 64.445C129.182 66.077 128.556 67.8992 128.556 69.885H130.556ZM132.013 65.6355C133.011 64.2725 134.329 63.1822 135.991 62.3681L135.111 60.5719C133.18 61.5178 131.602 62.8108 130.399 64.4545L132.013 65.6355ZM135.991 62.3681C137.647 61.5569 139.421 61.15 141.326 61.15V59.15C139.125 59.15 137.049 59.6231 135.111 60.5719L135.991 62.3681ZM141.326 61.15C143.173 61.15 144.842 61.5082 146.348 62.2112L147.194 60.3988C145.401 59.5618 143.44 59.15 141.326 59.15V61.15ZM146.356 62.2147C147.903 62.921 149.1 63.8805 149.979 65.0845L151.594 63.9055C150.493 62.3962 149.013 61.229 147.187 60.3953L146.356 62.2147ZM149.989 65.0984C150.882 66.279 151.326 67.6065 151.326 69.115H153.326C153.326 67.1769 152.744 65.4243 151.584 63.8916L149.989 65.0984ZM151.326 69.115C151.326 70.2997 150.832 71.4506 149.694 72.5879L151.108 74.0021C152.538 72.5728 153.326 70.937 153.326 69.115H151.326ZM149.705 72.5777C148.508 73.7404 146.906 74.8613 144.876 75.9301L145.807 77.6999C147.956 76.5687 149.728 75.343 151.098 74.0123L149.705 72.5777ZM144.85 77.686C147.66 79.271 149.61 80.7929 150.781 82.2313L152.332 80.9687C150.936 79.2538 148.743 77.5857 145.833 75.944L144.85 77.686ZM150.788 82.2402C151.907 83.5826 152.481 85.2195 152.481 87.21H154.481C154.481 84.8005 153.773 82.6974 152.325 80.9598L150.788 82.2402ZM152.481 87.21C152.481 89.1331 151.939 90.7438 150.88 92.0922L152.453 93.3278C153.813 91.5962 154.481 89.5402 154.481 87.21H152.481ZM150.871 92.104C149.808 93.4996 148.406 94.59 146.642 95.3705L147.451 97.1995C149.5 96.2934 151.178 95.0004 152.462 93.316L150.871 92.104ZM146.642 95.3705C144.87 96.1544 142.955 96.55 140.886 96.55V98.55C143.218 98.55 145.41 98.1023 147.451 97.1995L146.642 95.3705ZM134.936 67.575C134.936 68.6459 135.122 69.656 135.506 70.5936L137.357 69.8364C137.08 69.1607 136.936 68.4107 136.936 67.575H134.936ZM135.506 70.5936C135.919 71.603 136.706 72.5512 137.763 73.4512L139.06 71.9288C138.136 71.1421 137.604 70.4403 137.357 69.8364L135.506 70.5936ZM137.777 73.4627C138.88 74.3687 140.469 75.3587 142.51 76.4346L143.443 74.6654C141.45 73.6147 139.997 72.698 139.046 71.9173L137.777 73.4627ZM143.537 76.3779C144.772 75.5416 145.771 74.5495 146.513 73.3958L144.83 72.3142C144.252 73.2139 143.454 74.0184 142.416 74.7221L143.537 76.3779ZM146.513 73.3958C147.288 72.1901 147.661 70.8063 147.661 69.28H145.661C145.661 70.467 145.375 71.4665 144.83 72.3142L146.513 73.3958ZM147.661 69.28C147.661 66.9063 147.099 64.9482 145.773 63.6229L144.359 65.0371C145.161 65.8384 145.661 67.1804 145.661 69.28H147.661ZM145.797 63.6477C144.558 62.3195 142.923 61.68 140.996 61.68V63.68C142.443 63.68 143.522 64.1405 144.335 65.0123L145.797 63.6477ZM140.996 61.68C139.314 61.68 137.851 62.1922 136.688 63.2652L138.045 64.7348C138.789 64.0478 139.746 63.68 140.996 63.68V61.68ZM136.688 63.2652C135.497 64.3651 134.936 65.8411 134.936 67.575H136.936C136.936 66.3022 137.33 65.3949 138.045 64.7348L136.688 63.2652ZM133.396 87.925C133.396 90.3455 134.055 92.3761 135.484 93.891L136.939 92.519C135.947 91.4673 135.396 89.9779 135.396 87.925H133.396ZM135.484 93.891C136.903 95.3963 138.754 96.13 140.941 96.13V94.13C139.242 94.13 137.94 93.5804 136.939 92.519L135.484 93.891ZM140.941 96.13C143.06 96.13 144.843 95.5671 146.146 94.3094L144.757 92.8706C143.933 93.6662 142.71 94.13 140.941 94.13V96.13ZM146.134 94.3211C147.462 93.0814 148.101 91.4468 148.101 89.52H146.101C146.101 90.9665 145.641 92.0453 144.769 92.8589L146.134 94.3211ZM148.101 89.52C148.101 88.04 147.75 86.7257 146.982 85.642L145.35 86.798C145.829 87.4743 146.101 88.36 146.101 89.52H148.101ZM146.982 85.642C146.254 84.6141 145.145 83.6686 143.724 82.7857L142.668 84.4843C143.962 85.2881 144.832 86.0659 145.35 86.798L146.982 85.642ZM143.724 82.7857C142.344 81.928 140.566 80.9093 138.393 79.731L137.44 81.489C139.594 82.6574 141.335 83.6553 142.668 84.4843L143.724 82.7857ZM137.32 79.8075C135.813 80.9282 134.711 82.137 134.139 83.4574L135.974 84.2526C136.355 83.373 137.16 82.4185 138.513 81.4125L137.32 79.8075ZM134.128 83.4836C133.627 84.7361 133.396 86.2276 133.396 87.925H135.396C135.396 86.3958 135.606 85.1739 135.985 84.2264L134.128 83.4836Z" fill="black" mask="url(#path-5-outside-1_2541_53)"/>
</g>
<defs>
<filter id="filter0_bd_2541_53" x="124.511" y="56.1499" width="32.97" height="49.4001" filterUnits="userSpaceOnUse" color-interpolation-filters="sRGB">
<feFlood flood-opacity="0" result="BackgroundImageFix"/>
<feGaussianBlur in="BackgroundImageFix" stdDeviation="2"/>
<feComposite in2="SourceAlpha" operator="in" result="effect1_backgroundBlur_2541_53"/>
<feColorMatrix in="SourceAlpha" type="matrix" values="0 0 0 0 0 0 0 0 0 0 0 0 0 0 0 0 0 0 127 0" result="hardAlpha"/>
<feOffset dy="4"/>
<feGaussianBlur stdDeviation="2"/>
<feComposite in2="hardAlpha" operator="out"/>
<feColorMatrix type="matrix" values="0 0 0 0 0 0 0 0 0 0 0 0 0 0 0 0 0 0 0.25 0"/>
<feBlend mode="normal" in2="effect1_backgroundBlur_2541_53" result="effect2_dropShadow_2541_53"/>
<feBlend mode="normal" in="SourceGraphic" in2="effect2_dropShadow_2541_53" result="shape"/>
</filter>
</defs>
</svg>
