<svg width="281" height="158" viewBox="0 0 281 158" fill="none" xmlns="http://www.w3.org/2000/svg">
<g clip-path="url(#clip0_2541_74)">
<rect width="281" height="158" fill="#CD5742"/>
<path d="M23 0L23 186" stroke="#6A0404" stroke-width="20"/>
<path d="M63 0L63 186" stroke="#6A0404" stroke-width="20"/>
<path d="M103 -2L103 184" stroke="#6A0404" stroke-width="20"/>
<path d="M143 -1L143 185" stroke="#6A0404" stroke-width="20"/>
<path d="M183 -3L183 183" stroke="#6A0404" stroke-width="20"/>
<path d="M223 -2L223 184" stroke="#6A0404" stroke-width="20"/>
<path d="M263 -3V183" stroke="#6A0404" stroke-width="20"/>
<g filter="url(#filter0_bd_2541_74)">
<mask id="path-8-outside-1_2541_74" maskUnits="userSpaceOnUse" x="111" y="59" width="55" height="39" fill="black">
<rect fill="white" x="111" y="59" width="55" height="39"/>
<path d="M113.373 97V95.24C116.416 91.83 118.928 88.97 120.908 86.66C122.924 84.35 124.501 82.4067 125.638 80.83C126.811 79.2533 127.673 77.8783 128.223 76.705C128.773 75.5317 129.121 74.395 129.268 73.295C129.414 72.1583 129.488 70.8933 129.488 69.5C129.488 67.5567 129.011 65.9617 128.058 64.715C127.104 63.4683 125.803 62.845 124.153 62.845C120.413 62.845 118.543 64.9167 118.543 69.06V71.59L118.213 72.03H114.968C114.234 72.03 113.684 71.9017 113.318 71.645C112.951 71.3883 112.768 70.7467 112.768 69.72C112.768 68.6933 113.079 67.6667 113.703 66.64C114.363 65.5767 115.371 64.55 116.728 63.56C117.681 62.9 118.598 62.3133 119.478 61.8C120.358 61.2867 121.329 60.8833 122.393 60.59C123.493 60.2967 124.776 60.15 126.243 60.15C128.296 60.15 130.111 60.59 131.688 61.47C133.301 62.35 134.548 63.5233 135.428 64.99C136.344 66.4567 136.803 68.0883 136.803 69.885C136.803 71.0583 136.656 72.14 136.363 73.13C136.106 74.12 135.629 75.1467 134.933 76.21C134.236 77.2733 133.246 78.4833 131.963 79.84C130.716 81.1967 129.121 82.8283 127.178 84.735C125.234 86.605 122.851 88.86 120.028 91.5H133.998L137.023 86.11H137.903L137.353 97H113.373ZM148.25 97V96.12L153.365 94.085V66.64L144.015 71.04V68.95L157.545 60.7H160.02V94.085L164.585 96.12V97H148.25Z"/>
</mask>
<path d="M113.373 97V95.24C116.416 91.83 118.928 88.97 120.908 86.66C122.924 84.35 124.501 82.4067 125.638 80.83C126.811 79.2533 127.673 77.8783 128.223 76.705C128.773 75.5317 129.121 74.395 129.268 73.295C129.414 72.1583 129.488 70.8933 129.488 69.5C129.488 67.5567 129.011 65.9617 128.058 64.715C127.104 63.4683 125.803 62.845 124.153 62.845C120.413 62.845 118.543 64.9167 118.543 69.06V71.59L118.213 72.03H114.968C114.234 72.03 113.684 71.9017 113.318 71.645C112.951 71.3883 112.768 70.7467 112.768 69.72C112.768 68.6933 113.079 67.6667 113.703 66.64C114.363 65.5767 115.371 64.55 116.728 63.56C117.681 62.9 118.598 62.3133 119.478 61.8C120.358 61.2867 121.329 60.8833 122.393 60.59C123.493 60.2967 124.776 60.15 126.243 60.15C128.296 60.15 130.111 60.59 131.688 61.47C133.301 62.35 134.548 63.5233 135.428 64.99C136.344 66.4567 136.803 68.0883 136.803 69.885C136.803 71.0583 136.656 72.14 136.363 73.13C136.106 74.12 135.629 75.1467 134.933 76.21C134.236 77.2733 133.246 78.4833 131.963 79.84C130.716 81.1967 129.121 82.8283 127.178 84.735C125.234 86.605 122.851 88.86 120.028 91.5H133.998L137.023 86.11H137.903L137.353 97H113.373ZM148.25 97V96.12L153.365 94.085V66.64L144.015 71.04V68.95L157.545 60.7H160.02V94.085L164.585 96.12V97H148.25Z" fill="white"/>
<path d="M113.373 97H112.373V98H113.373V97ZM113.373 95.24L112.627 94.5741L112.373 94.8587V95.24H113.373ZM120.908 86.66L120.154 86.0023L120.148 86.0092L120.908 86.66ZM125.638 80.83L124.835 80.233L124.831 80.2391L124.827 80.2452L125.638 80.83ZM128.223 76.705L129.128 77.1294L128.223 76.705ZM129.268 73.295L130.259 73.4272L130.259 73.423L129.268 73.295ZM128.058 64.715L127.263 65.3224L127.263 65.3225L128.058 64.715ZM118.543 71.59L119.343 72.19L119.543 71.9233V71.59H118.543ZM118.213 72.03V73.03H118.713L119.013 72.63L118.213 72.03ZM113.703 66.64L112.853 66.1126L112.848 66.121L113.703 66.64ZM116.728 63.56L116.158 62.7378L116.148 62.7449L116.138 62.7522L116.728 63.56ZM119.478 61.8L118.974 60.9362H118.974L119.478 61.8ZM122.393 60.59L122.135 59.6237L122.127 59.626L122.393 60.59ZM131.688 61.47L131.2 62.3432L131.209 62.3479L131.688 61.47ZM135.428 64.99L134.57 65.5045L134.575 65.5123L134.58 65.52L135.428 64.99ZM136.363 73.13L135.404 72.8459L135.399 72.8624L135.395 72.879L136.363 73.13ZM134.933 76.21L135.769 76.758L134.933 76.21ZM131.963 79.84L131.236 79.1528L131.231 79.1581L131.226 79.1634L131.963 79.84ZM127.178 84.735L127.871 85.4556L127.878 85.4488L127.178 84.735ZM120.028 91.5L119.345 90.7696L117.494 92.5H120.028V91.5ZM133.998 91.5V92.5H134.583L134.87 91.9894L133.998 91.5ZM137.023 86.11V85.11H136.437L136.151 85.6206L137.023 86.11ZM137.903 86.11L138.901 86.1604L138.954 85.11H137.903V86.11ZM137.353 97V98H138.303L138.351 97.0504L137.353 97ZM114.373 97V95.24H112.373V97H114.373ZM114.119 95.9059C117.165 92.4931 119.681 89.6277 121.667 87.3108L120.148 86.0092C118.174 88.3123 115.667 91.1669 112.627 94.5741L114.119 95.9059ZM121.661 87.3177C123.688 84.996 125.287 83.0267 126.449 81.4148L124.827 80.2452C123.715 81.7867 122.161 83.704 120.154 86.0023L121.661 87.3177ZM126.44 81.427C127.635 79.821 128.539 78.3862 129.128 77.1294L127.317 76.2806C126.806 77.3705 125.987 78.6856 124.835 80.233L126.44 81.427ZM129.128 77.1294C129.714 75.8788 130.097 74.6437 130.259 73.4272L128.276 73.1628C128.145 74.1463 127.831 75.1846 127.317 76.2806L129.128 77.1294ZM130.259 73.423C130.413 72.236 130.488 70.9274 130.488 69.5H128.488C128.488 70.8593 128.416 72.0807 128.276 73.167L130.259 73.423ZM130.488 69.5C130.488 67.3905 129.968 65.5668 128.852 64.1075L127.263 65.3225C128.054 66.3566 128.488 67.7228 128.488 69.5H130.488ZM128.852 64.1075C127.698 62.599 126.096 61.845 124.153 61.845V63.845C125.51 63.845 126.51 64.3376 127.263 65.3224L128.852 64.1075ZM124.153 61.845C122.101 61.845 120.386 62.418 119.203 63.7287C118.037 65.0199 117.543 66.858 117.543 69.06H119.543C119.543 67.1186 119.983 65.8493 120.688 65.0688C121.374 64.3078 122.465 63.845 124.153 63.845V61.845ZM117.543 69.06V71.59H119.543V69.06H117.543ZM117.743 70.99L117.413 71.43L119.013 72.63L119.343 72.19L117.743 70.99ZM118.213 71.03H114.968V73.03H118.213V71.03ZM114.968 71.03C114.32 71.03 114.013 70.9112 113.891 70.8258L112.744 72.4642C113.356 72.8922 114.148 73.03 114.968 73.03V71.03ZM113.891 70.8258C113.969 70.8801 113.925 70.9009 113.867 70.6965C113.81 70.4994 113.768 70.1846 113.768 69.72H111.768C111.768 70.282 111.817 70.8014 111.944 71.246C112.069 71.6832 112.3 72.1533 112.744 72.4642L113.891 70.8258ZM113.768 69.72C113.768 68.9055 114.013 68.0561 114.557 67.159L112.848 66.121C112.146 67.2772 111.768 68.4812 111.768 69.72H113.768ZM114.552 67.1674C115.126 66.2438 116.031 65.3064 117.317 64.3678L116.138 62.7522C114.711 63.7936 113.6 64.9095 112.853 66.1126L114.552 67.1674ZM117.297 64.3822C118.232 63.7349 119.127 63.1625 119.982 62.6638L118.974 60.9362C118.069 61.4642 117.13 62.0651 116.158 62.7378L117.297 64.3822ZM119.982 62.6638C120.781 62.1974 121.672 61.8262 122.659 61.554L122.127 59.626C120.987 59.9404 119.934 60.3759 118.974 60.9362L119.982 62.6638ZM122.65 61.5562C123.646 61.2907 124.839 61.15 126.243 61.15V59.15C124.713 59.15 123.339 59.3027 122.135 59.6238L122.65 61.5562ZM126.243 61.15C128.149 61.15 129.792 61.5572 131.2 62.3432L132.175 60.5968C130.43 59.6228 128.443 59.15 126.243 59.15V61.15ZM131.209 62.3479C132.678 63.1492 133.789 64.2019 134.57 65.5045L136.285 64.4755C135.307 62.8448 133.924 61.5508 132.167 60.5921L131.209 62.3479ZM134.58 65.52C135.393 66.8214 135.803 68.2681 135.803 69.885H137.803C137.803 67.9086 137.296 66.092 136.276 64.46L134.58 65.52ZM135.803 69.885C135.803 70.975 135.666 71.9597 135.404 72.8459L137.321 73.4141C137.646 72.3203 137.803 71.1416 137.803 69.885H135.803ZM135.395 72.879C135.171 73.7414 134.747 74.6686 134.096 75.662L135.769 76.758C136.512 75.6247 137.041 74.4986 137.331 73.381L135.395 72.879ZM134.096 75.662C133.443 76.6586 132.496 77.8212 131.236 79.1528L132.689 80.5272C133.996 79.1455 135.029 77.8881 135.769 76.758L134.096 75.662ZM131.226 79.1634C129.995 80.5029 128.414 82.1215 126.477 84.0212L127.878 85.4488C129.828 83.5352 131.437 81.8904 132.699 80.5166L131.226 79.1634ZM126.484 84.0144C124.546 85.88 122.166 88.1316 119.345 90.7696L120.711 92.2304C123.536 89.5884 125.923 87.33 127.871 85.4556L126.484 84.0144ZM120.028 92.5H133.998V90.5H120.028V92.5ZM134.87 91.9894L137.895 86.5994L136.151 85.6206L133.126 91.0106L134.87 91.9894ZM137.023 87.11H137.903V85.11H137.023V87.11ZM136.904 86.0596L136.354 96.9496L138.351 97.0504L138.901 86.1604L136.904 86.0596ZM137.353 96H113.373V98H137.353V96ZM148.25 97H147.25V98H148.25V97ZM148.25 96.12L147.88 95.1908L147.25 95.4416V96.12H148.25ZM153.365 94.085L153.735 95.0142L154.365 94.7634V94.085H153.365ZM153.365 66.64H154.365V65.0642L152.939 65.7352L153.365 66.64ZM144.015 71.04H143.015V72.6158L144.441 71.9448L144.015 71.04ZM144.015 68.95L143.494 68.0962L143.015 68.3885V68.95H144.015ZM157.545 60.7V59.7H157.264L157.024 59.8462L157.545 60.7ZM160.02 60.7H161.02V59.7H160.02V60.7ZM160.02 94.085H159.02V94.7341L159.613 94.9984L160.02 94.085ZM164.585 96.12H165.585V95.4709L164.992 95.2066L164.585 96.12ZM164.585 97V98H165.585V97H164.585ZM149.25 97V96.12H147.25V97H149.25ZM148.62 97.0492L153.735 95.0142L152.995 93.1558L147.88 95.1908L148.62 97.0492ZM154.365 94.085V66.64H152.365V94.085H154.365ZM152.939 65.7352L143.589 70.1352L144.441 71.9448L153.791 67.5448L152.939 65.7352ZM145.015 71.04V68.95H143.015V71.04H145.015ZM144.536 69.8038L158.066 61.5538L157.024 59.8462L143.494 68.0962L144.536 69.8038ZM157.545 61.7H160.02V59.7H157.545V61.7ZM159.02 60.7V94.085H161.02V60.7H159.02ZM159.613 94.9984L164.178 97.0334L164.992 95.2066L160.427 93.1716L159.613 94.9984ZM163.585 96.12V97H165.585V96.12H163.585ZM164.585 96H148.25V98H164.585V96Z" fill="black" mask="url(#path-8-outside-1_2541_74)"/>
</g>
</g>
<defs>
<filter id="filter0_bd_2541_74" x="108.768" y="56.15" width="59.8173" height="48.85" filterUnits="userSpaceOnUse" color-interpolation-filters="sRGB">
<feFlood flood-opacity="0" result="BackgroundImageFix"/>
<feGaussianBlur in="BackgroundImageFix" stdDeviation="2"/>
<feComposite in2="SourceAlpha" operator="in" result="effect1_backgroundBlur_2541_74"/>
<feColorMatrix in="SourceAlpha" type="matrix" values="0 0 0 0 0 0 0 0 0 0 0 0 0 0 0 0 0 0 127 0" result="hardAlpha"/>
<feOffset dy="4"/>
<feGaussianBlur stdDeviation="2"/>
<feComposite in2="hardAlpha" operator="out"/>
<feColorMatrix type="matrix" values="0 0 0 0 0 0 0 0 0 0 0 0 0 0 0 0 0 0 0.25 0"/>
<feBlend mode="normal" in2="effect1_backgroundBlur_2541_74" result="effect2_dropShadow_2541_74"/>
<feBlend mode="normal" in="SourceGraphic" in2="effect2_dropShadow_2541_74" result="shape"/>
</filter>
<clipPath id="clip0_2541_74">
<rect width="281" height="158" fill="white"/>
</clipPath>
</defs>
</svg>
