<svg width="281" height="158" viewBox="0 0 281 158" fill="none" xmlns="http://www.w3.org/2000/svg">
<rect width="281" height="158" fill="#CD5742"/>
<rect x="77" y="46" width="127" height="66" fill="#6A0404"/>
<rect x="138" y="46" width="4" height="66" fill="#F2A395"/>
<rect x="77" y="77" width="127" height="4" fill="#F2A395"/>
<g filter="url(#filter0_bd_2541_71)">
<mask id="path-4-outside-1_2541_71" maskUnits="userSpaceOnUse" x="112" y="59" width="59" height="39" fill="black">
<rect fill="white" x="112" y="59" width="59" height="39"/>
<path d="M114.373 97V95.24C117.416 91.83 119.928 88.97 121.908 86.66C123.924 84.35 125.501 82.4067 126.638 80.83C127.811 79.2533 128.673 77.8783 129.223 76.705C129.773 75.5317 130.121 74.395 130.268 73.295C130.414 72.1583 130.488 70.8933 130.488 69.5C130.488 67.5567 130.011 65.9617 129.058 64.715C128.104 63.4683 126.803 62.845 125.153 62.845C121.413 62.845 119.543 64.9167 119.543 69.06V71.59L119.213 72.03H115.968C115.234 72.03 114.684 71.9017 114.318 71.645C113.951 71.3883 113.768 70.7467 113.768 69.72C113.768 68.6933 114.079 67.6667 114.703 66.64C115.363 65.5767 116.371 64.55 117.728 63.56C118.681 62.9 119.598 62.3133 120.478 61.8C121.358 61.2867 122.329 60.8833 123.393 60.59C124.493 60.2967 125.776 60.15 127.243 60.15C129.296 60.15 131.111 60.59 132.688 61.47C134.301 62.35 135.548 63.5233 136.428 64.99C137.344 66.4567 137.803 68.0883 137.803 69.885C137.803 71.0583 137.656 72.14 137.363 73.13C137.106 74.12 136.629 75.1467 135.933 76.21C135.236 77.2733 134.246 78.4833 132.963 79.84C131.716 81.1967 130.121 82.8283 128.178 84.735C126.234 86.605 123.851 88.86 121.028 91.5H134.998L138.023 86.11H138.903L138.353 97H114.373ZM151.45 97V96.12L156.62 94.085V86.99H141.66V85.56L160.745 60.7H163.22V82.92H169.765V86.99H163.22V94.085L167.84 96.12V97H151.45ZM146.94 82.92H156.62V69.94L146.94 82.92Z"/>
</mask>
<path d="M114.373 97V95.24C117.416 91.83 119.928 88.97 121.908 86.66C123.924 84.35 125.501 82.4067 126.638 80.83C127.811 79.2533 128.673 77.8783 129.223 76.705C129.773 75.5317 130.121 74.395 130.268 73.295C130.414 72.1583 130.488 70.8933 130.488 69.5C130.488 67.5567 130.011 65.9617 129.058 64.715C128.104 63.4683 126.803 62.845 125.153 62.845C121.413 62.845 119.543 64.9167 119.543 69.06V71.59L119.213 72.03H115.968C115.234 72.03 114.684 71.9017 114.318 71.645C113.951 71.3883 113.768 70.7467 113.768 69.72C113.768 68.6933 114.079 67.6667 114.703 66.64C115.363 65.5767 116.371 64.55 117.728 63.56C118.681 62.9 119.598 62.3133 120.478 61.8C121.358 61.2867 122.329 60.8833 123.393 60.59C124.493 60.2967 125.776 60.15 127.243 60.15C129.296 60.15 131.111 60.59 132.688 61.47C134.301 62.35 135.548 63.5233 136.428 64.99C137.344 66.4567 137.803 68.0883 137.803 69.885C137.803 71.0583 137.656 72.14 137.363 73.13C137.106 74.12 136.629 75.1467 135.933 76.21C135.236 77.2733 134.246 78.4833 132.963 79.84C131.716 81.1967 130.121 82.8283 128.178 84.735C126.234 86.605 123.851 88.86 121.028 91.5H134.998L138.023 86.11H138.903L138.353 97H114.373ZM151.45 97V96.12L156.62 94.085V86.99H141.66V85.56L160.745 60.7H163.22V82.92H169.765V86.99H163.22V94.085L167.84 96.12V97H151.45ZM146.94 82.92H156.62V69.94L146.94 82.92Z" fill="white"/>
<path d="M114.373 97H113.373V98H114.373V97ZM114.373 95.24L113.627 94.5741L113.373 94.8587V95.24H114.373ZM121.908 86.66L121.154 86.0023L121.148 86.0092L121.908 86.66ZM126.638 80.83L125.835 80.233L125.831 80.2391L125.827 80.2452L126.638 80.83ZM129.223 76.705L130.128 77.1294L129.223 76.705ZM130.268 73.295L131.259 73.4272L131.259 73.423L130.268 73.295ZM129.058 64.715L128.263 65.3224L128.263 65.3225L129.058 64.715ZM119.543 71.59L120.343 72.19L120.543 71.9233V71.59H119.543ZM119.213 72.03V73.03H119.713L120.013 72.63L119.213 72.03ZM114.703 66.64L113.853 66.1126L113.848 66.121L114.703 66.64ZM117.728 63.56L117.158 62.7378L117.148 62.7449L117.138 62.7522L117.728 63.56ZM120.478 61.8L119.974 60.9362H119.974L120.478 61.8ZM123.393 60.59L123.135 59.6237L123.127 59.626L123.393 60.59ZM132.688 61.47L132.2 62.3432L132.209 62.3479L132.688 61.47ZM136.428 64.99L135.57 65.5045L135.575 65.5123L135.58 65.52L136.428 64.99ZM137.363 73.13L136.404 72.8459L136.399 72.8624L136.395 72.879L137.363 73.13ZM135.933 76.21L136.769 76.758L135.933 76.21ZM132.963 79.84L132.236 79.1528L132.231 79.1581L132.226 79.1634L132.963 79.84ZM128.178 84.735L128.871 85.4556L128.878 85.4488L128.178 84.735ZM121.028 91.5L120.345 90.7696L118.494 92.5H121.028V91.5ZM134.998 91.5V92.5H135.583L135.87 91.9894L134.998 91.5ZM138.023 86.11V85.11H137.437L137.151 85.6206L138.023 86.11ZM138.903 86.11L139.901 86.1604L139.954 85.11H138.903V86.11ZM138.353 97V98H139.303L139.351 97.0504L138.353 97ZM115.373 97V95.24H113.373V97H115.373ZM115.119 95.9059C118.165 92.4931 120.681 89.6277 122.667 87.3108L121.148 86.0092C119.174 88.3123 116.667 91.1669 113.627 94.5741L115.119 95.9059ZM122.661 87.3177C124.688 84.996 126.287 83.0267 127.449 81.4148L125.827 80.2452C124.715 81.7867 123.161 83.704 121.154 86.0023L122.661 87.3177ZM127.44 81.427C128.635 79.821 129.539 78.3862 130.128 77.1294L128.317 76.2806C127.806 77.3705 126.987 78.6856 125.835 80.233L127.44 81.427ZM130.128 77.1294C130.714 75.8788 131.097 74.6437 131.259 73.4272L129.276 73.1628C129.145 74.1463 128.831 75.1846 128.317 76.2806L130.128 77.1294ZM131.259 73.423C131.413 72.236 131.488 70.9274 131.488 69.5H129.488C129.488 70.8593 129.416 72.0807 129.276 73.167L131.259 73.423ZM131.488 69.5C131.488 67.3905 130.968 65.5668 129.852 64.1075L128.263 65.3225C129.054 66.3566 129.488 67.7228 129.488 69.5H131.488ZM129.852 64.1075C128.698 62.599 127.096 61.845 125.153 61.845V63.845C126.51 63.845 127.51 64.3376 128.263 65.3224L129.852 64.1075ZM125.153 61.845C123.101 61.845 121.386 62.418 120.203 63.7287C119.037 65.0199 118.543 66.858 118.543 69.06H120.543C120.543 67.1186 120.983 65.8493 121.688 65.0688C122.374 64.3078 123.465 63.845 125.153 63.845V61.845ZM118.543 69.06V71.59H120.543V69.06H118.543ZM118.743 70.99L118.413 71.43L120.013 72.63L120.343 72.19L118.743 70.99ZM119.213 71.03H115.968V73.03H119.213V71.03ZM115.968 71.03C115.32 71.03 115.013 70.9112 114.891 70.8258L113.744 72.4642C114.356 72.8922 115.148 73.03 115.968 73.03V71.03ZM114.891 70.8258C114.969 70.8801 114.925 70.9009 114.867 70.6965C114.81 70.4994 114.768 70.1846 114.768 69.72H112.768C112.768 70.282 112.817 70.8014 112.944 71.246C113.069 71.6832 113.3 72.1533 113.744 72.4642L114.891 70.8258ZM114.768 69.72C114.768 68.9055 115.013 68.0561 115.557 67.159L113.848 66.121C113.146 67.2772 112.768 68.4812 112.768 69.72H114.768ZM115.552 67.1674C116.126 66.2438 117.031 65.3064 118.317 64.3678L117.138 62.7522C115.711 63.7936 114.6 64.9095 113.853 66.1126L115.552 67.1674ZM118.297 64.3822C119.232 63.7349 120.127 63.1625 120.982 62.6638L119.974 60.9362C119.069 61.4642 118.13 62.0651 117.158 62.7378L118.297 64.3822ZM120.982 62.6638C121.781 62.1974 122.672 61.8262 123.659 61.554L123.127 59.626C121.987 59.9404 120.934 60.3759 119.974 60.9362L120.982 62.6638ZM123.65 61.5562C124.646 61.2907 125.839 61.15 127.243 61.15V59.15C125.713 59.15 124.339 59.3027 123.135 59.6238L123.65 61.5562ZM127.243 61.15C129.149 61.15 130.792 61.5572 132.2 62.3432L133.175 60.5968C131.43 59.6228 129.443 59.15 127.243 59.15V61.15ZM132.209 62.3479C133.678 63.1492 134.789 64.2019 135.57 65.5045L137.285 64.4755C136.307 62.8448 134.924 61.5508 133.167 60.5921L132.209 62.3479ZM135.58 65.52C136.393 66.8214 136.803 68.2681 136.803 69.885H138.803C138.803 67.9086 138.296 66.092 137.276 64.46L135.58 65.52ZM136.803 69.885C136.803 70.975 136.666 71.9597 136.404 72.8459L138.321 73.4141C138.646 72.3203 138.803 71.1416 138.803 69.885H136.803ZM136.395 72.879C136.171 73.7414 135.747 74.6686 135.096 75.662L136.769 76.758C137.512 75.6247 138.041 74.4986 138.331 73.381L136.395 72.879ZM135.096 75.662C134.443 76.6586 133.496 77.8212 132.236 79.1528L133.689 80.5272C134.996 79.1455 136.029 77.8881 136.769 76.758L135.096 75.662ZM132.226 79.1634C130.995 80.5029 129.414 82.1215 127.477 84.0212L128.878 85.4488C130.828 83.5352 132.437 81.8904 133.699 80.5166L132.226 79.1634ZM127.484 84.0144C125.546 85.88 123.166 88.1316 120.345 90.7696L121.711 92.2304C124.536 89.5884 126.923 87.33 128.871 85.4556L127.484 84.0144ZM121.028 92.5H134.998V90.5H121.028V92.5ZM135.87 91.9894L138.895 86.5994L137.151 85.6206L134.126 91.0106L135.87 91.9894ZM138.023 87.11H138.903V85.11H138.023V87.11ZM137.904 86.0596L137.354 96.9496L139.351 97.0504L139.901 86.1604L137.904 86.0596ZM138.353 96H114.373V98H138.353V96ZM151.45 97H150.45V98H151.45V97ZM151.45 96.12L151.084 95.1895L150.45 95.4389V96.12H151.45ZM156.62 94.085L156.986 95.0155L157.62 94.7661V94.085H156.62ZM156.62 86.99H157.62V85.99H156.62V86.99ZM141.66 86.99H140.66V87.99H141.66V86.99ZM141.66 85.56L140.867 84.9511L140.66 85.2204V85.56H141.66ZM160.745 60.7V59.7H160.252L159.952 60.0911L160.745 60.7ZM163.22 60.7H164.22V59.7H163.22V60.7ZM163.22 82.92H162.22V83.92H163.22V82.92ZM169.765 82.92H170.765V81.92H169.765V82.92ZM169.765 86.99V87.99H170.765V86.99H169.765ZM163.22 86.99V85.99H162.22V86.99H163.22ZM163.22 94.085H162.22V94.7372L162.817 95.0002L163.22 94.085ZM167.84 96.12H168.84V95.4678L168.243 95.2048L167.84 96.12ZM167.84 97V98H168.84V97H167.84ZM146.94 82.92L146.138 82.3222L144.947 83.92H146.94V82.92ZM156.62 82.92V83.92H157.62V82.92H156.62ZM156.62 69.94H157.62V66.9264L155.818 69.3422L156.62 69.94ZM152.45 97V96.12H150.45V97H152.45ZM151.816 97.0505L156.986 95.0155L156.254 93.1545L151.084 95.1895L151.816 97.0505ZM157.62 94.085V86.99H155.62V94.085H157.62ZM156.62 85.99H141.66V87.99H156.62V85.99ZM142.66 86.99V85.56H140.66V86.99H142.66ZM142.453 86.1689L161.538 61.3089L159.952 60.0911L140.867 84.9511L142.453 86.1689ZM160.745 61.7H163.22V59.7H160.745V61.7ZM162.22 60.7V82.92H164.22V60.7H162.22ZM163.22 83.92H169.765V81.92H163.22V83.92ZM168.765 82.92V86.99H170.765V82.92H168.765ZM169.765 85.99H163.22V87.99H169.765V85.99ZM162.22 86.99V94.085H164.22V86.99H162.22ZM162.817 95.0002L167.437 97.0352L168.243 95.2048L163.623 93.1698L162.817 95.0002ZM166.84 96.12V97H168.84V96.12H166.84ZM167.84 96H151.45V98H167.84V96ZM146.94 83.92H156.62V81.92H146.94V83.92ZM157.62 82.92V69.94H155.62V82.92H157.62ZM155.818 69.3422L146.138 82.3222L147.742 83.5178L157.422 70.5378L155.818 69.3422Z" fill="black" mask="url(#path-4-outside-1_2541_71)"/>
</g>
<defs>
<filter id="filter0_bd_2541_71" x="109.768" y="56.15" width="63.9973" height="48.85" filterUnits="userSpaceOnUse" color-interpolation-filters="sRGB">
<feFlood flood-opacity="0" result="BackgroundImageFix"/>
<feGaussianBlur in="BackgroundImageFix" stdDeviation="2"/>
<feComposite in2="SourceAlpha" operator="in" result="effect1_backgroundBlur_2541_71"/>
<feColorMatrix in="SourceAlpha" type="matrix" values="0 0 0 0 0 0 0 0 0 0 0 0 0 0 0 0 0 0 127 0" result="hardAlpha"/>
<feOffset dy="4"/>
<feGaussianBlur stdDeviation="2"/>
<feComposite in2="hardAlpha" operator="out"/>
<feColorMatrix type="matrix" values="0 0 0 0 0 0 0 0 0 0 0 0 0 0 0 0 0 0 0.25 0"/>
<feBlend mode="normal" in2="effect1_backgroundBlur_2541_71" result="effect2_dropShadow_2541_71"/>
<feBlend mode="normal" in="SourceGraphic" in2="effect2_dropShadow_2541_71" result="shape"/>
</filter>
</defs>
</svg>
