<svg width="281" height="158" viewBox="0 0 281 158" fill="none" xmlns="http://www.w3.org/2000/svg">
<rect width="281" height="158" fill="#CD5742"/>
<circle cx="140" cy="79" r="35" fill="#6A0404"/>
<rect x="127" y="37" width="25" height="18" fill="#6A0404"/>
<path d="M146.5 38.5C146.5 42.9957 143.067 46.5 139 46.5C134.933 46.5 131.5 42.9957 131.5 38.5C131.5 34.0043 134.933 30.5 139 30.5C143.067 30.5 146.5 34.0043 146.5 38.5Z" stroke="#6A0404" stroke-width="3"/>
<rect x="138" width="2" height="30" fill="#6A0404"/>
<g filter="url(#filter0_bd_2541_59)">
<mask id="path-5-outside-1_2541_59" maskUnits="userSpaceOnUse" x="111" y="59" width="57" height="39" fill="black">
<rect fill="white" x="111" y="59" width="57" height="39"/>
<path d="M116.763 97V96.12L121.878 94.085V66.64L112.528 71.04V68.95L126.058 60.7H128.533V94.085L133.098 96.12V97H116.763ZM148.45 97V96.12L153.62 94.085V86.99H138.66V85.56L157.745 60.7H160.22V82.92H166.765V86.99H160.22V94.085L164.84 96.12V97H148.45ZM143.94 82.92H153.62V69.94L143.94 82.92Z"/>
</mask>
<path d="M116.763 97V96.12L121.878 94.085V66.64L112.528 71.04V68.95L126.058 60.7H128.533V94.085L133.098 96.12V97H116.763ZM148.45 97V96.12L153.62 94.085V86.99H138.66V85.56L157.745 60.7H160.22V82.92H166.765V86.99H160.22V94.085L164.84 96.12V97H148.45ZM143.94 82.92H153.62V69.94L143.94 82.92Z" fill="white"/>
<path d="M116.763 97H115.763V98H116.763V97ZM116.763 96.12L116.393 95.1908L115.763 95.4416V96.12H116.763ZM121.878 94.085L122.247 95.0142L122.878 94.7634V94.085H121.878ZM121.878 66.64H122.878V65.0642L121.452 65.7352L121.878 66.64ZM112.528 71.04H111.528V72.6158L112.953 71.9448L112.528 71.04ZM112.528 68.95L112.007 68.0962L111.528 68.3885V68.95H112.528ZM126.058 60.7V59.7H125.777L125.537 59.8462L126.058 60.7ZM128.533 60.7H129.533V59.7H128.533V60.7ZM128.533 94.085H127.533V94.7341L128.126 94.9984L128.533 94.085ZM133.098 96.12H134.098V95.4709L133.505 95.2066L133.098 96.12ZM133.098 97V98H134.098V97H133.098ZM117.763 97V96.12H115.763V97H117.763ZM117.132 97.0492L122.247 95.0142L121.508 93.1558L116.393 95.1908L117.132 97.0492ZM122.878 94.085V66.64H120.878V94.085H122.878ZM121.452 65.7352L112.102 70.1352L112.953 71.9448L122.303 67.5448L121.452 65.7352ZM113.528 71.04V68.95H111.528V71.04H113.528ZM113.048 69.8038L126.578 61.5538L125.537 59.8462L112.007 68.0962L113.048 69.8038ZM126.058 61.7H128.533V59.7H126.058V61.7ZM127.533 60.7V94.085H129.533V60.7H127.533ZM128.126 94.9984L132.691 97.0334L133.505 95.2066L128.94 93.1716L128.126 94.9984ZM132.098 96.12V97H134.098V96.12H132.098ZM133.098 96H116.763V98H133.098V96ZM148.45 97H147.45V98H148.45V97ZM148.45 96.12L148.084 95.1895L147.45 95.4389V96.12H148.45ZM153.62 94.085L153.986 95.0155L154.62 94.7661V94.085H153.62ZM153.62 86.99H154.62V85.99H153.62V86.99ZM138.66 86.99H137.66V87.99H138.66V86.99ZM138.66 85.56L137.867 84.9511L137.66 85.2204V85.56H138.66ZM157.745 60.7V59.7H157.252L156.952 60.0911L157.745 60.7ZM160.22 60.7H161.22V59.7H160.22V60.7ZM160.22 82.92H159.22V83.92H160.22V82.92ZM166.765 82.92H167.765V81.92H166.765V82.92ZM166.765 86.99V87.99H167.765V86.99H166.765ZM160.22 86.99V85.99H159.22V86.99H160.22ZM160.22 94.085H159.22V94.7372L159.817 95.0002L160.22 94.085ZM164.84 96.12H165.84V95.4678L165.243 95.2048L164.84 96.12ZM164.84 97V98H165.84V97H164.84ZM143.94 82.92L143.138 82.3222L141.947 83.92H143.94V82.92ZM153.62 82.92V83.92H154.62V82.92H153.62ZM153.62 69.94H154.62V66.9264L152.818 69.3422L153.62 69.94ZM149.45 97V96.12H147.45V97H149.45ZM148.816 97.0505L153.986 95.0155L153.254 93.1545L148.084 95.1895L148.816 97.0505ZM154.62 94.085V86.99H152.62V94.085H154.62ZM153.62 85.99H138.66V87.99H153.62V85.99ZM139.66 86.99V85.56H137.66V86.99H139.66ZM139.453 86.1689L158.538 61.3089L156.952 60.0911L137.867 84.9511L139.453 86.1689ZM157.745 61.7H160.22V59.7H157.745V61.7ZM159.22 60.7V82.92H161.22V60.7H159.22ZM160.22 83.92H166.765V81.92H160.22V83.92ZM165.765 82.92V86.99H167.765V82.92H165.765ZM166.765 85.99H160.22V87.99H166.765V85.99ZM159.22 86.99V94.085H161.22V86.99H159.22ZM159.817 95.0002L164.437 97.0352L165.243 95.2048L160.623 93.1698L159.817 95.0002ZM163.84 96.12V97H165.84V96.12H163.84ZM164.84 96H148.45V98H164.84V96ZM143.94 83.92H153.62V81.92H143.94V83.92ZM154.62 82.92V69.94H152.62V82.92H154.62ZM152.818 69.3422L143.138 82.3222L144.742 83.5178L154.422 70.5378L152.818 69.3422Z" fill="black" mask="url(#path-5-outside-1_2541_59)"/>
</g>
<defs>
<filter id="filter0_bd_2541_59" x="108.528" y="56.7" width="62.2373" height="48.3" filterUnits="userSpaceOnUse" color-interpolation-filters="sRGB">
<feFlood flood-opacity="0" result="BackgroundImageFix"/>
<feGaussianBlur in="BackgroundImageFix" stdDeviation="2"/>
<feComposite in2="SourceAlpha" operator="in" result="effect1_backgroundBlur_2541_59"/>
<feColorMatrix in="SourceAlpha" type="matrix" values="0 0 0 0 0 0 0 0 0 0 0 0 0 0 0 0 0 0 127 0" result="hardAlpha"/>
<feOffset dy="4"/>
<feGaussianBlur stdDeviation="2"/>
<feComposite in2="hardAlpha" operator="out"/>
<feColorMatrix type="matrix" values="0 0 0 0 0 0 0 0 0 0 0 0 0 0 0 0 0 0 0.25 0"/>
<feBlend mode="normal" in2="effect1_backgroundBlur_2541_59" result="effect2_dropShadow_2541_59"/>
<feBlend mode="normal" in="SourceGraphic" in2="effect2_dropShadow_2541_59" result="shape"/>
</filter>
</defs>
</svg>
