<svg width="281" height="158" viewBox="0 0 281 158" fill="none" xmlns="http://www.w3.org/2000/svg">
<rect width="281" height="158" fill="#CD5742"/>
<circle cx="34" cy="41" r="15" fill="#6A0404"/>
<circle cx="60" cy="131" r="15" fill="#F2A395"/>
<circle cx="192" cy="71" r="15" fill="#F2A395"/>
<circle cx="212" cy="31" r="10" fill="#F2A395"/>
<circle cx="151" cy="46" r="10" fill="#F2A395"/>
<circle cx="212" cy="126" r="10" fill="#6A0404"/>
<circle cx="141" cy="121" r="10" fill="#6A0404"/>
<circle cx="85" cy="79" r="10" fill="#F2A395"/>
<circle cx="24" cy="86" r="5" fill="#6A0404"/>
<circle cx="54" cy="61" r="5" fill="#F2A395"/>
<circle cx="100" cy="136" r="5" fill="#F2A395"/>
<circle cx="124" cy="51" r="5" fill="#F2A395"/>
<circle cx="177" cy="116" r="5" fill="#F2A395"/>
<circle cx="243" cy="26" r="5" fill="#F2A395"/>
<circle cx="258" cy="136" r="5" fill="#F2A395"/>
<circle cx="141" cy="21" r="5" fill="#6A0404"/>
<g filter="url(#filter0_bd_2541_60)">
<mask id="path-17-outside-1_2541_60" maskUnits="userSpaceOnUse" x="114" y="59" width="55" height="40" fill="black">
<rect fill="white" x="114" y="59" width="55" height="40"/>
<path d="M119.763 97V96.12L124.878 94.085V66.64L115.528 71.04V68.95L129.058 60.7H131.533V94.085L136.098 96.12V97H119.763ZM152.825 97.55C150.845 97.55 149.14 97.3117 147.71 96.835C146.317 96.3217 145.272 95.5883 144.575 94.635C144.282 94.305 144.135 93.9383 144.135 93.535C144.135 93.0583 144.465 92.5633 145.125 92.05L147.6 90.125H148.26L148.865 91.28C149.452 92.4167 150.185 93.315 151.065 93.975C151.945 94.635 153.118 94.965 154.585 94.965C156.565 94.965 158.197 94.25 159.48 92.82C160.8 91.3533 161.46 89.4283 161.46 87.045C161.46 85.395 161.13 83.9467 160.47 82.7C159.81 81.4167 158.71 80.4083 157.17 79.675C155.667 78.9417 153.65 78.575 151.12 78.575C150.277 78.575 149.433 78.63 148.59 78.74C147.747 78.8133 146.83 78.9233 145.84 79.07V60.7H164.595V65.705H148.645V73.185C149.232 73.1483 149.837 73.1117 150.46 73.075C151.083 73.0383 151.762 73.02 152.495 73.02C156.052 73.02 158.912 73.5517 161.075 74.615C163.275 75.6783 164.87 77.0717 165.86 78.795C166.887 80.5183 167.4 82.4067 167.4 84.46C167.4 87.0267 166.777 89.3 165.53 91.28C164.283 93.26 162.56 94.8 160.36 95.9C158.16 97 155.648 97.55 152.825 97.55Z"/>
</mask>
<path d="M119.763 97V96.12L124.878 94.085V66.64L115.528 71.04V68.95L129.058 60.7H131.533V94.085L136.098 96.12V97H119.763ZM152.825 97.55C150.845 97.55 149.14 97.3117 147.71 96.835C146.317 96.3217 145.272 95.5883 144.575 94.635C144.282 94.305 144.135 93.9383 144.135 93.535C144.135 93.0583 144.465 92.5633 145.125 92.05L147.6 90.125H148.26L148.865 91.28C149.452 92.4167 150.185 93.315 151.065 93.975C151.945 94.635 153.118 94.965 154.585 94.965C156.565 94.965 158.197 94.25 159.48 92.82C160.8 91.3533 161.46 89.4283 161.46 87.045C161.46 85.395 161.13 83.9467 160.47 82.7C159.81 81.4167 158.71 80.4083 157.17 79.675C155.667 78.9417 153.65 78.575 151.12 78.575C150.277 78.575 149.433 78.63 148.59 78.74C147.747 78.8133 146.83 78.9233 145.84 79.07V60.7H164.595V65.705H148.645V73.185C149.232 73.1483 149.837 73.1117 150.46 73.075C151.083 73.0383 151.762 73.02 152.495 73.02C156.052 73.02 158.912 73.5517 161.075 74.615C163.275 75.6783 164.87 77.0717 165.86 78.795C166.887 80.5183 167.4 82.4067 167.4 84.46C167.4 87.0267 166.777 89.3 165.53 91.28C164.283 93.26 162.56 94.8 160.36 95.9C158.16 97 155.648 97.55 152.825 97.55Z" fill="white"/>
<path d="M119.763 97H118.763V98H119.763V97ZM119.763 96.12L119.393 95.1908L118.763 95.4416V96.12H119.763ZM124.878 94.085L125.247 95.0142L125.878 94.7634V94.085H124.878ZM124.878 66.64H125.878V65.0642L124.452 65.7352L124.878 66.64ZM115.528 71.04H114.528V72.6158L115.953 71.9448L115.528 71.04ZM115.528 68.95L115.007 68.0962L114.528 68.3885V68.95H115.528ZM129.058 60.7V59.7H128.777L128.537 59.8462L129.058 60.7ZM131.533 60.7H132.533V59.7H131.533V60.7ZM131.533 94.085H130.533V94.7341L131.126 94.9984L131.533 94.085ZM136.098 96.12H137.098V95.4709L136.505 95.2066L136.098 96.12ZM136.098 97V98H137.098V97H136.098ZM120.763 97V96.12H118.763V97H120.763ZM120.132 97.0492L125.247 95.0142L124.508 93.1558L119.393 95.1908L120.132 97.0492ZM125.878 94.085V66.64H123.878V94.085H125.878ZM124.452 65.7352L115.102 70.1352L115.953 71.9448L125.303 67.5448L124.452 65.7352ZM116.528 71.04V68.95H114.528V71.04H116.528ZM116.048 69.8038L129.578 61.5538L128.537 59.8462L115.007 68.0962L116.048 69.8038ZM129.058 61.7H131.533V59.7H129.058V61.7ZM130.533 60.7V94.085H132.533V60.7H130.533ZM131.126 94.9984L135.691 97.0334L136.505 95.2066L131.94 93.1716L131.126 94.9984ZM135.098 96.12V97H137.098V96.12H135.098ZM136.098 96H119.763V98H136.098V96ZM147.71 96.835L147.364 97.7733L147.379 97.7787L147.394 97.7837L147.71 96.835ZM144.575 94.635L145.382 94.045L145.354 94.0064L145.322 93.9706L144.575 94.635ZM145.125 92.05L144.511 91.2606L145.125 92.05ZM147.6 90.125V89.125H147.257L146.986 89.3356L147.6 90.125ZM148.26 90.125L149.146 89.661L148.865 89.125H148.26V90.125ZM148.865 91.28L149.754 90.8214L149.751 90.816L148.865 91.28ZM159.48 92.82L158.737 92.151L158.736 92.1521L159.48 92.82ZM160.47 82.7L159.581 83.1574L159.586 83.1679L160.47 82.7ZM157.17 79.675L156.732 80.5738L156.74 80.5779L157.17 79.675ZM148.59 78.74L148.677 79.7362L148.698 79.7344L148.719 79.7316L148.59 78.74ZM145.84 79.07H144.84V80.2291L145.987 80.0592L145.84 79.07ZM145.84 60.7V59.7H144.84V60.7H145.84ZM164.595 60.7H165.595V59.7H164.595V60.7ZM164.595 65.705V66.705H165.595V65.705H164.595ZM148.645 65.705V64.705H147.645V65.705H148.645ZM148.645 73.185H147.645V74.2495L148.707 74.1831L148.645 73.185ZM150.46 73.075L150.401 72.0767H150.401L150.46 73.075ZM161.075 74.615L160.634 75.5125L160.64 75.5154L161.075 74.615ZM165.86 78.795L164.993 79.2931L164.997 79.3L165.001 79.3068L165.86 78.795ZM165.53 91.28L164.684 90.7472V90.7472L165.53 91.28ZM160.36 95.9L159.913 95.0056L160.36 95.9ZM152.825 96.55C150.921 96.55 149.328 96.3202 148.026 95.8863L147.394 97.7837C148.952 98.3031 150.769 98.55 152.825 98.55V96.55ZM148.056 95.8967C146.8 95.4339 145.936 94.8027 145.382 94.045L143.768 95.225C144.607 96.3739 145.834 97.2094 147.364 97.7733L148.056 95.8967ZM145.322 93.9706C145.175 93.805 145.135 93.6695 145.135 93.535H143.135C143.135 94.2072 143.388 94.805 143.828 95.2994L145.322 93.9706ZM145.135 93.535C145.135 93.5333 145.135 93.5215 145.144 93.4956C145.153 93.4684 145.173 93.4235 145.215 93.361C145.301 93.231 145.462 93.0546 145.739 92.8394L144.511 91.2606C143.784 91.826 143.135 92.5796 143.135 93.535H145.135ZM145.739 92.8394L148.214 90.9144L146.986 89.3356L144.511 91.2606L145.739 92.8394ZM147.6 91.125H148.26V89.125H147.6V91.125ZM147.374 90.589L147.979 91.744L149.751 90.816L149.146 89.661L147.374 90.589ZM147.976 91.7386C148.621 92.9876 149.446 94.0108 150.465 94.775L151.665 93.175C150.924 92.6192 150.282 91.8457 149.754 90.8214L147.976 91.7386ZM150.465 94.775C151.568 95.6021 152.974 95.965 154.585 95.965V93.965C153.263 93.965 152.322 93.6679 151.665 93.175L150.465 94.775ZM154.585 95.965C156.839 95.965 158.745 95.1365 160.224 93.4879L158.736 92.1521C157.649 93.3635 156.291 93.965 154.585 93.965V95.965ZM160.223 93.489C161.741 91.8022 162.46 89.6214 162.46 87.045H160.46C160.46 89.2353 159.859 90.9045 158.737 92.151L160.223 93.489ZM162.46 87.045C162.46 85.2596 162.102 83.6456 161.354 82.2321L159.586 83.1679C160.158 84.2477 160.46 85.5304 160.46 87.045H162.46ZM161.359 82.2427C160.582 80.7307 159.3 79.5819 157.6 78.7721L156.74 80.5779C158.12 81.2348 159.038 82.1026 159.581 83.1573L161.359 82.2427ZM157.608 78.7762C155.917 77.9509 153.731 77.575 151.12 77.575V79.575C153.569 79.575 155.417 79.9324 156.732 80.5738L157.608 78.7762ZM151.12 77.575C150.233 77.575 149.347 77.6329 148.461 77.7484L148.719 79.7316C149.52 79.6271 150.32 79.575 151.12 79.575V77.575ZM148.503 77.7438C147.637 77.8191 146.7 77.9317 145.693 78.0808L145.987 80.0592C146.96 79.915 147.857 79.8076 148.677 79.7362L148.503 77.7438ZM146.84 79.07V60.7H144.84V79.07H146.84ZM145.84 61.7H164.595V59.7H145.84V61.7ZM163.595 60.7V65.705H165.595V60.7H163.595ZM164.595 64.705H148.645V66.705H164.595V64.705ZM147.645 65.705V73.185H149.645V65.705H147.645ZM148.707 74.1831C149.293 74.1465 149.897 74.1099 150.519 74.0733L150.401 72.0767C149.777 72.1135 149.171 72.1502 148.583 72.1869L148.707 74.1831ZM150.519 74.0733C151.119 74.0379 151.778 74.02 152.495 74.02V72.02C151.745 72.02 151.047 72.0387 150.401 72.0767L150.519 74.0733ZM152.495 74.02C155.966 74.02 158.657 74.5409 160.634 75.5124L161.516 73.7176C159.166 72.5624 156.138 72.02 152.495 72.02V74.02ZM160.64 75.5154C162.701 76.5114 164.124 77.7807 164.993 79.2931L166.727 78.2969C165.616 76.3626 163.849 74.8453 161.51 73.7146L160.64 75.5154ZM165.001 79.3068C165.933 80.8716 166.4 82.5824 166.4 84.46H168.4C168.4 82.231 167.84 80.1651 166.719 78.2832L165.001 79.3068ZM166.4 84.46C166.4 86.8571 165.82 88.9421 164.684 90.7472L166.376 91.8128C167.733 89.6579 168.4 87.1963 168.4 84.46H166.4ZM164.684 90.7472C163.54 92.5644 161.958 93.983 159.913 95.0056L160.807 96.7944C163.162 95.617 165.027 93.9557 166.376 91.8128L164.684 90.7472ZM159.913 95.0056C157.871 96.0265 155.516 96.55 152.825 96.55V98.55C155.781 98.55 158.449 97.9735 160.807 96.7944L159.913 95.0056Z" fill="black" mask="url(#path-17-outside-1_2541_60)"/>
</g>
<defs>
<filter id="filter0_bd_2541_60" x="111.528" y="56.7" width="59.8723" height="48.8501" filterUnits="userSpaceOnUse" color-interpolation-filters="sRGB">
<feFlood flood-opacity="0" result="BackgroundImageFix"/>
<feGaussianBlur in="BackgroundImageFix" stdDeviation="2"/>
<feComposite in2="SourceAlpha" operator="in" result="effect1_backgroundBlur_2541_60"/>
<feColorMatrix in="SourceAlpha" type="matrix" values="0 0 0 0 0 0 0 0 0 0 0 0 0 0 0 0 0 0 127 0" result="hardAlpha"/>
<feOffset dy="4"/>
<feGaussianBlur stdDeviation="2"/>
<feComposite in2="hardAlpha" operator="out"/>
<feColorMatrix type="matrix" values="0 0 0 0 0 0 0 0 0 0 0 0 0 0 0 0 0 0 0.25 0"/>
<feBlend mode="normal" in2="effect1_backgroundBlur_2541_60" result="effect2_dropShadow_2541_60"/>
<feBlend mode="normal" in="SourceGraphic" in2="effect2_dropShadow_2541_60" result="shape"/>
</filter>
</defs>
</svg>
