<svg width="281" height="158" viewBox="0 0 281 158" fill="none" xmlns="http://www.w3.org/2000/svg">
<rect width="281" height="158" fill="#CD5742"/>
<rect x="133" y="94" width="14" height="33" rx="2.5" fill="#1B0909"/>
<path d="M140 24L165.115 64.5H114.885L140 24Z" fill="#6A0404"/>
<path d="M140 41L171.177 89.75H108.823L140 41Z" fill="#6A0404"/>
<path d="M140.5 60L178.172 116.25H102.828L140.5 60Z" fill="#6A0404"/>
<g filter="url(#filter0_bd_2541_61)">
<mask id="path-5-outside-1_2541_61" maskUnits="userSpaceOnUse" x="114" y="58" width="56" height="41" fill="black">
<rect fill="white" x="114" y="58" width="56" height="41"/>
<path d="M119.763 97V96.12L124.878 94.085V66.64L115.528 71.04V68.95L129.058 60.7H131.533V94.085L136.098 96.12V97H119.763ZM155.905 97.55C153.302 97.55 151.028 96.9817 149.085 95.845C147.178 94.6717 145.675 93.0583 144.575 91.005C143.512 88.915 142.98 86.5133 142.98 83.8C142.98 79.84 143.878 76.2833 145.675 73.13C147.508 69.9767 150.093 67.3 153.43 65.1C156.803 62.8633 160.818 61.2133 165.475 60.15V61.965C161.112 63.3217 157.665 65.54 155.135 68.62C152.605 71.7 151.028 75.3667 150.405 79.62C151.395 78.3 152.605 77.2733 154.035 76.54C155.502 75.8067 157.17 75.44 159.04 75.44C161.057 75.44 162.78 75.8983 164.21 76.815C165.677 77.7317 166.795 78.9967 167.565 80.61C168.372 82.1867 168.775 83.965 168.775 85.945C168.775 87.925 168.298 89.8133 167.345 91.61C166.392 93.37 164.962 94.8 163.055 95.9C161.148 97 158.765 97.55 155.905 97.55ZM150.13 83.635C150.13 87.4117 150.68 90.2533 151.78 92.16C152.917 94.03 154.365 94.965 156.125 94.965C157.408 94.965 158.472 94.58 159.315 93.81C160.158 93.04 160.782 92.0683 161.185 90.895C161.588 89.685 161.79 88.4933 161.79 87.32C161.79 84.8267 161.295 82.8833 160.305 81.49C159.352 80.0967 157.885 79.4 155.905 79.4C154.695 79.4 153.595 79.6933 152.605 80.28C151.615 80.83 150.79 81.5817 150.13 82.535C150.13 82.9017 150.13 83.2683 150.13 83.635Z"/>
</mask>
<path d="M119.763 97V96.12L124.878 94.085V66.64L115.528 71.04V68.95L129.058 60.7H131.533V94.085L136.098 96.12V97H119.763ZM155.905 97.55C153.302 97.55 151.028 96.9817 149.085 95.845C147.178 94.6717 145.675 93.0583 144.575 91.005C143.512 88.915 142.98 86.5133 142.98 83.8C142.98 79.84 143.878 76.2833 145.675 73.13C147.508 69.9767 150.093 67.3 153.43 65.1C156.803 62.8633 160.818 61.2133 165.475 60.15V61.965C161.112 63.3217 157.665 65.54 155.135 68.62C152.605 71.7 151.028 75.3667 150.405 79.62C151.395 78.3 152.605 77.2733 154.035 76.54C155.502 75.8067 157.17 75.44 159.04 75.44C161.057 75.44 162.78 75.8983 164.21 76.815C165.677 77.7317 166.795 78.9967 167.565 80.61C168.372 82.1867 168.775 83.965 168.775 85.945C168.775 87.925 168.298 89.8133 167.345 91.61C166.392 93.37 164.962 94.8 163.055 95.9C161.148 97 158.765 97.55 155.905 97.55ZM150.13 83.635C150.13 87.4117 150.68 90.2533 151.78 92.16C152.917 94.03 154.365 94.965 156.125 94.965C157.408 94.965 158.472 94.58 159.315 93.81C160.158 93.04 160.782 92.0683 161.185 90.895C161.588 89.685 161.79 88.4933 161.79 87.32C161.79 84.8267 161.295 82.8833 160.305 81.49C159.352 80.0967 157.885 79.4 155.905 79.4C154.695 79.4 153.595 79.6933 152.605 80.28C151.615 80.83 150.79 81.5817 150.13 82.535C150.13 82.9017 150.13 83.2683 150.13 83.635Z" fill="white"/>
<path d="M119.763 97H118.763V98H119.763V97ZM119.763 96.12L119.393 95.1908L118.763 95.4416V96.12H119.763ZM124.878 94.085L125.247 95.0142L125.878 94.7634V94.085H124.878ZM124.878 66.64H125.878V65.0642L124.452 65.7352L124.878 66.64ZM115.528 71.04H114.528V72.6158L115.953 71.9448L115.528 71.04ZM115.528 68.95L115.007 68.0962L114.528 68.3885V68.95H115.528ZM129.058 60.7V59.7H128.777L128.537 59.8462L129.058 60.7ZM131.533 60.7H132.533V59.7H131.533V60.7ZM131.533 94.085H130.533V94.7341L131.126 94.9984L131.533 94.085ZM136.098 96.12H137.098V95.4709L136.505 95.2066L136.098 96.12ZM136.098 97V98H137.098V97H136.098ZM120.763 97V96.12H118.763V97H120.763ZM120.132 97.0492L125.247 95.0142L124.508 93.1558L119.393 95.1908L120.132 97.0492ZM125.878 94.085V66.64H123.878V94.085H125.878ZM124.452 65.7352L115.102 70.1352L115.953 71.9448L125.303 67.5448L124.452 65.7352ZM116.528 71.04V68.95H114.528V71.04H116.528ZM116.048 69.8038L129.578 61.5538L128.537 59.8462L115.007 68.0962L116.048 69.8038ZM129.058 61.7H131.533V59.7H129.058V61.7ZM130.533 60.7V94.085H132.533V60.7H130.533ZM131.126 94.9984L135.691 97.0334L136.505 95.2066L131.94 93.1716L131.126 94.9984ZM135.098 96.12V97H137.098V96.12H135.098ZM136.098 96H119.763V98H136.098V96ZM149.085 95.845L148.561 96.6967L148.57 96.7025L148.58 96.7082L149.085 95.845ZM144.575 91.005L143.684 91.4585L143.689 91.4679L143.694 91.4772L144.575 91.005ZM145.675 73.13L144.81 72.6274L144.806 72.6349L145.675 73.13ZM153.43 65.1L153.98 65.9349L153.983 65.9334L153.43 65.1ZM165.475 60.15H166.475V58.8959L165.252 59.1751L165.475 60.15ZM165.475 61.965L165.772 62.9199L166.475 62.7013V61.965H165.475ZM155.135 68.62L154.362 67.9853L155.135 68.62ZM150.405 79.62L149.416 79.475L151.205 80.22L150.405 79.62ZM154.035 76.54L153.588 75.6455L153.579 75.6502L154.035 76.54ZM164.21 76.815L163.67 77.6569L163.68 77.663L164.21 76.815ZM167.565 80.61L166.663 81.0407L166.668 81.0532L166.675 81.0655L167.565 80.61ZM167.345 91.61L168.224 92.0863L168.228 92.0787L167.345 91.61ZM163.055 95.9L163.555 96.7662L163.055 95.9ZM151.78 92.16L150.914 92.6597L150.92 92.6696L150.925 92.6794L151.78 92.16ZM161.185 90.895L162.131 91.2201L162.134 91.2112L161.185 90.895ZM160.305 81.49L159.48 82.0547L159.485 82.062L159.49 82.0692L160.305 81.49ZM152.605 80.28L153.091 81.1542L153.103 81.1474L153.115 81.1403L152.605 80.28ZM150.13 82.535L149.308 81.9658L149.13 82.2226V82.535H150.13ZM155.905 96.55C153.451 96.55 151.357 96.0157 149.59 94.9818L148.58 96.7082C150.699 97.9477 153.152 98.55 155.905 98.55V96.55ZM149.609 94.9933C147.859 93.9165 146.477 92.4368 145.456 90.5328L143.694 91.4772C144.873 93.6798 146.497 95.4268 148.561 96.6967L149.609 94.9933ZM145.466 90.5515C144.485 88.6226 143.98 86.3805 143.98 83.8H141.98C141.98 86.6461 142.538 89.2074 143.684 91.4585L145.466 90.5515ZM143.98 83.8C143.98 79.9973 144.841 76.614 146.544 73.625L144.806 72.6349C142.916 75.9527 141.98 79.6827 141.98 83.8H143.98ZM146.54 73.6326C148.288 70.6252 150.76 68.0581 153.98 65.9349L152.88 64.2651C149.426 66.5419 146.729 69.3281 144.81 72.6274L146.54 73.6326ZM153.983 65.9334C157.239 63.7743 161.138 62.1661 165.698 61.1249L165.252 59.1751C160.499 60.2605 156.368 61.9524 152.877 64.2666L153.983 65.9334ZM164.475 60.15V61.965H166.475V60.15H164.475ZM165.178 61.0101C160.656 62.416 157.034 64.7332 154.362 67.9853L155.908 69.2547C158.296 66.3468 161.567 64.2273 165.772 62.9199L165.178 61.0101ZM154.362 67.9853C151.708 71.2168 150.063 75.0564 149.416 79.475L151.394 79.765C151.994 75.6769 153.502 72.1832 155.908 69.2547L154.362 67.9853ZM151.205 80.22C152.106 79.0181 153.2 78.092 154.491 77.4298L153.579 75.6502C152.01 76.4547 150.684 77.5819 149.605 79.02L151.205 80.22ZM154.482 77.4344C155.792 76.7797 157.303 76.44 159.04 76.44V74.44C157.037 74.44 155.212 74.8336 153.588 75.6456L154.482 77.4344ZM159.04 76.44C160.902 76.44 162.429 76.8615 163.67 77.6569L164.75 75.9731C163.131 74.9352 161.212 74.44 159.04 74.44V76.44ZM163.68 77.663C164.98 78.4753 165.972 79.593 166.663 81.0407L168.467 80.1793C167.618 78.4003 166.374 76.988 164.74 75.967L163.68 77.663ZM166.675 81.0655C167.401 82.4852 167.775 84.1045 167.775 85.945H169.775C169.775 83.8255 169.342 81.8881 168.455 80.1545L166.675 81.0655ZM167.775 85.945C167.775 87.757 167.341 89.4849 166.462 91.1413L168.228 92.0787C169.256 90.1418 169.775 88.093 169.775 85.945H167.775ZM166.466 91.1337C165.609 92.7152 164.318 94.0167 162.555 95.0338L163.555 96.7662C165.605 95.5833 167.174 94.0248 168.224 92.0863L166.466 91.1337ZM162.555 95.0338C160.84 96.0237 158.641 96.55 155.905 96.55V98.55C158.889 98.55 161.457 97.9763 163.555 96.7662L162.555 95.0338ZM149.13 83.635C149.13 87.4771 149.684 90.528 150.914 92.6597L152.646 91.6603C151.676 89.9787 151.13 87.3462 151.13 83.635H149.13ZM150.925 92.6794C152.193 94.7639 153.928 95.965 156.125 95.965V93.965C154.802 93.965 153.641 93.2961 152.635 91.6406L150.925 92.6794ZM156.125 95.965C157.625 95.965 158.939 95.5079 159.989 94.5485L158.641 93.0715C158.005 93.6521 157.192 93.965 156.125 93.965V95.965ZM159.989 94.5485C160.967 93.656 161.678 92.5377 162.131 91.2201L160.239 90.5699C159.886 91.5989 159.35 92.424 158.641 93.0715L159.989 94.5485ZM162.134 91.2112C162.568 89.9081 162.79 88.6098 162.79 87.32H160.79C160.79 88.3769 160.609 89.4619 160.236 90.5788L162.134 91.2112ZM162.79 87.32C162.79 84.71 162.274 82.5348 161.12 80.9108L159.49 82.0692C160.316 83.2318 160.79 84.9433 160.79 87.32H162.79ZM161.13 80.9253C159.956 79.2095 158.149 78.4 155.905 78.4V80.4C157.621 80.4 158.747 80.9838 159.48 82.0547L161.13 80.9253ZM155.905 78.4C154.525 78.4 153.248 78.7368 152.095 79.4197L153.115 81.1403C153.942 80.6499 154.865 80.4 155.905 80.4V78.4ZM152.119 79.4058C150.992 80.0322 150.053 80.8895 149.308 81.9658L150.952 83.1042C151.527 82.2739 152.238 81.6278 153.091 81.1542L152.119 79.4058ZM149.13 82.535C149.13 82.5357 149.13 82.5364 149.13 82.5371C149.13 82.5379 149.13 82.5386 149.13 82.5393C149.13 82.54 149.13 82.5407 149.13 82.5414C149.13 82.5422 149.13 82.5429 149.13 82.5436C149.13 82.5443 149.13 82.545 149.13 82.5457C149.13 82.5465 149.13 82.5472 149.13 82.5479C149.13 82.5486 149.13 82.5493 149.13 82.55C149.13 82.5508 149.13 82.5515 149.13 82.5522C149.13 82.5529 149.13 82.5536 149.13 82.5543C149.13 82.555 149.13 82.5558 149.13 82.5565C149.13 82.5572 149.13 82.5579 149.13 82.5586C149.13 82.5593 149.13 82.5601 149.13 82.5608C149.13 82.5615 149.13 82.5622 149.13 82.5629C149.13 82.5636 149.13 82.5644 149.13 82.5651C149.13 82.5658 149.13 82.5665 149.13 82.5672C149.13 82.5679 149.13 82.5687 149.13 82.5694C149.13 82.5701 149.13 82.5708 149.13 82.5715C149.13 82.5722 149.13 82.573 149.13 82.5737C149.13 82.5744 149.13 82.5751 149.13 82.5758C149.13 82.5765 149.13 82.5773 149.13 82.578C149.13 82.5787 149.13 82.5794 149.13 82.5801C149.13 82.5808 149.13 82.5816 149.13 82.5823C149.13 82.583 149.13 82.5837 149.13 82.5844C149.13 82.5851 149.13 82.5858 149.13 82.5866C149.13 82.5873 149.13 82.588 149.13 82.5887C149.13 82.5894 149.13 82.5901 149.13 82.5909C149.13 82.5916 149.13 82.5923 149.13 82.593C149.13 82.5937 149.13 82.5944 149.13 82.5952C149.13 82.5959 149.13 82.5966 149.13 82.5973C149.13 82.598 149.13 82.5987 149.13 82.5995C149.13 82.6002 149.13 82.6009 149.13 82.6016C149.13 82.6023 149.13 82.603 149.13 82.6037C149.13 82.6045 149.13 82.6052 149.13 82.6059C149.13 82.6066 149.13 82.6073 149.13 82.608C149.13 82.6088 149.13 82.6095 149.13 82.6102C149.13 82.6109 149.13 82.6116 149.13 82.6123C149.13 82.6131 149.13 82.6138 149.13 82.6145C149.13 82.6152 149.13 82.6159 149.13 82.6166C149.13 82.6174 149.13 82.6181 149.13 82.6188C149.13 82.6195 149.13 82.6202 149.13 82.6209C149.13 82.6217 149.13 82.6224 149.13 82.6231C149.13 82.6238 149.13 82.6245 149.13 82.6252C149.13 82.6259 149.13 82.6267 149.13 82.6274C149.13 82.6281 149.13 82.6288 149.13 82.6295C149.13 82.6302 149.13 82.631 149.13 82.6317C149.13 82.6324 149.13 82.6331 149.13 82.6338C149.13 82.6345 149.13 82.6353 149.13 82.636C149.13 82.6367 149.13 82.6374 149.13 82.6381C149.13 82.6388 149.13 82.6396 149.13 82.6403C149.13 82.641 149.13 82.6417 149.13 82.6424C149.13 82.6431 149.13 82.6439 149.13 82.6446C149.13 82.6453 149.13 82.646 149.13 82.6467C149.13 82.6474 149.13 82.6482 149.13 82.6489C149.13 82.6496 149.13 82.6503 149.13 82.651C149.13 82.6517 149.13 82.6524 149.13 82.6532C149.13 82.6539 149.13 82.6546 149.13 82.6553C149.13 82.656 149.13 82.6567 149.13 82.6575C149.13 82.6582 149.13 82.6589 149.13 82.6596C149.13 82.6603 149.13 82.661 149.13 82.6618C149.13 82.6625 149.13 82.6632 149.13 82.6639C149.13 82.6646 149.13 82.6653 149.13 82.6661C149.13 82.6668 149.13 82.6675 149.13 82.6682C149.13 82.6689 149.13 82.6696 149.13 82.6703C149.13 82.6711 149.13 82.6718 149.13 82.6725C149.13 82.6732 149.13 82.6739 149.13 82.6746C149.13 82.6754 149.13 82.6761 149.13 82.6768C149.13 82.6775 149.13 82.6782 149.13 82.6789C149.13 82.6797 149.13 82.6804 149.13 82.6811C149.13 82.6818 149.13 82.6825 149.13 82.6832C149.13 82.684 149.13 82.6847 149.13 82.6854C149.13 82.6861 149.13 82.6868 149.13 82.6875C149.13 82.6883 149.13 82.689 149.13 82.6897C149.13 82.6904 149.13 82.6911 149.13 82.6918C149.13 82.6926 149.13 82.6933 149.13 82.694C149.13 82.6947 149.13 82.6954 149.13 82.6961C149.13 82.6968 149.13 82.6976 149.13 82.6983C149.13 82.699 149.13 82.6997 149.13 82.7004C149.13 82.7011 149.13 82.7019 149.13 82.7026C149.13 82.7033 149.13 82.704 149.13 82.7047C149.13 82.7054 149.13 82.7062 149.13 82.7069C149.13 82.7076 149.13 82.7083 149.13 82.709C149.13 82.7097 149.13 82.7105 149.13 82.7112C149.13 82.7119 149.13 82.7126 149.13 82.7133C149.13 82.714 149.13 82.7148 149.13 82.7155C149.13 82.7162 149.13 82.7169 149.13 82.7176C149.13 82.7183 149.13 82.719 149.13 82.7198C149.13 82.7205 149.13 82.7212 149.13 82.7219C149.13 82.7226 149.13 82.7233 149.13 82.7241C149.13 82.7248 149.13 82.7255 149.13 82.7262C149.13 82.7269 149.13 82.7276 149.13 82.7284C149.13 82.7291 149.13 82.7298 149.13 82.7305C149.13 82.7312 149.13 82.7319 149.13 82.7327C149.13 82.7334 149.13 82.7341 149.13 82.7348C149.13 82.7355 149.13 82.7362 149.13 82.737C149.13 82.7377 149.13 82.7384 149.13 82.7391C149.13 82.7398 149.13 82.7405 149.13 82.7412C149.13 82.742 149.13 82.7427 149.13 82.7434C149.13 82.7441 149.13 82.7448 149.13 82.7455C149.13 82.7463 149.13 82.747 149.13 82.7477C149.13 82.7484 149.13 82.7491 149.13 82.7498C149.13 82.7506 149.13 82.7513 149.13 82.752C149.13 82.7527 149.13 82.7534 149.13 82.7541C149.13 82.7549 149.13 82.7556 149.13 82.7563C149.13 82.757 149.13 82.7577 149.13 82.7584C149.13 82.7592 149.13 82.7599 149.13 82.7606C149.13 82.7613 149.13 82.762 149.13 82.7627C149.13 82.7635 149.13 82.7642 149.13 82.7649C149.13 82.7656 149.13 82.7663 149.13 82.767C149.13 82.7677 149.13 82.7685 149.13 82.7692C149.13 82.7699 149.13 82.7706 149.13 82.7713C149.13 82.772 149.13 82.7728 149.13 82.7735C149.13 82.7742 149.13 82.7749 149.13 82.7756C149.13 82.7763 149.13 82.7771 149.13 82.7778C149.13 82.7785 149.13 82.7792 149.13 82.7799C149.13 82.7806 149.13 82.7814 149.13 82.7821C149.13 82.7828 149.13 82.7835 149.13 82.7842C149.13 82.7849 149.13 82.7856 149.13 82.7864C149.13 82.7871 149.13 82.7878 149.13 82.7885C149.13 82.7892 149.13 82.7899 149.13 82.7907C149.13 82.7914 149.13 82.7921 149.13 82.7928C149.13 82.7935 149.13 82.7942 149.13 82.795C149.13 82.7957 149.13 82.7964 149.13 82.7971C149.13 82.7978 149.13 82.7985 149.13 82.7993C149.13 82.8 149.13 82.8007 149.13 82.8014C149.13 82.8021 149.13 82.8028 149.13 82.8036C149.13 82.8043 149.13 82.805 149.13 82.8057C149.13 82.8064 149.13 82.8071 149.13 82.8078C149.13 82.8086 149.13 82.8093 149.13 82.81C149.13 82.8107 149.13 82.8114 149.13 82.8121C149.13 82.8129 149.13 82.8136 149.13 82.8143C149.13 82.815 149.13 82.8157 149.13 82.8164C149.13 82.8172 149.13 82.8179 149.13 82.8186C149.13 82.8193 149.13 82.82 149.13 82.8207C149.13 82.8215 149.13 82.8222 149.13 82.8229C149.13 82.8236 149.13 82.8243 149.13 82.825C149.13 82.8258 149.13 82.8265 149.13 82.8272C149.13 82.8279 149.13 82.8286 149.13 82.8293C149.13 82.8301 149.13 82.8308 149.13 82.8315C149.13 82.8322 149.13 82.8329 149.13 82.8336C149.13 82.8343 149.13 82.8351 149.13 82.8358C149.13 82.8365 149.13 82.8372 149.13 82.8379C149.13 82.8386 149.13 82.8394 149.13 82.8401C149.13 82.8408 149.13 82.8415 149.13 82.8422C149.13 82.8429 149.13 82.8437 149.13 82.8444C149.13 82.8451 149.13 82.8458 149.13 82.8465C149.13 82.8472 149.13 82.848 149.13 82.8487C149.13 82.8494 149.13 82.8501 149.13 82.8508C149.13 82.8515 149.13 82.8523 149.13 82.853C149.13 82.8537 149.13 82.8544 149.13 82.8551C149.13 82.8558 149.13 82.8565 149.13 82.8573C149.13 82.858 149.13 82.8587 149.13 82.8594C149.13 82.8601 149.13 82.8608 149.13 82.8616C149.13 82.8623 149.13 82.863 149.13 82.8637C149.13 82.8644 149.13 82.8651 149.13 82.8659C149.13 82.8666 149.13 82.8673 149.13 82.868C149.13 82.8687 149.13 82.8694 149.13 82.8702C149.13 82.8709 149.13 82.8716 149.13 82.8723C149.13 82.873 149.13 82.8737 149.13 82.8745C149.13 82.8752 149.13 82.8759 149.13 82.8766C149.13 82.8773 149.13 82.878 149.13 82.8787C149.13 82.8795 149.13 82.8802 149.13 82.8809C149.13 82.8816 149.13 82.8823 149.13 82.883C149.13 82.8838 149.13 82.8845 149.13 82.8852C149.13 82.8859 149.13 82.8866 149.13 82.8873C149.13 82.8881 149.13 82.8888 149.13 82.8895C149.13 82.8902 149.13 82.8909 149.13 82.8916C149.13 82.8924 149.13 82.8931 149.13 82.8938C149.13 82.8945 149.13 82.8952 149.13 82.8959C149.13 82.8967 149.13 82.8974 149.13 82.8981C149.13 82.8988 149.13 82.8995 149.13 82.9002C149.13 82.901 149.13 82.9017 149.13 82.9024C149.13 82.9031 149.13 82.9038 149.13 82.9045C149.13 82.9052 149.13 82.906 149.13 82.9067C149.13 82.9074 149.13 82.9081 149.13 82.9088C149.13 82.9095 149.13 82.9103 149.13 82.911C149.13 82.9117 149.13 82.9124 149.13 82.9131C149.13 82.9138 149.13 82.9146 149.13 82.9153C149.13 82.916 149.13 82.9167 149.13 82.9174C149.13 82.9181 149.13 82.9189 149.13 82.9196C149.13 82.9203 149.13 82.921 149.13 82.9217C149.13 82.9224 149.13 82.9231 149.13 82.9239C149.13 82.9246 149.13 82.9253 149.13 82.926C149.13 82.9267 149.13 82.9274 149.13 82.9282C149.13 82.9289 149.13 82.9296 149.13 82.9303C149.13 82.931 149.13 82.9317 149.13 82.9325C149.13 82.9332 149.13 82.9339 149.13 82.9346C149.13 82.9353 149.13 82.936 149.13 82.9368C149.13 82.9375 149.13 82.9382 149.13 82.9389C149.13 82.9396 149.13 82.9403 149.13 82.9411C149.13 82.9418 149.13 82.9425 149.13 82.9432C149.13 82.9439 149.13 82.9446 149.13 82.9454C149.13 82.9461 149.13 82.9468 149.13 82.9475C149.13 82.9482 149.13 82.9489 149.13 82.9496C149.13 82.9504 149.13 82.9511 149.13 82.9518C149.13 82.9525 149.13 82.9532 149.13 82.9539C149.13 82.9547 149.13 82.9554 149.13 82.9561C149.13 82.9568 149.13 82.9575 149.13 82.9582C149.13 82.959 149.13 82.9597 149.13 82.9604C149.13 82.9611 149.13 82.9618 149.13 82.9625C149.13 82.9633 149.13 82.964 149.13 82.9647C149.13 82.9654 149.13 82.9661 149.13 82.9668C149.13 82.9676 149.13 82.9683 149.13 82.969C149.13 82.9697 149.13 82.9704 149.13 82.9711C149.13 82.9718 149.13 82.9726 149.13 82.9733C149.13 82.974 149.13 82.9747 149.13 82.9754C149.13 82.9761 149.13 82.9769 149.13 82.9776C149.13 82.9783 149.13 82.979 149.13 82.9797C149.13 82.9804 149.13 82.9812 149.13 82.9819C149.13 82.9826 149.13 82.9833 149.13 82.984C149.13 82.9847 149.13 82.9855 149.13 82.9862C149.13 82.9869 149.13 82.9876 149.13 82.9883C149.13 82.989 149.13 82.9897 149.13 82.9905C149.13 82.9912 149.13 82.9919 149.13 82.9926C149.13 82.9933 149.13 82.994 149.13 82.9948C149.13 82.9955 149.13 82.9962 149.13 82.9969C149.13 82.9976 149.13 82.9983 149.13 82.9991C149.13 82.9998 149.13 83.0005 149.13 83.0012C149.13 83.0019 149.13 83.0026 149.13 83.0034C149.13 83.0041 149.13 83.0048 149.13 83.0055C149.13 83.0062 149.13 83.0069 149.13 83.0077C149.13 83.0084 149.13 83.0091 149.13 83.0098C149.13 83.0105 149.13 83.0112 149.13 83.012C149.13 83.0127 149.13 83.0134 149.13 83.0141C149.13 83.0148 149.13 83.0155 149.13 83.0163C149.13 83.017 149.13 83.0177 149.13 83.0184C149.13 83.0191 149.13 83.0198 149.13 83.0205C149.13 83.0213 149.13 83.022 149.13 83.0227C149.13 83.0234 149.13 83.0241 149.13 83.0248C149.13 83.0256 149.13 83.0263 149.13 83.027C149.13 83.0277 149.13 83.0284 149.13 83.0291C149.13 83.0299 149.13 83.0306 149.13 83.0313C149.13 83.032 149.13 83.0327 149.13 83.0334C149.13 83.0342 149.13 83.0349 149.13 83.0356C149.13 83.0363 149.13 83.037 149.13 83.0377C149.13 83.0384 149.13 83.0392 149.13 83.0399C149.13 83.0406 149.13 83.0413 149.13 83.042C149.13 83.0427 149.13 83.0435 149.13 83.0442C149.13 83.0449 149.13 83.0456 149.13 83.0463C149.13 83.047 149.13 83.0478 149.13 83.0485C149.13 83.0492 149.13 83.0499 149.13 83.0506C149.13 83.0513 149.13 83.0521 149.13 83.0528C149.13 83.0535 149.13 83.0542 149.13 83.0549C149.13 83.0556 149.13 83.0564 149.13 83.0571C149.13 83.0578 149.13 83.0585 149.13 83.0592C149.13 83.0599 149.13 83.0606 149.13 83.0614C149.13 83.0621 149.13 83.0628 149.13 83.0635C149.13 83.0642 149.13 83.0649 149.13 83.0657C149.13 83.0664 149.13 83.0671 149.13 83.0678C149.13 83.0685 149.13 83.0692 149.13 83.07C149.13 83.0707 149.13 83.0714 149.13 83.0721C149.13 83.0728 149.13 83.0735 149.13 83.0743C149.13 83.075 149.13 83.0757 149.13 83.0764C149.13 83.0771 149.13 83.0778 149.13 83.0786C149.13 83.0793 149.13 83.08 149.13 83.0807C149.13 83.0814 149.13 83.0821 149.13 83.0829C149.13 83.0836 149.13 83.0843 149.13 83.085C149.13 83.0857 149.13 83.0864 149.13 83.0871C149.13 83.0879 149.13 83.0886 149.13 83.0893C149.13 83.09 149.13 83.0907 149.13 83.0914C149.13 83.0922 149.13 83.0929 149.13 83.0936C149.13 83.0943 149.13 83.095 149.13 83.0957C149.13 83.0965 149.13 83.0972 149.13 83.0979C149.13 83.0986 149.13 83.0993 149.13 83.1C149.13 83.1008 149.13 83.1015 149.13 83.1022C149.13 83.1029 149.13 83.1036 149.13 83.1043C149.13 83.1051 149.13 83.1058 149.13 83.1065C149.13 83.1072 149.13 83.1079 149.13 83.1086C149.13 83.1093 149.13 83.1101 149.13 83.1108C149.13 83.1115 149.13 83.1122 149.13 83.1129C149.13 83.1136 149.13 83.1144 149.13 83.1151C149.13 83.1158 149.13 83.1165 149.13 83.1172C149.13 83.1179 149.13 83.1187 149.13 83.1194C149.13 83.1201 149.13 83.1208 149.13 83.1215C149.13 83.1222 149.13 83.123 149.13 83.1237C149.13 83.1244 149.13 83.1251 149.13 83.1258C149.13 83.1265 149.13 83.1273 149.13 83.128C149.13 83.1287 149.13 83.1294 149.13 83.1301C149.13 83.1308 149.13 83.1315 149.13 83.1323C149.13 83.133 149.13 83.1337 149.13 83.1344C149.13 83.1351 149.13 83.1358 149.13 83.1366C149.13 83.1373 149.13 83.138 149.13 83.1387C149.13 83.1394 149.13 83.1401 149.13 83.1409C149.13 83.1416 149.13 83.1423 149.13 83.143C149.13 83.1437 149.13 83.1444 149.13 83.1452C149.13 83.1459 149.13 83.1466 149.13 83.1473C149.13 83.148 149.13 83.1487 149.13 83.1495C149.13 83.1502 149.13 83.1509 149.13 83.1516C149.13 83.1523 149.13 83.153 149.13 83.1537C149.13 83.1545 149.13 83.1552 149.13 83.1559C149.13 83.1566 149.13 83.1573 149.13 83.158C149.13 83.1588 149.13 83.1595 149.13 83.1602C149.13 83.1609 149.13 83.1616 149.13 83.1623C149.13 83.1631 149.13 83.1638 149.13 83.1645C149.13 83.1652 149.13 83.1659 149.13 83.1666C149.13 83.1674 149.13 83.1681 149.13 83.1688C149.13 83.1695 149.13 83.1702 149.13 83.1709C149.13 83.1717 149.13 83.1724 149.13 83.1731C149.13 83.1738 149.13 83.1745 149.13 83.1752C149.13 83.1759 149.13 83.1767 149.13 83.1774C149.13 83.1781 149.13 83.1788 149.13 83.1795C149.13 83.1802 149.13 83.181 149.13 83.1817C149.13 83.1824 149.13 83.1831 149.13 83.1838C149.13 83.1845 149.13 83.1853 149.13 83.186C149.13 83.1867 149.13 83.1874 149.13 83.1881C149.13 83.1888 149.13 83.1896 149.13 83.1903C149.13 83.191 149.13 83.1917 149.13 83.1924C149.13 83.1931 149.13 83.1939 149.13 83.1946C149.13 83.1953 149.13 83.196 149.13 83.1967C149.13 83.1974 149.13 83.1982 149.13 83.1989C149.13 83.1996 149.13 83.2003 149.13 83.201C149.13 83.2017 149.13 83.2024 149.13 83.2032C149.13 83.2039 149.13 83.2046 149.13 83.2053C149.13 83.206 149.13 83.2067 149.13 83.2075C149.13 83.2082 149.13 83.2089 149.13 83.2096C149.13 83.2103 149.13 83.211 149.13 83.2118C149.13 83.2125 149.13 83.2132 149.13 83.2139C149.13 83.2146 149.13 83.2153 149.13 83.2161C149.13 83.2168 149.13 83.2175 149.13 83.2182C149.13 83.2189 149.13 83.2196 149.13 83.2204C149.13 83.2211 149.13 83.2218 149.13 83.2225C149.13 83.2232 149.13 83.2239 149.13 83.2246C149.13 83.2254 149.13 83.2261 149.13 83.2268C149.13 83.2275 149.13 83.2282 149.13 83.2289C149.13 83.2297 149.13 83.2304 149.13 83.2311C149.13 83.2318 149.13 83.2325 149.13 83.2332C149.13 83.234 149.13 83.2347 149.13 83.2354C149.13 83.2361 149.13 83.2368 149.13 83.2375C149.13 83.2383 149.13 83.239 149.13 83.2397C149.13 83.2404 149.13 83.2411 149.13 83.2418C149.13 83.2425 149.13 83.2433 149.13 83.244C149.13 83.2447 149.13 83.2454 149.13 83.2461C149.13 83.2468 149.13 83.2476 149.13 83.2483C149.13 83.249 149.13 83.2497 149.13 83.2504C149.13 83.2511 149.13 83.2519 149.13 83.2526C149.13 83.2533 149.13 83.254 149.13 83.2547C149.13 83.2554 149.13 83.2562 149.13 83.2569C149.13 83.2576 149.13 83.2583 149.13 83.259C149.13 83.2597 149.13 83.2605 149.13 83.2612C149.13 83.2619 149.13 83.2626 149.13 83.2633C149.13 83.264 149.13 83.2648 149.13 83.2655C149.13 83.2662 149.13 83.2669 149.13 83.2676C149.13 83.2683 149.13 83.269 149.13 83.2698C149.13 83.2705 149.13 83.2712 149.13 83.2719C149.13 83.2726 149.13 83.2733 149.13 83.2741C149.13 83.2748 149.13 83.2755 149.13 83.2762C149.13 83.2769 149.13 83.2776 149.13 83.2784C149.13 83.2791 149.13 83.2798 149.13 83.2805C149.13 83.2812 149.13 83.2819 149.13 83.2827C149.13 83.2834 149.13 83.2841 149.13 83.2848C149.13 83.2855 149.13 83.2862 149.13 83.287C149.13 83.2877 149.13 83.2884 149.13 83.2891C149.13 83.2898 149.13 83.2905 149.13 83.2912C149.13 83.292 149.13 83.2927 149.13 83.2934C149.13 83.2941 149.13 83.2948 149.13 83.2955C149.13 83.2963 149.13 83.297 149.13 83.2977C149.13 83.2984 149.13 83.2991 149.13 83.2998C149.13 83.3006 149.13 83.3013 149.13 83.302C149.13 83.3027 149.13 83.3034 149.13 83.3041C149.13 83.3049 149.13 83.3056 149.13 83.3063C149.13 83.307 149.13 83.3077 149.13 83.3084C149.13 83.3092 149.13 83.3099 149.13 83.3106C149.13 83.3113 149.13 83.312 149.13 83.3127C149.13 83.3134 149.13 83.3142 149.13 83.3149C149.13 83.3156 149.13 83.3163 149.13 83.317C149.13 83.3177 149.13 83.3185 149.13 83.3192C149.13 83.3199 149.13 83.3206 149.13 83.3213C149.13 83.322 149.13 83.3228 149.13 83.3235C149.13 83.3242 149.13 83.3249 149.13 83.3256C149.13 83.3263 149.13 83.3271 149.13 83.3278C149.13 83.3285 149.13 83.3292 149.13 83.3299C149.13 83.3306 149.13 83.3314 149.13 83.3321C149.13 83.3328 149.13 83.3335 149.13 83.3342C149.13 83.3349 149.13 83.3357 149.13 83.3364C149.13 83.3371 149.13 83.3378 149.13 83.3385C149.13 83.3392 149.13 83.3399 149.13 83.3407C149.13 83.3414 149.13 83.3421 149.13 83.3428C149.13 83.3435 149.13 83.3442 149.13 83.345C149.13 83.3457 149.13 83.3464 149.13 83.3471C149.13 83.3478 149.13 83.3485 149.13 83.3493C149.13 83.35 149.13 83.3507 149.13 83.3514C149.13 83.3521 149.13 83.3528 149.13 83.3536C149.13 83.3543 149.13 83.355 149.13 83.3557C149.13 83.3564 149.13 83.3571 149.13 83.3578C149.13 83.3586 149.13 83.3593 149.13 83.36C149.13 83.3607 149.13 83.3614 149.13 83.3621C149.13 83.3629 149.13 83.3636 149.13 83.3643C149.13 83.365 149.13 83.3657 149.13 83.3664C149.13 83.3672 149.13 83.3679 149.13 83.3686C149.13 83.3693 149.13 83.37 149.13 83.3707C149.13 83.3715 149.13 83.3722 149.13 83.3729C149.13 83.3736 149.13 83.3743 149.13 83.375C149.13 83.3758 149.13 83.3765 149.13 83.3772C149.13 83.3779 149.13 83.3786 149.13 83.3793C149.13 83.3801 149.13 83.3808 149.13 83.3815C149.13 83.3822 149.13 83.3829 149.13 83.3836C149.13 83.3843 149.13 83.3851 149.13 83.3858C149.13 83.3865 149.13 83.3872 149.13 83.3879C149.13 83.3886 149.13 83.3894 149.13 83.3901C149.13 83.3908 149.13 83.3915 149.13 83.3922C149.13 83.3929 149.13 83.3937 149.13 83.3944C149.13 83.3951 149.13 83.3958 149.13 83.3965C149.13 83.3972 149.13 83.398 149.13 83.3987C149.13 83.3994 149.13 83.4001 149.13 83.4008C149.13 83.4015 149.13 83.4023 149.13 83.403C149.13 83.4037 149.13 83.4044 149.13 83.4051C149.13 83.4058 149.13 83.4065 149.13 83.4073C149.13 83.408 149.13 83.4087 149.13 83.4094C149.13 83.4101 149.13 83.4108 149.13 83.4116C149.13 83.4123 149.13 83.413 149.13 83.4137C149.13 83.4144 149.13 83.4151 149.13 83.4159C149.13 83.4166 149.13 83.4173 149.13 83.418C149.13 83.4187 149.13 83.4194 149.13 83.4202C149.13 83.4209 149.13 83.4216 149.13 83.4223C149.13 83.423 149.13 83.4237 149.13 83.4245C149.13 83.4252 149.13 83.4259 149.13 83.4266C149.13 83.4273 149.13 83.428 149.13 83.4287C149.13 83.4295 149.13 83.4302 149.13 83.4309C149.13 83.4316 149.13 83.4323 149.13 83.433C149.13 83.4338 149.13 83.4345 149.13 83.4352C149.13 83.4359 149.13 83.4366 149.13 83.4373C149.13 83.4381 149.13 83.4388 149.13 83.4395C149.13 83.4402 149.13 83.4409 149.13 83.4416C149.13 83.4424 149.13 83.4431 149.13 83.4438C149.13 83.4445 149.13 83.4452 149.13 83.4459C149.13 83.4467 149.13 83.4474 149.13 83.4481C149.13 83.4488 149.13 83.4495 149.13 83.4502C149.13 83.451 149.13 83.4517 149.13 83.4524C149.13 83.4531 149.13 83.4538 149.13 83.4545C149.13 83.4552 149.13 83.456 149.13 83.4567C149.13 83.4574 149.13 83.4581 149.13 83.4588C149.13 83.4595 149.13 83.4603 149.13 83.461C149.13 83.4617 149.13 83.4624 149.13 83.4631C149.13 83.4638 149.13 83.4646 149.13 83.4653C149.13 83.466 149.13 83.4667 149.13 83.4674C149.13 83.4681 149.13 83.4689 149.13 83.4696C149.13 83.4703 149.13 83.471 149.13 83.4717C149.13 83.4724 149.13 83.4731 149.13 83.4739C149.13 83.4746 149.13 83.4753 149.13 83.476C149.13 83.4767 149.13 83.4774 149.13 83.4782C149.13 83.4789 149.13 83.4796 149.13 83.4803C149.13 83.481 149.13 83.4817 149.13 83.4825C149.13 83.4832 149.13 83.4839 149.13 83.4846C149.13 83.4853 149.13 83.486 149.13 83.4868C149.13 83.4875 149.13 83.4882 149.13 83.4889C149.13 83.4896 149.13 83.4903 149.13 83.4911C149.13 83.4918 149.13 83.4925 149.13 83.4932C149.13 83.4939 149.13 83.4946 149.13 83.4953C149.13 83.4961 149.13 83.4968 149.13 83.4975C149.13 83.4982 149.13 83.4989 149.13 83.4996C149.13 83.5004 149.13 83.5011 149.13 83.5018C149.13 83.5025 149.13 83.5032 149.13 83.5039C149.13 83.5047 149.13 83.5054 149.13 83.5061C149.13 83.5068 149.13 83.5075 149.13 83.5082C149.13 83.509 149.13 83.5097 149.13 83.5104C149.13 83.5111 149.13 83.5118 149.13 83.5125C149.13 83.5133 149.13 83.514 149.13 83.5147C149.13 83.5154 149.13 83.5161 149.13 83.5168C149.13 83.5176 149.13 83.5183 149.13 83.519C149.13 83.5197 149.13 83.5204 149.13 83.5211C149.13 83.5218 149.13 83.5226 149.13 83.5233C149.13 83.524 149.13 83.5247 149.13 83.5254C149.13 83.5261 149.13 83.5269 149.13 83.5276C149.13 83.5283 149.13 83.529 149.13 83.5297C149.13 83.5304 149.13 83.5312 149.13 83.5319C149.13 83.5326 149.13 83.5333 149.13 83.534C149.13 83.5347 149.13 83.5355 149.13 83.5362C149.13 83.5369 149.13 83.5376 149.13 83.5383C149.13 83.539 149.13 83.5398 149.13 83.5405C149.13 83.5412 149.13 83.5419 149.13 83.5426C149.13 83.5433 149.13 83.544 149.13 83.5448C149.13 83.5455 149.13 83.5462 149.13 83.5469C149.13 83.5476 149.13 83.5483 149.13 83.5491C149.13 83.5498 149.13 83.5505 149.13 83.5512C149.13 83.5519 149.13 83.5526 149.13 83.5534C149.13 83.5541 149.13 83.5548 149.13 83.5555C149.13 83.5562 149.13 83.5569 149.13 83.5577C149.13 83.5584 149.13 83.5591 149.13 83.5598C149.13 83.5605 149.13 83.5612 149.13 83.562C149.13 83.5627 149.13 83.5634 149.13 83.5641C149.13 83.5648 149.13 83.5655 149.13 83.5662C149.13 83.567 149.13 83.5677 149.13 83.5684C149.13 83.5691 149.13 83.5698 149.13 83.5705C149.13 83.5713 149.13 83.572 149.13 83.5727C149.13 83.5734 149.13 83.5741 149.13 83.5748C149.13 83.5756 149.13 83.5763 149.13 83.577C149.13 83.5777 149.13 83.5784 149.13 83.5791C149.13 83.5799 149.13 83.5806 149.13 83.5813C149.13 83.582 149.13 83.5827 149.13 83.5834C149.13 83.5842 149.13 83.5849 149.13 83.5856C149.13 83.5863 149.13 83.587 149.13 83.5877C149.13 83.5885 149.13 83.5892 149.13 83.5899C149.13 83.5906 149.13 83.5913 149.13 83.592C149.13 83.5927 149.13 83.5935 149.13 83.5942C149.13 83.5949 149.13 83.5956 149.13 83.5963C149.13 83.597 149.13 83.5978 149.13 83.5985C149.13 83.5992 149.13 83.5999 149.13 83.6006C149.13 83.6013 149.13 83.6021 149.13 83.6028C149.13 83.6035 149.13 83.6042 149.13 83.6049C149.13 83.6056 149.13 83.6064 149.13 83.6071C149.13 83.6078 149.13 83.6085 149.13 83.6092C149.13 83.6099 149.13 83.6106 149.13 83.6114C149.13 83.6121 149.13 83.6128 149.13 83.6135C149.13 83.6142 149.13 83.6149 149.13 83.6157C149.13 83.6164 149.13 83.6171 149.13 83.6178C149.13 83.6185 149.13 83.6192 149.13 83.62C149.13 83.6207 149.13 83.6214 149.13 83.6221C149.13 83.6228 149.13 83.6235 149.13 83.6243C149.13 83.625 149.13 83.6257 149.13 83.6264C149.13 83.6271 149.13 83.6278 149.13 83.6286C149.13 83.6293 149.13 83.63 149.13 83.6307C149.13 83.6314 149.13 83.6321 149.13 83.6329C149.13 83.6336 149.13 83.6343 149.13 83.635H151.13C151.13 83.6343 151.13 83.6336 151.13 83.6329C151.13 83.6321 151.13 83.6314 151.13 83.6307C151.13 83.63 151.13 83.6293 151.13 83.6286C151.13 83.6278 151.13 83.6271 151.13 83.6264C151.13 83.6257 151.13 83.625 151.13 83.6243C151.13 83.6235 151.13 83.6228 151.13 83.6221C151.13 83.6214 151.13 83.6207 151.13 83.62C151.13 83.6192 151.13 83.6185 151.13 83.6178C151.13 83.6171 151.13 83.6164 151.13 83.6157C151.13 83.6149 151.13 83.6142 151.13 83.6135C151.13 83.6128 151.13 83.6121 151.13 83.6114C151.13 83.6106 151.13 83.6099 151.13 83.6092C151.13 83.6085 151.13 83.6078 151.13 83.6071C151.13 83.6064 151.13 83.6056 151.13 83.6049C151.13 83.6042 151.13 83.6035 151.13 83.6028C151.13 83.6021 151.13 83.6013 151.13 83.6006C151.13 83.5999 151.13 83.5992 151.13 83.5985C151.13 83.5978 151.13 83.597 151.13 83.5963C151.13 83.5956 151.13 83.5949 151.13 83.5942C151.13 83.5935 151.13 83.5927 151.13 83.592C151.13 83.5913 151.13 83.5906 151.13 83.5899C151.13 83.5892 151.13 83.5885 151.13 83.5877C151.13 83.587 151.13 83.5863 151.13 83.5856C151.13 83.5849 151.13 83.5842 151.13 83.5834C151.13 83.5827 151.13 83.582 151.13 83.5813C151.13 83.5806 151.13 83.5799 151.13 83.5791C151.13 83.5784 151.13 83.5777 151.13 83.577C151.13 83.5763 151.13 83.5756 151.13 83.5748C151.13 83.5741 151.13 83.5734 151.13 83.5727C151.13 83.572 151.13 83.5713 151.13 83.5705C151.13 83.5698 151.13 83.5691 151.13 83.5684C151.13 83.5677 151.13 83.567 151.13 83.5662C151.13 83.5655 151.13 83.5648 151.13 83.5641C151.13 83.5634 151.13 83.5627 151.13 83.562C151.13 83.5612 151.13 83.5605 151.13 83.5598C151.13 83.5591 151.13 83.5584 151.13 83.5577C151.13 83.5569 151.13 83.5562 151.13 83.5555C151.13 83.5548 151.13 83.5541 151.13 83.5534C151.13 83.5526 151.13 83.5519 151.13 83.5512C151.13 83.5505 151.13 83.5498 151.13 83.5491C151.13 83.5483 151.13 83.5476 151.13 83.5469C151.13 83.5462 151.13 83.5455 151.13 83.5448C151.13 83.544 151.13 83.5433 151.13 83.5426C151.13 83.5419 151.13 83.5412 151.13 83.5405C151.13 83.5398 151.13 83.539 151.13 83.5383C151.13 83.5376 151.13 83.5369 151.13 83.5362C151.13 83.5355 151.13 83.5347 151.13 83.534C151.13 83.5333 151.13 83.5326 151.13 83.5319C151.13 83.5312 151.13 83.5304 151.13 83.5297C151.13 83.529 151.13 83.5283 151.13 83.5276C151.13 83.5269 151.13 83.5261 151.13 83.5254C151.13 83.5247 151.13 83.524 151.13 83.5233C151.13 83.5226 151.13 83.5218 151.13 83.5211C151.13 83.5204 151.13 83.5197 151.13 83.519C151.13 83.5183 151.13 83.5176 151.13 83.5168C151.13 83.5161 151.13 83.5154 151.13 83.5147C151.13 83.514 151.13 83.5133 151.13 83.5125C151.13 83.5118 151.13 83.5111 151.13 83.5104C151.13 83.5097 151.13 83.509 151.13 83.5082C151.13 83.5075 151.13 83.5068 151.13 83.5061C151.13 83.5054 151.13 83.5047 151.13 83.5039C151.13 83.5032 151.13 83.5025 151.13 83.5018C151.13 83.5011 151.13 83.5004 151.13 83.4996C151.13 83.4989 151.13 83.4982 151.13 83.4975C151.13 83.4968 151.13 83.4961 151.13 83.4953C151.13 83.4946 151.13 83.4939 151.13 83.4932C151.13 83.4925 151.13 83.4918 151.13 83.4911C151.13 83.4903 151.13 83.4896 151.13 83.4889C151.13 83.4882 151.13 83.4875 151.13 83.4868C151.13 83.486 151.13 83.4853 151.13 83.4846C151.13 83.4839 151.13 83.4832 151.13 83.4825C151.13 83.4817 151.13 83.481 151.13 83.4803C151.13 83.4796 151.13 83.4789 151.13 83.4782C151.13 83.4774 151.13 83.4767 151.13 83.476C151.13 83.4753 151.13 83.4746 151.13 83.4739C151.13 83.4731 151.13 83.4724 151.13 83.4717C151.13 83.471 151.13 83.4703 151.13 83.4696C151.13 83.4689 151.13 83.4681 151.13 83.4674C151.13 83.4667 151.13 83.466 151.13 83.4653C151.13 83.4646 151.13 83.4638 151.13 83.4631C151.13 83.4624 151.13 83.4617 151.13 83.461C151.13 83.4603 151.13 83.4595 151.13 83.4588C151.13 83.4581 151.13 83.4574 151.13 83.4567C151.13 83.456 151.13 83.4552 151.13 83.4545C151.13 83.4538 151.13 83.4531 151.13 83.4524C151.13 83.4517 151.13 83.451 151.13 83.4502C151.13 83.4495 151.13 83.4488 151.13 83.4481C151.13 83.4474 151.13 83.4467 151.13 83.4459C151.13 83.4452 151.13 83.4445 151.13 83.4438C151.13 83.4431 151.13 83.4424 151.13 83.4416C151.13 83.4409 151.13 83.4402 151.13 83.4395C151.13 83.4388 151.13 83.4381 151.13 83.4373C151.13 83.4366 151.13 83.4359 151.13 83.4352C151.13 83.4345 151.13 83.4338 151.13 83.433C151.13 83.4323 151.13 83.4316 151.13 83.4309C151.13 83.4302 151.13 83.4295 151.13 83.4287C151.13 83.428 151.13 83.4273 151.13 83.4266C151.13 83.4259 151.13 83.4252 151.13 83.4245C151.13 83.4237 151.13 83.423 151.13 83.4223C151.13 83.4216 151.13 83.4209 151.13 83.4202C151.13 83.4194 151.13 83.4187 151.13 83.418C151.13 83.4173 151.13 83.4166 151.13 83.4159C151.13 83.4151 151.13 83.4144 151.13 83.4137C151.13 83.413 151.13 83.4123 151.13 83.4116C151.13 83.4108 151.13 83.4101 151.13 83.4094C151.13 83.4087 151.13 83.408 151.13 83.4073C151.13 83.4065 151.13 83.4058 151.13 83.4051C151.13 83.4044 151.13 83.4037 151.13 83.403C151.13 83.4023 151.13 83.4015 151.13 83.4008C151.13 83.4001 151.13 83.3994 151.13 83.3987C151.13 83.398 151.13 83.3972 151.13 83.3965C151.13 83.3958 151.13 83.3951 151.13 83.3944C151.13 83.3937 151.13 83.3929 151.13 83.3922C151.13 83.3915 151.13 83.3908 151.13 83.3901C151.13 83.3894 151.13 83.3886 151.13 83.3879C151.13 83.3872 151.13 83.3865 151.13 83.3858C151.13 83.3851 151.13 83.3843 151.13 83.3836C151.13 83.3829 151.13 83.3822 151.13 83.3815C151.13 83.3808 151.13 83.3801 151.13 83.3793C151.13 83.3786 151.13 83.3779 151.13 83.3772C151.13 83.3765 151.13 83.3758 151.13 83.375C151.13 83.3743 151.13 83.3736 151.13 83.3729C151.13 83.3722 151.13 83.3715 151.13 83.3707C151.13 83.37 151.13 83.3693 151.13 83.3686C151.13 83.3679 151.13 83.3672 151.13 83.3664C151.13 83.3657 151.13 83.365 151.13 83.3643C151.13 83.3636 151.13 83.3629 151.13 83.3621C151.13 83.3614 151.13 83.3607 151.13 83.36C151.13 83.3593 151.13 83.3586 151.13 83.3578C151.13 83.3571 151.13 83.3564 151.13 83.3557C151.13 83.355 151.13 83.3543 151.13 83.3536C151.13 83.3528 151.13 83.3521 151.13 83.3514C151.13 83.3507 151.13 83.35 151.13 83.3493C151.13 83.3485 151.13 83.3478 151.13 83.3471C151.13 83.3464 151.13 83.3457 151.13 83.345C151.13 83.3442 151.13 83.3435 151.13 83.3428C151.13 83.3421 151.13 83.3414 151.13 83.3407C151.13 83.3399 151.13 83.3392 151.13 83.3385C151.13 83.3378 151.13 83.3371 151.13 83.3364C151.13 83.3357 151.13 83.3349 151.13 83.3342C151.13 83.3335 151.13 83.3328 151.13 83.3321C151.13 83.3314 151.13 83.3306 151.13 83.3299C151.13 83.3292 151.13 83.3285 151.13 83.3278C151.13 83.3271 151.13 83.3263 151.13 83.3256C151.13 83.3249 151.13 83.3242 151.13 83.3235C151.13 83.3228 151.13 83.322 151.13 83.3213C151.13 83.3206 151.13 83.3199 151.13 83.3192C151.13 83.3185 151.13 83.3177 151.13 83.317C151.13 83.3163 151.13 83.3156 151.13 83.3149C151.13 83.3142 151.13 83.3134 151.13 83.3127C151.13 83.312 151.13 83.3113 151.13 83.3106C151.13 83.3099 151.13 83.3092 151.13 83.3084C151.13 83.3077 151.13 83.307 151.13 83.3063C151.13 83.3056 151.13 83.3049 151.13 83.3041C151.13 83.3034 151.13 83.3027 151.13 83.302C151.13 83.3013 151.13 83.3006 151.13 83.2998C151.13 83.2991 151.13 83.2984 151.13 83.2977C151.13 83.297 151.13 83.2963 151.13 83.2955C151.13 83.2948 151.13 83.2941 151.13 83.2934C151.13 83.2927 151.13 83.292 151.13 83.2912C151.13 83.2905 151.13 83.2898 151.13 83.2891C151.13 83.2884 151.13 83.2877 151.13 83.287C151.13 83.2862 151.13 83.2855 151.13 83.2848C151.13 83.2841 151.13 83.2834 151.13 83.2827C151.13 83.2819 151.13 83.2812 151.13 83.2805C151.13 83.2798 151.13 83.2791 151.13 83.2784C151.13 83.2776 151.13 83.2769 151.13 83.2762C151.13 83.2755 151.13 83.2748 151.13 83.2741C151.13 83.2733 151.13 83.2726 151.13 83.2719C151.13 83.2712 151.13 83.2705 151.13 83.2698C151.13 83.269 151.13 83.2683 151.13 83.2676C151.13 83.2669 151.13 83.2662 151.13 83.2655C151.13 83.2648 151.13 83.264 151.13 83.2633C151.13 83.2626 151.13 83.2619 151.13 83.2612C151.13 83.2605 151.13 83.2597 151.13 83.259C151.13 83.2583 151.13 83.2576 151.13 83.2569C151.13 83.2562 151.13 83.2554 151.13 83.2547C151.13 83.254 151.13 83.2533 151.13 83.2526C151.13 83.2519 151.13 83.2511 151.13 83.2504C151.13 83.2497 151.13 83.249 151.13 83.2483C151.13 83.2476 151.13 83.2468 151.13 83.2461C151.13 83.2454 151.13 83.2447 151.13 83.244C151.13 83.2433 151.13 83.2425 151.13 83.2418C151.13 83.2411 151.13 83.2404 151.13 83.2397C151.13 83.239 151.13 83.2383 151.13 83.2375C151.13 83.2368 151.13 83.2361 151.13 83.2354C151.13 83.2347 151.13 83.234 151.13 83.2332C151.13 83.2325 151.13 83.2318 151.13 83.2311C151.13 83.2304 151.13 83.2297 151.13 83.2289C151.13 83.2282 151.13 83.2275 151.13 83.2268C151.13 83.2261 151.13 83.2254 151.13 83.2246C151.13 83.2239 151.13 83.2232 151.13 83.2225C151.13 83.2218 151.13 83.2211 151.13 83.2204C151.13 83.2196 151.13 83.2189 151.13 83.2182C151.13 83.2175 151.13 83.2168 151.13 83.2161C151.13 83.2153 151.13 83.2146 151.13 83.2139C151.13 83.2132 151.13 83.2125 151.13 83.2118C151.13 83.211 151.13 83.2103 151.13 83.2096C151.13 83.2089 151.13 83.2082 151.13 83.2075C151.13 83.2067 151.13 83.206 151.13 83.2053C151.13 83.2046 151.13 83.2039 151.13 83.2032C151.13 83.2024 151.13 83.2017 151.13 83.201C151.13 83.2003 151.13 83.1996 151.13 83.1989C151.13 83.1982 151.13 83.1974 151.13 83.1967C151.13 83.196 151.13 83.1953 151.13 83.1946C151.13 83.1939 151.13 83.1931 151.13 83.1924C151.13 83.1917 151.13 83.191 151.13 83.1903C151.13 83.1896 151.13 83.1888 151.13 83.1881C151.13 83.1874 151.13 83.1867 151.13 83.186C151.13 83.1853 151.13 83.1845 151.13 83.1838C151.13 83.1831 151.13 83.1824 151.13 83.1817C151.13 83.181 151.13 83.1802 151.13 83.1795C151.13 83.1788 151.13 83.1781 151.13 83.1774C151.13 83.1767 151.13 83.1759 151.13 83.1752C151.13 83.1745 151.13 83.1738 151.13 83.1731C151.13 83.1724 151.13 83.1717 151.13 83.1709C151.13 83.1702 151.13 83.1695 151.13 83.1688C151.13 83.1681 151.13 83.1674 151.13 83.1666C151.13 83.1659 151.13 83.1652 151.13 83.1645C151.13 83.1638 151.13 83.1631 151.13 83.1623C151.13 83.1616 151.13 83.1609 151.13 83.1602C151.13 83.1595 151.13 83.1588 151.13 83.158C151.13 83.1573 151.13 83.1566 151.13 83.1559C151.13 83.1552 151.13 83.1545 151.13 83.1537C151.13 83.153 151.13 83.1523 151.13 83.1516C151.13 83.1509 151.13 83.1502 151.13 83.1495C151.13 83.1487 151.13 83.148 151.13 83.1473C151.13 83.1466 151.13 83.1459 151.13 83.1452C151.13 83.1444 151.13 83.1437 151.13 83.143C151.13 83.1423 151.13 83.1416 151.13 83.1409C151.13 83.1401 151.13 83.1394 151.13 83.1387C151.13 83.138 151.13 83.1373 151.13 83.1366C151.13 83.1358 151.13 83.1351 151.13 83.1344C151.13 83.1337 151.13 83.133 151.13 83.1323C151.13 83.1315 151.13 83.1308 151.13 83.1301C151.13 83.1294 151.13 83.1287 151.13 83.128C151.13 83.1273 151.13 83.1265 151.13 83.1258C151.13 83.1251 151.13 83.1244 151.13 83.1237C151.13 83.123 151.13 83.1222 151.13 83.1215C151.13 83.1208 151.13 83.1201 151.13 83.1194C151.13 83.1187 151.13 83.1179 151.13 83.1172C151.13 83.1165 151.13 83.1158 151.13 83.1151C151.13 83.1144 151.13 83.1136 151.13 83.1129C151.13 83.1122 151.13 83.1115 151.13 83.1108C151.13 83.1101 151.13 83.1093 151.13 83.1086C151.13 83.1079 151.13 83.1072 151.13 83.1065C151.13 83.1058 151.13 83.1051 151.13 83.1043C151.13 83.1036 151.13 83.1029 151.13 83.1022C151.13 83.1015 151.13 83.1008 151.13 83.1C151.13 83.0993 151.13 83.0986 151.13 83.0979C151.13 83.0972 151.13 83.0965 151.13 83.0957C151.13 83.095 151.13 83.0943 151.13 83.0936C151.13 83.0929 151.13 83.0922 151.13 83.0914C151.13 83.0907 151.13 83.09 151.13 83.0893C151.13 83.0886 151.13 83.0879 151.13 83.0871C151.13 83.0864 151.13 83.0857 151.13 83.085C151.13 83.0843 151.13 83.0836 151.13 83.0829C151.13 83.0821 151.13 83.0814 151.13 83.0807C151.13 83.08 151.13 83.0793 151.13 83.0786C151.13 83.0778 151.13 83.0771 151.13 83.0764C151.13 83.0757 151.13 83.075 151.13 83.0743C151.13 83.0735 151.13 83.0728 151.13 83.0721C151.13 83.0714 151.13 83.0707 151.13 83.07C151.13 83.0692 151.13 83.0685 151.13 83.0678C151.13 83.0671 151.13 83.0664 151.13 83.0657C151.13 83.0649 151.13 83.0642 151.13 83.0635C151.13 83.0628 151.13 83.0621 151.13 83.0614C151.13 83.0606 151.13 83.0599 151.13 83.0592C151.13 83.0585 151.13 83.0578 151.13 83.0571C151.13 83.0564 151.13 83.0556 151.13 83.0549C151.13 83.0542 151.13 83.0535 151.13 83.0528C151.13 83.0521 151.13 83.0513 151.13 83.0506C151.13 83.0499 151.13 83.0492 151.13 83.0485C151.13 83.0478 151.13 83.047 151.13 83.0463C151.13 83.0456 151.13 83.0449 151.13 83.0442C151.13 83.0435 151.13 83.0427 151.13 83.042C151.13 83.0413 151.13 83.0406 151.13 83.0399C151.13 83.0392 151.13 83.0384 151.13 83.0377C151.13 83.037 151.13 83.0363 151.13 83.0356C151.13 83.0349 151.13 83.0342 151.13 83.0334C151.13 83.0327 151.13 83.032 151.13 83.0313C151.13 83.0306 151.13 83.0299 151.13 83.0291C151.13 83.0284 151.13 83.0277 151.13 83.027C151.13 83.0263 151.13 83.0256 151.13 83.0248C151.13 83.0241 151.13 83.0234 151.13 83.0227C151.13 83.022 151.13 83.0213 151.13 83.0205C151.13 83.0198 151.13 83.0191 151.13 83.0184C151.13 83.0177 151.13 83.017 151.13 83.0163C151.13 83.0155 151.13 83.0148 151.13 83.0141C151.13 83.0134 151.13 83.0127 151.13 83.012C151.13 83.0112 151.13 83.0105 151.13 83.0098C151.13 83.0091 151.13 83.0084 151.13 83.0077C151.13 83.0069 151.13 83.0062 151.13 83.0055C151.13 83.0048 151.13 83.0041 151.13 83.0034C151.13 83.0026 151.13 83.0019 151.13 83.0012C151.13 83.0005 151.13 82.9998 151.13 82.9991C151.13 82.9983 151.13 82.9976 151.13 82.9969C151.13 82.9962 151.13 82.9955 151.13 82.9948C151.13 82.994 151.13 82.9933 151.13 82.9926C151.13 82.9919 151.13 82.9912 151.13 82.9905C151.13 82.9897 151.13 82.989 151.13 82.9883C151.13 82.9876 151.13 82.9869 151.13 82.9862C151.13 82.9855 151.13 82.9847 151.13 82.984C151.13 82.9833 151.13 82.9826 151.13 82.9819C151.13 82.9812 151.13 82.9804 151.13 82.9797C151.13 82.979 151.13 82.9783 151.13 82.9776C151.13 82.9769 151.13 82.9761 151.13 82.9754C151.13 82.9747 151.13 82.974 151.13 82.9733C151.13 82.9726 151.13 82.9718 151.13 82.9711C151.13 82.9704 151.13 82.9697 151.13 82.969C151.13 82.9683 151.13 82.9676 151.13 82.9668C151.13 82.9661 151.13 82.9654 151.13 82.9647C151.13 82.964 151.13 82.9633 151.13 82.9625C151.13 82.9618 151.13 82.9611 151.13 82.9604C151.13 82.9597 151.13 82.959 151.13 82.9582C151.13 82.9575 151.13 82.9568 151.13 82.9561C151.13 82.9554 151.13 82.9547 151.13 82.9539C151.13 82.9532 151.13 82.9525 151.13 82.9518C151.13 82.9511 151.13 82.9504 151.13 82.9496C151.13 82.9489 151.13 82.9482 151.13 82.9475C151.13 82.9468 151.13 82.9461 151.13 82.9454C151.13 82.9446 151.13 82.9439 151.13 82.9432C151.13 82.9425 151.13 82.9418 151.13 82.9411C151.13 82.9403 151.13 82.9396 151.13 82.9389C151.13 82.9382 151.13 82.9375 151.13 82.9368C151.13 82.936 151.13 82.9353 151.13 82.9346C151.13 82.9339 151.13 82.9332 151.13 82.9325C151.13 82.9317 151.13 82.931 151.13 82.9303C151.13 82.9296 151.13 82.9289 151.13 82.9282C151.13 82.9274 151.13 82.9267 151.13 82.926C151.13 82.9253 151.13 82.9246 151.13 82.9239C151.13 82.9231 151.13 82.9224 151.13 82.9217C151.13 82.921 151.13 82.9203 151.13 82.9196C151.13 82.9189 151.13 82.9181 151.13 82.9174C151.13 82.9167 151.13 82.916 151.13 82.9153C151.13 82.9146 151.13 82.9138 151.13 82.9131C151.13 82.9124 151.13 82.9117 151.13 82.911C151.13 82.9103 151.13 82.9095 151.13 82.9088C151.13 82.9081 151.13 82.9074 151.13 82.9067C151.13 82.906 151.13 82.9052 151.13 82.9045C151.13 82.9038 151.13 82.9031 151.13 82.9024C151.13 82.9017 151.13 82.901 151.13 82.9002C151.13 82.8995 151.13 82.8988 151.13 82.8981C151.13 82.8974 151.13 82.8967 151.13 82.8959C151.13 82.8952 151.13 82.8945 151.13 82.8938C151.13 82.8931 151.13 82.8924 151.13 82.8916C151.13 82.8909 151.13 82.8902 151.13 82.8895C151.13 82.8888 151.13 82.8881 151.13 82.8873C151.13 82.8866 151.13 82.8859 151.13 82.8852C151.13 82.8845 151.13 82.8838 151.13 82.883C151.13 82.8823 151.13 82.8816 151.13 82.8809C151.13 82.8802 151.13 82.8795 151.13 82.8787C151.13 82.878 151.13 82.8773 151.13 82.8766C151.13 82.8759 151.13 82.8752 151.13 82.8745C151.13 82.8737 151.13 82.873 151.13 82.8723C151.13 82.8716 151.13 82.8709 151.13 82.8702C151.13 82.8694 151.13 82.8687 151.13 82.868C151.13 82.8673 151.13 82.8666 151.13 82.8659C151.13 82.8651 151.13 82.8644 151.13 82.8637C151.13 82.863 151.13 82.8623 151.13 82.8616C151.13 82.8608 151.13 82.8601 151.13 82.8594C151.13 82.8587 151.13 82.858 151.13 82.8573C151.13 82.8565 151.13 82.8558 151.13 82.8551C151.13 82.8544 151.13 82.8537 151.13 82.853C151.13 82.8523 151.13 82.8515 151.13 82.8508C151.13 82.8501 151.13 82.8494 151.13 82.8487C151.13 82.848 151.13 82.8472 151.13 82.8465C151.13 82.8458 151.13 82.8451 151.13 82.8444C151.13 82.8437 151.13 82.8429 151.13 82.8422C151.13 82.8415 151.13 82.8408 151.13 82.8401C151.13 82.8394 151.13 82.8386 151.13 82.8379C151.13 82.8372 151.13 82.8365 151.13 82.8358C151.13 82.8351 151.13 82.8343 151.13 82.8336C151.13 82.8329 151.13 82.8322 151.13 82.8315C151.13 82.8308 151.13 82.8301 151.13 82.8293C151.13 82.8286 151.13 82.8279 151.13 82.8272C151.13 82.8265 151.13 82.8258 151.13 82.825C151.13 82.8243 151.13 82.8236 151.13 82.8229C151.13 82.8222 151.13 82.8215 151.13 82.8207C151.13 82.82 151.13 82.8193 151.13 82.8186C151.13 82.8179 151.13 82.8172 151.13 82.8164C151.13 82.8157 151.13 82.815 151.13 82.8143C151.13 82.8136 151.13 82.8129 151.13 82.8121C151.13 82.8114 151.13 82.8107 151.13 82.81C151.13 82.8093 151.13 82.8086 151.13 82.8078C151.13 82.8071 151.13 82.8064 151.13 82.8057C151.13 82.805 151.13 82.8043 151.13 82.8036C151.13 82.8028 151.13 82.8021 151.13 82.8014C151.13 82.8007 151.13 82.8 151.13 82.7993C151.13 82.7985 151.13 82.7978 151.13 82.7971C151.13 82.7964 151.13 82.7957 151.13 82.795C151.13 82.7942 151.13 82.7935 151.13 82.7928C151.13 82.7921 151.13 82.7914 151.13 82.7907C151.13 82.7899 151.13 82.7892 151.13 82.7885C151.13 82.7878 151.13 82.7871 151.13 82.7864C151.13 82.7856 151.13 82.7849 151.13 82.7842C151.13 82.7835 151.13 82.7828 151.13 82.7821C151.13 82.7814 151.13 82.7806 151.13 82.7799C151.13 82.7792 151.13 82.7785 151.13 82.7778C151.13 82.7771 151.13 82.7763 151.13 82.7756C151.13 82.7749 151.13 82.7742 151.13 82.7735C151.13 82.7728 151.13 82.772 151.13 82.7713C151.13 82.7706 151.13 82.7699 151.13 82.7692C151.13 82.7685 151.13 82.7677 151.13 82.767C151.13 82.7663 151.13 82.7656 151.13 82.7649C151.13 82.7642 151.13 82.7635 151.13 82.7627C151.13 82.762 151.13 82.7613 151.13 82.7606C151.13 82.7599 151.13 82.7592 151.13 82.7584C151.13 82.7577 151.13 82.757 151.13 82.7563C151.13 82.7556 151.13 82.7549 151.13 82.7541C151.13 82.7534 151.13 82.7527 151.13 82.752C151.13 82.7513 151.13 82.7506 151.13 82.7498C151.13 82.7491 151.13 82.7484 151.13 82.7477C151.13 82.747 151.13 82.7463 151.13 82.7455C151.13 82.7448 151.13 82.7441 151.13 82.7434C151.13 82.7427 151.13 82.742 151.13 82.7412C151.13 82.7405 151.13 82.7398 151.13 82.7391C151.13 82.7384 151.13 82.7377 151.13 82.737C151.13 82.7362 151.13 82.7355 151.13 82.7348C151.13 82.7341 151.13 82.7334 151.13 82.7327C151.13 82.7319 151.13 82.7312 151.13 82.7305C151.13 82.7298 151.13 82.7291 151.13 82.7284C151.13 82.7276 151.13 82.7269 151.13 82.7262C151.13 82.7255 151.13 82.7248 151.13 82.7241C151.13 82.7233 151.13 82.7226 151.13 82.7219C151.13 82.7212 151.13 82.7205 151.13 82.7198C151.13 82.719 151.13 82.7183 151.13 82.7176C151.13 82.7169 151.13 82.7162 151.13 82.7155C151.13 82.7148 151.13 82.714 151.13 82.7133C151.13 82.7126 151.13 82.7119 151.13 82.7112C151.13 82.7105 151.13 82.7097 151.13 82.709C151.13 82.7083 151.13 82.7076 151.13 82.7069C151.13 82.7062 151.13 82.7054 151.13 82.7047C151.13 82.704 151.13 82.7033 151.13 82.7026C151.13 82.7019 151.13 82.7011 151.13 82.7004C151.13 82.6997 151.13 82.699 151.13 82.6983C151.13 82.6976 151.13 82.6968 151.13 82.6961C151.13 82.6954 151.13 82.6947 151.13 82.694C151.13 82.6933 151.13 82.6926 151.13 82.6918C151.13 82.6911 151.13 82.6904 151.13 82.6897C151.13 82.689 151.13 82.6883 151.13 82.6875C151.13 82.6868 151.13 82.6861 151.13 82.6854C151.13 82.6847 151.13 82.684 151.13 82.6832C151.13 82.6825 151.13 82.6818 151.13 82.6811C151.13 82.6804 151.13 82.6797 151.13 82.6789C151.13 82.6782 151.13 82.6775 151.13 82.6768C151.13 82.6761 151.13 82.6754 151.13 82.6746C151.13 82.6739 151.13 82.6732 151.13 82.6725C151.13 82.6718 151.13 82.6711 151.13 82.6703C151.13 82.6696 151.13 82.6689 151.13 82.6682C151.13 82.6675 151.13 82.6668 151.13 82.6661C151.13 82.6653 151.13 82.6646 151.13 82.6639C151.13 82.6632 151.13 82.6625 151.13 82.6618C151.13 82.661 151.13 82.6603 151.13 82.6596C151.13 82.6589 151.13 82.6582 151.13 82.6575C151.13 82.6567 151.13 82.656 151.13 82.6553C151.13 82.6546 151.13 82.6539 151.13 82.6532C151.13 82.6524 151.13 82.6517 151.13 82.651C151.13 82.6503 151.13 82.6496 151.13 82.6489C151.13 82.6482 151.13 82.6474 151.13 82.6467C151.13 82.646 151.13 82.6453 151.13 82.6446C151.13 82.6439 151.13 82.6431 151.13 82.6424C151.13 82.6417 151.13 82.641 151.13 82.6403C151.13 82.6396 151.13 82.6388 151.13 82.6381C151.13 82.6374 151.13 82.6367 151.13 82.636C151.13 82.6353 151.13 82.6345 151.13 82.6338C151.13 82.6331 151.13 82.6324 151.13 82.6317C151.13 82.631 151.13 82.6302 151.13 82.6295C151.13 82.6288 151.13 82.6281 151.13 82.6274C151.13 82.6267 151.13 82.6259 151.13 82.6252C151.13 82.6245 151.13 82.6238 151.13 82.6231C151.13 82.6224 151.13 82.6217 151.13 82.6209C151.13 82.6202 151.13 82.6195 151.13 82.6188C151.13 82.6181 151.13 82.6174 151.13 82.6166C151.13 82.6159 151.13 82.6152 151.13 82.6145C151.13 82.6138 151.13 82.6131 151.13 82.6123C151.13 82.6116 151.13 82.6109 151.13 82.6102C151.13 82.6095 151.13 82.6088 151.13 82.608C151.13 82.6073 151.13 82.6066 151.13 82.6059C151.13 82.6052 151.13 82.6045 151.13 82.6037C151.13 82.603 151.13 82.6023 151.13 82.6016C151.13 82.6009 151.13 82.6002 151.13 82.5995C151.13 82.5987 151.13 82.598 151.13 82.5973C151.13 82.5966 151.13 82.5959 151.13 82.5952C151.13 82.5944 151.13 82.5937 151.13 82.593C151.13 82.5923 151.13 82.5916 151.13 82.5909C151.13 82.5901 151.13 82.5894 151.13 82.5887C151.13 82.588 151.13 82.5873 151.13 82.5866C151.13 82.5858 151.13 82.5851 151.13 82.5844C151.13 82.5837 151.13 82.583 151.13 82.5823C151.13 82.5816 151.13 82.5808 151.13 82.5801C151.13 82.5794 151.13 82.5787 151.13 82.578C151.13 82.5773 151.13 82.5765 151.13 82.5758C151.13 82.5751 151.13 82.5744 151.13 82.5737C151.13 82.573 151.13 82.5722 151.13 82.5715C151.13 82.5708 151.13 82.5701 151.13 82.5694C151.13 82.5687 151.13 82.5679 151.13 82.5672C151.13 82.5665 151.13 82.5658 151.13 82.5651C151.13 82.5644 151.13 82.5636 151.13 82.5629C151.13 82.5622 151.13 82.5615 151.13 82.5608C151.13 82.5601 151.13 82.5593 151.13 82.5586C151.13 82.5579 151.13 82.5572 151.13 82.5565C151.13 82.5558 151.13 82.555 151.13 82.5543C151.13 82.5536 151.13 82.5529 151.13 82.5522C151.13 82.5515 151.13 82.5508 151.13 82.55C151.13 82.5493 151.13 82.5486 151.13 82.5479C151.13 82.5472 151.13 82.5465 151.13 82.5457C151.13 82.545 151.13 82.5443 151.13 82.5436C151.13 82.5429 151.13 82.5422 151.13 82.5414C151.13 82.5407 151.13 82.54 151.13 82.5393C151.13 82.5386 151.13 82.5379 151.13 82.5371C151.13 82.5364 151.13 82.5357 151.13 82.535H149.13Z" fill="black" mask="url(#path-5-outside-1_2541_61)"/>
</g>
<defs>
<filter id="filter0_bd_2541_61" x="111.528" y="56.15" width="61.2473" height="49.4" filterUnits="userSpaceOnUse" color-interpolation-filters="sRGB">
<feFlood flood-opacity="0" result="BackgroundImageFix"/>
<feGaussianBlur in="BackgroundImageFix" stdDeviation="2"/>
<feComposite in2="SourceAlpha" operator="in" result="effect1_backgroundBlur_2541_61"/>
<feColorMatrix in="SourceAlpha" type="matrix" values="0 0 0 0 0 0 0 0 0 0 0 0 0 0 0 0 0 0 127 0" result="hardAlpha"/>
<feOffset dy="4"/>
<feGaussianBlur stdDeviation="2"/>
<feComposite in2="hardAlpha" operator="out"/>
<feColorMatrix type="matrix" values="0 0 0 0 0 0 0 0 0 0 0 0 0 0 0 0 0 0 0.25 0"/>
<feBlend mode="normal" in2="effect1_backgroundBlur_2541_61" result="effect2_dropShadow_2541_61"/>
<feBlend mode="normal" in="SourceGraphic" in2="effect2_dropShadow_2541_61" result="shape"/>
</filter>
</defs>
</svg>
