<svg width="281" height="158" viewBox="0 0 281 158" fill="none" xmlns="http://www.w3.org/2000/svg">
<g clip-path="url(#clip0_2541_65)">
<rect width="281" height="158" fill="#CD5742"/>
<path d="M-7.41495 99.4742L72.5851 169.474" stroke="#6A0404" stroke-width="20"/>
<path d="M-9.79514 44.766L130.795 168.234" stroke="#6A0404" stroke-width="20"/>
<path d="M-2.44394 -2.63733L191.444 167.637" stroke="#6A0404" stroke-width="20"/>
<path d="M50.8811 -7.86475L252.119 168.865" stroke="#6A0404" stroke-width="20"/>
<path d="M108.086 -11.0981L293.914 152.098" stroke="#6A0404" stroke-width="20"/>
<path d="M177 -4L257 66" stroke="black" stroke-width="20"/>
<path d="M172.387 -8.44287L291.702 96.3411" stroke="#6A0404" stroke-width="20"/>
<path d="M207 -31L289 41" stroke="#6A0404" stroke-width="20"/>
<g filter="url(#filter0_bd_2541_65)">
<mask id="path-9-outside-1_2541_65" maskUnits="userSpaceOnUse" x="111" y="60" width="58" height="40" fill="black">
<rect fill="white" x="111" y="60" width="58" height="40"/>
<path d="M113.373 98V96.24C116.416 92.83 118.928 89.97 120.908 87.66C122.924 85.35 124.501 83.4067 125.638 81.83C126.811 80.2533 127.673 78.8783 128.223 77.705C128.773 76.5317 129.121 75.395 129.268 74.295C129.414 73.1583 129.488 71.8933 129.488 70.5C129.488 68.5567 129.011 66.9617 128.058 65.715C127.104 64.4683 125.803 63.845 124.153 63.845C120.413 63.845 118.543 65.9167 118.543 70.06V72.59L118.213 73.03H114.968C114.234 73.03 113.684 72.9017 113.318 72.645C112.951 72.3883 112.768 71.7467 112.768 70.72C112.768 69.6933 113.079 68.6667 113.703 67.64C114.363 66.5767 115.371 65.55 116.728 64.56C117.681 63.9 118.598 63.3133 119.478 62.8C120.358 62.2867 121.329 61.8833 122.393 61.59C123.493 61.2967 124.776 61.15 126.243 61.15C128.296 61.15 130.111 61.59 131.688 62.47C133.301 63.35 134.548 64.5233 135.428 65.99C136.344 67.4567 136.803 69.0883 136.803 70.885C136.803 72.0583 136.656 73.14 136.363 74.13C136.106 75.12 135.629 76.1467 134.933 77.21C134.236 78.2733 133.246 79.4833 131.963 80.84C130.716 82.1967 129.121 83.8283 127.178 85.735C125.234 87.605 122.851 89.86 120.028 92.5H133.998L137.023 87.11H137.903L137.353 98H113.373ZM154.74 98.55C152.027 98.55 149.698 97.7983 147.755 96.295C145.812 94.7917 144.327 92.6467 143.3 89.86C142.31 87.0367 141.815 83.7 141.815 79.85C141.815 76.2567 142.365 73.0667 143.465 70.28C144.565 67.4567 146.068 65.2383 147.975 63.625C149.918 61.975 152.173 61.15 154.74 61.15C157.453 61.15 159.782 61.9017 161.725 63.405C163.668 64.9083 165.135 67.0717 166.125 69.895C167.152 72.6817 167.665 76 167.665 79.85C167.665 83.4433 167.115 86.6517 166.015 89.475C164.915 92.2617 163.393 94.48 161.45 96.13C159.507 97.7433 157.27 98.55 154.74 98.55ZM155.73 95.91C156.793 95.91 157.673 95.2867 158.37 94.04C159.103 92.7933 159.653 91.0883 160.02 88.925C160.387 86.7617 160.57 84.305 160.57 81.555C160.57 78.145 160.332 75.1017 159.855 72.425C159.378 69.7117 158.645 67.585 157.655 66.045C156.702 64.505 155.455 63.735 153.915 63.735C152.852 63.735 151.935 64.34 151.165 65.55C150.432 66.76 149.863 68.4467 149.46 70.61C149.093 72.7367 148.91 75.2117 148.91 78.035C148.91 81.4817 149.148 84.5617 149.625 87.275C150.102 89.9517 150.835 92.06 151.825 93.6C152.852 95.14 154.153 95.91 155.73 95.91Z"/>
</mask>
<path d="M113.373 98V96.24C116.416 92.83 118.928 89.97 120.908 87.66C122.924 85.35 124.501 83.4067 125.638 81.83C126.811 80.2533 127.673 78.8783 128.223 77.705C128.773 76.5317 129.121 75.395 129.268 74.295C129.414 73.1583 129.488 71.8933 129.488 70.5C129.488 68.5567 129.011 66.9617 128.058 65.715C127.104 64.4683 125.803 63.845 124.153 63.845C120.413 63.845 118.543 65.9167 118.543 70.06V72.59L118.213 73.03H114.968C114.234 73.03 113.684 72.9017 113.318 72.645C112.951 72.3883 112.768 71.7467 112.768 70.72C112.768 69.6933 113.079 68.6667 113.703 67.64C114.363 66.5767 115.371 65.55 116.728 64.56C117.681 63.9 118.598 63.3133 119.478 62.8C120.358 62.2867 121.329 61.8833 122.393 61.59C123.493 61.2967 124.776 61.15 126.243 61.15C128.296 61.15 130.111 61.59 131.688 62.47C133.301 63.35 134.548 64.5233 135.428 65.99C136.344 67.4567 136.803 69.0883 136.803 70.885C136.803 72.0583 136.656 73.14 136.363 74.13C136.106 75.12 135.629 76.1467 134.933 77.21C134.236 78.2733 133.246 79.4833 131.963 80.84C130.716 82.1967 129.121 83.8283 127.178 85.735C125.234 87.605 122.851 89.86 120.028 92.5H133.998L137.023 87.11H137.903L137.353 98H113.373ZM154.74 98.55C152.027 98.55 149.698 97.7983 147.755 96.295C145.812 94.7917 144.327 92.6467 143.3 89.86C142.31 87.0367 141.815 83.7 141.815 79.85C141.815 76.2567 142.365 73.0667 143.465 70.28C144.565 67.4567 146.068 65.2383 147.975 63.625C149.918 61.975 152.173 61.15 154.74 61.15C157.453 61.15 159.782 61.9017 161.725 63.405C163.668 64.9083 165.135 67.0717 166.125 69.895C167.152 72.6817 167.665 76 167.665 79.85C167.665 83.4433 167.115 86.6517 166.015 89.475C164.915 92.2617 163.393 94.48 161.45 96.13C159.507 97.7433 157.27 98.55 154.74 98.55ZM155.73 95.91C156.793 95.91 157.673 95.2867 158.37 94.04C159.103 92.7933 159.653 91.0883 160.02 88.925C160.387 86.7617 160.57 84.305 160.57 81.555C160.57 78.145 160.332 75.1017 159.855 72.425C159.378 69.7117 158.645 67.585 157.655 66.045C156.702 64.505 155.455 63.735 153.915 63.735C152.852 63.735 151.935 64.34 151.165 65.55C150.432 66.76 149.863 68.4467 149.46 70.61C149.093 72.7367 148.91 75.2117 148.91 78.035C148.91 81.4817 149.148 84.5617 149.625 87.275C150.102 89.9517 150.835 92.06 151.825 93.6C152.852 95.14 154.153 95.91 155.73 95.91Z" fill="white"/>
<path d="M113.373 98H112.373V99H113.373V98ZM113.373 96.24L112.627 95.5741L112.373 95.8587V96.24H113.373ZM120.908 87.66L120.154 87.0023L120.148 87.0092L120.908 87.66ZM125.638 81.83L124.835 81.233L124.831 81.2391L124.827 81.2452L125.638 81.83ZM128.223 77.705L129.128 78.1294L128.223 77.705ZM129.268 74.295L130.259 74.4272L130.259 74.423L129.268 74.295ZM128.058 65.715L127.263 66.3224L127.263 66.3225L128.058 65.715ZM118.543 72.59L119.343 73.19L119.543 72.9233V72.59H118.543ZM118.213 73.03V74.03H118.713L119.013 73.63L118.213 73.03ZM113.703 67.64L112.853 67.1126L112.848 67.121L113.703 67.64ZM116.728 64.56L116.158 63.7378L116.148 63.7449L116.138 63.7522L116.728 64.56ZM119.478 62.8L118.974 61.9362H118.974L119.478 62.8ZM122.393 61.59L122.135 60.6237L122.127 60.626L122.393 61.59ZM131.688 62.47L131.2 63.3432L131.209 63.3479L131.688 62.47ZM135.428 65.99L134.57 66.5045L134.575 66.5123L134.58 66.52L135.428 65.99ZM136.363 74.13L135.404 73.8459L135.399 73.8624L135.395 73.879L136.363 74.13ZM134.933 77.21L135.769 77.758L134.933 77.21ZM131.963 80.84L131.236 80.1528L131.231 80.1581L131.226 80.1634L131.963 80.84ZM127.178 85.735L127.871 86.4556L127.878 86.4488L127.178 85.735ZM120.028 92.5L119.345 91.7696L117.494 93.5H120.028V92.5ZM133.998 92.5V93.5H134.583L134.87 92.9894L133.998 92.5ZM137.023 87.11V86.11H136.437L136.151 86.6206L137.023 87.11ZM137.903 87.11L138.901 87.1604L138.954 86.11H137.903V87.11ZM137.353 98V99H138.303L138.351 98.0504L137.353 98ZM114.373 98V96.24H112.373V98H114.373ZM114.119 96.9059C117.165 93.4931 119.681 90.6277 121.667 88.3108L120.148 87.0092C118.174 89.3123 115.667 92.1669 112.627 95.5741L114.119 96.9059ZM121.661 88.3177C123.688 85.996 125.287 84.0267 126.449 82.4148L124.827 81.2452C123.715 82.7867 122.161 84.704 120.154 87.0023L121.661 88.3177ZM126.44 82.427C127.635 80.821 128.539 79.3862 129.128 78.1294L127.317 77.2806C126.806 78.3705 125.987 79.6856 124.835 81.233L126.44 82.427ZM129.128 78.1294C129.714 76.8788 130.097 75.6437 130.259 74.4272L128.276 74.1628C128.145 75.1463 127.831 76.1846 127.317 77.2806L129.128 78.1294ZM130.259 74.423C130.413 73.236 130.488 71.9274 130.488 70.5H128.488C128.488 71.8593 128.416 73.0807 128.276 74.167L130.259 74.423ZM130.488 70.5C130.488 68.3905 129.968 66.5668 128.852 65.1075L127.263 66.3225C128.054 67.3566 128.488 68.7228 128.488 70.5H130.488ZM128.852 65.1075C127.698 63.599 126.096 62.845 124.153 62.845V64.845C125.51 64.845 126.51 65.3376 127.263 66.3224L128.852 65.1075ZM124.153 62.845C122.101 62.845 120.386 63.418 119.203 64.7287C118.037 66.0199 117.543 67.858 117.543 70.06H119.543C119.543 68.1186 119.983 66.8493 120.688 66.0688C121.374 65.3078 122.465 64.845 124.153 64.845V62.845ZM117.543 70.06V72.59H119.543V70.06H117.543ZM117.743 71.99L117.413 72.43L119.013 73.63L119.343 73.19L117.743 71.99ZM118.213 72.03H114.968V74.03H118.213V72.03ZM114.968 72.03C114.32 72.03 114.013 71.9112 113.891 71.8258L112.744 73.4642C113.356 73.8922 114.148 74.03 114.968 74.03V72.03ZM113.891 71.8258C113.969 71.8801 113.925 71.9009 113.867 71.6965C113.81 71.4994 113.768 71.1846 113.768 70.72H111.768C111.768 71.282 111.817 71.8014 111.944 72.246C112.069 72.6832 112.3 73.1533 112.744 73.4642L113.891 71.8258ZM113.768 70.72C113.768 69.9055 114.013 69.0561 114.557 68.159L112.848 67.121C112.146 68.2772 111.768 69.4812 111.768 70.72H113.768ZM114.552 68.1674C115.126 67.2438 116.031 66.3064 117.317 65.3678L116.138 63.7522C114.711 64.7936 113.6 65.9095 112.853 67.1126L114.552 68.1674ZM117.297 65.3822C118.232 64.7349 119.127 64.1625 119.982 63.6638L118.974 61.9362C118.069 62.4642 117.13 63.0651 116.158 63.7378L117.297 65.3822ZM119.982 63.6638C120.781 63.1974 121.672 62.8262 122.659 62.554L122.127 60.626C120.987 60.9404 119.934 61.3759 118.974 61.9362L119.982 63.6638ZM122.65 62.5562C123.646 62.2907 124.839 62.15 126.243 62.15V60.15C124.713 60.15 123.339 60.3027 122.135 60.6238L122.65 62.5562ZM126.243 62.15C128.149 62.15 129.792 62.5572 131.2 63.3432L132.175 61.5968C130.43 60.6228 128.443 60.15 126.243 60.15V62.15ZM131.209 63.3479C132.678 64.1492 133.789 65.2019 134.57 66.5045L136.285 65.4755C135.307 63.8448 133.924 62.5508 132.167 61.5921L131.209 63.3479ZM134.58 66.52C135.393 67.8214 135.803 69.2681 135.803 70.885H137.803C137.803 68.9086 137.296 67.092 136.276 65.46L134.58 66.52ZM135.803 70.885C135.803 71.975 135.666 72.9597 135.404 73.8459L137.321 74.4141C137.646 73.3203 137.803 72.1416 137.803 70.885H135.803ZM135.395 73.879C135.171 74.7414 134.747 75.6686 134.096 76.662L135.769 77.758C136.512 76.6247 137.041 75.4986 137.331 74.381L135.395 73.879ZM134.096 76.662C133.443 77.6586 132.496 78.8212 131.236 80.1528L132.689 81.5272C133.996 80.1455 135.029 78.8881 135.769 77.758L134.096 76.662ZM131.226 80.1634C129.995 81.5029 128.414 83.1215 126.477 85.0212L127.878 86.4488C129.828 84.5352 131.437 82.8904 132.699 81.5166L131.226 80.1634ZM126.484 85.0144C124.546 86.88 122.166 89.1316 119.345 91.7696L120.711 93.2304C123.536 90.5884 125.923 88.33 127.871 86.4556L126.484 85.0144ZM120.028 93.5H133.998V91.5H120.028V93.5ZM134.87 92.9894L137.895 87.5994L136.151 86.6206L133.126 92.0106L134.87 92.9894ZM137.023 88.11H137.903V86.11H137.023V88.11ZM136.904 87.0596L136.354 97.9496L138.351 98.0504L138.901 87.1604L136.904 87.0596ZM137.353 97H113.373V99H137.353V97ZM147.755 96.295L147.143 97.086L147.755 96.295ZM143.3 89.86L142.356 90.1909L142.359 90.1983L142.362 90.2057L143.3 89.86ZM143.465 70.28L144.395 70.6472L144.397 70.643L143.465 70.28ZM147.975 63.625L148.621 64.3884L148.622 64.3873L147.975 63.625ZM166.125 69.895L165.181 70.2259L165.184 70.2333L165.187 70.2407L166.125 69.895ZM166.015 89.475L166.945 89.8422L166.947 89.838L166.015 89.475ZM161.45 96.13L162.089 96.8995L162.097 96.8923L161.45 96.13ZM158.37 94.04L157.508 93.533L157.502 93.5425L157.497 93.5522L158.37 94.04ZM160.02 88.925L161.006 89.0921V89.0921L160.02 88.925ZM159.855 72.425L158.87 72.598L158.87 72.6003L159.855 72.425ZM157.655 66.045L156.805 66.5714L156.809 66.5786L156.814 66.5858L157.655 66.045ZM151.165 65.55L150.321 65.0131L150.315 65.0223L150.31 65.0317L151.165 65.55ZM149.46 70.61L148.477 70.4267L148.475 70.4401L149.46 70.61ZM149.625 87.275L148.64 87.448L148.64 87.4503L149.625 87.275ZM151.825 93.6L150.984 94.1408L150.988 94.1478L150.993 94.1547L151.825 93.6ZM154.74 97.55C152.224 97.55 150.117 96.8576 148.367 95.504L147.143 97.086C149.28 98.739 151.83 99.55 154.74 99.55V97.55ZM148.367 95.504C146.6 94.1375 145.214 92.1618 144.238 89.5143L142.362 90.2057C143.44 93.1315 145.023 95.4458 147.143 97.086L148.367 95.504ZM144.244 89.5291C143.3 86.8376 142.815 83.618 142.815 79.85H140.815C140.815 83.782 141.32 87.2357 142.356 90.1909L144.244 89.5291ZM142.815 79.85C142.815 76.3579 143.35 73.2961 144.395 70.6472L142.535 69.9128C141.38 72.8372 140.815 76.1554 140.815 79.85H142.815ZM144.397 70.643C145.449 67.942 146.866 65.8735 148.621 64.3884L147.329 62.8616C145.271 64.6032 143.681 66.9713 142.533 69.917L144.397 70.643ZM148.622 64.3873C150.383 62.8919 152.409 62.15 154.74 62.15V60.15C151.938 60.15 149.453 61.0581 147.328 62.8627L148.622 64.3873ZM154.74 62.15C157.256 62.15 159.363 62.8424 161.113 64.196L162.337 62.614C160.2 60.961 157.65 60.15 154.74 60.15V62.15ZM161.113 64.196C162.873 65.5577 164.241 67.5448 165.181 70.2259L167.069 69.5641C166.029 66.5986 164.463 64.259 162.337 62.614L161.113 64.196ZM165.187 70.2407C166.162 72.8893 166.665 76.0848 166.665 79.85H168.665C168.665 75.9152 168.141 72.474 167.063 69.5493L165.187 70.2407ZM166.665 79.85C166.665 83.3417 166.131 86.4237 165.083 89.112L166.947 89.838C168.099 86.8796 168.665 83.5449 168.665 79.85H166.665ZM165.085 89.1078C164.035 91.7684 162.6 93.8414 160.803 95.3677L162.097 96.8923C164.186 95.1186 165.795 92.755 166.945 89.8422L165.085 89.1078ZM160.811 95.3606C159.048 96.8246 157.037 97.55 154.74 97.55V99.55C157.503 99.55 159.966 98.662 162.089 96.8994L160.811 95.3606ZM155.73 96.91C157.278 96.91 158.439 95.9668 159.243 94.5278L157.497 93.5522C156.908 94.6065 156.308 94.91 155.73 94.91V96.91ZM159.232 94.547C160.05 93.1559 160.628 91.3197 161.006 89.0921L159.034 88.7579C158.678 90.857 158.156 92.4307 157.508 93.533L159.232 94.547ZM161.006 89.0921C161.384 86.8618 161.57 84.3476 161.57 81.555H159.57C159.57 84.2624 159.389 86.6615 159.034 88.7579L161.006 89.0921ZM161.57 81.555C161.57 78.1003 161.329 74.9966 160.84 72.2497L158.87 72.6003C159.335 75.2067 159.57 78.1897 159.57 81.555H161.57ZM160.84 72.252C160.351 69.4675 159.585 67.1978 158.496 65.5042L156.814 66.5858C157.705 67.9722 158.406 69.9558 158.87 72.598L160.84 72.252ZM158.505 65.5186C157.407 63.745 155.867 62.735 153.915 62.735V64.735C155.043 64.735 155.996 65.265 156.805 66.5714L158.505 65.5186ZM153.915 62.735C152.395 62.735 151.204 63.6267 150.321 65.0131L152.009 66.0869C152.666 65.0533 153.308 64.735 153.915 64.735V62.735ZM150.31 65.0317C149.489 66.3856 148.891 68.2034 148.477 70.4267L150.443 70.7933C150.835 68.69 151.374 67.1344 152.02 66.0683L150.31 65.0317ZM148.475 70.4401C148.096 72.6369 147.91 75.171 147.91 78.035H149.91C149.91 75.2523 150.091 72.8364 150.445 70.7799L148.475 70.4401ZM147.91 78.035C147.91 81.5259 148.151 84.6655 148.64 87.448L150.61 87.102C150.145 84.4579 149.91 81.4374 149.91 78.035H147.91ZM148.64 87.4503C149.13 90.1997 149.896 92.4493 150.984 94.1408L152.666 93.0592C151.774 91.6707 151.073 89.7036 150.61 87.0997L148.64 87.4503ZM150.993 94.1547C152.168 95.9169 153.757 96.91 155.73 96.91V94.91C154.55 94.91 153.536 94.3631 152.657 93.0453L150.993 94.1547Z" fill="black" mask="url(#path-9-outside-1_2541_65)"/>
</g>
</g>
<defs>
<filter id="filter0_bd_2541_65" x="108.768" y="57.15" width="62.8973" height="49.4" filterUnits="userSpaceOnUse" color-interpolation-filters="sRGB">
<feFlood flood-opacity="0" result="BackgroundImageFix"/>
<feGaussianBlur in="BackgroundImageFix" stdDeviation="2"/>
<feComposite in2="SourceAlpha" operator="in" result="effect1_backgroundBlur_2541_65"/>
<feColorMatrix in="SourceAlpha" type="matrix" values="0 0 0 0 0 0 0 0 0 0 0 0 0 0 0 0 0 0 127 0" result="hardAlpha"/>
<feOffset dy="4"/>
<feGaussianBlur stdDeviation="2"/>
<feComposite in2="hardAlpha" operator="out"/>
<feColorMatrix type="matrix" values="0 0 0 0 0 0 0 0 0 0 0 0 0 0 0 0 0 0 0.25 0"/>
<feBlend mode="normal" in2="effect1_backgroundBlur_2541_65" result="effect2_dropShadow_2541_65"/>
<feBlend mode="normal" in="SourceGraphic" in2="effect2_dropShadow_2541_65" result="shape"/>
</filter>
<clipPath id="clip0_2541_65">
<rect width="281" height="158" fill="white"/>
</clipPath>
</defs>
</svg>
