<svg width="281" height="158" viewBox="0 0 281 158" fill="none" xmlns="http://www.w3.org/2000/svg">
<g clip-path="url(#clip0_2541_56)">
<rect width="281" height="158" fill="#CD5742"/>
<path d="M70.5 -16C56.2095 33.4738 31.5433 42.3751 -14 56.5" stroke="#6A0404" stroke-width="2"/>
<path d="M-4 139C38.1337 82.4381 104.259 68.3388 130.111 28.6694C155.964 -11 243.104 -5.26064 296 -11" stroke="#6A0404" stroke-width="2"/>
<circle cx="13" cy="50" r="6" fill="#F2A395"/>
<circle cx="47" cy="20" r="6" fill="#F2A395"/>
<circle cx="20" cy="118" r="6" fill="#F2A395"/>
<circle cx="42" cy="89" r="6" fill="#F2A395"/>
<circle cx="75" cy="67" r="6" fill="#F2A395"/>
<circle cx="123" cy="46" r="6" fill="#F2A395"/>
<circle cx="139" cy="11" r="6" fill="#F2A395"/>
<g filter="url(#filter0_bd_2541_56)">
<mask id="path-10-outside-1_2541_56" maskUnits="userSpaceOnUse" x="114" y="59" width="53" height="39" fill="black">
<rect fill="white" x="114" y="59" width="53" height="39"/>
<path d="M119.763 97V96.12L124.878 94.085V66.64L115.528 71.04V68.95L129.058 60.7H131.533V94.085L136.098 96.12V97H119.763ZM149.25 97V96.12L154.365 94.085V66.64L145.015 71.04V68.95L158.545 60.7H161.02V94.085L165.585 96.12V97H149.25Z"/>
</mask>
<path d="M119.763 97V96.12L124.878 94.085V66.64L115.528 71.04V68.95L129.058 60.7H131.533V94.085L136.098 96.12V97H119.763ZM149.25 97V96.12L154.365 94.085V66.64L145.015 71.04V68.95L158.545 60.7H161.02V94.085L165.585 96.12V97H149.25Z" fill="white"/>
<path d="M119.763 97H118.763V98H119.763V97ZM119.763 96.12L119.393 95.1908L118.763 95.4416V96.12H119.763ZM124.878 94.085L125.247 95.0142L125.878 94.7634V94.085H124.878ZM124.878 66.64H125.878V65.0642L124.452 65.7352L124.878 66.64ZM115.528 71.04H114.528V72.6158L115.953 71.9448L115.528 71.04ZM115.528 68.95L115.007 68.0962L114.528 68.3885V68.95H115.528ZM129.058 60.7V59.7H128.777L128.537 59.8462L129.058 60.7ZM131.533 60.7H132.533V59.7H131.533V60.7ZM131.533 94.085H130.533V94.7341L131.126 94.9984L131.533 94.085ZM136.098 96.12H137.098V95.4709L136.505 95.2066L136.098 96.12ZM136.098 97V98H137.098V97H136.098ZM120.763 97V96.12H118.763V97H120.763ZM120.132 97.0492L125.247 95.0142L124.508 93.1558L119.393 95.1908L120.132 97.0492ZM125.878 94.085V66.64H123.878V94.085H125.878ZM124.452 65.7352L115.102 70.1352L115.953 71.9448L125.303 67.5448L124.452 65.7352ZM116.528 71.04V68.95H114.528V71.04H116.528ZM116.048 69.8038L129.578 61.5538L128.537 59.8462L115.007 68.0962L116.048 69.8038ZM129.058 61.7H131.533V59.7H129.058V61.7ZM130.533 60.7V94.085H132.533V60.7H130.533ZM131.126 94.9984L135.691 97.0334L136.505 95.2066L131.94 93.1716L131.126 94.9984ZM135.098 96.12V97H137.098V96.12H135.098ZM136.098 96H119.763V98H136.098V96ZM149.25 97H148.25V98H149.25V97ZM149.25 96.12L148.88 95.1908L148.25 95.4416V96.12H149.25ZM154.365 94.085L154.735 95.0142L155.365 94.7634V94.085H154.365ZM154.365 66.64H155.365V65.0642L153.939 65.7352L154.365 66.64ZM145.015 71.04H144.015V72.6158L145.441 71.9448L145.015 71.04ZM145.015 68.95L144.494 68.0962L144.015 68.3885V68.95H145.015ZM158.545 60.7V59.7H158.264L158.024 59.8462L158.545 60.7ZM161.02 60.7H162.02V59.7H161.02V60.7ZM161.02 94.085H160.02V94.7341L160.613 94.9984L161.02 94.085ZM165.585 96.12H166.585V95.4709L165.992 95.2066L165.585 96.12ZM165.585 97V98H166.585V97H165.585ZM150.25 97V96.12H148.25V97H150.25ZM149.62 97.0492L154.735 95.0142L153.995 93.1558L148.88 95.1908L149.62 97.0492ZM155.365 94.085V66.64H153.365V94.085H155.365ZM153.939 65.7352L144.589 70.1352L145.441 71.9448L154.791 67.5448L153.939 65.7352ZM146.015 71.04V68.95H144.015V71.04H146.015ZM145.536 69.8038L159.066 61.5538L158.024 59.8462L144.494 68.0962L145.536 69.8038ZM158.545 61.7H161.02V59.7H158.545V61.7ZM160.02 60.7V94.085H162.02V60.7H160.02ZM160.613 94.9984L165.178 97.0334L165.992 95.2066L161.427 93.1716L160.613 94.9984ZM164.585 96.12V97H166.585V96.12H164.585ZM165.585 96H149.25V98H165.585V96Z" fill="black" mask="url(#path-10-outside-1_2541_56)"/>
</g>
</g>
<defs>
<filter id="filter0_bd_2541_56" x="111.528" y="56.7" width="58.0573" height="48.3" filterUnits="userSpaceOnUse" color-interpolation-filters="sRGB">
<feFlood flood-opacity="0" result="BackgroundImageFix"/>
<feGaussianBlur in="BackgroundImageFix" stdDeviation="2"/>
<feComposite in2="SourceAlpha" operator="in" result="effect1_backgroundBlur_2541_56"/>
<feColorMatrix in="SourceAlpha" type="matrix" values="0 0 0 0 0 0 0 0 0 0 0 0 0 0 0 0 0 0 127 0" result="hardAlpha"/>
<feOffset dy="4"/>
<feGaussianBlur stdDeviation="2"/>
<feComposite in2="hardAlpha" operator="out"/>
<feColorMatrix type="matrix" values="0 0 0 0 0 0 0 0 0 0 0 0 0 0 0 0 0 0 0.25 0"/>
<feBlend mode="normal" in2="effect1_backgroundBlur_2541_56" result="effect2_dropShadow_2541_56"/>
<feBlend mode="normal" in="SourceGraphic" in2="effect2_dropShadow_2541_56" result="shape"/>
</filter>
<clipPath id="clip0_2541_56">
<rect width="281" height="158" fill="white"/>
</clipPath>
</defs>
</svg>
