<svg width="281" height="158" viewBox="0 0 281 158" fill="none" xmlns="http://www.w3.org/2000/svg">
<g clip-path="url(#clip0_2541_52)">
<rect width="281" height="158" fill="#CD5742"/>
<path d="M-4.00299 136.932H286.122" stroke="#6A0404" stroke-width="20"/>
<path d="M-2 97H288.125" stroke="#6A0404" stroke-width="20"/>
<path d="M0 56H290.125" stroke="#6A0404" stroke-width="20"/>
<path d="M0 16H290.125" stroke="#6A0404" stroke-width="20"/>
<g filter="url(#filter0_bd_2541_52)">
<mask id="path-5-outside-1_2541_52" maskUnits="userSpaceOnUse" x="128" y="59" width="26" height="39" fill="black">
<rect fill="white" x="128" y="59" width="26" height="39"/>
<path d="M131.646 97C132.563 94.8367 133.516 92.7283 134.506 90.675C135.496 88.6217 136.615 86.4583 137.861 84.185C139.108 81.9117 140.556 79.3633 142.206 76.54C143.856 73.68 145.8 70.3617 148.036 66.585H129.281V60.7H152.986V62.405C151.666 64.935 150.291 67.63 148.861 70.49C147.468 73.35 146.093 76.2833 144.736 79.29C143.416 82.26 142.225 85.2483 141.161 88.255C140.135 91.225 139.328 94.14 138.741 97H131.646Z"/>
</mask>
<path d="M131.646 97C132.563 94.8367 133.516 92.7283 134.506 90.675C135.496 88.6217 136.615 86.4583 137.861 84.185C139.108 81.9117 140.556 79.3633 142.206 76.54C143.856 73.68 145.8 70.3617 148.036 66.585H129.281V60.7H152.986V62.405C151.666 64.935 150.291 67.63 148.861 70.49C147.468 73.35 146.093 76.2833 144.736 79.29C143.416 82.26 142.225 85.2483 141.161 88.255C140.135 91.225 139.328 94.14 138.741 97H131.646Z" fill="white"/>
<path d="M131.646 97L130.726 96.6099L130.137 98H131.646V97ZM134.506 90.675L135.407 91.1093L134.506 90.675ZM137.861 84.185L138.738 84.6658L137.861 84.185ZM142.206 76.54L143.07 77.0446L143.073 77.0397L142.206 76.54ZM148.036 66.585L148.897 67.0946L149.791 65.585H148.036V66.585ZM129.281 66.585H128.281V67.585H129.281V66.585ZM129.281 60.7V59.7H128.281V60.7H129.281ZM152.986 60.7H153.986V59.7H152.986V60.7ZM152.986 62.405L153.873 62.8676L153.986 62.6502V62.405H152.986ZM148.861 70.49L147.967 70.0428L147.962 70.052L148.861 70.49ZM144.736 79.29L143.825 78.8787L143.823 78.8839L144.736 79.29ZM141.161 88.255L140.219 87.9216L140.216 87.9283L141.161 88.255ZM138.741 97V98H139.557L139.721 97.2009L138.741 97ZM132.567 97.3901C133.478 95.2412 134.424 93.1476 135.407 91.1093L133.606 90.2407C132.608 92.309 131.648 94.4321 130.726 96.6099L132.567 97.3901ZM135.407 91.1093C136.389 89.0736 137.499 86.9259 138.738 84.6658L136.985 83.7042C135.731 85.9908 134.604 88.1697 133.606 90.2407L135.407 91.1093ZM138.738 84.6658C139.98 82.4022 141.423 79.862 143.07 77.0446L141.343 76.0354C139.69 78.8647 138.237 81.4211 136.985 83.7042L138.738 84.6658ZM143.073 77.0397C144.72 74.1839 146.661 70.869 148.897 67.0946L147.176 66.0754C144.938 69.8544 142.993 73.1761 141.34 76.0403L143.073 77.0397ZM148.036 65.585H129.281V67.585H148.036V65.585ZM130.281 66.585V60.7H128.281V66.585H130.281ZM129.281 61.7H152.986V59.7H129.281V61.7ZM151.986 60.7V62.405H153.986V60.7H151.986ZM152.1 61.9424C150.777 64.4781 149.399 67.1782 147.967 70.0428L149.756 70.9372C151.184 68.0818 152.556 65.3919 153.873 62.8676L152.1 61.9424ZM147.962 70.052C146.565 72.9212 145.185 75.8634 143.825 78.8787L145.648 79.7013C147.001 76.7032 148.371 73.7788 149.76 70.928L147.962 70.052ZM143.823 78.8839C142.492 81.8773 141.291 84.8898 140.219 87.9216L142.104 88.5884C143.159 85.6068 144.341 82.6427 145.65 79.6961L143.823 78.8839ZM140.216 87.9283C139.176 90.9363 138.358 93.8933 137.762 96.7991L139.721 97.2009C140.298 94.3867 141.093 91.5137 142.106 88.5817L140.216 87.9283ZM138.741 96H131.646V98H138.741V96Z" fill="black" mask="url(#path-5-outside-1_2541_52)"/>
</g>
</g>
<defs>
<filter id="filter0_bd_2541_52" x="125.281" y="56.7" width="31.705" height="48.3" filterUnits="userSpaceOnUse" color-interpolation-filters="sRGB">
<feFlood flood-opacity="0" result="BackgroundImageFix"/>
<feGaussianBlur in="BackgroundImageFix" stdDeviation="2"/>
<feComposite in2="SourceAlpha" operator="in" result="effect1_backgroundBlur_2541_52"/>
<feColorMatrix in="SourceAlpha" type="matrix" values="0 0 0 0 0 0 0 0 0 0 0 0 0 0 0 0 0 0 127 0" result="hardAlpha"/>
<feOffset dy="4"/>
<feGaussianBlur stdDeviation="2"/>
<feComposite in2="hardAlpha" operator="out"/>
<feColorMatrix type="matrix" values="0 0 0 0 0 0 0 0 0 0 0 0 0 0 0 0 0 0 0.25 0"/>
<feBlend mode="normal" in2="effect1_backgroundBlur_2541_52" result="effect2_dropShadow_2541_52"/>
<feBlend mode="normal" in="SourceGraphic" in2="effect2_dropShadow_2541_52" result="shape"/>
</filter>
<clipPath id="clip0_2541_52">
<rect width="281" height="158" fill="white"/>
</clipPath>
</defs>
</svg>
