<svg width="281" height="158" viewBox="0 0 281 158" fill="none" xmlns="http://www.w3.org/2000/svg">
<rect width="281" height="158" fill="#CD5742"/>
<circle cx="39" cy="25" r="5" fill="#F2A395"/>
<circle cx="49" cy="122" r="5" fill="#F2A395"/>
<circle cx="136" cy="30" r="5" fill="#F2A395"/>
<circle cx="173" cy="97" r="5" fill="#F2A395"/>
<circle cx="24" cy="61" r="5" fill="#F2A395"/>
<circle cx="87" cy="74" r="5" fill="#F2A395"/>
<circle cx="126" cy="132" r="5" fill="#F2A395"/>
<circle cx="190" cy="79" r="5" fill="#F2A395"/>
<circle cx="239" cy="25" r="5" fill="#F2A395"/>
<circle cx="249" cy="102" r="5" fill="#F2A395"/>
<circle cx="217" cy="142" r="5" fill="#F2A395"/>
<g filter="url(#filter0_bd_2541_63)">
<mask id="path-12-outside-1_2541_63" maskUnits="userSpaceOnUse" x="113" y="59" width="56" height="40" fill="black">
<rect fill="white" x="113" y="59" width="56" height="40"/>
<path d="M118.763 97V96.12L123.878 94.085V66.64L114.528 71.04V68.95L128.058 60.7H130.533V94.085L135.098 96.12V97H118.763ZM154.63 97.55C152.357 97.55 150.285 97.2017 148.415 96.505C146.545 95.8083 145.042 94.8183 143.905 93.535C142.805 92.215 142.255 90.675 142.255 88.915C142.255 87.8517 142.457 86.7883 142.86 85.725C143.263 84.6617 143.997 83.6167 145.06 82.59C146.123 81.5267 147.627 80.4633 149.57 79.4C147.223 77.9333 145.592 76.485 144.675 75.055C143.758 73.625 143.3 71.9017 143.3 69.885C143.3 68.125 143.85 66.5117 144.95 65.045C146.05 63.5417 147.498 62.35 149.295 61.47C151.092 60.59 153.017 60.15 155.07 60.15C157.05 60.15 158.865 60.535 160.515 61.305C162.202 62.075 163.54 63.1383 164.53 64.495C165.557 65.8517 166.07 67.3917 166.07 69.115C166.07 70.6183 165.428 72.0117 164.145 73.295C162.862 74.5417 161.175 75.715 159.085 76.815C161.945 78.4283 164.017 80.0233 165.3 81.6C166.583 83.14 167.225 85.01 167.225 87.21C167.225 89.3367 166.62 91.17 165.41 92.71C164.237 94.25 162.697 95.4417 160.79 96.285C158.883 97.1283 156.83 97.55 154.63 97.55ZM149.68 67.575C149.68 68.5283 149.845 69.4083 150.175 70.215C150.505 71.0217 151.165 71.8467 152.155 72.69C153.182 73.5333 154.703 74.4867 156.72 75.55C157.857 74.78 158.755 73.8817 159.415 72.855C160.075 71.8283 160.405 70.6367 160.405 69.28C160.405 67.0433 159.873 65.3933 158.81 64.33C157.783 63.23 156.427 62.68 154.74 62.68C153.273 62.68 152.063 63.12 151.11 64C150.157 64.88 149.68 66.0717 149.68 67.575ZM148.14 87.925C148.14 90.1617 148.745 91.9217 149.955 93.205C151.165 94.4883 152.742 95.13 154.685 95.13C156.628 95.13 158.132 94.6167 159.195 93.59C160.295 92.5633 160.845 91.2067 160.845 89.52C160.845 88.2 160.533 87.1 159.91 86.22C159.287 85.34 158.297 84.4783 156.94 83.635C155.583 82.7917 153.823 81.7833 151.66 80.61C150.23 81.6733 149.277 82.755 148.8 83.855C148.36 84.955 148.14 86.3117 148.14 87.925Z"/>
</mask>
<path d="M118.763 97V96.12L123.878 94.085V66.64L114.528 71.04V68.95L128.058 60.7H130.533V94.085L135.098 96.12V97H118.763ZM154.63 97.55C152.357 97.55 150.285 97.2017 148.415 96.505C146.545 95.8083 145.042 94.8183 143.905 93.535C142.805 92.215 142.255 90.675 142.255 88.915C142.255 87.8517 142.457 86.7883 142.86 85.725C143.263 84.6617 143.997 83.6167 145.06 82.59C146.123 81.5267 147.627 80.4633 149.57 79.4C147.223 77.9333 145.592 76.485 144.675 75.055C143.758 73.625 143.3 71.9017 143.3 69.885C143.3 68.125 143.85 66.5117 144.95 65.045C146.05 63.5417 147.498 62.35 149.295 61.47C151.092 60.59 153.017 60.15 155.07 60.15C157.05 60.15 158.865 60.535 160.515 61.305C162.202 62.075 163.54 63.1383 164.53 64.495C165.557 65.8517 166.07 67.3917 166.07 69.115C166.07 70.6183 165.428 72.0117 164.145 73.295C162.862 74.5417 161.175 75.715 159.085 76.815C161.945 78.4283 164.017 80.0233 165.3 81.6C166.583 83.14 167.225 85.01 167.225 87.21C167.225 89.3367 166.62 91.17 165.41 92.71C164.237 94.25 162.697 95.4417 160.79 96.285C158.883 97.1283 156.83 97.55 154.63 97.55ZM149.68 67.575C149.68 68.5283 149.845 69.4083 150.175 70.215C150.505 71.0217 151.165 71.8467 152.155 72.69C153.182 73.5333 154.703 74.4867 156.72 75.55C157.857 74.78 158.755 73.8817 159.415 72.855C160.075 71.8283 160.405 70.6367 160.405 69.28C160.405 67.0433 159.873 65.3933 158.81 64.33C157.783 63.23 156.427 62.68 154.74 62.68C153.273 62.68 152.063 63.12 151.11 64C150.157 64.88 149.68 66.0717 149.68 67.575ZM148.14 87.925C148.14 90.1617 148.745 91.9217 149.955 93.205C151.165 94.4883 152.742 95.13 154.685 95.13C156.628 95.13 158.132 94.6167 159.195 93.59C160.295 92.5633 160.845 91.2067 160.845 89.52C160.845 88.2 160.533 87.1 159.91 86.22C159.287 85.34 158.297 84.4783 156.94 83.635C155.583 82.7917 153.823 81.7833 151.66 80.61C150.23 81.6733 149.277 82.755 148.8 83.855C148.36 84.955 148.14 86.3117 148.14 87.925Z" fill="white"/>
<path d="M118.763 97H117.763V98H118.763V97ZM118.763 96.12L118.393 95.1908L117.763 95.4416V96.12H118.763ZM123.878 94.085L124.247 95.0142L124.878 94.7634V94.085H123.878ZM123.878 66.64H124.878V65.0642L123.452 65.7352L123.878 66.64ZM114.528 71.04H113.528V72.6158L114.953 71.9448L114.528 71.04ZM114.528 68.95L114.007 68.0962L113.528 68.3885V68.95H114.528ZM128.058 60.7V59.7H127.777L127.537 59.8462L128.058 60.7ZM130.533 60.7H131.533V59.7H130.533V60.7ZM130.533 94.085H129.533V94.7341L130.126 94.9984L130.533 94.085ZM135.098 96.12H136.098V95.4709L135.505 95.2066L135.098 96.12ZM135.098 97V98H136.098V97H135.098ZM119.763 97V96.12H117.763V97H119.763ZM119.132 97.0492L124.247 95.0142L123.508 93.1558L118.393 95.1908L119.132 97.0492ZM124.878 94.085V66.64H122.878V94.085H124.878ZM123.452 65.7352L114.102 70.1352L114.953 71.9448L124.303 67.5448L123.452 65.7352ZM115.528 71.04V68.95H113.528V71.04H115.528ZM115.048 69.8038L128.578 61.5538L127.537 59.8462L114.007 68.0962L115.048 69.8038ZM128.058 61.7H130.533V59.7H128.058V61.7ZM129.533 60.7V94.085H131.533V60.7H129.533ZM130.126 94.9984L134.691 97.0334L135.505 95.2066L130.94 93.1716L130.126 94.9984ZM134.098 96.12V97H136.098V96.12H134.098ZM135.098 96H118.763V98H135.098V96ZM148.415 96.505L148.764 95.5679L148.415 96.505ZM143.905 93.535L143.137 94.1752L143.146 94.1868L143.156 94.198L143.905 93.535ZM145.06 82.59L145.755 83.3094L145.761 83.3033L145.767 83.2971L145.06 82.59ZM149.57 79.4L150.05 80.2773L151.549 79.4573L150.1 78.552L149.57 79.4ZM144.675 75.055L143.833 75.5947L144.675 75.055ZM144.95 65.045L145.75 65.645L145.757 65.6355L144.95 65.045ZM149.295 61.47L149.735 62.3681L149.295 61.47ZM160.515 61.305L160.092 62.2112L160.1 62.2147L160.515 61.305ZM164.53 64.495L163.722 65.0845L163.727 65.0915L163.733 65.0984L164.53 64.495ZM164.145 73.295L164.842 74.0123L164.847 74.0072L164.852 74.0021L164.145 73.295ZM159.085 76.815L158.619 75.9301L156.996 76.7846L158.594 77.686L159.085 76.815ZM165.3 81.6L164.524 82.2313L164.532 82.2402L165.3 81.6ZM165.41 92.71L164.624 92.0922L164.619 92.098L164.615 92.104L165.41 92.71ZM160.79 96.285L161.195 97.1995L160.79 96.285ZM150.175 70.215L149.249 70.5936L150.175 70.215ZM152.155 72.69L151.507 73.4512L151.513 73.457L151.52 73.4627L152.155 72.69ZM156.72 75.55L156.254 76.4346L156.784 76.7143L157.281 76.3779L156.72 75.55ZM158.81 64.33L158.079 65.0123L158.091 65.0249L158.103 65.0371L158.81 64.33ZM151.11 64L150.432 63.2652L151.11 64ZM149.955 93.205L150.683 92.519L149.955 93.205ZM159.195 93.59L158.513 92.8589L158.506 92.8647L158.5 92.8706L159.195 93.59ZM156.94 83.635L157.468 82.7857H157.468L156.94 83.635ZM151.66 80.61L152.137 79.731L151.576 79.4266L151.063 79.8075L151.66 80.61ZM148.8 83.855L147.882 83.4574L147.877 83.4704L147.872 83.4836L148.8 83.855ZM154.63 96.55C152.459 96.55 150.508 96.2176 148.764 95.5679L148.066 97.4421C150.062 98.1857 152.254 98.55 154.63 98.55V96.55ZM148.764 95.5679C147.022 94.9191 145.665 94.0139 144.654 92.872L143.156 94.198C144.418 95.6228 146.068 96.6976 148.066 97.4421L148.764 95.5679ZM144.673 92.8948C143.727 91.7592 143.255 90.4473 143.255 88.915H141.255C141.255 90.9027 141.883 92.6708 143.137 94.1752L144.673 92.8948ZM143.255 88.915C143.255 87.9811 143.432 87.0376 143.795 86.0797L141.925 85.3703C141.482 86.539 141.255 87.7223 141.255 88.915H143.255ZM143.795 86.0797C144.133 85.189 144.767 84.2632 145.755 83.3094L144.365 81.8706C143.227 82.9702 142.394 84.1344 141.925 85.3703L143.795 86.0797ZM145.767 83.2971C146.74 82.3246 148.155 81.3144 150.05 80.2773L149.09 78.5227C147.099 79.6123 145.507 80.7287 144.353 81.8829L145.767 83.2971ZM150.1 78.552C147.809 77.1202 146.319 75.7663 145.517 74.5153L143.833 75.5947C144.865 77.2037 146.638 78.7464 149.04 80.248L150.1 78.552ZM145.517 74.5153C144.721 73.2745 144.3 71.7467 144.3 69.885H142.3C142.3 72.0566 142.795 73.9755 143.833 75.5947L145.517 74.5153ZM144.3 69.885C144.3 68.3508 144.774 66.9463 145.75 65.645L144.15 64.445C142.926 66.077 142.3 67.8992 142.3 69.885H144.3ZM145.757 65.6355C146.754 64.2725 148.073 63.1822 149.735 62.3681L148.855 60.5719C146.924 61.5178 145.346 62.8108 144.143 64.4545L145.757 65.6355ZM149.735 62.3681C151.391 61.5569 153.165 61.15 155.07 61.15V59.15C152.868 59.15 150.792 59.6231 148.855 60.5719L149.735 62.3681ZM155.07 61.15C156.917 61.15 158.586 61.5082 160.092 62.2112L160.938 60.3988C159.144 59.5618 157.183 59.15 155.07 59.15V61.15ZM160.1 62.2147C161.647 62.921 162.844 63.8805 163.722 65.0845L165.338 63.9055C164.236 62.3962 162.756 61.229 160.93 60.3953L160.1 62.2147ZM163.733 65.0984C164.626 66.279 165.07 67.6065 165.07 69.115H167.07C167.07 67.1769 166.487 65.4243 165.327 63.8916L163.733 65.0984ZM165.07 69.115C165.07 70.2997 164.575 71.4506 163.438 72.5879L164.852 74.0021C166.281 72.5728 167.07 70.937 167.07 69.115H165.07ZM163.448 72.5777C162.251 73.7404 160.65 74.8613 158.619 75.9301L159.551 77.6999C161.7 76.5687 163.472 75.343 164.842 74.0123L163.448 72.5777ZM158.594 77.686C161.404 79.271 163.354 80.7929 164.524 82.2313L166.076 80.9687C164.68 79.2538 162.486 77.5857 159.576 75.944L158.594 77.686ZM164.532 82.2402C165.65 83.5826 166.225 85.2195 166.225 87.21H168.225C168.225 84.8005 167.516 82.6974 166.068 80.9598L164.532 82.2402ZM166.225 87.21C166.225 89.1331 165.683 90.7438 164.624 92.0922L166.196 93.3278C167.557 91.5962 168.225 89.5402 168.225 87.21H166.225ZM164.615 92.104C163.551 93.4996 162.15 94.59 160.385 95.3705L161.195 97.1995C163.243 96.2934 164.922 95.0004 166.205 93.316L164.615 92.104ZM160.385 95.3705C158.613 96.1544 156.699 96.55 154.63 96.55V98.55C156.961 98.55 159.153 98.1023 161.195 97.1995L160.385 95.3705ZM148.68 67.575C148.68 68.6459 148.866 69.656 149.249 70.5936L151.101 69.8364C150.824 69.1607 150.68 68.4107 150.68 67.575H148.68ZM149.249 70.5936C149.662 71.603 150.45 72.5512 151.507 73.4512L152.803 71.9288C151.88 71.1421 151.348 70.4403 151.101 69.8364L149.249 70.5936ZM151.52 73.4627C152.623 74.3687 154.213 75.3587 156.254 76.4346L157.186 74.6654C155.194 73.6147 153.74 72.698 152.79 71.9173L151.52 73.4627ZM157.281 76.3779C158.515 75.5416 159.515 74.5495 160.256 73.3958L158.574 72.3142C157.995 73.2139 157.198 74.0184 156.159 74.7221L157.281 76.3779ZM160.256 73.3958C161.031 72.1901 161.405 70.8063 161.405 69.28H159.405C159.405 70.467 159.119 71.4665 158.574 72.3142L160.256 73.3958ZM161.405 69.28C161.405 66.9063 160.842 64.9482 159.517 63.6229L158.103 65.0371C158.904 65.8384 159.405 67.1804 159.405 69.28H161.405ZM159.541 63.6477C158.301 62.3195 156.667 61.68 154.74 61.68V63.68C156.187 63.68 157.265 64.1405 158.079 65.0123L159.541 63.6477ZM154.74 61.68C153.057 61.68 151.594 62.1922 150.432 63.2652L151.788 64.7348C152.532 64.0478 153.489 63.68 154.74 63.68V61.68ZM150.432 63.2652C149.24 64.3651 148.68 65.8411 148.68 67.575H150.68C150.68 66.3022 151.073 65.3949 151.788 64.7348L150.432 63.2652ZM147.14 87.925C147.14 90.3455 147.799 92.3761 149.227 93.891L150.683 92.519C149.691 91.4673 149.14 89.9779 149.14 87.925H147.14ZM149.227 93.891C150.647 95.3963 152.497 96.13 154.685 96.13V94.13C152.986 94.13 151.683 93.5804 150.683 92.519L149.227 93.891ZM154.685 96.13C156.803 96.13 158.587 95.5671 159.89 94.3094L158.5 92.8706C157.676 93.6662 156.453 94.13 154.685 94.13V96.13ZM159.877 94.3211C161.206 93.0814 161.845 91.4468 161.845 89.52H159.845C159.845 90.9665 159.384 92.0453 158.513 92.8589L159.877 94.3211ZM161.845 89.52C161.845 88.04 161.494 86.7257 160.726 85.642L159.094 86.798C159.573 87.4743 159.845 88.36 159.845 89.52H161.845ZM160.726 85.642C159.998 84.6141 158.888 83.6686 157.468 82.7857L156.412 84.4843C157.705 85.2881 158.575 86.0659 159.094 86.798L160.726 85.642ZM157.468 82.7857C156.088 81.928 154.309 80.9093 152.137 79.731L151.183 81.489C153.337 82.6574 155.079 83.6553 156.412 84.4843L157.468 82.7857ZM151.063 79.8075C149.556 80.9282 148.455 82.137 147.882 83.4574L149.718 84.2526C150.099 83.373 150.904 82.4185 152.257 81.4125L151.063 79.8075ZM147.872 83.4836C147.371 84.7361 147.14 86.2276 147.14 87.925H149.14C149.14 86.3958 149.349 85.1739 149.728 84.2264L147.872 83.4836Z" fill="black" mask="url(#path-12-outside-1_2541_63)"/>
</g>
<defs>
<filter id="filter0_bd_2541_63" x="110.528" y="56.15" width="60.6973" height="49.4" filterUnits="userSpaceOnUse" color-interpolation-filters="sRGB">
<feFlood flood-opacity="0" result="BackgroundImageFix"/>
<feGaussianBlur in="BackgroundImageFix" stdDeviation="2"/>
<feComposite in2="SourceAlpha" operator="in" result="effect1_backgroundBlur_2541_63"/>
<feColorMatrix in="SourceAlpha" type="matrix" values="0 0 0 0 0 0 0 0 0 0 0 0 0 0 0 0 0 0 127 0" result="hardAlpha"/>
<feOffset dy="4"/>
<feGaussianBlur stdDeviation="2"/>
<feComposite in2="hardAlpha" operator="out"/>
<feColorMatrix type="matrix" values="0 0 0 0 0 0 0 0 0 0 0 0 0 0 0 0 0 0 0.25 0"/>
<feBlend mode="normal" in2="effect1_backgroundBlur_2541_63" result="effect2_dropShadow_2541_63"/>
<feBlend mode="normal" in="SourceGraphic" in2="effect2_dropShadow_2541_63" result="shape"/>
</filter>
</defs>
</svg>
